<?xml version="1.0" encoding="utf-8"?>
<!-- Generator: Adobe Illustrator 17.0.0, SVG Export Plug-In . SVG Version: 6.00 Build 0)  -->
<!DOCTYPE svg PUBLIC "-//W3C//DTD SVG 1.1//EN" "http://www.w3.org/Graphics/SVG/1.1/DTD/svg11.dtd">
<svg version="1.1" xmlns="http://www.w3.org/2000/svg" xmlns:xlink="http://www.w3.org/1999/xlink" x="0px" y="0px"
	 width="22.781px" height="21.405px" viewBox="5.103 5.498 22.781 21.405" enable-background="new 5.103 5.498 22.781 21.405"
	 xml:space="preserve">
<g id="mech_x5F_2">
	<path id="path0_fill" fill="#E6E6E6" d="M6.979,9.278L19.43,21.747l3.497-3.497L10.476,5.781L6.949,5.748L6.979,9.278z"/>
	<path id="path1_stroke" d="M19.43,21.747l-0.177,0.177c0.098,0.098,0.256,0.098,0.353,0L19.43,21.747z M6.979,9.278L6.729,9.28
		C6.73,9.346,6.756,9.409,6.802,9.455L6.979,9.278z M6.949,5.748l0.002-0.25C6.884,5.498,6.82,5.524,6.772,5.572
		C6.725,5.619,6.698,5.683,6.699,5.751L6.949,5.748z M10.476,5.781l0.177-0.177c-0.046-0.046-0.109-0.073-0.174-0.073L10.476,5.781z
		 M22.927,18.25l0.177,0.177c0.098-0.098,0.098-0.256,0-0.354L22.927,18.25z M19.606,21.57L7.156,9.101L6.802,9.455l12.451,12.469
		L19.606,21.57z M7.229,9.276l-0.03-3.53l-0.5,0.004l0.03,3.53L7.229,9.276z M6.947,5.999l3.527,0.033l0.005-0.5L6.951,5.498
		L6.947,5.999z M10.299,5.958L22.75,18.427l0.354-0.354L10.653,5.604L10.299,5.958z M22.75,18.073l-3.497,3.497l0.353,0.354
		l3.497-3.497L22.75,18.073z"/>
	<path id="path2_fill" fill="#CC7E42" d="M21.2,22.363l2.354-2.354l2.767,2.771l-2.354,2.354L21.2,22.363z"/>
	<path id="path3_stroke" d="M21.2,22.363l-0.177-0.177c-0.098,0.098-0.098,0.256,0,0.354L21.2,22.363z M23.554,20.009l0.177-0.177
		c-0.098-0.098-0.256-0.098-0.353,0L23.554,20.009z M26.321,22.78l0.177,0.177c0.098-0.098,0.098-0.256,0-0.354L26.321,22.78z
		 M23.967,25.134l-0.177,0.177c0.098,0.098,0.256,0.098,0.353,0L23.967,25.134z M21.377,22.54l2.354-2.354l-0.353-0.354
		l-2.354,2.354L21.377,22.54z M23.377,20.186l2.767,2.771l0.354-0.354l-2.767-2.771L23.377,20.186z M26.144,22.603l-2.354,2.354
		l0.353,0.354l2.354-2.354L26.144,22.603z M24.144,24.957l-2.767-2.771l-0.354,0.354l2.767,2.771L24.144,24.957z"/>
	<path id="path4_fill" fill="#E0AF63" d="M18.793,23.653c-0.328-0.328-0.328-0.859,0-1.187l4.932-4.935
		c0.328-0.328,0.859-0.328,1.186,0l0,0c0.328,0.328,0.328,0.859,0,1.187l-4.932,4.935C19.652,23.98,19.121,23.98,18.793,23.653
		L18.793,23.653z"/>
	<path id="path5_stroke" d="M18.97,22.642l4.932-4.935l-0.353-0.354l-4.932,4.935L18.97,22.642z M24.735,18.541l-4.932,4.935
		l0.353,0.354l4.932-4.935L24.735,18.541z M18.617,22.289c-0.425,0.425-0.425,1.115,0,1.541l0.353-0.354
		c-0.23-0.23-0.23-0.603,0-0.833L18.617,22.289z M23.902,17.708c0.23-0.23,0.603-0.23,0.833,0l0.353-0.354
		c-0.425-0.425-1.114-0.426-1.54,0L23.902,17.708z M24.735,17.708c0.23,0.23,0.23,0.603,0,0.833l0.353,0.354
		c0.425-0.425,0.425-1.115,0-1.541L24.735,17.708z M19.803,23.476c-0.23,0.23-0.603,0.23-0.833,0l-0.353,0.354
		c0.425,0.425,1.114,0.426,1.54,0L19.803,23.476z"/>
	<path id="path6_fill" fill="#E0AF63" d="M25.921,25.98c-0.343-0.344-0.343-0.901,0-1.244l0.041-0.041
		c0.343-0.343,0.9-0.343,1.243,0l0,0c0.343,0.344,0.343,0.901,0,1.244l-0.041,0.041C26.821,26.324,26.264,26.324,25.921,25.98
		L25.921,25.98z"/>
	<path id="path7_stroke" d="M26.098,24.913l0.041-0.041l-0.353-0.354l-0.041,0.041L26.098,24.913z M27.029,25.763l-0.041,0.041
		l0.353,0.354l0.041-0.041L27.029,25.763z M25.745,24.559c-0.441,0.441-0.441,1.156-0.001,1.598l0.354-0.354
		c-0.246-0.246-0.245-0.645,0-0.89L25.745,24.559z M26.14,24.872c0.246-0.246,0.644-0.246,0.89,0l0.354-0.354
		c-0.441-0.441-1.156-0.442-1.597-0.001L26.14,24.872z M27.029,24.872c0.246,0.246,0.245,0.645,0,0.89l0.353,0.354
		c0.441-0.441,0.441-1.156,0.001-1.598L27.029,24.872z M26.988,25.804c-0.246,0.246-0.644,0.246-0.89,0l-0.354,0.354
		c0.441,0.441,1.156,0.442,1.597,0.001L26.988,25.804z"/>
	<path id="path8_fill" fill="#E0AF63" d="M24.093,26.198c-0.327-0.328-0.327-0.859,0-1.187l2.109-2.109
		c0.328-0.328,0.859-0.327,1.186,0l0,0c0.327,0.328,0.327,0.859,0,1.187l-2.109,2.109C24.951,26.526,24.42,26.526,24.093,26.198
		L24.093,26.198z"/>
	<path id="path9_stroke" d="M24.27,25.188l2.109-2.109l-0.353-0.354l-2.109,2.109L24.27,25.188z M27.211,23.913l-2.109,2.109
		l0.353,0.354l2.109-2.109L27.211,23.913z M23.917,24.834c-0.425,0.425-0.426,1.115-0.001,1.541l0.354-0.354
		c-0.23-0.23-0.23-0.603,0-0.833L23.917,24.834z M26.379,23.079c0.23-0.23,0.603-0.23,0.833,0l0.354-0.354
		c-0.425-0.426-1.114-0.426-1.54-0.001L26.379,23.079z M27.212,23.079c0.23,0.23,0.23,0.603,0,0.833l0.353,0.354
		c0.425-0.425,0.426-1.115,0.001-1.541L27.212,23.079z M25.102,26.021c-0.23,0.23-0.603,0.23-0.833,0l-0.354,0.354
		c0.425,0.426,1.114,0.426,1.54,0.001L25.102,26.021z"/>
	<path id="path10_stroke" d="M7.433,5.628c-0.098-0.097-0.257-0.097-0.355,0c-0.098,0.097-0.098,0.255,0,0.352L7.433,5.628z
		 M10.82,9.697c0.098,0.097,0.257,0.097,0.355,0c0.098-0.097,0.098-0.255,0-0.352L10.82,9.697z M7.078,5.98l3.742,3.717l0.355-0.352
		L7.433,5.628L7.078,5.98z"/>
	<path id="path10_stroke_1_" d="M12.532,10.714c-0.098-0.097-0.257-0.097-0.355,0c-0.098,0.097-0.098,0.255,0,0.352L12.532,10.714z
		 M15.919,14.783c0.098,0.097,0.257,0.097,0.355,0c0.098-0.097,0.098-0.255,0-0.352L15.919,14.783z M12.177,11.066l3.742,3.717
		l0.355-0.352l-3.742-3.717L12.177,11.066z"/>
	<path id="path10_stroke_2_" d="M17.732,15.801c-0.098-0.097-0.257-0.097-0.355,0c-0.098,0.097-0.098,0.255,0,0.352L17.732,15.801z
		 M21.119,19.87c0.098,0.097,0.257,0.097,0.355,0s0.098-0.255,0-0.352L21.119,19.87z M17.378,16.153l3.742,3.717l0.355-0.352
		l-3.742-3.717L17.378,16.153z"/>
</g>
<g id="mech_x5F_1">
	<path id="path11_fill" fill="#E6E6E6" d="M22.607,6.156L10.054,18.523l3.521,3.474L26.128,9.629l0.033-3.504L22.607,6.156z"/>
	<path id="path12_stroke" d="M10.054,18.523l-0.178-0.176c-0.098,0.097-0.098,0.254,0,0.351L10.054,18.523z M22.607,6.156
		l-0.002-0.248c-0.066,0.001-0.129,0.027-0.176,0.073L22.607,6.156z M26.161,6.126l0.252,0.002c0.001-0.067-0.026-0.131-0.074-0.178
		c-0.048-0.047-0.113-0.073-0.18-0.073L26.161,6.126z M26.128,9.629l0.178,0.176c0.047-0.046,0.073-0.108,0.074-0.173L26.128,9.629z
		 M13.575,21.997l-0.178,0.175c0.098,0.097,0.258,0.097,0.356,0L13.575,21.997z M10.232,18.698L22.785,6.331L22.429,5.98
		L9.876,18.347L10.232,18.698z M22.609,6.404l3.554-0.03l-0.004-0.496l-3.554,0.03L22.609,6.404z M25.909,6.124l-0.033,3.504
		l0.504,0.005l0.033-3.504L25.909,6.124z M25.95,9.454L13.397,21.821l0.356,0.351L26.306,9.805L25.95,9.454z M13.753,21.821
		l-3.521-3.474l-0.356,0.351l3.521,3.474L13.753,21.821z"/>
	<path id="path13_fill" fill="#CC7E42" d="M9.5,20.268l2.37,2.338l-2.79,2.748l-2.37-2.338L9.5,20.268z"/>
	<path id="path14_stroke" d="M9.5,20.268l0.178-0.175c-0.098-0.097-0.258-0.097-0.356,0L9.5,20.268z M11.87,22.606l0.178,0.176
		c0.098-0.097,0.098-0.254,0-0.351L11.87,22.606z M9.08,25.354L8.902,25.53c0.098,0.097,0.258,0.097,0.356,0L9.08,25.354z
		 M6.71,23.016l-0.178-0.176c-0.098,0.097-0.098,0.254,0,0.351L6.71,23.016z M9.322,20.443l2.37,2.338l0.356-0.351l-2.37-2.338
		L9.322,20.443z M11.692,22.431l-2.79,2.748l0.356,0.351l2.79-2.748L11.692,22.431z M9.258,25.179l-2.37-2.338l-0.356,0.351
		l2.37,2.338L9.258,25.179z M6.888,23.192l2.79-2.748l-0.356-0.351l-2.79,2.748L6.888,23.192z"/>
	<path id="path15_fill" fill="#E0AF63" d="M8.202,17.808c0.33-0.325,0.865-0.325,1.195,0l4.968,4.899c0.33,0.325,0.33,0.853,0,1.178
		l0,0c-0.33,0.325-0.865,0.325-1.195,0l-4.968-4.899C7.872,18.661,7.872,18.133,8.202,17.808L8.202,17.808z"/>
	<path id="path16_stroke" d="M9.219,17.984l4.968,4.899l0.356-0.351l-4.968-4.899L9.219,17.984z M13.348,23.71L8.38,18.811
		l-0.356,0.351l4.968,4.899L13.348,23.71z M9.575,17.633c-0.428-0.422-1.123-0.422-1.551,0l0.356,0.351
		c0.232-0.228,0.607-0.228,0.839,0L9.575,17.633z M14.187,22.883c0.232,0.228,0.232,0.599,0,0.827l0.356,0.351
		c0.428-0.422,0.428-1.107,0-1.529L14.187,22.883z M14.187,23.71c-0.232,0.228-0.607,0.228-0.839,0l-0.356,0.351
		c0.428,0.422,1.123,0.422,1.551,0L14.187,23.71z M8.38,18.811c-0.232-0.228-0.232-0.599,0-0.827l-0.356-0.351
		c-0.428,0.422-0.428,1.107,0,1.529L8.38,18.811z"/>
	<path id="path17_fill" fill="#E0AF63" d="M5.774,24.926c0.346-0.341,0.907-0.341,1.253,0l0.042,0.041
		c0.346,0.341,0.346,0.894,0,1.235l0,0c-0.346,0.341-0.907,0.341-1.253,0l-0.042-0.041C5.428,25.82,5.428,25.267,5.774,24.926
		L5.774,24.926z"/>
	<path id="path18_stroke" d="M6.848,25.102l0.042,0.041l0.356-0.351l-0.042-0.041L6.848,25.102z M5.993,26.027l-0.042-0.041
		l-0.356,0.351l0.042,0.041L5.993,26.027z M7.205,24.751c-0.444-0.438-1.164-0.438-1.609-0.001l0.356,0.351
		c0.248-0.244,0.649-0.244,0.896,0L7.205,24.751z M6.89,25.143c0.247,0.244,0.247,0.64,0,0.884l0.356,0.351
		C7.69,25.94,7.69,25.23,7.246,24.792L6.89,25.143z M6.89,26.027c-0.248,0.244-0.649,0.244-0.896,0l-0.356,0.351
		c0.444,0.438,1.164,0.438,1.609,0.001L6.89,26.027z M5.952,25.986c-0.247-0.244-0.247-0.64,0-0.884l-0.356-0.351
		c-0.444,0.438-0.445,1.148-0.001,1.586L5.952,25.986z"/>
	<path id="path19_fill" fill="#E0AF63" d="M5.602,23.138c0.33-0.325,0.865-0.325,1.195,0l2.123,2.095c0.33,0.325,0.33,0.853,0,1.178
		l0,0c-0.33,0.325-0.865,0.325-1.195,0l-2.123-2.095C5.272,23.991,5.272,23.463,5.602,23.138L5.602,23.138z"/>
	<path id="path20_stroke" d="M6.619,23.314l2.123,2.095l0.356-0.351l-2.123-2.095L6.619,23.314z M7.903,26.235L5.78,24.141
		l-0.356,0.351l2.123,2.095L7.903,26.235z M6.976,22.963c-0.428-0.422-1.123-0.423-1.551-0.001l0.356,0.351
		c0.232-0.228,0.607-0.228,0.839,0L6.976,22.963z M8.742,25.408c0.232,0.229,0.231,0.599,0,0.827l0.356,0.351
		c0.428-0.422,0.429-1.107,0.001-1.529L8.742,25.408z M8.742,26.236c-0.232,0.228-0.607,0.228-0.839,0l-0.356,0.351
		c0.428,0.422,1.123,0.423,1.551,0.001L8.742,26.236z M5.78,24.141c-0.232-0.229-0.231-0.599,0-0.827l-0.356-0.351
		c-0.428,0.422-0.429,1.107-0.001,1.529L5.78,24.141z"/>
	<path id="path10_stroke_3_" d="M26.277,6.588c0.098-0.097,0.098-0.255,0-0.352c-0.098-0.097-0.257-0.097-0.355,0L26.277,6.588z
		 M22.18,9.952c-0.098,0.097-0.098,0.255,0,0.352s0.257,0.097,0.355,0L22.18,9.952z M25.922,6.235L22.18,9.952l0.355,0.352
		l3.742-3.717L25.922,6.235z"/>
	<path id="path10_stroke_4_" d="M21.177,11.674c0.098-0.097,0.098-0.255,0-0.352s-0.257-0.097-0.355,0L21.177,11.674z
		 M17.081,15.038c-0.098,0.097-0.098,0.255,0,0.352s0.257,0.097,0.355,0L17.081,15.038z M20.823,11.321l-3.742,3.717l0.355,0.352
		l3.742-3.717L20.823,11.321z"/>
	<path id="path10_stroke_5_" d="M16.078,16.76c0.098-0.097,0.098-0.255,0-0.352s-0.257-0.097-0.355,0L16.078,16.76z M11.981,20.124
		c-0.098,0.097-0.098,0.255,0,0.352c0.098,0.097,0.257,0.097,0.355,0L11.981,20.124z M15.723,16.407l-3.742,3.717l0.355,0.352
		l3.742-3.717L15.723,16.407z"/>
</g>
</svg>
