<?xml version="1.0" encoding="utf-8"?>
<!-- Generator: Adobe Illustrator 17.0.0, SVG Export Plug-In . SVG Version: 6.00 Build 0)  -->
<!DOCTYPE svg PUBLIC "-//W3C//DTD SVG 1.1//EN" "http://www.w3.org/Graphics/SVG/1.1/DTD/svg11.dtd">
<svg version="1.1" id="Layer_1" xmlns="http://www.w3.org/2000/svg" xmlns:xlink="http://www.w3.org/1999/xlink" x="0px" y="0px"
	 width="197px" height="127px" viewBox="28 55 197 127" enable-background="new 28 55 197 127" xml:space="preserve">
<path id="path0_fill" fill="#FFE492" d="M28,55h197v127H28V55z"/>
<path id="path3_fill" fill="#FCDD84" fill-opacity="0.5" d="M99.949,84.828l0.283,35.796l27.162,10.723l-26.987,11.4l0.283,35.796
	l-16.962-28.751l-26.987,11.4l16.504-29.169l-16.962-28.751l27.162,10.723L99.949,84.828z"/>
<polygon fill="#FCDD84" points="108.629,110.301 154.343,128.348 108.923,147.534 109.195,181.937 122.013,181.937 121.835,159.43 
	196.123,128.049 121.353,98.531 121.01,55.031 108.192,55.031 "/>
<polygon fill="#FCDD84" points="28.063,61.7 28.063,97.702 47.065,129.912 28.063,163.497 28.063,181.937 68.553,181.937 
	75.922,178.824 77.759,181.937 94.153,181.937 80.853,159.392 35.433,178.579 63.209,129.487 34.663,81.099 80.376,99.147 
	105.337,55.031 89.434,55.031 75.143,80.287 "/>
<circle fill="none" stroke="#FFF1C8" stroke-width="0.5" stroke-miterlimit="10" cx="213.188" cy="94.938" r="4.87"/>
<circle fill="none" stroke="#FFF1C8" stroke-width="0.5" stroke-miterlimit="10" cx="210" cy="67" r="3.933"/>
<circle fill="none" stroke="#FFF1C8" stroke-width="0.5" stroke-miterlimit="10" cx="160.688" cy="62.938" r="3.495"/>
<circle fill="none" stroke="#FFF1C8" stroke-width="0.5" stroke-miterlimit="10" cx="219.333" cy="133.599" r="2.401"/>
<circle fill="none" stroke="#FFF1C8" stroke-width="0.5" stroke-miterlimit="10" cx="147.667" cy="138.5" r="2.068"/>
<circle fill="none" stroke="#FFF1C8" stroke-width="0.5" stroke-miterlimit="10" cx="159.625" cy="97.563" r="1.308"/>
<circle fill="none" stroke="#FFF1C8" stroke-width="0.5" stroke-miterlimit="10" cx="141.583" cy="67.667" r="1.308"/>
<path fill="#F5DA88" d="M42.328,165.94c0,0-0.536,4.189,8.488,4.7c8.025,0.454,13.08-2.578,12.799-5.627
	c-0.119-1.293-4.802,2.647-10.213,3.018C48.058,168.396,42.328,165.94,42.328,165.94z"/>
<path fill="#FFC556" d="M42.228,163.108c0,0-0.114,2.157,0.1,2.832c0.198,0.623,0.944,2.126,4.722,2.95s8.687,0.715,12.383-0.549
	c3.696-1.264,4.07-2.857,4.151-3.251c0.123-0.595-0.068-2.428-0.068-2.428s-0.422,3.582-9.457,4.213
	C45.796,167.451,43.372,164.844,42.228,163.108z"/>
<ellipse transform="matrix(-0.0185 -0.9998 0.9998 -0.0185 -108.5988 218.278)" fill="#FFD673" cx="52.843" cy="162.445" rx="4.705" ry="10.7"/>
<ellipse transform="matrix(-0.0185 -0.9998 0.9998 -0.0185 -108.4002 218.1914)" fill="none" stroke="#FFC556" stroke-width="0.5" stroke-miterlimit="10" cx="52.9" cy="162.304" rx="3.75" ry="9.695"/>
<path fill="#FFC556" d="M48.134,163.962l5.109,0.208c0,0-0.287-1.614,0.36-2.487c0.647-0.872,3.455-0.794,3.469,0.707
	s-1.405,1.257-1.435,1.266c-0.03,0.01-0.003,0.721-0.003,0.721s1.414,0.416,2.254-0.877c0.849-1.306-0.385-3.393-2.394-3.406
	c-2.37-0.016-3.234,1.028-3.328,2.113s-0.077,0.974-0.077,0.974l-2.811-0.014l0.01-2.076l-1.18,0.013L48.134,163.962z"/>
<path fill="#F5DA88" d="M212.293,169.464c0,0-4.611,2.784-13.601,2.784s-13.756-2.3-15.136-3.47
	c-1.38-1.171,16.641-3.261,16.641-3.261l7.944,0.669L212.293,169.464z"/>
<ellipse transform="matrix(-0.0137 -0.9999 0.9999 -0.0137 31.2543 357.9151)" fill="#FFD673" cx="192.148" cy="163.543" rx="4.685" ry="10.655"/>
<ellipse transform="matrix(-0.0137 -0.9999 0.9999 -0.0137 31.4521 357.8304)" fill="none" stroke="#FFC556" stroke-width="0.5" stroke-miterlimit="10" cx="192.205" cy="163.403" rx="3.734" ry="9.654"/>
<path fill="#FFC556" d="M187.451,165.032l5.086,0.231c0,0-0.278-1.609,0.37-2.475c0.648-0.866,3.445-0.774,3.451,0.721
	c0.007,1.495-1.405,1.245-1.435,1.254c-0.03,0.01-0.006,0.718-0.006,0.718s1.406,0.421,2.249-0.863
	c0.851-1.296-0.367-3.38-2.368-3.403c-2.36-0.027-3.225,1.008-3.324,2.088c-0.099,1.08-0.081,0.969-0.081,0.969l-2.799-0.028
	l0.019-2.067l-1.175,0.007L187.451,165.032z"/>
<path fill="#FFC556" d="M181.574,164.153c0,0-0.124,2.147,0.086,2.82c0.194,0.621,0.93,2.122,4.688,2.96s8.647,0.753,12.334-0.488
	c3.686-1.242,4.066-2.825,4.149-3.218c0.125-0.592-0.056-2.418-0.056-2.418s-0.437,3.565-9.438,4.15
	C185.106,168.495,182.705,165.887,181.574,164.153z"/>
<path opacity="0.3" fill="#893F0E" d="M197.48,167.376c0.803-0.195,2.529-0.666,3.021-1.221c0.648-0.732-0.481-2.007-0.481-2.007
	l0.37,0.112l-1.642-2.687c0,0-4.467-1.422-4.571,1.338c-0.105,2.76,3.303,4.425,3.303,4.425V167.376z"/>
<path fill="#CB8E1A" d="M197.507,169.804c1.159-0.296,3.405-1.015,4.676-2.384c0.158-0.171,0.314-0.33,0.468-0.483l-0.942-0.534
	l-0.855-0.842c-0.09,0.236-0.206,0.442-0.354,0.595c-0.533,0.547-2.026,0.976-3.016,1.211c0.014-0.001,0.023-0.002,0.023-0.002
	V169.804z"/>
<ellipse transform="matrix(0.4685 -0.8835 0.8835 0.4685 -33.3097 267.1533)" fill="#FFD673" cx="205.367" cy="161.259" rx="4.685" ry="10.655"/>
<ellipse transform="matrix(0.4685 -0.8835 0.8835 0.4685 -33.1632 267.2064)" fill="none" stroke="#FFC556" stroke-width="0.5" stroke-miterlimit="10" cx="205.485" cy="161.164" rx="3.734" ry="9.654"/>
<path fill="#FFC556" d="M200.534,160.308l4.35,2.647c0,0,0.529-1.545,1.514-1.992c0.985-0.448,3.393,0.976,2.68,2.291
	s-1.831,0.416-1.861,0.41c-0.031-0.006-0.35,0.626-0.35,0.626s1.031,1.044,2.387,0.324c1.369-0.728,1.302-3.141-0.441-4.122
	c-2.057-1.158-3.313-0.666-3.918,0.234s-0.537,0.811-0.537,0.811l-2.441-1.369l1.01-1.804l-1.034-0.558L200.534,160.308z"/>
<path fill="#FFC556" d="M195.801,156.713c0,0-1.14,1.823-1.28,2.515c-0.128,0.638-0.204,2.308,2.689,4.848
	c2.893,2.54,7.221,4.816,11.051,5.498c3.829,0.683,4.923-0.524,5.185-0.828c0.394-0.459,1.113-2.148,1.113-2.148
	s-2.097,2.916-10.271-0.895C196.813,162.218,195.96,158.777,195.801,156.713z"/>
</svg>
