<?xml version="1.0" encoding="utf-8"?>
<!-- Generator: Adobe Illustrator 17.0.0, SVG Export Plug-In . SVG Version: 6.00 Build 0)  -->
<!DOCTYPE svg PUBLIC "-//W3C//DTD SVG 1.1//EN" "http://www.w3.org/Graphics/SVG/1.1/DTD/svg11.dtd">
<svg version="1.1" id="Layer_2" xmlns="http://www.w3.org/2000/svg" xmlns:xlink="http://www.w3.org/1999/xlink" x="0px" y="0px"
	 width="24.803px" height="19px" viewBox="0 0 24.803 19" enable-background="new 0 0 24.803 19" xml:space="preserve">
<path fill="#B7B7B7" d="M19.205,10.272c-1.418,1.793-3.381,3.489-5.042,4.784c-0.825,0.644-1.551,1.167-2.083,1.538
	c-0.11,0.077-0.204,0.141-0.294,0.203c-0.171-0.117-0.365-0.249-0.604-0.417c-0.716-0.503-1.681-1.206-2.732-2.049
	c-2.129-1.706-4.449-3.858-5.598-5.834C1.74,6.585,1.835,5.021,2.463,3.976c0.64-1.067,1.983-1.845,3.867-1.865
	c1.83-0.019,2.94,0.717,3.606,1.427c0.354,0.371,0.561,0.705,0.719,1.005c0.074,0.138,0.117,0.234,0.151,0.318
	c0.015,0.036,0.023,0.056,0.03,0.076c0.003,0.007,0.003,0.009,0.005,0.012c0,0.001,0,0,0-0.001c0,0-0.001-0.002-0.001-0.002
	c0,0-0.001-0.002-0.001-0.002c0,0,0-0.001,0-0.001l0,0c0.135,0.408,0.515,0.685,0.945,0.686c0.43,0.002,0.813-0.272,0.951-0.679l0,0
	c0,0,0,0,0,0.001c0,0-0.001,0.002,0,0.001c0,0-0.001,0.003-0.001,0.002c0,0-0.001,0.002-0.001,0.002
	c-0.001,0.002,0.001-0.002,0.002-0.005c0.004-0.012,0.008-0.022,0.017-0.044c0.021-0.053,0.047-0.112,0.091-0.202
	c0.097-0.2,0.223-0.43,0.434-0.713c0.445-0.61,1.025-1.206,2.06-1.567c0.518-0.192,0.782-0.768,0.59-1.285s-0.768-0.782-1.286-0.59
	c-1.318,0.511-2.277,1.389-2.844,2.102c-0.123-0.16-0.255-0.323-0.403-0.482C10.4,1.11,8.775,0.086,6.309,0.111
	C3.896,0.136,1.824,1.154,0.748,2.947C-0.341,4.76-0.263,7.119,1.124,9.503c1.351,2.321,3.931,4.669,6.076,6.388
	c1.087,0.871,2.103,1.612,2.833,2.125c0.368,0.258,0.672,0.465,0.879,0.604c0.105,0.07,0.188,0.125,0.244,0.162
	c0.028,0.019,0.051,0.033,0.065,0.043c0.008,0.005,0.014,0.009,0.018,0.011c0.002,0.001,0.004,0.003,0.005,0.003
	c0.001,0,0.001,0.001,0.001,0.001c0,0,0,0,0,0c0,0,0,0,0.542-0.84c0.542,0.841,0.542,0.84,0.542,0.84c0,0,0,0,0,0
	c0,0,0.001,0,0.001-0.001c0.001,0,0.002-0.001,0.004-0.002c0.003-0.002,0.007-0.005,0.013-0.008
	c0.011-0.007,0.027-0.018,0.048-0.031c0.04-0.026,0.102-0.067,0.179-0.118c0.152-0.101,0.376-0.254,0.651-0.445
	c0.544-0.379,1.313-0.934,2.169-1.601c1.701-1.327,3.838-3.184,5.378-5.117c0.343-0.433,0.271-1.062-0.161-1.405
	C20.178,9.767,19.549,9.84,19.205,10.272z"/>
<path fill="#B7B7B7" d="M12.33,18.841L11.788,18l-0.542,0.841C11.576,19.053,12,19.053,12.33,18.841z"/>
<path fill="#B7B7B7" d="M23.803,3.325h-2.5V1c0-0.552-0.448-1-1-1s-1,0.448-1,1v2.325h-2.5c-0.552,0-1,0.448-1,1s0.448,1,1,1h2.5V8
	c0,0.552,0.448,1,1,1s1-0.448,1-1V5.325h2.5c0.552,0,1-0.448,1-1S24.355,3.325,23.803,3.325z"/>
</svg>
