<?xml version="1.0" encoding="utf-8"?>
<!-- Generator: Adobe Illustrator 17.0.0, SVG Export Plug-In . SVG Version: 6.00 Build 0)  -->
<!DOCTYPE svg PUBLIC "-//W3C//DTD SVG 1.1//EN" "http://www.w3.org/Graphics/SVG/1.1/DTD/svg11.dtd">
<svg version="1.1" id="Layer_2" xmlns="http://www.w3.org/2000/svg" xmlns:xlink="http://www.w3.org/1999/xlink" x="0px" y="0px"
	 width="60px" height="60px" viewBox="10 9 60 60" enable-background="new 10 9 60 60" xml:space="preserve">
<path id="path0_fill" fill="#FFFFFF" d="M70,39c0,16.569-13.431,30-30,30S10,55.569,10,39S23.431,9,40,9S70,22.431,70,39z"/>
<path id="path1_fill" fill="#FFB54A" d="M66,39c0,14.359-11.641,26-26,26S14,53.359,14,39s11.641-26,26-26S66,24.641,66,39z"/>
<path id="path3_fill" fill="#FFFFFF" d="M51,38c0,5.523-4.925,10-11,10c-6.075,0-11-4.477-11-10c0-5.523,4.925-10,11-10
	C46.075,28,51,32.477,51,38z"/>
<path id="path4_fill_2_" fill="#FFB54A" d="M46,37.5c0,0.828-0.672,1.5-1.5,1.5c-0.828,0-1.5-0.672-1.5-1.5
	c0-0.828,0.672-1.5,1.5-1.5C45.328,36,46,36.672,46,37.5z"/>
<path id="path4_fill_1_" fill="#FFB54A" d="M41,37.5c0,0.828-0.672,1.5-1.5,1.5c-0.828,0-1.5-0.672-1.5-1.5
	c0-0.828,0.672-1.5,1.5-1.5C40.328,36,41,36.672,41,37.5z"/>
<path id="path4_fill" fill="#FFB54A" d="M36,37.5c0,0.828-0.672,1.5-1.5,1.5c-0.828,0-1.5-0.672-1.5-1.5c0-0.828,0.672-1.5,1.5-1.5
	C35.328,36,36,36.672,36,37.5z"/>
<path id="path0_fill_1_" fill="#FFFFFF" d="M30.268,48.106l1.687-5.758l4.575,3.945L30.268,48.106z"/>
</svg>
