<?xml version="1.0" encoding="utf-8"?>
<!-- Generator: Adobe Illustrator 17.0.0, SVG Export Plug-In . SVG Version: 6.00 Build 0)  -->
<!DOCTYPE svg PUBLIC "-//W3C//DTD SVG 1.1//EN" "http://www.w3.org/Graphics/SVG/1.1/DTD/svg11.dtd">
<svg version="1.1" id="Layer_3" xmlns="http://www.w3.org/2000/svg" xmlns:xlink="http://www.w3.org/1999/xlink" x="0px" y="0px"
	 width="118px" height="72px" viewBox="108 164 118 72" enable-background="new 108 164 118 72" xml:space="preserve">
<path id="path0_fill" fill="#FFFFFF" d="M108.71,215.687c-0.99,0.9-0.903,18.077,0,19.02c1.76,1.838,8.154,1.132,9.615,0.614
	c1.461-0.518,1.14-2.27,1.14-2.27s-6.236,0.583-7.15,0c-0.913-0.583-2.1-6.354,0-6.994c2.1-0.641,3.128,0.209,4.561,0
	c1.433-0.209,1.233-2.27,1.233-2.27s-4.278,0.387-5.794,0c-1.515-0.387-0.881-5.374,0-6.442c0.881-1.068,6.718,0,6.718,0
	s0.755-1.839-0.924-2.27C116.429,214.642,111.005,213.601,108.71,215.687z M127.385,220.688c0.276-0.019,0.552,0.021,0.81,0.12
	c0.258,0.098,0.492,0.251,0.684,0.448c0.362,0.445,0.543,1.008,0.508,1.58c-0.007,0.47-0.09,0.936-0.247,1.38
	c0.361,0.247,0.795,0.366,1.233,0.337c0.638,0.033,1.267-0.163,1.772-0.552c0.225-0.198,0.402-0.445,0.517-0.721
	c0.115-0.276,0.165-0.575,0.146-0.874c0-1.186-0.467-2.04-1.402-2.562c-0.935-0.521-2.132-0.782-3.59-0.782
	c-1.429-0.043-2.837,0.347-4.037,1.12c-0.531,0.34-0.964,0.811-1.255,1.368c-0.292,0.557-0.433,1.18-0.409,1.807
	c-0.024,0.772,0.18,1.535,0.586,2.193c0.368,0.58,0.844,1.085,1.402,1.488c0.701,0.487,1.426,0.937,2.173,1.35
	c0.9,0.458,1.743,1.019,2.512,1.672c0.269,0.247,0.481,0.549,0.622,0.885c0.141,0.336,0.207,0.699,0.195,1.063
	c0.023,0.319-0.018,0.64-0.121,0.943c-0.103,0.303-0.266,0.582-0.48,0.821c-0.483,0.382-1.08,0.593-1.697,0.598
	c-0.617,0.005-1.218-0.194-1.708-0.568c-0.208-0.199-0.371-0.441-0.478-0.708c-0.106-0.267-0.154-0.554-0.139-0.841
	c0.007-0.47,0.09-0.937,0.247-1.381c-0.361-0.246-0.795-0.365-1.233-0.337c-0.633-0.035-1.258,0.162-1.757,0.552
	c-0.221,0.201-0.394,0.448-0.506,0.724c-0.112,0.276-0.16,0.574-0.141,0.871c-0.031,0.528,0.098,1.052,0.369,1.507
	c0.272,0.454,0.675,0.816,1.156,1.04c1.181,0.546,2.474,0.809,3.775,0.767c1.726,0,3.148-0.419,4.268-1.258
	c1.12-0.839,1.68-2.035,1.68-3.589c0.023-0.772-0.18-1.535-0.586-2.193c-0.369-0.58-0.844-1.085-1.402-1.488
	c-0.697-0.482-1.423-0.922-2.173-1.319c-0.9-0.458-1.743-1.019-2.512-1.672c-0.269-0.247-0.481-0.549-0.622-0.885
	c-0.141-0.336-0.207-0.699-0.194-1.063c-0.016-0.254,0.026-0.509,0.122-0.745c0.096-0.236,0.244-0.448,0.433-0.62
	C126.324,220.83,126.85,220.661,127.385,220.688z M136.384,221.056v11.903c0,1.882,0.832,2.822,2.496,2.822
	c0.542,0.01,1.074-0.146,1.525-0.445c0.206-0.128,0.384-0.296,0.524-0.494c0.14-0.197,0.24-0.421,0.293-0.657
	c-0.21-0.021-0.413-0.083-0.598-0.184c-0.185-0.1-0.348-0.236-0.48-0.399c-0.255-0.414-0.374-0.896-0.339-1.38v-11.167h2.897v-1.38
	h-2.835v-3.037h-0.955c-0.608,0.767-1.318,1.449-2.111,2.025c-0.811,0.602-1.696,1.097-2.635,1.473l0.031,0.92H136.384z
	 M151.607,216.608c1.644,0,2.465,0.931,2.465,2.792c0.008,0.522-0.075,1.041-0.246,1.534c0.349,0.327,0.883,0.491,1.602,0.491
	c0.325,0.016,0.65-0.037,0.953-0.156c0.303-0.119,0.577-0.301,0.803-0.534c0.443-0.491,0.675-1.135,0.647-1.795
	c0-1.554-0.539-2.689-1.618-3.405s-2.522-1.074-4.33-1.074c-2.815,0-4.854,0.987-6.117,2.96c-1.264,1.973-1.895,4.596-1.895,7.869
	c0,3.293,0.591,5.9,1.772,7.823c1.181,1.923,3.169,2.884,5.963,2.884c0.973,0.006,1.939-0.166,2.851-0.506
	c0.844-0.303,1.597-0.815,2.188-1.488c0.566-0.656,0.868-1.498,0.847-2.362c0.017-0.402-0.079-0.8-0.277-1.15
	c-0.22-0.322-0.548-0.556-0.924-0.66c-0.277,0.966-0.848,1.823-1.633,2.454c-0.784,0.601-1.753,0.915-2.743,0.89
	c-1.705,0-2.825-0.731-3.359-2.193c-0.534-1.462-0.801-3.41-0.801-5.844s0.252-4.464,0.755-6.089
	C149.014,217.421,150.046,216.608,151.607,216.608z M168.988,233.91c0.058,0.527,0.31,1.014,0.709,1.365
	c0.413,0.346,0.94,0.526,1.479,0.506c0.379,0.007,0.755-0.077,1.094-0.245c0.309-0.155,0.562-0.401,0.724-0.705
	c-0.637-0.348-0.955-1.023-0.955-2.025v-7.976c0.042-1.131-0.13-2.261-0.508-3.328c-0.312-0.799-0.911-1.454-1.68-1.841
	c-0.781-0.399-1.849-0.598-3.205-0.598c-1.849,0-3.328,0.312-4.438,0.936c-1.109,0.624-1.664,1.426-1.664,2.408
	c-0.019,0.297,0.029,0.595,0.141,0.871c0.112,0.276,0.285,0.524,0.506,0.724c0.499,0.391,1.123,0.587,1.757,0.552
	c0.437,0.028,0.871-0.091,1.233-0.337c-0.156-0.444-0.24-0.91-0.247-1.38c-0.015-0.3,0.042-0.6,0.165-0.874
	c0.123-0.275,0.309-0.516,0.544-0.706c0.511-0.391,1.143-0.592,1.787-0.567c0.863,0,1.448,0.25,1.757,0.752
	c0.308,0.501,0.462,1.263,0.462,2.285v2.669c-5.937,0-8.906,1.657-8.906,4.97c-0.021,0.628,0.096,1.253,0.344,1.83
	c0.248,0.578,0.619,1.094,1.089,1.514c0.977,0.867,2.251,1.328,3.559,1.288c0.874,0.014,1.741-0.158,2.542-0.506
	C168.01,235.169,168.612,234.612,168.988,233.91z M165.937,233.94c-0.341,0.018-0.682-0.038-0.999-0.165
	c-0.317-0.127-0.602-0.322-0.835-0.571c-0.462-0.548-0.699-1.249-0.663-1.963c0-2.209,1.736-3.313,5.208-3.313v2.423
	c0.033,0.902-0.203,1.793-0.678,2.562c-0.218,0.335-0.521,0.606-0.878,0.787C166.736,233.88,166.337,233.963,165.937,233.94z
	 M181.038,220.688c0.276-0.019,0.552,0.021,0.81,0.12c0.258,0.098,0.492,0.251,0.684,0.448c0.362,0.445,0.543,1.008,0.508,1.58
	c-0.007,0.47-0.09,0.936-0.247,1.38c0.361,0.247,0.795,0.366,1.233,0.337c0.638,0.033,1.267-0.163,1.772-0.552
	c0.225-0.198,0.402-0.445,0.517-0.721c0.115-0.276,0.165-0.575,0.146-0.874c0-1.186-0.467-2.04-1.402-2.562
	c-0.935-0.521-2.132-0.782-3.59-0.782c-1.429-0.043-2.837,0.347-4.037,1.12c-0.531,0.34-0.964,0.811-1.255,1.368
	c-0.292,0.557-0.433,1.18-0.409,1.807c-0.024,0.772,0.18,1.535,0.586,2.193c0.368,0.58,0.844,1.086,1.402,1.488
	c0.7,0.487,1.426,0.937,2.173,1.35c0.9,0.458,1.743,1.019,2.512,1.672c0.269,0.247,0.481,0.549,0.622,0.885s0.207,0.699,0.195,1.063
	c0.023,0.319-0.018,0.64-0.121,0.943c-0.103,0.303-0.266,0.582-0.48,0.821c-0.483,0.382-1.08,0.593-1.697,0.598
	c-0.617,0.005-1.218-0.194-1.708-0.568c-0.208-0.199-0.371-0.44-0.478-0.708c-0.106-0.267-0.154-0.554-0.139-0.841
	c0.007-0.47,0.09-0.937,0.246-1.381c-0.361-0.246-0.795-0.365-1.233-0.337c-0.633-0.035-1.258,0.162-1.757,0.552
	c-0.221,0.201-0.394,0.448-0.506,0.724c-0.112,0.276-0.16,0.574-0.141,0.871c-0.031,0.528,0.098,1.052,0.37,1.507
	c0.272,0.454,0.675,0.816,1.156,1.04c1.181,0.546,2.474,0.809,3.775,0.767c1.726,0,3.148-0.419,4.268-1.258
	c1.12-0.839,1.68-2.035,1.68-3.589c0.023-0.772-0.18-1.535-0.586-2.193c-0.369-0.58-0.845-1.084-1.402-1.488
	c-0.698-0.482-1.423-0.922-2.173-1.319c-0.9-0.457-1.743-1.019-2.512-1.672c-0.269-0.247-0.481-0.549-0.622-0.885
	c-0.141-0.336-0.207-0.699-0.194-1.063c-0.016-0.254,0.026-0.509,0.122-0.745c0.096-0.236,0.244-0.448,0.433-0.62
	C179.977,220.83,180.503,220.661,181.038,220.688z M191.454,213.233c-0.601-0.024-1.193,0.154-1.68,0.506
	c-0.22,0.172-0.396,0.394-0.511,0.648c-0.115,0.254-0.167,0.532-0.152,0.81c-0.016,0.267,0.031,0.534,0.139,0.779
	c0.107,0.245,0.271,0.462,0.478,0.632c0.471,0.347,1.048,0.52,1.633,0.491c0.611,0.027,1.213-0.152,1.71-0.506
	c0.22-0.172,0.396-0.394,0.511-0.648c0.115-0.254,0.167-0.531,0.151-0.81c0.015-0.268-0.034-0.536-0.144-0.782
	c-0.11-0.245-0.277-0.461-0.488-0.629C192.625,213.379,192.044,213.206,191.454,213.233z M192.748,221.209
	c-0.516-0.909-3.082-1.534-3.082-1.534v13.222c-0.044,0.684,0.165,1.36,0.585,1.902c0.39,0.45,0.976,0.982,1.757,0.982
	c0.414,0.004,0.823-0.08,1.202-0.245c0.34-0.137,0.623-0.386,0.801-0.705c-0.637-0.348-0.955-1.023-0.955-2.025
	C193.056,232.805,193.263,222.119,192.748,221.209z M196.939,235.628c0,0,3.39-0.014,3.698-1.841c0.308-1.826,0-6.442,0-6.442
	c-0.046-1.447,0.168-2.891,0.632-4.264c0.421-1.104,1.258-1.657,2.512-1.657c0.986,0,1.623,0.317,1.911,0.951
	c0.288,0.634,0.432,1.595,0.432,2.884v7.945c-0.044,0.684,0.165,1.36,0.586,1.902c0.39,0.45,0.986,0.675,1.787,0.675
	c0.403,0.002,0.802-0.082,1.171-0.245c0.34-0.137,0.623-0.386,0.801-0.705c-0.637-0.348-0.955-1.023-0.955-2.025v-7.976
	c0-1.943-0.339-3.39-1.017-4.341c-0.678-0.951-1.88-1.426-3.606-1.426c-1.005-0.023-1.994,0.243-2.851,0.767
	c-0.829,0.532-1.462,1.318-1.803,2.24l-0.154-2.761c0,0-2.105,0.071-2.835,1.902C196.518,223.041,196.939,235.628,196.939,235.628z
	 M219.22,219.062c-2.28,0-3.975,0.787-5.085,2.362c-1.109,1.575-1.664,3.63-1.664,6.166c0,2.618,0.54,4.673,1.618,6.166
	c1.079,1.493,2.789,2.239,5.131,2.239c2.383,0,4.109-0.782,5.178-2.347c1.068-1.564,1.602-3.686,1.602-6.365
	c0-2.516-0.555-4.515-1.664-5.997C223.226,219.803,221.521,219.062,219.22,219.062z M219.22,234.155c-1.274,0-2.1-0.624-2.481-1.871
	c-0.422-1.58-0.614-3.213-0.57-4.847c0-4.356,1.017-6.534,3.051-6.534c1.212,0,2.029,0.634,2.45,1.902
	c0.455,1.501,0.668,3.065,0.632,4.632c0.045,1.635-0.153,3.269-0.586,4.847C221.326,233.531,220.494,234.155,219.22,234.155z
	 M189.57,178.816c-0.196,1.432-1.24,2.295-2.219,2.209c-0.979-0.087-4.954-7.608-6.716-6.686c-1.762,0.922-5.627,6.952-6.78,6.623
	c-1.153-0.329-5.905-7.266-6.78-6.623c-0.875,0.644-5.917,7.04-6.716,6.686c-0.799-0.354-1.92-3.515-6.843-6.686
	c-1.588-1.023-5.124,5.99-6.716,6.686s-2.759-0.539-2.219-2.209c0.54-1.67,7.76-9.981,8.934-8.767
	c1.174,1.215,5.104,6.558,6.78,6.623c1.676,0.065,5.085-6.015,6.78-6.623c1.695-0.607,5.518,6.363,6.78,6.623
	c1.262,0.26,4.644-6.363,6.78-6.623c2.136-0.26,9.13,7.335,8.935,8.767H189.57z M153.549,164.001c0.39,0.029,0.763,0.17,1.073,0.407
	c0.31,0.237,0.544,0.558,0.674,0.926c0.129,0.367,0.148,0.764,0.054,1.142c-0.094,0.378-0.297,0.72-0.583,0.985
	c-0.286,0.265-0.644,0.441-1.03,0.506c-0.385,0.065-0.781,0.017-1.14-0.138c-0.358-0.156-0.663-0.412-0.878-0.737
	c-0.214-0.326-0.328-0.706-0.328-1.095c0.021-0.549,0.26-1.067,0.665-1.441S152.997,163.982,153.549,164.001z M167.108,164.001
	c0.39,0.029,0.763,0.17,1.073,0.407c0.31,0.237,0.544,0.558,0.674,0.926s0.148,0.764,0.054,1.142s-0.297,0.72-0.583,0.985
	c-0.286,0.265-0.644,0.441-1.03,0.506c-0.385,0.065-0.782,0.017-1.14-0.138c-0.358-0.156-0.663-0.412-0.878-0.737
	c-0.214-0.326-0.328-0.706-0.328-1.095c0.021-0.549,0.26-1.067,0.664-1.441C166.02,164.181,166.557,163.982,167.108,164.001z
	 M180.668,164.001c0.39,0.029,0.763,0.17,1.073,0.407c0.31,0.237,0.544,0.558,0.674,0.926c0.129,0.367,0.148,0.764,0.054,1.142
	s-0.296,0.72-0.583,0.985c-0.286,0.265-0.644,0.441-1.03,0.506c-0.385,0.065-0.782,0.017-1.14-0.138
	c-0.358-0.156-0.663-0.412-0.877-0.737c-0.214-0.326-0.328-0.706-0.328-1.095c0.021-0.549,0.26-1.067,0.665-1.441
	C179.58,164.181,180.116,163.982,180.668,164.001z M183.425,187.154c1.52,0.036,0.066,1.629-2.152,2.142
	c-2.218,0.514-8.592-2.441-14.198-2.441s-12.65,2.227-14.197,2.441c-1.547,0.213-2.951-0.774-2.152-2.142s10.928-3.43,16.349-3.366
	C172.497,183.852,181.905,187.118,183.425,187.154z M177.894,192.838c1.396,0.672-10.872,9.57-10.784,11.047
	c0.088,1.477-12.269-10.313-10.785-11.047C157.809,192.104,176.497,192.166,177.894,192.838z M170.806,195.906
	c-1.05,1.26-2.673,2.942-3.698,3.681c-1.025,0.739-3.538-2.169-3.698-3.681C163.25,194.393,171.854,194.646,170.806,195.906z"/>
</svg>
