<?xml version="1.0" encoding="utf-8"?>
<!-- Generator: Adobe Illustrator 17.0.0, SVG Export Plug-In . SVG Version: 6.00 Build 0)  -->
<!DOCTYPE svg PUBLIC "-//W3C//DTD SVG 1.1//EN" "http://www.w3.org/Graphics/SVG/1.1/DTD/svg11.dtd">
<svg version="1.1" id="Layer_2" xmlns="http://www.w3.org/2000/svg" xmlns:xlink="http://www.w3.org/1999/xlink" x="0px" y="0px"
	 width="12.5px" height="14.832px" viewBox="13 11.168 12.5 14.832" enable-background="new 13 11.168 12.5 14.832"
	 xml:space="preserve">
<path id="path2_stroke" fill="#FFFFFF" d="M24.5,17.866l-0.25-0.433L24.5,17.866z M24.25,17.433l-7.5,4.33l0.5,0.866l7.5-4.33
	L24.25,17.433z M16,21.33v-8.66h-1v8.66H16z M16.75,12.237l7.5,4.33l0.5-0.866l-7.5-4.33L16.75,12.237z M24.75,18.299
	c1-0.577,1-2.021,0-2.598l-0.5,0.866c0.333,0.192,0.333,0.674,0,0.866L24.75,18.299z M16.75,21.763
	C16.417,21.956,16,21.715,16,21.33h-1c0,1.155,1.25,1.876,2.25,1.299L16.75,21.763z M16,12.67c0-0.385,0.417-0.625,0.75-0.433
	l0.5-0.866c-1-0.577-2.25,0.144-2.25,1.299H16z"/>
<path id="path3_fill" fill="#FFFFFF" d="M15,25c0,0.552-0.448,1-1,1c-0.552,0-1-0.448-1-1c0-0.552,0.448-1,1-1
	C14.552,24,15,24.448,15,25z"/>
<path id="path4_stroke" fill="#FFFFFF" d="M18.971,14.445c-0.23-0.153-0.54-0.091-0.693,0.139c-0.153,0.23-0.091,0.54,0.139,0.693
	L18.971,14.445z M20.584,16.723c0.23,0.153,0.54,0.091,0.693-0.139c0.153-0.23,0.091-0.54-0.139-0.693L20.584,16.723z
	 M18.416,15.277l2.168,1.445l0.555-0.832l-2.168-1.445L18.416,15.277z"/>
</svg>
