<?xml version="1.0" encoding="utf-8"?>
<!-- Generator: Adobe Illustrator 17.0.0, SVG Export Plug-In . SVG Version: 6.00 Build 0)  -->
<!DOCTYPE svg PUBLIC "-//W3C//DTD SVG 1.1//EN" "http://www.w3.org/Graphics/SVG/1.1/DTD/svg11.dtd">
<svg version="1.1" id="Layer_2" xmlns="http://www.w3.org/2000/svg" xmlns:xlink="http://www.w3.org/1999/xlink" x="0px" y="0px"
	 width="373.319px" height="194.021px" viewBox="123 85.984 373.319 194.021" enable-background="new 123 85.984 373.319 194.021"
	 xml:space="preserve">
<path fill="#7F9EE2" fill-opacity="0.5" d="M431.36,279.99c21.03-26.644,33.568-60.203,33.568-96.67
	c0-36.772-12.752-70.586-34.1-97.336H182.741c-21.349,26.75-34.1,60.564-34.1,97.336c0,36.466,12.539,70.026,33.568,96.67H431.36z"
	/>
<path id="path0_fill" fill="#8DB1FF" d="M123,91c0-2.761,2.239-5,5-5h363.319c2.761,0,5,2.239,5,5v184c0,2.761-2.239,5-5,5H128
	c-2.761,0-5-2.239-5-5V91z"/>
<path id="path1_fill" fill="#8DB1FF" d="M124.16,91c0-2.761,2.239-5,5-5h362c2.761,0,5,2.239,5,5v184c0,2.761-2.239,5-5,5h-362
	c-2.761,0-5-2.239-5-5V91z"/>
<path fill="#7F9EE2" fill-opacity="0.5" d="M374.261,86.01H239.313c-31.144,21.302-51.563,56.937-51.563,97.31
	c0,39.979,20.022,75.315,50.656,96.685h136.761c30.634-21.37,50.657-56.706,50.657-96.685
	C425.824,142.948,405.405,107.313,374.261,86.01z"/>
<path id="path2_fill" fill="#7F9EE2" fill-opacity="0.5" d="M364.942,183.819c0,32.145-26.263,58.204-58.66,58.204
	s-58.659-26.059-58.659-58.204c0-32.145,26.263-58.204,58.659-58.204S364.942,151.674,364.942,183.819z"/>
<path id="path3_fill" fill="#7F9EE2" fill-opacity="0.5" d="M392.889,183.32c0,47.185-38.55,85.436-86.104,85.436
	c-47.554,0-86.105-38.251-86.105-85.436c0-47.185,38.55-85.437,86.105-85.437C354.339,97.883,392.889,136.134,392.889,183.32z"/>
<path id="path6_fill" fill="#7C9CE3" d="M342.406,184.319c0,20.074-16.4,36.347-36.631,36.347
	c-20.231,0-36.631-16.273-36.631-36.347s16.4-36.347,36.631-36.347C326.005,147.972,342.406,164.245,342.406,184.319z"/>
<path id="path7_fill" fill="#EC9436" d="M345.66,148c0-17.2,16.333-18.167,24.5-16.5l-0.5,4c-5.969-0.436-19.216-2.253-20,12.5
	c-0.955,17.975,19.667,26.833,29.5,29l1.5,2.5C369.16,179.5,345.66,169.5,345.66,148z"/>
<path id="path8_fill" fill="#EC9438" d="M383.16,181.5c0,1.381-1.119,2.5-2.5,2.5c-1.381,0-2.5-1.119-2.5-2.5s1.119-2.5,2.5-2.5
	C382.041,179,383.16,180.119,383.16,181.5z"/>
<path id="path9_fill" fill="#EC9436" d="M462.16,148.051c0-17.175-16.116-18.141-24.173-16.476l0.493,3.994
	c5.889-0.436,18.96-2.25,19.733,12.482c0.942,17.949-19.404,26.795-29.107,28.959l-1.48,2.496
	C438.973,179.506,462.16,169.521,462.16,148.051z"/>
<path id="path10_fill" fill="#EC9438" d="M425.157,181.503c0,1.379,1.104,2.496,2.467,2.496s2.467-1.118,2.467-2.496
	c0-1.379-1.104-2.496-2.467-2.496S425.157,180.125,425.157,181.503z"/>
<path id="path11_fill" fill="#E39C1A" d="M433.875,142h-59.536c0,0-4.378,52.427,30.206,51.997
	C439.128,193.568,433.875,142,433.875,142z"/>
<path id="path12_fill" fill="#F1CC23" d="M438.164,130h-68c0,0-5,61,34.5,60.5C444.164,190,438.164,130,438.164,130z"/>
<path id="path13_fill" fill="#FFED9F" d="M414.077,147.51c0.477,0.043,0.986-0.388,1.082-1.104h-0.001
	c0.095-0.716-3.315-4.512-4.356-4.382c-1.041,0.13-2.69,3.44-3.305,3.31c-0.615-0.13-2.479-3.614-3.305-3.31
	c-0.826,0.303-2.488,3.343-3.305,3.31c-0.817-0.033-2.733-2.703-3.305-3.31c-0.572-0.607-4.092,3.547-4.356,4.382
	c-0.264,0.835,0.305,1.452,1.082,1.104s2.5-3.853,3.274-3.342c2.4,1.585,2.947,3.165,3.336,3.342s2.848-3.02,3.274-3.342
	c0.427-0.322,2.743,3.146,3.305,3.31c0.562,0.165,2.446-2.849,3.305-3.31C411.661,143.707,413.599,147.467,414.077,147.51z"/>
<path id="path14_fill" fill="#FFED9F" d="M398.12,139.204c-0.151-0.118-0.333-0.189-0.523-0.203c-0.269-0.01-0.531,0.09-0.728,0.276
	s-0.314,0.446-0.324,0.72c0,0.195,0.056,0.385,0.16,0.548c0.104,0.163,0.253,0.291,0.428,0.369c0.175,0.078,0.368,0.102,0.556,0.069
	s0.362-0.121,0.502-0.253c0.14-0.132,0.238-0.303,0.284-0.492c0.046-0.189,0.037-0.387-0.026-0.571
	C398.386,139.483,398.272,139.322,398.12,139.204z"/>
<path id="path15_fill" fill="#FFED9F" d="M404.731,139.204c-0.151-0.118-0.333-0.189-0.523-0.203
	c-0.269-0.01-0.531,0.09-0.728,0.276c-0.197,0.187-0.314,0.446-0.324,0.72c0,0.195,0.056,0.385,0.16,0.548
	c0.104,0.163,0.253,0.291,0.428,0.369c0.175,0.078,0.368,0.102,0.556,0.069s0.362-0.121,0.502-0.253
	c0.14-0.132,0.238-0.303,0.284-0.492c0.046-0.189,0.036-0.387-0.026-0.571C404.996,139.483,404.882,139.322,404.731,139.204z"/>
<path id="path16_fill" fill="#FFED9F" d="M411.342,139.204c-0.151-0.118-0.333-0.189-0.523-0.203
	c-0.269-0.01-0.531,0.09-0.728,0.276c-0.197,0.187-0.314,0.446-0.324,0.72c0,0.195,0.056,0.385,0.16,0.548
	c0.105,0.163,0.253,0.291,0.428,0.369c0.175,0.078,0.368,0.102,0.556,0.069s0.362-0.121,0.502-0.253
	c0.14-0.132,0.239-0.303,0.284-0.492c0.046-0.189,0.037-0.387-0.026-0.571C411.607,139.483,411.493,139.322,411.342,139.204z"/>
<path id="path17_fill" fill="#FFED9F" d="M411.113,151.644c1.081-0.257,1.79-1.053,1.049-1.071
	c-0.741-0.018-5.328-1.651-7.971-1.683c-2.643-0.032-7.581,0.999-7.971,1.683c-0.389,0.684,0.295,1.177,1.049,1.071
	c0.754-0.107,4.189-1.22,6.922-1.22C406.925,150.424,410.032,151.901,411.113,151.644z"/>
<path id="path18_fill" fill="#FFED9F" d="M404.209,158.936c-0.043-0.738,5.938-5.186,5.258-5.522c-0.681-0.336-9.792-0.367-10.516,0
	C398.227,153.781,404.252,159.674,404.209,158.936z"/>
<path id="path19_fill" fill="#F6E271" d="M381.16,135h-7.5c0.145,24.193,5.368,35.269,23,51
	C384.881,167.01,381.402,155.857,381.16,135z"/>
<path id="path19_fill_1_" fill="#DEA726" d="M428.66,135h7.5c-0.145,24.193-5.368,35.269-23,51
	C424.939,167.01,428.418,155.857,428.66,135z"/>
<path id="path20_fill" fill="#EFCD21" d="M402.16,196h4v11h-4V196z"/>
<path id="path21_fill" fill="#E29B28" d="M399.66,208.5c-2.5,0-15,2-15,6l39.5-0.5c0-3.5-12-5.5-15-5.5
	C409.16,206,399.66,206,399.66,208.5z"/>
<path id="path22_fill" fill="#E39C1A" d="M409.16,194.5c0,1.381-2.239,2.5-5,2.5c-2.761,0-5-1.119-5-2.5s2.239-2.5,5-2.5
	C406.921,192,409.16,193.119,409.16,194.5z"/>
<path id="path23_fill" fill="#81A0E6" d="M495.16,245h-51l-2,35h48.5L495.16,245z"/>
<path id="path24_fill" fill="#708DD0" d="M444.16,245l-5.923,0.493L437.16,280h4.846L444.16,245z"/>
<path id="path25_fill" fill="#93AFEE" d="M303.16,236l6,44h53l-3-44H303.16z"/>
<path id="path26_fill" fill="#6D8CD0" d="M366.779,236h-7.619l3.333,44h6.667L366.779,236z"/>
<path id="path27_fill" fill="#AEC6FB" d="M369.66,280l-4.5-63h76l-3,63H369.66z"/>
<path id="path28_fill" fill="#7C3A20" d="M382.16,214h44v5h-44V214z"/>
<path id="path29_fill" fill="#81A0E6" d="M409.16,232l-12,2v7h4v21l8-1.5V232z"/>
</svg>
