<?xml version="1.0" encoding="utf-8"?>
<!-- Generator: Adobe Illustrator 17.0.0, SVG Export Plug-In . SVG Version: 6.00 Build 0)  -->
<!DOCTYPE svg PUBLIC "-//W3C//DTD SVG 1.1//EN" "http://www.w3.org/Graphics/SVG/1.1/DTD/svg11.dtd">
<svg version="1.1" id="Layer_2" xmlns="http://www.w3.org/2000/svg" xmlns:xlink="http://www.w3.org/1999/xlink" x="0px" y="0px"
	 width="373.319px" height="194px" viewBox="60 46 373.319 194" enable-background="new 60 46 373.319 194" xml:space="preserve">
<path id="path0_fill" fill="#EB5757" d="M60,51c0-2.761,2.239-5,5-5h363.319c2.761,0,5,2.239,5,5v184c0,2.761-2.239,5-5,5H65
	c-2.761,0-5-2.239-5-5V51z"/>
<path id="path11_fill" fill-opacity="0.2" d="M250,227.5c-26.261-0.054-45.5-10-54-17c20-18.8,90.333-13.5,123-8.5
	c36.833-2.5,113,8.5,113,8.5s-37,17-55.5,17S336,221,315,221S276.261,227.554,250,227.5z"/>
<path id="path12_fill" fill="#FDE1B4" d="M196.533,211c-4.892-2.531,24.982-56.521,44-68.5l36.5,10.5l38-10.5l37.5,7l36.5-4.5
	c3.688-1.093,38.592,45.238,44,66c-2.237-4.187-56.5,16.5-56.5,16.5s-36.188-10.483-61.5-13.5c-25.971,3.312-40.148,6.452-65,13.5
	C230.926,218.263,219.293,214.523,196.533,211z"/>
<path id="path13_fill" fill="#FFF0DB" d="M251.03,219c-17.605-7.065-27.57-10.212-45.5-14.5c10.647-26.228,19.986-38,39-57.5
	c12.817,3.822,19.827,6.126,31.5,11c14.688-5.728,23.018-8.048,38-11c16.379,0.534,24.887,2.391,39.5,7
	c12.602-3.977,19.729-4.693,32.5-4.5c21.208,20.887,29.072,32.984,38.5,55c-18.942,3.247-29.314,6.59-47.5,14.5
	c-19.5-4.833-59.017-13.899-60.5-14.5C313.345,203.208,270.749,212.988,251.03,219z"/>
<path id="path14_stroke" fill="#FDE1B4" d="M274.081,166.779l-20.5,41.5l0.897,0.443l20.5-41.5L274.081,166.779z M315.03,156.5v42h1
	v-42H315.03z M375.513,211.37l-13-48.5l-0.966,0.259l13,48.5L375.513,211.37z"/>
<path id="path15_fill" fill-opacity="0.2" d="M313.955,150.908c-3.422,3.921-17.12,9.11-17.12,9.11s6.664-14.518,9.164-15.018
	c2.5-0.5,8.297-2.401,9-2.415c0.703-0.014,1.773,0.195,1.798,0.415C317.074,145.488,316.099,148.451,313.955,150.908z"/>
<path id="path16_fill" fill="#FFDC15" d="M318,118.553C318,130.456,296.5,160,296.5,160S275,130.456,275,118.553
	C275,106.649,284.626,97,296.5,97C308.374,97,318,106.649,318,118.553z"/>
<path id="path17_fill" fill="#FBB373" d="M303,118.5c0,3.59-2.91,6.5-6.5,6.5s-6.5-2.91-6.5-6.5c0-3.59,2.91-6.5,6.5-6.5
	S303,114.91,303,118.5z"/>
<path id="path18_stroke" fill="#B03347" d="M286.204,160.031c-0.259-0.096-0.547,0.036-0.643,0.295s0.036,0.547,0.295,0.643
	L286.204,160.031z M305.73,170.9c0.221,0.165,0.534,0.121,0.7-0.1c0.165-0.221,0.121-0.534-0.1-0.7L305.73,170.9z M308.757,158.445
	c0.246-0.126,0.343-0.427,0.218-0.673s-0.427-0.343-0.673-0.218L308.757,158.445z M282.204,172.12
	c-0.21,0.18-0.234,0.495-0.054,0.705s0.495,0.234,0.705,0.054L282.204,172.12z M285.856,160.969
	c9.742,3.615,14.283,5.739,19.874,9.931l0.6-0.8c-5.676-4.249-10.345-6.439-20.126-10.069L285.856,160.969z M308.302,157.555
	c-3.752,1.918-9.558,4.946-14.775,7.794c-2.609,1.424-5.076,2.807-7.063,3.982c-1.976,1.168-3.521,2.156-4.26,2.79l0.651,0.759
	c0.661-0.567,2.128-1.512,4.118-2.688c1.978-1.169,4.43-2.543,7.034-3.965c5.208-2.844,11.002-5.865,14.751-7.781L308.302,157.555z"
	/>
<path id="path19_stroke" fill="#A79E8D" d="M401.833,205.575c-0.235,0.146-0.307,0.454-0.161,0.689
	c0.145,0.235,0.453,0.307,0.688,0.161L401.833,205.575z M409.443,190.535l-0.497,0.051L409.443,190.535z M369.953,176.068
	l0.221,0.449L369.953,176.068z M305.667,196.023l0.034-0.499c-0.021-0.001-0.042-0.001-0.062,0L305.667,196.023z M295.557,182.768
	c0.119-0.249,0.013-0.548-0.237-0.666s-0.548-0.013-0.666,0.236L295.557,182.768z M293.6,185.001
	c-0.081,0.264,0.067,0.544,0.33,0.625c0.264,0.081,0.544-0.067,0.625-0.33L293.6,185.001z M294.331,190.467
	c-0.085-0.263-0.366-0.407-0.629-0.322c-0.263,0.085-0.407,0.367-0.323,0.629L294.331,190.467z M297.3,195.05
	c0.247,0.123,0.547,0.023,0.671-0.224s0.023-0.547-0.224-0.671L297.3,195.05z M302.929,195.484c-0.275-0.023-0.517,0.181-0.54,0.456
	c-0.023,0.275,0.181,0.517,0.456,0.54L302.929,195.484z M308.531,196.24c0.267-0.07,0.427-0.343,0.357-0.61
	c-0.07-0.267-0.343-0.427-0.61-0.357L308.531,196.24z M312.939,192.785c-0.218,0.17-0.256,0.484-0.086,0.702
	c0.17,0.218,0.484,0.256,0.702,0.086L312.939,192.785z M317.637,189.742c0.189-0.202,0.179-0.518-0.023-0.707
	c-0.201-0.189-0.518-0.179-0.707,0.023L317.637,189.742z M320.562,184.939c-0.18,0.209-0.157,0.525,0.052,0.705
	c0.209,0.18,0.525,0.157,0.705-0.052L320.562,184.939z M324.952,181.445c0.186-0.204,0.171-0.521-0.034-0.706
	c-0.204-0.186-0.521-0.171-0.706,0.034L324.952,181.445z M328.121,176.802c-0.204,0.186-0.218,0.503-0.031,0.706
	s0.503,0.218,0.706,0.031L328.121,176.802z M333.085,174.216c0.234-0.147,0.305-0.455,0.158-0.689
	c-0.147-0.234-0.455-0.305-0.689-0.158L333.085,174.216z M337.716,171.064c-0.267,0.071-0.425,0.345-0.354,0.612
	s0.345,0.425,0.612,0.354L337.716,171.064z M343.153,171.508c0.276,0.007,0.506-0.211,0.513-0.487
	c0.007-0.276-0.211-0.506-0.487-0.513L343.153,171.508z M348.434,171.316c-0.265-0.078-0.543,0.073-0.621,0.338
	c-0.078,0.265,0.073,0.543,0.338,0.621L348.434,171.316z M352.797,174.304c0.241,0.136,0.546,0.05,0.681-0.19s0.05-0.546-0.19-0.681
	L352.797,174.304z M357.764,176.044c-0.245-0.128-0.547-0.032-0.674,0.212c-0.128,0.245-0.033,0.547,0.212,0.674L357.764,176.044z
	 M362.445,178.464c0.276,0.014,0.511-0.198,0.525-0.474c0.014-0.276-0.198-0.511-0.474-0.525L362.445,178.464z M367.395,176.623
	c-0.26,0.094-0.394,0.38-0.3,0.64c0.094,0.26,0.38,0.394,0.64,0.301L367.395,176.623z M372.839,175.44
	c0.263-0.086,0.406-0.368,0.32-0.63c-0.086-0.263-0.368-0.406-0.63-0.32L372.839,175.44z M378.407,173.301
	c-0.275,0.026-0.477,0.27-0.45,0.545c0.026,0.275,0.27,0.476,0.545,0.45L378.407,173.301z M384.306,174.253
	c0.275,0.021,0.515-0.186,0.536-0.461c0.021-0.275-0.186-0.515-0.461-0.536L384.306,174.253z M390.282,174.149
	c-0.269-0.061-0.537,0.107-0.599,0.376c-0.061,0.269,0.107,0.537,0.376,0.599L390.282,174.149z M395.615,176.841
	c0.257,0.102,0.547-0.024,0.649-0.28c0.102-0.257-0.023-0.547-0.28-0.649L395.615,176.841z M401.328,178.598
	c-0.233-0.147-0.542-0.077-0.689,0.157s-0.077,0.542,0.157,0.689L401.328,178.598z M405.264,183.068
	c0.189,0.202,0.505,0.212,0.707,0.024c0.202-0.188,0.213-0.505,0.024-0.707L405.264,183.068z M409.243,187.498
	c-0.095-0.259-0.383-0.392-0.642-0.296c-0.259,0.096-0.391,0.383-0.296,0.642L409.243,187.498z M408.791,194.926
	c-0.049,0.272,0.133,0.532,0.404,0.58c0.272,0.049,0.532-0.133,0.58-0.404L408.791,194.926z M405.826,203.353
	c0.179-0.21,0.154-0.526-0.057-0.705c-0.21-0.179-0.525-0.153-0.704,0.057L405.826,203.353z M294.654,182.338
	c-0.447,0.939-0.799,1.837-1.054,2.663l0.956,0.295c0.243-0.79,0.569-1.62,1.002-2.527L294.654,182.338z M293.379,190.774
	c0.652,2.023,2.144,3.389,3.921,4.276l0.447-0.895c-1.612-0.804-2.869-1.991-3.416-3.688L293.379,190.774z M302.845,196.481
	c0.999,0.084,1.982,0.091,2.851,0.041l-0.057-0.998c-0.837,0.048-1.749,0.042-2.71-0.039L302.845,196.481z M305.633,196.522
	c0.979,0.065,1.97-0.041,2.898-0.282l-0.253-0.967c-0.855,0.225-1.685,0.314-2.577,0.251L305.633,196.522z M313.555,193.573
	c1.376-1.076,2.738-2.397,4.082-3.83l-0.73-0.684c-1.328,1.417-2.633,2.684-3.968,3.726L313.555,193.573z M321.319,185.592
	c1.19-1.381,2.394-2.784,3.633-4.147l-0.74-0.673c-1.248,1.374-2.461,2.787-3.65,4.167L321.319,185.592z M328.796,177.54
	c1.378-1.261,2.79-2.386,4.289-3.325l-0.531-0.847c-1.546,0.969-3.029,2.15-4.433,3.434L328.796,177.54z M337.974,172.03
	c0.859-0.23,1.72-0.381,2.63-0.452l-0.078-0.997c-0.958,0.075-1.909,0.243-2.81,0.483L337.974,172.03z M340.604,171.578
	c0.904-0.071,1.743-0.092,2.549-0.07l0.026-1c-0.831-0.022-1.722,0.001-2.653,0.073L340.604,171.578z M348.151,172.275
	c1.768,0.52,3.254,1.245,4.646,2.029l0.491-0.871c-1.419-0.799-3.007-1.57-4.854-2.117L348.151,172.275z M357.302,176.931
	c1.555,0.809,3.225,1.428,5.143,1.533l0.051-0.999c-1.766-0.085-3.233-0.639-4.733-1.421L357.302,176.931z M367.735,177.564
	c0.763-0.276,1.583-0.626,2.439-1.047l-0.441-0.897c-0.832,0.41-1.6,0.738-2.337,1.004L367.735,177.564z M370.174,176.517
	c0.85-0.419,1.73-0.773,2.665-1.077l-0.31-0.951c-0.967,0.316-1.913,0.696-2.797,1.131L370.174,176.517z M378.502,174.296
	c1.894-0.181,3.833-0.191,5.805-0.043l0.074-0.997c-2.011-0.15-4.035-0.139-5.974,0.045L378.502,174.296z M390.059,175.124
	c1.918,0.438,3.776,1.011,5.556,1.718l0.369-0.929c-1.817-0.721-3.747-1.317-5.702-1.763L390.059,175.124z M400.796,179.444
	c1.716,1.078,3.214,2.279,4.468,3.624l0.731-0.683c-1.305-1.395-2.903-2.677-4.667-3.787L400.796,179.444z M408.305,187.844
	c0.331,0.893,0.544,1.788,0.641,2.742l0.995-0.102c-0.106-1.019-0.348-2.036-0.698-2.986L408.305,187.844z M408.946,190.586
	c0.16,1.547,0.089,2.975-0.155,4.34l0.984,0.175c0.254-1.428,0.331-2.995,0.166-4.618L408.946,190.586z M405.065,202.705
	c-1.103,1.299-2.24,2.256-3.232,2.87l0.527,0.85c1.052-0.655,2.308-1.712,3.466-3.072L405.065,202.705z"/>
<path id="path20_stroke" fill="#A79E8D" d="M240.57,181.244c-0.141,0.237-0.064,0.544,0.174,0.686
	c0.237,0.141,0.544,0.064,0.685-0.174L240.57,181.244z M255,158l0.437-0.243c-0.087-0.156-0.251-0.254-0.43-0.257
	c-0.179-0.003-0.345,0.09-0.437,0.244L255,158z M257.5,162.5l-0.437,0.243c0.066,0.118,0.177,0.205,0.308,0.24
	c0.131,0.035,0.27,0.015,0.386-0.054L257.5,162.5z M260,161l0.447-0.224c-0.062-0.125-0.174-0.218-0.307-0.256
	c-0.134-0.039-0.278-0.02-0.397,0.051L260,161z M267.709,172.907c0.225,0.16,0.537,0.108,0.698-0.116s0.108-0.537-0.116-0.698
	L267.709,172.907z M250.234,166l-0.43-0.256l0,0L250.234,166z M254.563,158.243l2.5,4.5l0.874-0.486l-2.5-4.5L254.563,158.243z
	 M257.757,162.929l2.5-1.5l-0.514-0.858l-2.5,1.5L257.757,162.929z M241.43,181.756l9.234-15.5l-0.859-0.512l-9.234,15.5
	L241.43,181.756z M250.664,166.256l4.766-8l-0.859-0.512l-4.766,8L250.664,166.256z M250.342,166.488
	c0.589-0.13,0.974-0.268,1.243-0.419c0.288-0.172,0.439-0.345,0.514-0.434c0.052-0.062,0.048-0.058,0.092-0.072
	c0.098-0.031,0.314-0.063,0.809-0.063v-1c-0.505,0-0.852,0.03-1.106,0.108c-0.308,0.096-0.454,0.256-0.56,0.382
	c-0.083,0.099-0.108,0.144-0.238,0.207c-0.149,0.083-0.427,0.195-0.97,0.315L250.342,166.488z M253,165.5
	c0.465,0,0.699,0.059,0.82,0.113c0.117,0.039,0.135,0.077,0.217,0.187c0.081,0.108,0.217,0.303,0.453,0.466
	c0.259,0.163,0.584,0.234,1.009,0.234v-1c-0.325,0-0.437-0.055-0.475-0.079c-0.061-0.024-0.081-0.079-0.187-0.221
	c-0.105-0.14-0.306-0.353-0.611-0.501c-0.301-0.134-0.692-0.199-1.227-0.199V165.5z M255.5,166.5
	c0.845-0.009,1.58-0.294,2.099-0.553c0.262-0.131,0.481-0.256,0.656-0.344c0.169-0.085,0.276-0.094,0.245-0.103v-1
	c-0.258,0-0.514,0.12-0.692,0.209c-0.2,0.1-0.418,0.225-0.656,0.344c-0.481,0.241-0.996,0.456-1.651,0.447V166.5z M258.5,165.5
	c-0.073,0-0.103-0.048-0.064-0.006c0.057,0.059,0.12,0.164,0.226,0.306c0.233,0.311,0.613,0.7,1.338,0.7v-1
	c-0.276,0-0.396-0.111-0.538-0.3c-0.081-0.108-0.174-0.253-0.289-0.382c-0.133-0.145-0.351-0.318-0.673-0.318V165.5z
	 M259.553,161.224c0.518,1.036,1.3,2.492,2.212,4.031l0.86-0.51c-0.902-1.521-1.667-2.946-2.178-3.969L259.553,161.224z
	 M261.765,165.255c0.873,1.472,1.879,3.041,2.894,4.4c1.011,1.354,2.066,2.548,3.051,3.252l0.581-0.814
	c-0.854-0.61-1.834-1.701-2.831-3.036c-0.994-1.33-1.97-2.854-2.835-4.312L261.765,165.255z M260,166.5
	c0.521,0,1.056-0.211,1.48-0.432c0.43-0.226,0.823-0.506,1.036-0.685l-0.642-0.767c-0.185,0.155-0.489,0.374-0.858,0.565
	c-0.375,0.196-0.738,0.318-1.017,0.318V166.5z"/>
<path id="path21_stroke" fill="#A79E8D" d="M391.171,201.239c0,0.276,0.224,0.5,0.5,0.5s0.5-0.224,0.5-0.5H391.171z
	 M392.171,190.739c0-0.276-0.224-0.5-0.5-0.5s-0.5,0.224-0.5,0.5H392.171z M390.525,191.385c-0.195-0.195-0.512-0.195-0.707,0
	c-0.195,0.195-0.195,0.512,0,0.707L390.525,191.385z M393.525,192.092c0.195-0.195,0.195-0.512,0-0.707
	c-0.195-0.195-0.512-0.195-0.707,0L393.525,192.092z M390.171,195.739l0.481,0.138c0.046-0.159,0.01-0.33-0.096-0.458
	c-0.106-0.127-0.267-0.194-0.432-0.178L390.171,195.739z M388.171,194.239l0.495-0.069c-0.022-0.161-0.122-0.302-0.267-0.376
	L388.171,194.239z M387.171,191.739l0.483,0.13c0.003-0.013,0.006-0.026,0.009-0.039L387.171,191.739z M388.171,190.739l0.072,0.495
	c0.262-0.038,0.449-0.274,0.427-0.538L388.171,190.739z M389.171,189.239l0.086,0.493c0.153-0.027,0.284-0.122,0.357-0.26
	L389.171,189.239z M392.171,188.239l0.226-0.446c-0.028-0.014-0.057-0.026-0.087-0.034L392.171,188.239z M394.171,190.739
	l-0.492,0.087c0.028,0.159,0.131,0.294,0.276,0.364L394.171,190.739z M394.671,193.739l-0.373-0.333
	c-0.125,0.139-0.161,0.337-0.094,0.511L394.671,193.739z M393.671,195.739l-0.162-0.473c-0.096,0.033-0.179,0.094-0.239,0.175
	L393.671,195.739z M392.171,193.239v-2.5h-1v2.5H392.171z M389.817,192.092l1.5,1.5l0.707-0.707l-1.5-1.5L389.817,192.092z
	 M392.817,191.385l-1.5,1.5l0.707,0.707l1.5-1.5L392.817,191.385z M392.171,201.239v-5h-1v5H392.171z M392.171,196.239v-3h-1v3
	H392.171z M391.225,196.012c0.038-0.075,0.099-0.064,0.035-0.058c-0.067,0.006-0.181-0.009-0.313-0.06
	c-0.132-0.05-0.233-0.116-0.286-0.167c-0.073-0.071,0.036-0.009-0.009,0.15l-0.961-0.276c-0.111,0.386,0.118,0.692,0.272,0.842
	c0.158,0.149,0.411,0.302,0.629,0.387c0.22,0.081,0.521,0.136,0.754,0.121c0.263-0.022,0.597-0.141,0.772-0.486L391.225,196.012z
	 M390.124,195.241c-0.643,0.061-0.923,0.016-1.076-0.086c-0.127-0.085-0.286-0.296-0.382-0.985l-0.99,0.138
	c0.103,0.744,0.312,1.343,0.818,1.68c0.481,0.32,1.102,0.308,1.725,0.249L390.124,195.241z M388.399,193.794
	c-0.582-0.298-0.777-0.523-0.851-0.725c-0.082-0.223-0.069-0.553,0.105-1.199l-0.965-0.261c-0.177,0.654-0.278,1.259-0.079,1.803
	c0.207,0.565,0.687,0.94,1.334,1.272L388.399,193.794z M387.663,191.83c0.062-0.333,0.135-0.432,0.175-0.469
	c0.04-0.038,0.125-0.087,0.405-0.127l-0.143-0.99c-0.323,0.047-0.669,0.13-0.944,0.386c-0.275,0.257-0.401,0.614-0.476,1.017
	L387.663,191.83z M388.669,190.696c-0.051-0.596,0.034-0.756,0.068-0.797c0.035-0.043,0.12-0.097,0.519-0.167l-0.172-0.985
	c-0.348,0.061-0.816,0.147-1.12,0.517c-0.305,0.372-0.346,0.897-0.292,1.518L388.669,190.696z M389.613,189.472
	c0.32-0.608,0.58-0.833,0.853-0.92c0.306-0.097,0.756-0.066,1.566,0.168l0.277-0.961c-0.824-0.237-1.531-0.355-2.146-0.16
	c-0.647,0.206-1.071,0.715-1.435,1.407L389.613,189.472z M391.945,188.685c0.669,0.338,1.038,0.615,1.27,0.912
	c0.254,0.313,0.363,0.649,0.463,1.228l0.985-0.173c-0.116-0.654-0.314-1.218-0.66-1.671c-0.367-0.469-0.89-0.826-1.607-1.189
	L391.945,188.685z M393.954,191.189c0.458,0.219,0.744,0.395,0.94,0.582c0.171,0.16,0.206,0.269,0.211,0.341
	c0.007,0.086-0.019,0.225-0.155,0.456c-0.142,0.243-0.355,0.505-0.653,0.839l0.746,0.666c0.315-0.353,0.587-0.693,0.768-0.996
	c0.187-0.316,0.321-0.667,0.291-1.044c-0.031-0.391-0.231-0.717-0.526-0.992c-0.27-0.249-0.682-0.508-1.189-0.752L393.954,191.189z
	 M394.204,193.917c0.213,0.558,0.192,0.767,0.144,0.866c-0.051,0.106-0.222,0.271-0.838,0.482l0.324,0.946
	c0.624-0.213,1.169-0.485,1.414-0.992c0.249-0.513,0.107-1.092-0.109-1.659L394.204,193.917z M393.27,195.44
	c-0.389,0.523-0.597,0.646-0.704,0.67c-0.074,0.016-0.218,0.007-0.598-0.273l-0.594,0.805c0.402,0.297,0.868,0.562,1.403,0.446
	c0.503-0.109,0.904-0.524,1.295-1.05L393.27,195.44z"/>
<path id="path22_stroke" fill="#A79E8D" d="M349.299,198c0,0.276,0.224,0.5,0.5,0.5s0.5-0.224,0.5-0.5H349.299z M350.299,190.069
	c0-0.276-0.224-0.5-0.5-0.5s-0.5,0.224-0.5,0.5H350.299z M348.919,190.458c-0.202-0.188-0.519-0.176-0.707,0.026
	s-0.176,0.519,0.026,0.707L348.919,190.458z M351.359,191.19c0.202-0.188,0.214-0.504,0.026-0.707s-0.504-0.214-0.707-0.026
	L351.359,191.19z M348.579,193.846l0.478,0.148c0.049-0.159,0.016-0.332-0.089-0.462c-0.105-0.13-0.267-0.199-0.433-0.184
	L348.579,193.846z M346.952,192.712l0.494-0.074c-0.025-0.164-0.129-0.306-0.279-0.377L346.952,192.712z M346.139,190.824
	l0.48,0.139c0.004-0.014,0.007-0.027,0.01-0.041L346.139,190.824z M346.952,190.069l0.067,0.496
	c0.266-0.036,0.456-0.275,0.431-0.542L346.952,190.069z M347.766,188.936l0.08,0.494c0.15-0.024,0.28-0.115,0.355-0.247
	L347.766,188.936z M350.206,188.18l0.213-0.453c-0.027-0.013-0.055-0.023-0.083-0.03L350.206,188.18z M351.832,190.069l-0.491,0.093
	c0.03,0.161,0.138,0.297,0.288,0.364L351.832,190.069z M352.239,192.335l-0.36-0.347c-0.137,0.143-0.177,0.353-0.102,0.537
	L352.239,192.335z M351.426,193.846l-0.151-0.477c-0.094,0.03-0.177,0.087-0.239,0.164L351.426,193.846z M350.299,191.957v-1.888h-1
	v1.888H350.299z M348.239,191.19l1.22,1.133l0.681-0.733l-1.22-1.133L348.239,191.19z M350.679,190.458l-1.22,1.133l0.681,0.733
	l1.22-1.133L350.679,190.458z M350.299,198v-3.777h-1V198H350.299z M350.299,194.223v-2.266h-1v2.266H350.299z M349.36,193.983
	c0.059-0.107,0.148-0.101,0.1-0.097c-0.043,0.003-0.127-0.006-0.228-0.041c-0.101-0.036-0.173-0.081-0.203-0.108
	c-0.015-0.013,0-0.005,0.016,0.031c0.02,0.043,0.042,0.127,0.011,0.226l-0.955-0.296c-0.118,0.38,0.13,0.665,0.256,0.78
	c0.137,0.12,0.358,0.244,0.542,0.31c0.184,0.063,0.443,0.107,0.64,0.095c0.218-0.017,0.529-0.109,0.699-0.42L349.36,193.983z
	 M348.535,193.347c-0.526,0.047-0.732,0.008-0.832-0.054c-0.063-0.039-0.181-0.151-0.256-0.655l-0.989,0.148
	c0.087,0.578,0.267,1.078,0.719,1.358c0.415,0.257,0.942,0.244,1.446,0.199L348.535,193.347z M347.167,192.261
	c-0.474-0.226-0.597-0.382-0.638-0.486c-0.047-0.119-0.052-0.324,0.09-0.811l-0.96-0.279c-0.144,0.495-0.241,0.996-0.06,1.457
	c0.187,0.475,0.613,0.772,1.139,1.023L347.167,192.261z M346.629,190.922c0.048-0.237,0.098-0.279,0.102-0.282
	c0.011-0.01,0.06-0.045,0.288-0.076l-0.133-0.991c-0.262,0.035-0.564,0.099-0.81,0.312c-0.252,0.219-0.363,0.522-0.427,0.841
	L346.629,190.922z M347.45,190.022c-0.041-0.443,0.034-0.509,0.023-0.497c-0.011,0.022-0.006-0.007,0.062-0.029
	c0.077-0.028,0.166-0.044,0.31-0.068l-0.16-0.987c-0.275,0.044-0.687,0.111-0.961,0.421c-0.287,0.324-0.314,0.775-0.27,1.252
	L347.45,190.022z M348.201,189.182c0.251-0.442,0.443-0.589,0.637-0.646c0.23-0.068,0.581-0.049,1.239,0.127l0.258-0.966
	c-0.671-0.18-1.262-0.273-1.78-0.12c-0.555,0.164-0.918,0.573-1.224,1.112L348.201,189.182z M349.993,188.633
	c0.542,0.255,0.826,0.457,1,0.663c0.194,0.218,0.269,0.44,0.348,0.866l0.983-0.186c-0.097-0.506-0.272-0.963-0.565-1.324
	c-0.314-0.373-0.755-0.649-1.34-0.924L349.993,188.633z M351.629,190.525c0.368,0.164,0.59,0.29,0.742,0.425
	c0.128,0.111,0.129,0.165,0.129,0.168c0.002,0.018,0,0.091-0.105,0.255c-0.11,0.176-0.276,0.365-0.516,0.615l0.721,0.693
	c0.258-0.269,0.487-0.534,0.639-0.771c0.158-0.248,0.286-0.546,0.257-0.878c-0.03-0.346-0.22-0.621-0.471-0.838
	c-0.227-0.194-0.573-0.396-0.989-0.582L351.629,190.525z M351.776,192.525c0.173,0.421,0.128,0.52,0.122,0.532
	c-0.017,0.033-0.115,0.15-0.624,0.312l0.303,0.953c0.5-0.159,0.983-0.372,1.208-0.802c0.235-0.451,0.093-0.947-0.084-1.375
	L351.776,192.525z M351.035,193.533c-0.312,0.39-0.463,0.46-0.521,0.472c-0.033,0.007-0.13,0.013-0.432-0.194l-0.565,0.825
	c0.333,0.228,0.733,0.443,1.195,0.35c0.437-0.088,0.782-0.424,1.105-0.827L351.035,193.533z"/>
<path id="path22_stroke_1_" fill="#A79E8D" d="M331.299,166c0,0.276,0.224,0.5,0.5,0.5s0.5-0.224,0.5-0.5H331.299z M332.299,158.069
	c0-0.276-0.224-0.5-0.5-0.5s-0.5,0.224-0.5,0.5H332.299z M330.919,158.458c-0.202-0.188-0.519-0.176-0.707,0.026
	s-0.176,0.519,0.026,0.707L330.919,158.458z M333.359,159.19c0.202-0.188,0.214-0.504,0.026-0.707s-0.504-0.214-0.707-0.026
	L333.359,159.19z M330.579,161.846l0.478,0.148c0.049-0.159,0.016-0.332-0.089-0.462c-0.105-0.13-0.267-0.199-0.433-0.184
	L330.579,161.846z M328.952,160.712l0.494-0.074c-0.025-0.164-0.129-0.306-0.279-0.377L328.952,160.712z M328.139,158.824
	l0.48,0.139c0.004-0.014,0.007-0.027,0.01-0.041L328.139,158.824z M328.952,158.069l0.067,0.496
	c0.266-0.036,0.456-0.275,0.431-0.542L328.952,158.069z M329.766,156.936l0.08,0.494c0.15-0.024,0.28-0.115,0.355-0.247
	L329.766,156.936z M332.206,156.18l0.213-0.453c-0.027-0.013-0.055-0.023-0.083-0.03L332.206,156.18z M333.832,158.069l-0.491,0.093
	c0.03,0.161,0.138,0.297,0.288,0.364L333.832,158.069z M334.239,160.335l-0.36-0.347c-0.137,0.143-0.177,0.353-0.102,0.537
	L334.239,160.335z M333.426,161.846l-0.151-0.477c-0.094,0.03-0.177,0.087-0.239,0.164L333.426,161.846z M332.299,159.957v-1.888h-1
	v1.888H332.299z M330.239,159.19l1.22,1.133l0.681-0.733l-1.22-1.133L330.239,159.19z M332.679,158.458l-1.22,1.133l0.681,0.733
	l1.22-1.133L332.679,158.458z M332.299,166v-3.777h-1V166H332.299z M332.299,162.223v-2.266h-1v2.266H332.299z M331.36,161.983
	c0.059-0.107,0.148-0.101,0.1-0.097c-0.043,0.003-0.127-0.006-0.228-0.041c-0.101-0.036-0.173-0.081-0.203-0.108
	c-0.015-0.013,0-0.005,0.016,0.031c0.02,0.043,0.042,0.127,0.011,0.226l-0.955-0.296c-0.118,0.38,0.13,0.665,0.256,0.78
	c0.137,0.12,0.358,0.244,0.542,0.31c0.184,0.063,0.443,0.107,0.64,0.095c0.218-0.017,0.529-0.109,0.699-0.42L331.36,161.983z
	 M330.535,161.347c-0.526,0.047-0.732,0.008-0.832-0.054c-0.063-0.039-0.181-0.151-0.256-0.655l-0.989,0.148
	c0.087,0.578,0.267,1.078,0.719,1.358c0.415,0.257,0.942,0.244,1.446,0.199L330.535,161.347z M329.167,160.261
	c-0.474-0.226-0.597-0.382-0.638-0.486c-0.047-0.119-0.052-0.324,0.09-0.811l-0.96-0.279c-0.144,0.495-0.241,0.996-0.06,1.457
	c0.187,0.475,0.613,0.772,1.139,1.023L329.167,160.261z M328.629,158.922c0.048-0.237,0.098-0.279,0.102-0.282
	c0.011-0.01,0.06-0.045,0.288-0.076l-0.133-0.991c-0.262,0.035-0.564,0.099-0.81,0.312c-0.252,0.219-0.363,0.522-0.427,0.841
	L328.629,158.922z M329.45,158.022c-0.041-0.443,0.034-0.509,0.023-0.497c-0.011,0.022-0.006-0.007,0.062-0.029
	c0.077-0.028,0.166-0.044,0.31-0.068l-0.16-0.987c-0.275,0.044-0.687,0.111-0.961,0.421c-0.287,0.324-0.314,0.775-0.27,1.252
	L329.45,158.022z M330.201,157.182c0.251-0.442,0.443-0.589,0.637-0.646c0.23-0.068,0.581-0.049,1.239,0.127l0.258-0.966
	c-0.671-0.18-1.262-0.273-1.78-0.12c-0.555,0.164-0.918,0.573-1.224,1.112L330.201,157.182z M331.993,156.633
	c0.542,0.255,0.826,0.457,1,0.663c0.194,0.218,0.269,0.44,0.348,0.866l0.983-0.186c-0.097-0.506-0.272-0.963-0.565-1.324
	c-0.314-0.373-0.755-0.649-1.34-0.924L331.993,156.633z M333.629,158.525c0.368,0.164,0.59,0.29,0.742,0.425
	c0.128,0.111,0.129,0.165,0.129,0.168c0.002,0.018,0,0.091-0.105,0.255c-0.11,0.176-0.276,0.365-0.516,0.615l0.721,0.693
	c0.258-0.269,0.487-0.534,0.639-0.771c0.158-0.248,0.286-0.546,0.257-0.878c-0.03-0.346-0.22-0.621-0.471-0.838
	c-0.227-0.194-0.573-0.396-0.989-0.582L333.629,158.525z M333.776,160.525c0.173,0.421,0.128,0.52,0.122,0.532
	c-0.017,0.033-0.115,0.15-0.624,0.312l0.303,0.953c0.5-0.159,0.983-0.372,1.208-0.802c0.235-0.451,0.093-0.947-0.084-1.375
	L333.776,160.525z M333.035,161.533c-0.312,0.39-0.463,0.46-0.521,0.472c-0.033,0.007-0.13,0.013-0.432-0.194l-0.565,0.825
	c0.333,0.228,0.733,0.443,1.195,0.35c0.437-0.088,0.782-0.424,1.105-0.827L333.035,161.533z"/>
<path id="path23_stroke" fill="#A79E8D" d="M339.927,189c0,0.276,0.224,0.5,0.5,0.5s0.5-0.224,0.5-0.5H339.927z M340.927,177.896
	c0-0.276-0.224-0.5-0.5-0.5s-0.5,0.224-0.5,0.5H340.927z M339.021,178.584c-0.204-0.186-0.52-0.171-0.706,0.033
	c-0.186,0.204-0.171,0.52,0.033,0.706L339.021,178.584z M342.507,179.323c0.204-0.186,0.219-0.502,0.033-0.706
	c-0.186-0.204-0.502-0.219-0.706-0.033L342.507,179.323z M338.684,183.184l0.477,0.151c0.05-0.159,0.018-0.333-0.087-0.463
	c-0.104-0.13-0.267-0.2-0.433-0.185L338.684,183.184z M336.361,181.597l0.494-0.076c-0.025-0.165-0.131-0.307-0.283-0.378
	L336.361,181.597z M335.199,178.954l0.479,0.142c0.004-0.014,0.008-0.028,0.01-0.042L335.199,178.954z M336.361,177.896l0.065,0.496
	c0.267-0.035,0.458-0.275,0.432-0.543L336.361,177.896z M337.522,176.31l0.078,0.494c0.149-0.024,0.279-0.113,0.354-0.243
	L337.522,176.31z M341.008,175.252l0.209-0.454c-0.026-0.012-0.054-0.022-0.082-0.029L341.008,175.252z M343.332,177.896
	l-0.491,0.095c0.031,0.162,0.14,0.297,0.291,0.363L343.332,177.896z M343.913,181.069l-0.357-0.35
	c-0.141,0.144-0.182,0.358-0.104,0.544L343.913,181.069z M342.751,183.184l-0.149-0.477c-0.094,0.029-0.177,0.085-0.239,0.161
	L342.751,183.184z M340.927,180.54v-2.644h-1v2.644H340.927z M338.348,179.323l1.743,1.586l0.673-0.74l-1.743-1.586L338.348,179.323
	z M341.833,178.584l-1.743,1.586l0.673,0.74l1.743-1.586L341.833,178.584z M340.927,189v-5.288h-1V189H340.927z M340.927,183.712
	v-3.173h-1v3.173H340.927z M339.99,183.469c0.037-0.066,0.08-0.038-0.03-0.029c-0.128,0.014-0.249-0.01-0.418-0.07
	c-0.164-0.057-0.294-0.133-0.363-0.194c-0.099-0.088,0.038-0.021-0.019,0.159l-0.954-0.301c-0.133,0.421,0.144,0.745,0.308,0.89
	c0.176,0.152,0.455,0.305,0.7,0.392c0.246,0.083,0.569,0.137,0.822,0.122c0.271-0.021,0.63-0.13,0.826-0.481L339.99,183.469z
	 M338.641,182.686c-0.747,0.065-1.112,0.022-1.324-0.107c-0.172-0.104-0.352-0.339-0.462-1.057l-0.988,0.151
	c0.122,0.798,0.368,1.419,0.932,1.761c0.524,0.318,1.205,0.31,1.929,0.248L338.641,182.686z M336.572,181.144
	c-0.69-0.322-0.928-0.57-1.017-0.789c-0.093-0.232-0.08-0.576,0.123-1.259l-0.959-0.284c-0.205,0.691-0.325,1.337-0.092,1.916
	c0.238,0.592,0.784,0.979,1.521,1.323L336.572,181.144z M335.689,179.054c0.071-0.347,0.155-0.457,0.212-0.505
	c0.066-0.056,0.191-0.113,0.525-0.157l-0.131-0.991c-0.366,0.048-0.742,0.131-1.042,0.386c-0.309,0.262-0.456,0.635-0.544,1.067
	L335.689,179.054z M336.858,177.849c-0.059-0.625,0.038-0.793,0.083-0.842c0.06-0.067,0.195-0.129,0.66-0.203l-0.157-0.988
	c-0.404,0.064-0.912,0.151-1.245,0.521c-0.35,0.387-0.399,0.944-0.336,1.607L336.858,177.849z M337.955,176.56
	c0.369-0.637,0.679-0.898,1.036-1.001c0.393-0.114,0.949-0.071,1.891,0.176l0.254-0.967c-0.956-0.251-1.746-0.366-2.422-0.17
	c-0.714,0.207-1.197,0.724-1.623,1.46L337.955,176.56z M340.799,175.707c0.784,0.361,1.224,0.66,1.501,0.983
	c0.297,0.334,0.424,0.691,0.54,1.302l0.982-0.19c-0.135-0.693-0.365-1.287-0.764-1.764c-0.419-0.488-1.015-0.859-1.842-1.24
	L340.799,175.707z M343.132,178.354c0.537,0.234,0.88,0.427,1.113,0.628c0.21,0.178,0.248,0.297,0.254,0.367
	c0.007,0.084-0.02,0.23-0.18,0.477c-0.166,0.258-0.416,0.539-0.763,0.892l0.714,0.7c0.365-0.372,0.679-0.729,0.888-1.048
	c0.214-0.331,0.373-0.704,0.337-1.109c-0.037-0.419-0.271-0.76-0.603-1.042c-0.308-0.259-0.776-0.526-1.36-0.782L343.132,178.354z
	 M343.452,181.262c0.248,0.591,0.221,0.806,0.167,0.907c-0.067,0.126-0.289,0.311-1.016,0.537l0.297,0.955
	c0.714-0.222,1.323-0.5,1.601-1.022c0.291-0.547,0.124-1.166-0.127-1.764L343.452,181.262z M342.364,182.867
	c-0.447,0.547-0.704,0.702-0.871,0.735c-0.144,0.028-0.349-0.011-0.787-0.305l-0.558,0.83c0.47,0.316,0.974,0.567,1.538,0.456
	c0.541-0.107,0.992-0.521,1.452-1.084L342.364,182.867z"/>
<path id="path23_stroke_1_" fill="#A79E8D" d="M374.927,166c0,0.276,0.224,0.5,0.5,0.5s0.5-0.224,0.5-0.5H374.927z M375.927,154.896
	c0-0.276-0.224-0.5-0.5-0.5s-0.5,0.224-0.5,0.5H375.927z M374.021,155.584c-0.204-0.186-0.52-0.171-0.706,0.033
	c-0.186,0.204-0.171,0.52,0.033,0.706L374.021,155.584z M377.507,156.323c0.204-0.186,0.219-0.502,0.033-0.706
	c-0.186-0.204-0.502-0.219-0.706-0.033L377.507,156.323z M373.684,160.184l0.477,0.151c0.05-0.159,0.018-0.333-0.087-0.463
	c-0.104-0.13-0.267-0.2-0.433-0.185L373.684,160.184z M371.361,158.597l0.494-0.076c-0.025-0.165-0.131-0.307-0.283-0.378
	L371.361,158.597z M370.199,155.954l0.479,0.142c0.004-0.014,0.008-0.028,0.01-0.042L370.199,155.954z M371.361,154.896l0.065,0.496
	c0.267-0.035,0.458-0.275,0.432-0.543L371.361,154.896z M372.522,153.31l0.078,0.494c0.149-0.024,0.279-0.113,0.354-0.243
	L372.522,153.31z M376.008,152.252l0.209-0.454c-0.026-0.012-0.054-0.022-0.082-0.029L376.008,152.252z M378.332,154.896
	l-0.491,0.095c0.031,0.162,0.14,0.297,0.291,0.363L378.332,154.896z M378.913,158.069l-0.357-0.35
	c-0.141,0.144-0.182,0.358-0.104,0.544L378.913,158.069z M377.751,160.184l-0.149-0.477c-0.094,0.029-0.177,0.085-0.239,0.161
	L377.751,160.184z M375.927,157.54v-2.644h-1v2.644H375.927z M373.348,156.323l1.743,1.586l0.673-0.74l-1.743-1.586L373.348,156.323
	z M376.833,155.584l-1.743,1.586l0.673,0.74l1.743-1.586L376.833,155.584z M375.927,166v-5.288h-1V166H375.927z M375.927,160.712
	v-3.173h-1v3.173H375.927z M374.99,160.469c0.037-0.066,0.08-0.038-0.03-0.029c-0.128,0.014-0.249-0.01-0.418-0.07
	c-0.164-0.057-0.294-0.133-0.363-0.194c-0.099-0.088,0.038-0.021-0.019,0.159l-0.954-0.301c-0.133,0.421,0.144,0.745,0.308,0.89
	c0.176,0.152,0.455,0.305,0.7,0.392c0.246,0.083,0.569,0.137,0.822,0.122c0.271-0.021,0.63-0.13,0.826-0.481L374.99,160.469z
	 M373.641,159.686c-0.747,0.065-1.112,0.022-1.324-0.107c-0.172-0.104-0.352-0.339-0.462-1.057l-0.988,0.151
	c0.122,0.798,0.368,1.419,0.932,1.761c0.524,0.318,1.205,0.31,1.929,0.248L373.641,159.686z M371.572,158.144
	c-0.69-0.322-0.928-0.57-1.017-0.789c-0.093-0.232-0.08-0.576,0.123-1.259l-0.959-0.284c-0.205,0.691-0.325,1.337-0.092,1.916
	c0.238,0.592,0.784,0.979,1.521,1.323L371.572,158.144z M370.689,156.054c0.071-0.347,0.155-0.457,0.212-0.505
	c0.066-0.056,0.191-0.113,0.525-0.157l-0.131-0.991c-0.366,0.048-0.742,0.131-1.042,0.386c-0.309,0.262-0.456,0.635-0.544,1.067
	L370.689,156.054z M371.858,154.849c-0.059-0.625,0.038-0.793,0.083-0.842c0.06-0.067,0.195-0.129,0.66-0.203l-0.157-0.988
	c-0.404,0.064-0.912,0.151-1.245,0.521c-0.35,0.387-0.399,0.944-0.336,1.607L371.858,154.849z M372.955,153.56
	c0.369-0.637,0.679-0.898,1.036-1.001c0.393-0.114,0.949-0.071,1.891,0.176l0.254-0.967c-0.956-0.251-1.746-0.366-2.422-0.17
	c-0.714,0.207-1.197,0.724-1.623,1.46L372.955,153.56z M375.799,152.707c0.784,0.361,1.224,0.66,1.501,0.983
	c0.297,0.334,0.424,0.691,0.54,1.302l0.982-0.19c-0.135-0.693-0.365-1.287-0.764-1.764c-0.419-0.488-1.015-0.859-1.842-1.24
	L375.799,152.707z M378.132,155.354c0.537,0.234,0.88,0.427,1.113,0.628c0.21,0.178,0.248,0.297,0.254,0.367
	c0.007,0.084-0.02,0.23-0.18,0.477c-0.166,0.258-0.416,0.539-0.763,0.892l0.714,0.7c0.365-0.372,0.679-0.729,0.888-1.048
	c0.214-0.331,0.373-0.704,0.337-1.109c-0.037-0.419-0.271-0.76-0.603-1.042c-0.308-0.259-0.776-0.526-1.36-0.782L378.132,155.354z
	 M378.452,158.262c0.248,0.591,0.221,0.806,0.167,0.907c-0.067,0.126-0.289,0.311-1.016,0.537l0.297,0.955
	c0.714-0.222,1.323-0.5,1.601-1.022c0.291-0.547,0.124-1.166-0.127-1.764L378.452,158.262z M377.364,159.867
	c-0.447,0.547-0.704,0.702-0.871,0.735c-0.144,0.028-0.349-0.011-0.787-0.305l-0.558,0.83c0.47,0.316,0.974,0.567,1.538,0.456
	c0.541-0.107,0.992-0.521,1.452-1.084L377.364,159.867z"/>
<path id="path24_stroke" fill="#A79E8D" d="M229.636,174.157c-0.189,0.201-0.18,0.518,0.021,0.707
	c0.201,0.189,0.518,0.18,0.707-0.021L229.636,174.157z M238,166l0.329-0.376c-0.203-0.177-0.509-0.162-0.693,0.034L238,166z
	 M242,169.5l-0.329,0.376c0.103,0.09,0.238,0.134,0.374,0.122c0.136-0.012,0.261-0.079,0.346-0.186L242,169.5z M247.5,170
	l0.429,0.257c0.1-0.166,0.094-0.374-0.013-0.535L247.5,170z M246,172.5l-0.416,0.277c0.095,0.143,0.257,0.227,0.428,0.223
	c0.171-0.004,0.329-0.096,0.417-0.243L246,172.5z M234.5,170c-0.276,0-0.5,0.224-0.5,0.5s0.224,0.5,0.5,0.5V170z M230.364,174.843
	l8-8.5l-0.728-0.685l-8,8.5L230.364,174.843z M237.671,166.376l4,3.5l0.659-0.753l-4-3.5L237.671,166.376z M242.39,169.812
	c0.33-0.412,0.841-1.021,1.323-1.532c0.24-0.254,0.457-0.469,0.643-0.625c0.089-0.076,0.148-0.12,0.206-0.154
	c0.066-0.039,0.032-0.002-0.062-0.002v-1c-0.194,0-0.36,0.089-0.452,0.144c-0.1,0.061-0.224,0.153-0.336,0.247
	c-0.216,0.182-0.474,0.437-0.726,0.703c-0.501,0.532-1.04,1.172-1.377,1.593L242.39,169.812z M244.5,167.5
	c-0.105,0-0.14-0.044-0.045,0.014c0.074,0.045,0.157,0.107,0.272,0.201c0.235,0.192,0.516,0.456,0.817,0.761
	c0.605,0.613,1.225,1.327,1.54,1.801l0.832-0.555c-0.352-0.526-1.032-1.312-1.66-1.949c-0.315-0.319-0.635-0.619-0.895-0.832
	c-0.134-0.109-0.272-0.211-0.383-0.28c-0.09-0.055-0.272-0.162-0.478-0.162V167.5z M247.071,169.743l-1.5,2.5l0.857,0.514l1.5-2.5
	L247.071,169.743z M246.416,172.223c-0.179-0.268-0.522-0.694-0.912-1.037c-0.38-0.331-0.914-0.686-1.504-0.686v1
	c0.211,0,0.509,0.145,0.846,0.439c0.326,0.282,0.583,0.606,0.738,0.838L246.416,172.223z M244,170.5c-0.679,0-1.169,0.345-1.5,0.61
	c-0.166,0.133-0.295,0.249-0.406,0.326c-0.114,0.081-0.131,0.065-0.094,0.065v1c0.287,0,0.52-0.141,0.671-0.248
	c0.155-0.111,0.307-0.245,0.454-0.362c0.294-0.235,0.554-0.39,0.875-0.39V170.5z M242,171.5c0.159,0,0.197,0.128,0.104-0.012
	c-0.077-0.114-0.171-0.302-0.313-0.516c-0.307-0.46-0.818-0.973-1.791-0.973v1c0.527,0,0.766,0.237,0.959,0.527
	c0.109,0.161,0.202,0.349,0.313,0.516c0.094,0.141,0.32,0.457,0.729,0.457V171.5z M240,170c-0.918,0-1.654,0.459-2.175,0.85
	c-0.263,0.197-0.482,0.385-0.656,0.516c-0.085,0.064-0.137,0.1-0.19,0.127c-0.048,0.025-0.034,0.007,0.021,0.007v1
	c0.18,0,0.335-0.065,0.443-0.122c0.103-0.055,0.223-0.136,0.325-0.213c0.2-0.151,0.419-0.338,0.656-0.516
	c0.479-0.359,0.993-0.65,1.575-0.65V170z M237,171.5c0.046,0,0.047,0.013-0.023-0.019c-0.068-0.031-0.139-0.072-0.238-0.136
	c-0.204-0.131-0.439-0.308-0.689-0.495s-0.515-0.386-0.748-0.536c-0.12-0.077-0.252-0.153-0.364-0.204
	c-0.11-0.05-0.267-0.11-0.438-0.11v1c-0.046,0-0.047-0.013,0.023,0.019c0.068,0.031,0.139,0.072,0.238,0.136
	c0.204,0.131,0.439,0.308,0.689,0.495s0.515,0.386,0.748,0.536c0.12,0.077,0.252,0.153,0.364,0.204c0.11,0.05,0.267,0.11,0.438,0.11
	V171.5z"/>
<path id="path25_fill" fill="#FFE75F" d="M291.533,105c-15,2.5-14.5,20-3.5,24.5C284.533,121.5,284.033,114,291.533,105z"/>
<path fill="#FF7A7A" d="M344.125,91.5c-5.721,0-10.375-4.654-10.375-10.375s4.654-10.375,10.375-10.375S354.5,75.404,354.5,81.125
	S349.846,91.5,344.125,91.5z M344.125,71.75c-5.169,0-9.375,4.206-9.375,9.375s4.206,9.375,9.375,9.375s9.375-4.206,9.375-9.375
	S349.294,71.75,344.125,71.75z"/>
<path fill="#FF7A7A" d="M379.75,121.75c-4.825,0-8.75-3.925-8.75-8.75s3.925-8.75,8.75-8.75c4.825,0,8.75,3.925,8.75,8.75
	S384.575,121.75,379.75,121.75z M379.75,105.25c-4.273,0-7.75,3.477-7.75,7.75s3.477,7.75,7.75,7.75s7.75-3.477,7.75-7.75
	S384.023,105.25,379.75,105.25z"/>
<path fill="#FF7A7A" d="M299.75,75.25c-4.549,0-8.25-3.701-8.25-8.25s3.701-8.25,8.25-8.25S308,62.451,308,67
	S304.299,75.25,299.75,75.25z M299.75,59.75c-3.998,0-7.25,3.252-7.25,7.25s3.252,7.25,7.25,7.25S307,70.998,307,67
	S303.748,59.75,299.75,59.75z"/>
<path fill="#FF7A7A" d="M253.25,86c-2.895,0-5.25-2.355-5.25-5.25s2.355-5.25,5.25-5.25s5.25,2.355,5.25,5.25S256.145,86,253.25,86z
	 M253.25,76.5c-2.343,0-4.25,1.907-4.25,4.25s1.907,4.25,4.25,4.25s4.25-1.907,4.25-4.25S255.593,76.5,253.25,76.5z"/>
<path fill="#FF7A7A" d="M339.25,128c-2.895,0-5.25-2.355-5.25-5.25s2.355-5.25,5.25-5.25s5.25,2.355,5.25,5.25
	S342.145,128,339.25,128z M339.25,118.5c-2.343,0-4.25,1.907-4.25,4.25s1.907,4.25,4.25,4.25s4.25-1.907,4.25-4.25
	S341.593,118.5,339.25,118.5z"/>
<path fill="#FF7A7A" d="M373.75,87.75c-2.343,0-4.25-1.907-4.25-4.25s1.907-4.25,4.25-4.25S378,81.157,378,83.5
	S376.093,87.75,373.75,87.75z M373.75,80.25c-1.792,0-3.25,1.458-3.25,3.25s1.458,3.25,3.25,3.25S377,85.292,377,83.5
	S375.542,80.25,373.75,80.25z"/>
<path fill="#FF7A7A" d="M404.875,80.25c-3.239,0-5.875-2.636-5.875-5.875s2.636-5.875,5.875-5.875s5.875,2.636,5.875,5.875
	S408.114,80.25,404.875,80.25z M404.875,69.5c-2.688,0-4.875,2.187-4.875,4.875s2.187,4.875,4.875,4.875s4.875-2.187,4.875-4.875
	S407.563,69.5,404.875,69.5z"/>
</svg>
