<?xml version="1.0" encoding="utf-8"?>
<!-- Generator: Adobe Illustrator 17.0.0, SVG Export Plug-In . SVG Version: 6.00 Build 0)  -->
<!DOCTYPE svg PUBLIC "-//W3C//DTD SVG 1.1//EN" "http://www.w3.org/Graphics/SVG/1.1/DTD/svg11.dtd">
<svg version="1.1" id="Layer_2" xmlns="http://www.w3.org/2000/svg" xmlns:xlink="http://www.w3.org/1999/xlink" x="0px" y="0px"
	 width="373.319px" height="194px" viewBox="43 383 373.319 194" enable-background="new 43 383 373.319 194" xml:space="preserve">
<path id="path0_fill" fill="#FFE492" d="M43,388c0-2.761,2.239-5,5-5h363.319c2.761,0,5,2.239,5,5v184c0,2.761-2.239,5-5,5H48
	c-2.761,0-5-2.239-5-5V388z"/>
<path fill="#F5DA88" d="M303.108,560.072c0,0-6.632,4.048-19.754,4.048s-20.079-3.357-22.093-5.066s24.29-4.76,24.29-4.76
	l11.596,0.977L303.108,560.072z"/>
<ellipse transform="matrix(-0.0137 -0.9999 0.9999 -0.0137 -273.8058 832.7493)" fill="#FFD673" cx="273.801" cy="551.413" rx="6.838" ry="15.553"/>
<ellipse transform="matrix(-0.0137 -0.9999 0.9999 -0.0137 -273.5172 832.6255)" fill="none" stroke="#FFC556" stroke-width="0.5" stroke-miterlimit="10" cx="273.885" cy="551.209" rx="5.451" ry="14.092"/>
<path fill="#FFC556" d="M266.947,553.586l7.424,0.337c0,0-0.406-2.349,0.541-3.612c0.947-1.263,5.028-1.13,5.038,1.052
	c0.01,2.182-2.051,1.817-2.095,1.831c-0.044,0.014-0.009,1.047-0.009,1.047s2.052,0.614,3.283-1.26
	c1.243-1.892-0.536-4.934-3.456-4.968c-3.445-0.04-4.708,1.472-4.852,3.048s-0.119,1.415-0.119,1.415l-4.086-0.04l0.028-3.018
	l-1.715,0.011L266.947,553.586z"/>
<path fill="#FFC556" d="M258.367,552.304c0,0-0.181,3.134,0.126,4.117c0.283,0.906,1.358,3.097,6.843,4.32
	c5.485,1.223,12.622,1.099,18.003-0.713s5.935-4.124,6.056-4.697c0.183-0.864-0.082-3.53-0.082-3.53s-0.638,5.203-13.776,6.058
	C263.523,558.641,260.019,554.834,258.367,552.304z"/>
<path fill="#F7D57E" d="M280.287,400.17c0,0-2.853-0.07-5.202,5.606c-2.35,5.676-1.617,9.582,0.977,10.121
	c0.971,0.202-0.823-4.109,0.153-8.137C277.177,403.78,280.287,400.17,280.287,400.17z"/>
<path fill="#FFC556" d="M282.373,400.749c0,0-1.545-0.58-2.087-0.579c-0.499,0.001-1.767,0.199-3.237,2.762
	s-2.522,6.166-2.451,9.151s1.145,3.624,1.413,3.774c0.405,0.227,1.785,0.51,1.785,0.51s-2.513-1.132-0.892-7.862
	C278.387,402.349,280.845,401.183,282.373,400.749z"/>
<path fill="#F7D57E" d="M320.701,397.53c0,0-2.577-0.994-6.57,3.411c-3.994,4.405-4.601,8.204-2.413,9.542
	c0.819,0.501,0.591-4.013,2.795-7.366C316.689,399.805,320.701,397.53,320.701,397.53z"/>
<path fill="#FFC556" d="M322.414,398.738c0,0-1.219-1.033-1.713-1.209c-0.455-0.162-1.675-0.396-3.851,1.46s-4.31,4.796-5.22,7.539
	c-0.91,2.743-0.14,3.676,0.056,3.9c0.295,0.339,1.46,1.047,1.46,1.047s-1.92-1.852,1.753-7.456
	C318.259,398.895,320.879,398.635,322.414,398.738z"/>
<path fill="#F7D57E" d="M303.037,480.745c0,0-2.167,4.687,5.569,12.67c7.736,7.983,14.749,9.576,17.509,5.656
	c1.034-1.468-7.415-1.587-13.404-6.105C306.797,488.505,303.037,480.745,303.037,480.745z"/>
<path fill="#FFC556" d="M305.5,477.696c0,0-2.074,2.149-2.462,3.049c-0.358,0.83-0.941,3.077,2.259,7.361
	c3.2,4.284,8.427,8.621,13.434,10.651s6.841,0.705,7.283,0.366c0.668-0.51,2.13-2.598,2.13-2.598s-3.688,3.359-13.698-4.172
	C305.29,485.467,305.122,480.547,305.5,477.696z"/>
<path fill="#F7D57E" d="M267.909,445.778c0,0-4.677-2.188-12.695,5.513c-8.018,7.7-9.642,14.706-5.734,17.484
	c1.463,1.04,1.621-7.408,6.165-13.376C260.132,449.504,267.909,445.778,267.909,445.778z"/>
<path fill="#FFC556" d="M270.947,448.254c0,0-2.14-2.084-3.038-2.476c-0.828-0.362-3.073-0.955-7.371,2.226
	c-4.298,3.181-8.659,8.388-10.71,13.386c-2.052,4.998-0.735,6.837-0.399,7.282c0.507,0.67,2.589,2.142,2.589,2.142
	s-3.342-3.703,4.233-13.679C263.177,448.01,268.098,447.864,270.947,448.254z"/>
<path fill="#F7D57E" d="M266.235,514.484c0,0,2.951,1.651,8.553-2.998c5.602-4.649,6.995-9.147,4.575-11.147
	c-0.906-0.749-1.41,4.761-4.661,8.444C271.491,512.42,266.235,514.484,266.235,514.484z"/>
<path fill="#FFC556" d="M264.369,512.723c0,0,1.299,1.463,1.867,1.761c0.524,0.275,1.962,0.769,4.92-1.104
	c2.958-1.873,6.053-5.067,7.631-8.234c1.577-3.167,0.805-4.431,0.606-4.737c-0.299-0.462-1.589-1.522-1.589-1.522
	s2.007,2.577-3.414,8.733C269.432,513.251,266.211,513.113,264.369,512.723z"/>
<path opacity="0.3" fill="#893F0E" d="M281.584,557.007c1.173-0.284,3.691-0.971,4.409-1.782c0.946-1.068-0.702-2.929-0.702-2.929
	l0.54,0.163l-2.396-3.922c0,0-6.52-2.075-6.673,1.953c-0.153,4.028,4.821,6.459,4.821,6.459V557.007z"/>
<path fill="#CB8E1A" d="M281.625,560.551c1.692-0.432,4.97-1.482,6.825-3.48c0.231-0.249,0.459-0.481,0.683-0.705l-1.375-0.78
	l-1.248-1.229c-0.131,0.345-0.3,0.646-0.517,0.868c-0.779,0.798-2.957,1.424-4.403,1.768c0.02-0.002,0.034-0.003,0.034-0.003
	V560.551z"/>
<ellipse transform="matrix(0.4685 -0.8835 0.8835 0.4685 -328.4265 550.27)" fill="#FFD673" cx="293.098" cy="548.079" rx="6.838" ry="15.553"/>
<ellipse transform="matrix(0.4685 -0.8835 0.8835 0.4685 -328.2127 550.3474)" fill="none" stroke="#FFC556" stroke-width="0.5" stroke-miterlimit="10" cx="293.269" cy="547.94" rx="5.451" ry="14.092"/>
<path fill="#FFC556" d="M286.042,546.691l6.349,3.863c0,0,0.773-2.255,2.21-2.908c1.437-0.653,4.952,1.425,3.912,3.343
	c-1.04,1.919-2.672,0.607-2.717,0.599c-0.045-0.009-0.511,0.914-0.511,0.914s1.504,1.525,3.484,0.473
	c1.999-1.062,1.901-4.585-0.643-6.017c-3.002-1.691-4.836-0.972-5.72,0.342c-0.884,1.313-0.784,1.183-0.784,1.183l-3.564-1.999
	l1.475-2.633l-1.509-0.815L286.042,546.691z"/>
<path fill="#FFC556" d="M279.135,541.444c0,0-1.665,2.661-1.868,3.671c-0.187,0.931-0.298,3.369,3.925,7.077
	c4.223,3.708,10.541,7.029,16.131,8.026c5.59,0.996,7.187-0.765,7.568-1.209c0.575-0.669,1.625-3.135,1.625-3.135
	s-3.06,4.256-14.992-1.307C280.611,549.479,279.367,544.457,279.135,541.444z"/>
<path fill="#F5DA88" d="M381.186,559.909c0,0-6.966,4.206-20.546,4.206s-20.78-3.474-22.864-5.242
	c-2.084-1.768,25.138-4.927,25.138-4.927l12.001,1.011L381.186,559.909z"/>
<ellipse transform="matrix(-0.0137 -0.9999 0.9999 -0.0137 -195.3492 909.2406)" fill="#FFD673" cx="350.754" cy="550.965" rx="7.077" ry="16.096"/>
<ellipse transform="matrix(-0.0137 -0.9999 0.9999 -0.0137 -195.0505 909.1126)" fill="none" stroke="#FFC556" stroke-width="0.5" stroke-miterlimit="10" cx="350.841" cy="550.753" rx="5.641" ry="14.583"/>
<path fill="#FFC556" d="M343.66,553.213l7.684,0.349c0,0-0.42-2.431,0.559-3.738c0.98-1.308,5.203-1.17,5.213,1.089
	c0.01,2.259-2.123,1.88-2.168,1.894c-0.045,0.014-0.009,1.084-0.009,1.084s2.124,0.635,3.397-1.303
	c1.286-1.958-0.555-5.106-3.576-5.141c-3.565-0.041-4.872,1.523-5.021,3.155s-0.123,1.464-0.123,1.464l-4.228-0.042l0.029-3.123
	l-1.775,0.011L343.66,553.213z"/>
<path fill="#FFC556" d="M334.782,551.886c0,0-0.187,3.243,0.13,4.261c0.293,0.938,1.405,3.205,7.082,4.471
	c5.676,1.266,13.062,1.138,18.631-0.738c5.569-1.875,6.142-4.268,6.268-4.861c0.189-0.894-0.084-3.653-0.084-3.653
	s-0.661,5.385-14.256,6.27C340.118,558.445,336.491,554.505,334.782,551.886z"/>
<path opacity="0.3" fill="#893F0E" d="M358.809,556.754c1.214-0.294,3.82-1.005,4.563-1.844c0.979-1.105-0.726-3.032-0.726-3.032
	l0.559,0.169l-2.48-4.059c0,0-6.748-2.147-6.906,2.021c-0.158,4.169,4.99,6.685,4.99,6.685V556.754z"/>
<path fill="#CB8E1A" d="M358.851,560.422c1.751-0.447,5.143-1.534,7.063-3.602c0.239-0.258,0.475-0.498,0.707-0.73l-1.423-0.807
	l-1.291-1.272c-0.136,0.357-0.311,0.668-0.535,0.898c-0.806,0.826-3.06,1.474-4.556,1.83c0.021-0.002,0.035-0.003,0.035-0.003
	V560.422z"/>
<ellipse transform="matrix(0.4685 -0.8835 0.8835 0.4685 -286.6663 618.5515)" fill="#FFD673" cx="370.724" cy="547.515" rx="7.077" ry="16.096"/>
<ellipse transform="matrix(0.4685 -0.8835 0.8835 0.4685 -286.445 618.6317)" fill="none" stroke="#FFC556" stroke-width="0.5" stroke-miterlimit="10" cx="370.902" cy="547.371" rx="5.641" ry="14.583"/>
<path fill="#FFC556" d="M363.423,546.077l6.571,3.998c0,0,0.8-2.333,2.287-3.01c1.487-0.676,5.125,1.474,4.049,3.46
	c-1.076,1.986-2.765,0.629-2.812,0.62c-0.047-0.009-0.529,0.946-0.529,0.946s1.557,1.578,3.606,0.489
	c2.069-1.099,1.967-4.745-0.666-6.227c-3.107-1.75-5.004-1.006-5.919,0.354s-0.811,1.225-0.811,1.225l-3.688-2.068l1.526-2.725
	l-1.562-0.843L363.423,546.077z"/>
<path fill="#FFC556" d="M356.274,540.647c0,0-1.723,2.754-1.933,3.799c-0.194,0.964-0.308,3.486,4.062,7.324
	c4.37,3.838,10.909,7.275,16.694,8.306c5.785,1.031,7.437-0.791,7.832-1.251c0.595-0.693,1.681-3.244,1.681-3.244
	s-3.167,4.405-15.515-1.352C357.802,548.963,356.514,543.765,356.274,540.647z"/>
<path fill="#F7D57E" d="M239.935,558.906c0,0,3.628,4.339,15.154,0.414c11.526-3.925,16.385-10.125,13.795-14.693
	c-0.97-1.711-5.042,6.6-12.318,10.417C249.379,558.814,239.935,558.906,239.935,558.906z"/>
<path fill="#FFC556" d="M238.067,555.041c0,0,1.158,3.06,1.867,3.865c0.654,0.743,2.607,2.372,8.347,1.208
	c5.74-1.164,12.481-4.311,16.834-8.32s3.899-6.445,3.771-7.041c-0.193-0.9-1.576-3.326-1.576-3.326s1.601,5.224-10.541,11.614
	C245.665,558.885,240.713,556.749,238.067,555.041z"/>
<ellipse transform="matrix(-0.4197 -0.9076 0.9076 -0.4197 -138.7517 1006.5809)" fill="#FFD673" cx="252.38" cy="547.643" rx="7.127" ry="16.209"/>
<ellipse transform="matrix(-0.4197 -0.9076 0.9076 -0.4197 -138.5535 1006.2481)" fill="none" stroke="#FFC556" stroke-width="0.5" stroke-miterlimit="10" cx="252.373" cy="547.413" rx="5.681" ry="14.686"/>
<path fill="#FFC556" d="M246.778,552.62l7.21-2.83c0,0-1.383-2.063-1.019-3.668c0.365-1.604,4.306-3.21,5.242-1.137
	s-1.181,2.6-1.217,2.632s0.436,1.001,0.436,1.001s2.214-0.286,2.59-2.592c0.38-2.328-2.605-4.469-5.398-3.262
	c-3.296,1.424-3.856,3.399-3.324,4.961c0.532,1.562,0.487,1.397,0.487,1.397l-3.906,1.696l-1.254-2.884l-1.628,0.738L246.778,552.62
	z"/>
<path fill="#F5DA88" d="M184.117,555.048c0,0-0.812,6.346,12.859,7.119c12.157,0.687,19.815-3.906,19.389-8.525
	c-0.18-1.958-7.274,4.009-15.471,4.571C192.798,558.769,184.117,555.048,184.117,555.048z"/>
<path fill="#FFC556" d="M183.965,550.758c0,0-0.173,3.267,0.152,4.29c0.3,0.943,1.431,3.221,7.153,4.469s13.16,1.083,18.759-0.832
	c5.599-1.915,6.165-4.327,6.289-4.925c0.186-0.901-0.103-3.679-0.103-3.679s-0.64,5.426-14.327,6.382
	C189.37,557.337,185.698,553.387,183.965,550.758z"/>
<ellipse transform="matrix(-0.0185 -0.9998 0.9998 -0.0185 -345.9205 759.9149)" fill="#FFD673" cx="200.046" cy="549.753" rx="7.127" ry="16.209"/>
<ellipse transform="matrix(-0.0185 -0.9998 0.9998 -0.0185 -345.6198 759.7836)" fill="none" stroke="#FFC556" stroke-width="0.5" stroke-miterlimit="10" cx="200.132" cy="549.54" rx="5.681" ry="14.686"/>
<path fill="#FFC556" d="M192.912,552.052l7.739,0.315c0,0-0.435-2.446,0.545-3.767c0.98-1.321,5.234-1.203,5.255,1.072
	s-2.129,1.904-2.174,1.918c-0.046,0.015-0.004,1.092-0.004,1.092s2.142,0.63,3.415-1.329c1.286-1.978-0.583-5.139-3.626-5.16
	c-3.591-0.025-4.899,1.557-5.041,3.201c-0.142,1.644-0.117,1.475-0.117,1.475l-4.258-0.022l0.014-3.145l-1.788,0.019
	L192.912,552.052z"/>
<path fill="#F5DA88" d="M344.772,447.692c0,0,2.416,2.983,8.419-2.626c5.338-4.988,6.521-10.215,4.341-11.945
	c-0.924-0.734-1.277,4.818-4.431,8.606C349.985,445.468,344.772,447.692,344.772,447.692z"/>
<path fill="#FFC556" d="M342.848,445.979c0,0,1.345,1.43,1.924,1.713c0.533,0.261,1.99,0.715,4.904-1.25
	c2.914-1.965,5.926-5.259,7.416-8.482c1.49-3.223,0.679-4.468,0.471-4.77c-0.314-0.454-1.638-1.481-1.638-1.481
	s2.088,2.527-3.171,8.861C347.943,446.362,344.707,446.317,342.848,445.979z"/>
<ellipse transform="matrix(-0.7355 -0.6775 0.6775 -0.7355 308.7122 997.6799)" fill="#FFD673" cx="349.079" cy="438.587" rx="4.276" ry="9.726"/>
<ellipse transform="matrix(-0.7355 -0.6775 0.6775 -0.7355 308.6986 997.4232)" fill="none" stroke="#FFC556" stroke-width="0.5" stroke-miterlimit="10" cx="349.023" cy="438.461" rx="3.409" ry="8.813"/>
<path fill="#FFC556" d="M347.119,442.634l3.345-3.227c0,0-1.241-0.825-1.408-1.799c-0.167-0.973,1.648-2.769,2.644-1.835
	c0.995,0.934-0.057,1.713-0.069,1.738c-0.013,0.026,0.472,0.454,0.472,0.454s1.161-0.668,0.839-2.032
	c-0.325-1.378-2.471-1.878-3.742-0.566c-1.499,1.547-1.356,2.771-0.702,3.514c0.654,0.743,0.591,0.662,0.591,0.662l-1.775,1.838
	l-1.358-1.31l-0.733,0.784L347.119,442.634z"/>
<circle fill="none" stroke="#FFF1C8" stroke-miterlimit="10" cx="354.089" cy="505.409" r="3.296"/>
<circle fill="none" stroke="#FFF1C8" stroke-miterlimit="10" cx="293.302" cy="489.703" r="4.842"/>
<circle fill="none" stroke="#FFF1C8" stroke-miterlimit="10" cx="402.832" cy="512.488" r="3.54"/>
<circle fill="none" stroke="#FFF1C8" stroke-miterlimit="10" cx="355.309" cy="462.524" r="5.005"/>
<circle fill="none" stroke="#FFF1C8" stroke-miterlimit="10" cx="397.359" cy="434.044" r="7.12"/>
<circle fill="none" stroke="#FFF1C8" stroke-miterlimit="10" cx="340.153" cy="405.807" r="5.737"/>
<circle fill="none" stroke="#FFF1C8" stroke-miterlimit="10" cx="314.032" cy="430.544" r="3.703"/>
<circle fill="none" stroke="#FFF1C8" stroke-miterlimit="10" cx="257.152" cy="427.778" r="5.086"/>
<circle fill="none" stroke="#FFF1C8" stroke-miterlimit="10" cx="191.238" cy="422.082" r="5.086"/>
<circle fill="none" stroke="#FFF1C8" stroke-miterlimit="10" cx="237.622" cy="408.248" r="2.238"/>
<ellipse transform="matrix(0.9589 0.2836 -0.2836 0.9589 127.4211 -62.7534)" fill="#FFD673" cx="280.412" cy="408.638" rx="3.596" ry="8.178"/>
<ellipse transform="matrix(0.9589 0.2836 -0.2836 0.9589 127.4457 -62.7757)" fill="none" stroke="#FFC556" stroke-width="0.5" stroke-miterlimit="10" cx="280.502" cy="408.711" rx="2.866" ry="7.409"/>
<path fill="#FFC556" d="M280.391,404.857l-1.328,3.675c0,0,1.243,0.163,1.729,0.835s-0.217,2.701-1.314,2.365
	c-1.097-0.336-0.592-1.313-0.592-1.338c0-0.024-0.525-0.168-0.525-0.168s-0.629,0.935,0.12,1.845
	c0.756,0.919,2.561,0.501,3.034-0.96c0.558-1.724-0.004-2.593-0.773-2.912c-0.769-0.318-0.692-0.28-0.692-0.28l0.658-2.045
	l1.511,0.485l0.262-0.863L280.391,404.857z"/>
<ellipse transform="matrix(0.8071 0.5904 -0.5904 0.8071 300.6095 -109.6018)" fill="#FFD673" cx="318.052" cy="405.287" rx="3.48" ry="7.916"/>
<ellipse transform="matrix(0.8071 0.5904 -0.5904 0.8071 300.6775 -109.6171)" fill="none" stroke="#FFC556" stroke-width="0.5" stroke-miterlimit="10" cx="318.11" cy="405.383" rx="2.774" ry="7.172"/>
<path fill="#FFC556" d="M319.267,401.835l-2.41,2.916c0,0,1.079,0.554,1.303,1.325c0.224,0.772-1.079,2.39-1.97,1.726
	c-0.89-0.664-0.111-1.39-0.103-1.412c0.008-0.022-0.423-0.324-0.423-0.324s-0.878,0.646-0.493,1.72
	c0.389,1.084,2.17,1.292,3.078,0.115c1.071-1.389,0.842-2.365,0.245-2.906c-0.597-0.541-0.539-0.481-0.539-0.481l1.267-1.649
	l1.219,0.935l0.521-0.701L319.267,401.835z"/>
<ellipse transform="matrix(0.6413 -0.7673 0.7673 0.6413 -259.6052 417.9136)" fill="#FFD673" cx="317.19" cy="486.625" rx="6.507" ry="14.799"/>
<ellipse transform="matrix(0.6413 -0.7673 0.7673 0.6413 -259.4648 418.0226)" fill="none" stroke="#FFC556" stroke-width="0.5" stroke-miterlimit="10" cx="317.377" cy="486.53" rx="5.187" ry="13.408"/>
<path fill="#FFC556" d="M310.896,483.942l5.149,4.848c0,0,1.164-1.947,2.63-2.271c1.467-0.325,4.329,2.302,2.983,3.883
	c-1.346,1.581-2.607,0.039-2.647,0.022c-0.04-0.017-0.656,0.75-0.656,0.75s1.1,1.716,3.15,1.127c2.07-0.595,2.673-3.893,0.587-5.728
	c-2.461-2.165-4.31-1.858-5.392-0.809c-1.082,1.048-0.963,0.947-0.963,0.947l-2.923-2.563l1.892-2.16l-1.244-1.056L310.896,483.942z
	"/>
<ellipse transform="matrix(0.7644 0.6447 -0.6447 0.7644 358.2376 -60.5471)" fill="#FFD673" cx="261.966" cy="459.904" rx="6.507" ry="14.799"/>
<ellipse transform="matrix(0.7644 0.6447 -0.6447 0.7644 358.3807 -60.5641)" fill="none" stroke="#FFC556" stroke-width="0.5" stroke-miterlimit="10" cx="262.06" cy="460.092" rx="5.187" ry="13.408"/>
<path fill="#FFC556" d="M264.677,453.622l-4.871,5.127c0,0,1.941,1.172,2.26,2.64c0.318,1.468-2.322,4.319-3.897,2.965
	c-1.575-1.354-0.027-2.607-0.01-2.647c0.017-0.04-0.747-0.66-0.747-0.66s-1.721,1.092-1.141,3.145
	c0.585,2.073,3.881,2.69,5.725,0.613c2.176-2.452,1.877-4.301,0.833-5.388c-1.044-1.087-0.943-0.967-0.943-0.967l2.576-2.912
	l2.152,1.901l1.062-1.24L264.677,453.622z"/>
<ellipse transform="matrix(-0.7157 -0.6984 0.6984 -0.7157 111.485 1056.4667)" fill="#FFD673" cx="270.788" cy="505.54" rx="4.261" ry="9.691"/>
<ellipse transform="matrix(-0.7157 -0.6984 0.6984 -0.7157 111.4826 1056.212)" fill="none" stroke="#FFC556" stroke-width="0.5" stroke-miterlimit="10" cx="270.734" cy="505.414" rx="3.397" ry="8.78"/>
<path fill="#FFC556" d="M268.719,509.515l3.424-3.117c0,0-1.212-0.858-1.35-1.832c-0.138-0.974,1.721-2.711,2.686-1.752
	s-0.106,1.704-0.119,1.729s0.457,0.466,0.457,0.466s1.176-0.632,0.894-2c-0.284-1.382-2.407-1.941-3.71-0.672
	c-1.538,1.498-1.43,2.72-0.8,3.479c0.63,0.759,0.57,0.676,0.57,0.676l-1.821,1.779l-1.315-1.344l-0.752,0.759L268.719,509.515z"/>
</svg>
