<?xml version="1.0" encoding="utf-8"?>
<!-- Generator: Adobe Illustrator 17.0.0, SVG Export Plug-In . SVG Version: 6.00 Build 0)  -->
<!DOCTYPE svg PUBLIC "-//W3C//DTD SVG 1.1//EN" "http://www.w3.org/Graphics/SVG/1.1/DTD/svg11.dtd">
<svg version="1.1" xmlns="http://www.w3.org/2000/svg" xmlns:xlink="http://www.w3.org/1999/xlink" x="0px" y="0px"
	 width="67.485px" height="51.388px" viewBox="675.066 185.045 67.485 51.388"
	 enable-background="new 675.066 185.045 67.485 51.388" xml:space="preserve">
<g id="konfeti_x5F_live">
	<path id="path41_fill_1_" fill="#ED1C24" d="M738.6,210.935l1.526-2.304l1.526,1.536l-1.526,1.536L738.6,210.935z"/>
	<path id="path41_fill" fill="#ED1C24" d="M689.8,190.844l1.526-2.304l1.526,1.536l-1.526,1.536L689.8,190.844z"/>
	<path id="path40_fill" fill="#F99F1C" d="M738.446,223.429c-2.738,0.595-3.826,0.273-5.834-0.202l-1.286,1.583
		c2.904,1.133,5.246,1.28,10.018,1.131C739.901,225.206,739.249,224.67,738.446,223.429z"/>
	<path id="path39_fill" fill="#F99F1C" d="M730.323,202.517c-1.151,2.089-2.167,2.681-3.923,3.826l0.763,1.536
		c2.985-1.464,4.624-2.972,7.519-6.235C733.028,202.298,732.076,202.507,730.323,202.517z"/>
	<path id="path38_fill" fill="#ED1C24" d="M681.799,214.099c0.177-0.921,0.4-1.347,1.117-1.875
		c-2.553-1.985-3.962-3.033-6.414-4.712c-0.152-0.084-0.4,0.878-1.436,0.925C678.036,210.311,679.502,211.558,681.799,214.099z"/>
	<path id="path32_fill_1_" fill="#F37176" d="M677.6,229.385l1.526-1.536l1.526,0.768l-0.763,1.536L677.6,229.385z"/>
	<path id="path37_fill" fill="#F99F1C" d="M708.825,185.045l-1.526,0.768l0.763,1.536l0.763-0.768V185.045z"/>
	<path id="path36_fill_1_" fill="#F99F1C" d="M686.263,235.29l-0.763-2.304l2.288-0.768v1.536L686.263,235.29z"/>
	<path id="path36_fill" fill="#F99F1C" d="M729.763,196.854L729,194.549l2.288-0.768v1.536L729.763,196.854z"/>
	<path id="path35_fill" fill="#ED1C24" d="M682.8,201.432l1.526-1.536l2.288,2.304l-1.526,0.768L682.8,201.432z"/>
	<path id="path34_fill" fill="#ED1C24" d="M716.625,187.666l-1.526,1.536l2.288,1.536l1.526-0.768L716.625,187.666z"/>
	<path id="path33_fill_1_" fill="#F99F1C" d="M729,232.349l1.526-2.304l0.763,0.768l-0.763,1.536H729z"/>
	<path id="path33_fill" fill="#F99F1C" d="M679.4,221.418l1.526-2.304l0.763,0.768l-0.763,1.536H679.4z"/>
	<path id="path32_fill" fill="#F37176" d="M739.5,218.903l1.526-1.536l1.526,0.768l-0.763,1.536L739.5,218.903z"/>
	<path id="path31_fill_1_" fill="#F99F1C" d="M722.1,197.938l0.763-1.536h0.763l-0.763,1.536H722.1z"/>
	<path id="path31_fill" fill="#F99F1C" d="M697.7,230.259l0.763-1.536h0.763l-0.763,1.536H697.7z"/>
</g>
<g id="live">
	<path id="path42_fill" fill="#FFE492" d="M698.5,216.045c-0.4,0-3.167,1.333-4.5,2v8h12l-1-5.5l-2,4.5
		C701.667,222.045,698.9,216.045,698.5,216.045z"/>
	<path id="path43_stroke" d="M711.606,219.031h0.5H711.606z M698.994,213.545l-0.062-0.496c-0.25,0.031-0.438,0.244-0.438,0.496
		H698.994z M702.494,215.045v-0.5l0,0V215.045z M693.919,218.134l-0.19-0.462L693.919,218.134z M711.606,225.102h-0.5H711.606z
		 M711.023,218.122l0.208-0.455L711.023,218.122z M698.994,213.545l0.062,0.496c0.25-0.031,0.438-0.244,0.438-0.496H698.994z
		 M702.494,215.045v-0.5l0,0V215.045z M692.8,219.059v6.043h1v-6.043H692.8z M694.3,226.602h16.306v-1H694.3V226.602z
		 M712.106,225.102v-6.071h-1v6.071H712.106z M711.231,217.667l-3.946-1.809l-0.417,0.909l3.946,1.809L711.231,217.667z
		 M698.184,215.838l-4.455,1.834l0.381,0.925l4.455-1.834L698.184,215.838z M699.494,215.375v-1.83h-1v1.83H699.494z
		 M699.494,213.545c0,0.003,0,0.022-0.005,0.049c-0.005,0.025-0.018,0.083-0.058,0.148c-0.045,0.073-0.123,0.151-0.237,0.193
		c-0.107,0.04-0.201,0.031-0.256,0.019c-0.053-0.011-0.089-0.029-0.102-0.036c0.007,0.004-0.021-0.012-0.023-0.014
		c-0.01-0.006,0.018,0.014,0.046,0.038c0.121,0.107,0.336,0.32,0.641,0.559c0.591,0.458,1.616,1.026,2.994,1.043v-1
		c-1.122,0.017-1.847-0.415-2.381-0.832c-0.257-0.199-0.449-0.392-0.593-0.519c-0.039-0.034-0.088-0.075-0.128-0.103
		c-0.034-0.024-0.124-0.088-0.247-0.114c-0.07-0.015-0.178-0.023-0.298,0.021c-0.086,0.04-0.217,0.15-0.267,0.219
		c-0.086,0.14-0.087,0.284-0.087,0.329H699.494z M702.494,215.545c1.365-0.013,2.496-0.565,3.206-1.016
		c0.362-0.231,0.63-0.435,0.794-0.542c0.109-0.071,0.086-0.039,0.005-0.027c-0.067,0.01-0.249,0.013-0.393-0.146
		c-0.115-0.127-0.112-0.263-0.112-0.27h1c0-0.069-0.008-0.248-0.147-0.401c-0.167-0.185-0.384-0.189-0.496-0.173
		c-0.173,0.026-0.333,0.132-0.404,0.178c-0.195,0.128-0.458,0.329-0.784,0.536c-0.665,0.424-1.534,0.873-2.669,0.859V215.545z
		 M705.994,213.545v1.858h1v-1.858H705.994z M693.8,219.059c0-0.203,0.122-0.385,0.31-0.462l-0.381-0.925
		c-0.562,0.231-0.929,0.779-0.929,1.387H693.8z M692.8,225.102c0,0.829,0.672,1.5,1.5,1.5v-1c-0.276,0-0.5-0.224-0.5-0.5H692.8z
		 M710.606,226.602c0.828,0,1.5-0.671,1.5-1.5h-1c0,0.276-0.224,0.5-0.5,0.5V226.602z M712.106,219.031
		c0-0.586-0.342-1.119-0.875-1.364l-0.417,0.909c0.178,0.081,0.292,0.259,0.292,0.455H712.106z M707.285,215.858
		c-0.178-0.081-0.292-0.259-0.292-0.455h-1c0,0.586,0.342,1.119,0.875,1.364L707.285,215.858z M698.565,216.763
		c0.562-0.231,0.929-0.779,0.929-1.387h-1c0,0.203-0.122,0.385-0.31,0.462L698.565,216.763z M699.056,214.041L699.056,214.041
		l-0.124-0.992l0,0L699.056,214.041z M702.494,215.545L702.494,215.545v-1l0,0V215.545z M705.994,213.545L705.994,213.545h1l0,0
		H705.994z"/>
	<path id="path44_fill" fill="#FFE492" d="M688,224.86c0-2.844,4-5.728,6-6.815v8C692.001,225.612,688.002,224.769,688,224.86z"/>
	<path id="path45_stroke" d="M694,218.045h0.5c0-0.176-0.093-0.34-0.244-0.43c-0.152-0.09-0.339-0.094-0.494-0.01L694,218.045z
		 M688,224.86h-0.5c0,0.274,0.221,0.497,0.495,0.5c0.274,0.003,0.499-0.216,0.505-0.491L688,224.86z M694,226.045l-0.106,0.489
		c0.148,0.032,0.302-0.005,0.42-0.1c0.118-0.095,0.186-0.238,0.186-0.389H694z M693.761,217.606
		c-1.019,0.554-2.575,1.586-3.859,2.829c-1.267,1.229-2.402,2.787-2.402,4.426h1c0-1.206,0.865-2.512,2.098-3.708
		c1.215-1.182,2.659-2.135,3.641-2.668L693.761,217.606z M688.5,224.869c-0.005,0.276-0.211,0.403-0.275,0.435
		c-0.071,0.035-0.131,0.043-0.145,0.045c0.014-0.002-0.052,0.004-0.045,0.004c0.003,0-0.009,0-0.01,0
		c-0.015,0,0.036,0.003,0.086,0.01c0.106,0.014,0.259,0.04,0.459,0.075c0.402,0.072,0.959,0.182,1.583,0.308
		c1.248,0.253,2.744,0.571,3.743,0.788l0.212-0.977c-1.001-0.217-2.503-0.536-3.756-0.79c-0.626-0.127-1.194-0.239-1.605-0.312
		c-0.207-0.037-0.382-0.066-0.503-0.082c-0.064-0.008-0.13-0.015-0.175-0.017c-0.03-0.001-0.086,0.001-0.124,0.005
		c-0.022,0.003-0.088,0.013-0.163,0.05c-0.068,0.034-0.275,0.163-0.281,0.442L688.5,224.869z M694.5,226.045v-8h-1v8H694.5z"/>
	<path id="path46_stroke" d="M690.3,220.645c-0.221-0.166-0.534-0.121-0.7,0.1c-0.166,0.221-0.121,0.534,0.1,0.7L690.3,220.645z
		 M693.7,224.445c0.221,0.166,0.534,0.121,0.7-0.1c0.166-0.221,0.121-0.534-0.1-0.7L693.7,224.445z M689.7,221.445l4,3l0.6-0.8l-4-3
		L689.7,221.445z"/>
	<path id="path47_stroke" d="M697.3,217.804c0-0.276-0.224-0.5-0.5-0.5s-0.5,0.224-0.5,0.5H697.3z M696.3,223.919
		c0,0.276,0.224,0.5,0.5,0.5s0.5-0.224,0.5-0.5H696.3z M696.3,217.804v6.115h1v-6.115H696.3z"/>
	<path id="path48_stroke" d="M699.9,222.171c0-0.276-0.224-0.5-0.5-0.5s-0.5,0.224-0.5,0.5H699.9z M698.9,223.918
		c0,0.276,0.224,0.5,0.5,0.5s0.5-0.224,0.5-0.5H698.9z M698.9,222.171v1.747h1v-1.747H698.9z"/>
	<path id="path48_stroke_1_" d="M706.9,222.171c0-0.276-0.224-0.5-0.5-0.5s-0.5,0.224-0.5,0.5H706.9z M705.9,223.918
		c0,0.276,0.224,0.5,0.5,0.5s0.5-0.224,0.5-0.5H705.9z M705.9,222.171v1.747h1v-1.747H705.9z"/>
	<path id="path49_stroke" d="M699.464,215.859c-0.103-0.256-0.394-0.381-0.65-0.279c-0.256,0.103-0.381,0.394-0.279,0.65
		L699.464,215.859z M703,226.045l-0.464,0.186c0.077,0.193,0.267,0.319,0.475,0.314c0.208-0.005,0.392-0.138,0.461-0.335
		L703,226.045z M706.972,216.21c0.091-0.261-0.046-0.546-0.307-0.637c-0.261-0.091-0.546,0.046-0.637,0.307L706.972,216.21z
		 M698.536,216.231l4,10l0.928-0.371l-4-10L698.536,216.231z M703.472,226.21l3.5-10l-0.944-0.33l-3.5,10L703.472,226.21z"/>
	<path id="path50_fill" fill="#FFB54A" d="M717.477,212.045c2.8,0,4.5-1.667,4.5-2.5c-5,0.5-5-1.5-5-3.5l0,0c0-2,1-2,2-5.5
		s0.5-6-2-7c-2-0.8-4.5,0.5-5.5,1.5c-0.167-0.5-1-1.8-3-3s-5.167-0.833-6.5-0.5l-2.5-0.5c-0.667,0-2.5,0.2-4.5,1c-2.5,1-4.5,2-4,6.5
		c0.4,3.6,3.833,4.833,5.5,5v-2c0-1,0-2,2-3s2.5-0.5,4.5,0.5c1.6,0.8,4,0.333,5,0l1,3c0.4,1.2,2.167,1.833,3,2
		c-0.333,0.667,0.1,2,0.5,4C712.977,210.545,713.977,212.045,717.477,212.045z"/>
	<path id="path51_stroke" d="M712.46,204.742c0.109-0.254-0.009-0.548-0.263-0.657c-0.254-0.109-0.548,0.009-0.657,0.263
		L712.46,204.742z M693.429,201.788c-0.142-0.237-0.449-0.314-0.686-0.171c-0.237,0.142-0.314,0.449-0.172,0.686L693.429,201.788z
		 M711.54,204.348c-0.746,1.741-1.971,4.318-3.51,6.469c-0.767,1.074-1.577,2.005-2.455,2.685c-0.863,0.671-1.726,1.043-2.576,1.043
		v1c1.15,0,2.224-0.503,3.19-1.254c0.951-0.742,1.859-1.78,2.655-2.893c1.586-2.224,2.861-4.897,3.615-6.656L711.54,204.348z
		 M703,214.545c-2.735,0-4.734-2.359-6.284-5.296c-0.764-1.447-1.384-2.969-1.915-4.303c-0.52-1.308-0.971-2.488-1.373-3.158
		l-0.857,0.514c0.348,0.58,0.759,1.65,1.301,3.013c0.532,1.338,1.174,2.909,1.959,4.4c1.55,2.938,3.801,5.829,7.168,5.829V214.545z"
		/>
	<path id="path52_stroke" d="M711.597,204.203c-0.189,0.201-0.179,0.518,0.022,0.707c0.201,0.189,0.518,0.179,0.707-0.022
		L711.597,204.203z M700.896,190.979c-0.27,0.057-0.442,0.323-0.385,0.593c0.057,0.27,0.323,0.442,0.593,0.385L700.896,190.979z
		 M712.326,204.887c0.085-0.09,0.141-0.206,0.174-0.279c0.037-0.083,0.081-0.197,0.121-0.317c0.077-0.232,0.165-0.554,0.246-0.922
		c0.159-0.727,0.307-1.718,0.346-2.791c0.077-2.135-0.261-4.77-1.857-6.681l-0.768,0.641c1.359,1.627,1.699,3.958,1.625,6.003
		c-0.036,1.017-0.172,1.92-0.324,2.613c-0.075,0.342-0.149,0.613-0.218,0.819c-0.033,0.1-0.059,0.166-0.084,0.222
		c-0.029,0.066-0.029,0.046,0.009,0.005L712.326,204.887z M711.356,193.899c-1.543-1.847-3.209-2.797-4.992-3.166
		c-1.74-0.354-3.598-0.151-5.469,0.246l0.208,0.978c1.823-0.389,3.474-0.579,5.058-0.245c1.542,0.319,3.015,1.138,4.427,2.828
		L711.356,193.899z"/>
	<path id="path53_stroke" d="M707.643,195.584c0.276,0,0.5-0.224,0.5-0.5c0-0.276-0.224-0.5-0.5-0.5V195.584z M703.21,192.725
		l-0.289,0.408l0,0L703.21,192.725z M693.238,192.725l0.299,0.401L693.238,192.725z M692.456,201.545l0.324-0.381L692.456,201.545z
		 M696.562,203.337v0.5c0.199,0,0.38-0.118,0.459-0.302c0.079-0.183,0.042-0.396-0.095-0.541L696.562,203.337z M696.193,197.442
		l-0.289-0.408l0,0L696.193,197.442z M711.92,195.731c0.103-0.256-0.022-0.547-0.279-0.65s-0.547,0.022-0.65,0.279L711.92,195.731z
		 M711.823,204.527c0.266,0.073,0.542-0.083,0.615-0.349c0.073-0.266-0.083-0.542-0.349-0.615L711.823,204.527z M708.952,199.077
		c0.035-0.274-0.159-0.524-0.433-0.559c-0.274-0.035-0.524,0.159-0.559,0.433L708.952,199.077z M707.643,194.584
		c-0.412,0-0.978-0.213-1.717-0.64c-0.728-0.42-1.54-0.997-2.426-1.626l-0.579,0.816c0.886,0.629,1.737,1.231,2.505,1.676
		c0.757,0.438,1.521,0.775,2.217,0.775V194.584z M703.5,192.318c-2.325-1.649-6.634-2.918-10.56,0.007l0.597,0.802
		c3.461-2.578,7.277-1.488,9.384,0.007L703.5,192.318z M692.94,192.324c-4.183,3.116-2.843,7.869-0.808,9.601l0.648-0.762
		c-1.658-1.412-2.798-5.39,0.757-8.038L692.94,192.324z M692.132,201.926c0.785,0.664,1.732,1.153,2.523,1.454
		c0.787,0.299,1.511,0.457,1.908,0.457v-1c-0.219,0-0.81-0.11-1.552-0.392c-0.739-0.28-1.537-0.687-2.23-1.281L692.132,201.926z
		 M696.927,202.995c-0.368-0.391-0.973-1.391-1.215-2.469c-0.241-1.072-0.099-2.059,0.771-2.676l-0.579-0.816
		c-1.346,0.955-1.45,2.458-1.168,3.711c0.281,1.247,0.968,2.409,1.462,2.935L696.927,202.995z M696.482,197.85
		c0.992-0.704,2.167-0.575,3.38-0.091c1.216,0.482,2.347,1.288,3.113,1.697l0.47-0.883c-0.711-0.377-1.889-1.209-3.212-1.742
		c-1.327-0.531-2.922-0.795-4.33,0.204L696.482,197.85z M702.976,199.455c0.838,0.446,2.518,0.849,4.264,0.483
		c1.785-0.374,3.616-1.547,4.68-4.208l-0.928-0.371c-0.936,2.339-2.488,3.293-3.957,3.6c-1.508,0.316-2.95-0.047-3.589-0.387
		L702.976,199.455z M712.088,203.563c-1.241-0.342-3.489-1.715-3.137-4.486l-0.992-0.126c-0.448,3.517,2.437,5.184,3.863,5.576
		L712.088,203.563z"/>
	<path id="path54_stroke" d="M696.035,203.24c0.107,0.254,0.401,0.373,0.655,0.266c0.254-0.107,0.373-0.401,0.266-0.655
		L696.035,203.24z M701.901,197.667c-0.523-0.138-1.525-0.271-2.521-0.119c-1.01,0.16-2.115,0.625-2.808,1.732l0.847,0.531
		c0.489-0.78,1.28-1.143,2.117-1.275c0.851-0.14,1.646-0.027,2.108,0.097L701.901,197.667z M696.572,199.28
		c-0.652,1.04-0.795,2.017-0.769,2.741c0.014,0.356,0.071,0.669,0.12,0.865c0.026,0.104,0.054,0.194,0.073,0.248
		c0.01,0.03,0.02,0.057,0.026,0.072c0.003,0.009,0.007,0.018,0.009,0.022c0.001,0.003,0.002,0.006,0.003,0.007
		c0,0.001,0.001,0.002,0.001,0.003c0,0,0,0.001,0,0.001c0,0,0,0,0,0.001c0,0,0,0,0.461-0.194c0.461-0.195,0.461-0.194,0.461-0.194
		c0,0,0,0,0,0c0,0,0,0.001,0,0.001c0,0,0.001,0.001,0,0.001c0,0,0,0.001,0,0c-0.001-0.002-0.001-0.002-0.002-0.006
		c-0.004-0.009-0.007-0.019-0.013-0.037c-0.014-0.042-0.03-0.092-0.049-0.169c-0.042-0.165-0.082-0.374-0.09-0.657
		c-0.02-0.555,0.087-1.328,0.617-2.174L696.572,199.28z"/>
	<path id="path55_stroke" d="M711.16,194.196c-0.193,0.198-0.189,0.514,0.008,0.707c0.198,0.193,0.514,0.189,0.707-0.008
		L711.16,194.196z M717.02,193.347l0.152-0.476l0,0L717.02,193.347z M718.62,201.828l-0.432-0.252L718.62,201.828z M718.209,209.334
		l0.272-0.419l0,0L718.209,209.334z M722.697,208.281l0.491,0.092c0.045-0.239-0.089-0.476-0.317-0.561
		c-0.228-0.085-0.484,0.006-0.606,0.216L722.697,208.281z M717.244,212.345l-0.065,0.496L717.244,212.345z M712.517,204.539
		c-0.003-0.276-0.23-0.497-0.506-0.494s-0.497,0.23-0.494,0.506L712.517,204.539z M711.875,194.895
		c0.59-0.604,2.234-1.955,4.992-1.072l0.305-0.952c-3.265-1.046-5.285,0.581-6.013,1.325L711.875,194.895z M716.867,193.823
		c1.335,0.427,2.195,1.399,2.475,2.72c0.285,1.341-0.02,3.093-1.154,5.034l0.863,0.504c1.219-2.087,1.62-4.094,1.269-5.746
		c-0.355-1.672-1.471-2.927-3.148-3.464L716.867,193.823z M718.188,201.576c-0.909,1.564-1.424,3.309-1.502,4.744
		c-0.074,1.423,0.26,2.79,1.25,3.433l0.545-0.839c-0.522-0.339-0.865-1.214-0.796-2.543c0.065-1.318,0.512-2.834,1.367-4.291
		L718.188,201.576z M717.937,209.753c1.272,0.826,2.45,0.781,3.377,0.375c0.894-0.391,1.527-1.102,1.815-1.595l-0.864-0.504
		c-0.202,0.346-0.687,0.892-1.353,1.184c-0.632,0.277-1.453,0.338-2.431-0.298L717.937,209.753z M722.205,208.188
		c-0.291,1.551-1.776,4.069-4.896,3.661l-0.13,0.992c3.891,0.509,5.673-2.678,6.009-4.468L722.205,208.188z M717.309,211.85
		c-2.04-0.267-3.213-1.455-3.899-2.901c-0.712-1.484-0.879-3.182-0.893-4.409l-1,0.012c0.016,1.272,0.218,3.182,0.989,4.826
		c0.798,1.682,2.224,3.144,4.673,3.464L717.309,211.85z"/>
	<path id="path57_stroke_2x" d="M709.104,215.09l6.486-0.855l-0.293-1.978l-6.486,0.855L709.104,215.09z M720.142,217.669
		l1.689,11.399l1.983-0.261l-1.689-11.399L720.142,217.669z M718.452,233.548l-6.486,0.855l0.293,1.978l6.486-0.855L718.452,233.548
		z M707.413,230.968l-1.689-11.399l-1.983,0.261l1.689,11.399L707.413,230.968z M708.811,213.111
		c-3.285,0.433-5.555,3.441-5.069,6.719l1.983-0.261c-0.324-2.185,1.189-4.191,3.379-4.479L708.811,213.111z M715.59,214.235
		c2.19-0.289,4.228,1.249,4.552,3.434l1.983-0.261c-0.486-3.278-3.543-5.584-6.828-5.151L715.59,214.235z M721.831,229.068
		c0.324,2.185-1.189,4.191-3.379,4.48l0.293,1.978c3.285-0.433,5.555-3.441,5.069-6.719L721.831,229.068z M711.965,234.402
		c-2.19,0.289-4.228-1.249-4.552-3.434l-1.983,0.261c0.486,3.278,3.543,5.584,6.828,5.151L711.965,234.402z"/>
	<path id="path56_fill" fill="#F0F0F0" d="M704.733,219.7c-0.405-2.732,1.487-5.239,4.224-5.599l6.486-0.855
		c2.738-0.361,5.285,1.561,5.69,4.293l1.689,11.399c0.405,2.732-1.487,5.239-4.224,5.599l-6.486,0.855
		c-2.738,0.361-5.285-1.561-5.69-4.293L704.733,219.7z"/>
	<path id="path58_fill" fill="#090909" d="M717.434,221.383c0.203-0.014,0.389-0.224,0.383-0.522l0,0
		c-0.006-0.297-1.683-1.613-2.112-1.49c-0.429,0.123-0.908,1.579-1.175,1.568c-0.267-0.012-1.274-1.304-1.602-1.125
		c-0.328,0.179-0.83,1.526-1.175,1.568s-1.322-0.916-1.602-1.125c-0.28-0.209-1.49,1.717-1.547,2.074
		c-0.057,0.357,0.222,0.57,0.526,0.377c0.304-0.193,0.802-1.735,1.16-1.579c1.11,0.484,1.442,1.09,1.617,1.136
		c0.175,0.046,1.001-1.419,1.16-1.579c0.158-0.16,1.355,1.095,1.602,1.125c0.247,0.029,0.844-1.323,1.175-1.568
		C716.174,219.998,717.231,221.397,717.434,221.383z"/>
	<path id="path59_fill" fill="#090909" d="M710.196,219.074c-0.071-0.038-0.152-0.055-0.233-0.048
		c-0.114,0.014-0.217,0.072-0.288,0.161c-0.071,0.089-0.103,0.202-0.09,0.315c0.013,0.079,0.048,0.153,0.103,0.212
		c0.054,0.059,0.125,0.101,0.203,0.121s0.161,0.017,0.238-0.009c0.077-0.026,0.144-0.073,0.195-0.137
		c0.05-0.063,0.081-0.139,0.088-0.219c0.007-0.08-0.01-0.16-0.048-0.23C710.326,219.17,710.268,219.112,710.196,219.074z"/>
	<path id="path60_fill" fill="#090909" d="M712.973,218.631c-0.071-0.038-0.152-0.055-0.233-0.048
		c-0.114,0.014-0.217,0.072-0.288,0.161c-0.071,0.089-0.103,0.202-0.09,0.315c0.013,0.079,0.048,0.153,0.103,0.212
		c0.054,0.059,0.125,0.101,0.203,0.121c0.078,0.02,0.161,0.017,0.238-0.009c0.077-0.026,0.144-0.073,0.195-0.137
		c0.05-0.063,0.081-0.139,0.088-0.219c0.007-0.08-0.01-0.16-0.048-0.23C713.103,218.727,713.044,218.669,712.973,218.631z"/>
	<path id="path61_fill" fill="#090909" d="M715.75,218.188c-0.071-0.038-0.152-0.055-0.233-0.048
		c-0.114,0.014-0.217,0.072-0.288,0.161c-0.071,0.089-0.103,0.202-0.09,0.315c0.013,0.079,0.048,0.153,0.103,0.212
		c0.054,0.059,0.125,0.101,0.203,0.121c0.078,0.02,0.161,0.017,0.238-0.009c0.077-0.026,0.144-0.073,0.195-0.137
		c0.05-0.063,0.081-0.139,0.088-0.219c0.007-0.08-0.01-0.16-0.048-0.23C715.879,218.284,715.821,218.226,715.75,218.188z"/>
	<path id="path62_fill" fill="#090909" d="M716.456,223.263c0.438-0.177,0.684-0.548,0.372-0.506
		c-0.312,0.042-2.344-0.314-3.456-0.15c-1.112,0.164-3.12,0.914-3.24,1.219c-0.12,0.304,0.2,0.459,0.51,0.365
		c0.31-0.094,1.681-0.777,2.829-0.96C714.618,223.048,716.018,223.44,716.456,223.263z"/>
	<path id="path63_fill" fill="#090909" d="M714.026,226.692c-0.066-0.297,2.16-2.507,1.852-2.598
		c-0.308-0.091-4.137,0.507-4.417,0.705C711.181,224.996,714.092,226.989,714.026,226.692z"/>
	<path id="path65_stroke_2x" d="M722.079,212.128l6.038,2.919l0.845-1.813l-6.038-2.919L722.079,212.128z M730.028,220.413
		l-4.78,10.252l1.801,0.87l4.78-10.252L730.028,220.413z M719.956,232.549l-6.038-2.919l-0.845,1.813l6.038,2.919L719.956,232.549z
		 M712.007,224.263l4.78-10.252l-1.801-0.87l-4.78,10.252L712.007,224.263z M722.924,210.315c-2.983-1.442-6.537-0.177-7.938,2.826
		l1.801,0.87c0.934-2.002,3.303-2.846,5.292-1.884L722.924,210.315z M728.117,215.047c1.989,0.962,2.844,3.364,1.911,5.366
		l1.801,0.87c1.4-3.003,0.117-6.607-2.866-8.049L728.117,215.047z M725.248,230.664c-0.934,2.002-3.303,2.846-5.292,1.884
		l-0.845,1.813c2.983,1.442,6.537,0.177,7.938-2.826L725.248,230.664z M713.918,229.63c-1.989-0.962-2.844-3.364-1.911-5.366
		l-1.801-0.87c-1.4,3.003-0.117,6.607,2.866,8.049L713.918,229.63z"/>
	<path id="path64_fill" fill="#FFB54A" d="M715.887,213.577c1.167-2.503,4.128-3.557,6.615-2.355l6.038,2.919
		c2.486,1.202,3.555,4.205,2.388,6.708l-4.78,10.252c-1.167,2.503-4.128,3.557-6.615,2.355l-6.038-2.919
		c-2.486-1.202-3.556-4.205-2.388-6.708L715.887,213.577z"/>
	<path id="path66_fill" fill="#090909" d="M724.772,223.929c0.176,0.105,0.447,0.039,0.607-0.209l0,0
		c0.161-0.248-0.493-2.293-0.916-2.438c-0.423-0.145-1.631,0.778-1.845,0.615s-0.328-1.804-0.698-1.845s-1.536,0.779-1.845,0.615
		c-0.309-0.164-0.583-1.513-0.698-1.845s-2.189,0.557-2.435,0.818c-0.246,0.261-0.134,0.596,0.225,0.611
		c0.359,0.015,1.629-0.967,1.839-0.633c0.649,1.035,0.585,1.724,0.704,1.862s1.619-0.593,1.839-0.633s0.51,1.679,0.698,1.845
		c0.188,0.166,1.435-0.604,1.845-0.615S724.596,223.824,724.772,223.929z"/>
	<path id="path67_fill" fill="#090909" d="M720.073,217.875c-0.038-0.072-0.095-0.132-0.166-0.173
		c-0.102-0.054-0.22-0.065-0.328-0.033s-0.198,0.107-0.249,0.207c-0.034,0.072-0.045,0.153-0.033,0.233
		c0.012,0.08,0.047,0.155,0.101,0.217c0.054,0.061,0.124,0.106,0.202,0.129c0.078,0.023,0.16,0.023,0.237-0.001
		s0.144-0.068,0.195-0.13c0.05-0.062,0.081-0.137,0.089-0.217C720.127,218.028,720.111,217.947,720.073,217.875z"/>
	<path id="path68_fill" fill="#090909" d="M722.616,219.105c-0.038-0.072-0.095-0.132-0.166-0.173
		c-0.102-0.054-0.22-0.065-0.328-0.033c-0.108,0.033-0.198,0.107-0.249,0.207c-0.034,0.072-0.045,0.153-0.033,0.233
		s0.047,0.155,0.101,0.217c0.054,0.061,0.124,0.106,0.202,0.129s0.16,0.023,0.237-0.001s0.144-0.068,0.195-0.13
		c0.05-0.062,0.081-0.137,0.089-0.217C722.67,219.258,722.654,219.177,722.616,219.105z"/>
	<path id="path69_fill" fill="#090909" d="M725.159,220.334c-0.038-0.072-0.095-0.132-0.166-0.173
		c-0.102-0.054-0.22-0.065-0.328-0.033s-0.198,0.107-0.249,0.207c-0.034,0.072-0.045,0.153-0.033,0.233
		c0.012,0.08,0.047,0.155,0.101,0.217c0.054,0.061,0.124,0.106,0.202,0.129s0.16,0.023,0.237-0.001s0.144-0.068,0.195-0.13
		s0.081-0.137,0.089-0.217C725.213,220.487,725.197,220.406,725.159,220.334z"/>
	<path id="path70_fill" fill="#090909" d="M722.916,224.914c0.46,0.106,0.871-0.058,0.589-0.203
		c-0.282-0.145-1.763-1.604-2.775-2.107s-3.089-1.039-3.358-0.857s-0.091,0.492,0.218,0.593s1.823,0.326,2.874,0.834
		C721.516,223.682,722.455,224.808,722.916,224.914z"/>
	<path id="path71_fill" fill="#090909" d="M718.996,226.339c0.111-0.282,3.183-0.823,2.979-1.074
		c-0.204-0.252-3.703-1.957-4.045-1.956C717.589,223.312,718.885,226.622,718.996,226.339z"/>
	<path id="path72_fill" d="M705,210.045h-4c0,0.5,0.8,1.5,2,1.5S704.833,210.545,705,210.045z"/>
	<path id="path73_stroke" d="M697.553,205.821c-0.124,0.247-0.023,0.547,0.224,0.671c0.247,0.124,0.547,0.023,0.671-0.224
		L697.553,205.821z M700.553,206.269c0.123,0.247,0.424,0.347,0.671,0.224c0.247-0.123,0.347-0.424,0.224-0.671L700.553,206.269z
		 M698.447,206.269c0.066-0.134,0.178-0.3,0.382-0.462c0.209-0.175,0.385-0.275,0.671-0.262v-1
		c-0.515,0.013-1.005,0.247-1.304,0.488c-0.304,0.255-0.542,0.589-0.643,0.788L698.447,206.269z M699.5,205.545
		c0.285-0.013,0.461,0.086,0.671,0.262c0.204,0.162,0.317,0.327,0.382,0.462l0.894-0.447c-0.101-0.199-0.339-0.533-0.643-0.788
		c-0.299-0.241-0.79-0.475-1.304-0.488V205.545z"/>
	<path id="path73_stroke_1_" d="M704.553,205.821c-0.124,0.247-0.023,0.547,0.224,0.671c0.247,0.124,0.547,0.023,0.671-0.224
		L704.553,205.821z M707.553,206.269c0.123,0.247,0.424,0.347,0.671,0.224c0.247-0.123,0.347-0.424,0.224-0.671L707.553,206.269z
		 M705.447,206.269c0.066-0.134,0.178-0.3,0.382-0.462c0.209-0.175,0.385-0.275,0.671-0.262v-1
		c-0.515,0.013-1.005,0.247-1.304,0.488c-0.304,0.255-0.542,0.589-0.643,0.788L705.447,206.269z M706.5,205.545
		c0.285-0.013,0.461,0.086,0.671,0.262c0.204,0.162,0.317,0.327,0.382,0.462l0.894-0.447c-0.101-0.199-0.339-0.533-0.643-0.788
		c-0.299-0.241-0.79-0.475-1.304-0.488V205.545z"/>
</g>
</svg>
