<?xml version="1.0" encoding="utf-8"?>
<!-- Generator: Adobe Illustrator 17.0.0, SVG Export Plug-In . SVG Version: 6.00 Build 0)  -->
<!DOCTYPE svg PUBLIC "-//W3C//DTD SVG 1.1//EN" "http://www.w3.org/Graphics/SVG/1.1/DTD/svg11.dtd">
<svg version="1.1" xmlns="http://www.w3.org/2000/svg" xmlns:xlink="http://www.w3.org/1999/xlink" x="0px" y="0px"
	 width="64.812px" height="52.75px" viewBox="1169.084 177.045 64.812 52.75"
	 enable-background="new 1169.084 177.045 64.812 52.75" xml:space="preserve">
<g id="konfeti_x5F_search">
	<path id="path5_fill_1_" fill="#ED1C24" d="M1175,185.683l1.75-2.638l1.75,1.759l-1.75,1.759L1175,185.683z"/>
	<path id="path11_fill" fill="#F99F1C" d="M1230.571,213.919c-3.141,0.681-4.389,0.312-6.693-0.232l-1.475,1.812
		c3.331,1.298,6.017,1.465,11.493,1.294C1232.24,215.954,1231.492,215.34,1230.571,213.919z"/>
	<path id="path10_fill" fill="#F99F1C" d="M1223.5,182.045c-1.32,2.391-2.486,3.069-4.5,4.379l0.875,1.759
		c3.424-1.676,5.304-3.402,8.625-7.138C1226.603,181.795,1225.511,182.034,1223.5,182.045z"/>
	<path id="path9_fill" fill="#ED1C24" d="M1176.808,207.305c0.203-1.054,0.458-1.543,1.281-2.147
		c-2.928-2.273-4.546-3.472-7.358-5.394c-0.175-0.096-0.458,1.005-1.648,1.058C1172.491,202.968,1174.173,204.396,1176.808,207.305z
		"/>
	<path id="path3_fill_3_" fill="#F99F1C" d="M1229.875,194.562l-0.875-2.638l2.625-0.879v1.759L1229.875,194.562z"/>
	<path id="path8_fill" fill="#F99F1C" d="M1199,179.045l-1-1.5l3-0.5v1L1199,179.045z"/>
	<path id="path1_fill_1_" fill="#ED1C24" d="M1184.75,224.045l-1.75,1.759l2.625,1.759l1.75-0.879L1184.75,224.045z"/>
	<path id="path7_fill" fill="#F99F1C" d="M1208,228.683l1.75-2.638l0.875,0.879l-0.875,1.759H1208z"/>
	<path id="path6_fill_1_" fill="#F37176" d="M1226,204.804l1.75-1.759l1.75,0.879l-0.875,1.759L1226,204.804z"/>
	<path id="path6_fill" fill="#F37176" d="M1172,219.804l1.75-1.759l1.75,0.879l-0.875,1.759L1172,219.804z"/>
	<path id="path5_fill" fill="#ED1C24" d="M1220,195.683l1.75-2.638l1.75,1.759l-1.75,1.759L1220,195.683z"/>
	<path id="path4_fill" fill="#F99F1C" d="M1185.75,185.045l-1.75,0.879l0.875,1.759l0.875-0.879V185.045z"/>
	<path id="path3_fill_2_" fill="#F99F1C" d="M1213.875,188.562l-0.875-2.638l2.625-0.879v1.759L1213.875,188.562z"/>
	<path id="path3_fill_1_" fill="#F99F1C" d="M1197.875,226.562l-0.875-2.638l2.625-0.879v1.759L1197.875,226.562z"/>
	<path id="path3_fill" fill="#F99F1C" d="M1193.875,186.562l-0.875-2.638l2.625-0.879v1.759L1193.875,186.562z"/>
	<path id="path2_fill" fill="#ED1C24" d="M1179,194.804l1.75-1.759l2.625,2.638l-1.75,0.879L1179,194.804z"/>
	<path id="path1_fill" fill="#ED1C24" d="M1206.75,181.045l-1.75,1.759l2.625,1.759l1.75-0.879L1206.75,181.045z"/>
	<path id="path0_fill_1_" fill="#F99F1C" d="M1219,203.804l0.875-1.759h0.875l-0.875,1.759H1219z"/>
	<path id="path0_fill" fill="#F99F1C" d="M1182,213.804l0.875-1.759h0.875l-0.875,1.759H1182z"/>
</g>
<g id="search">
	<path id="path13_stroke_2x" d="M1215,205.045c0,7.732-6.268,14-14,14v2c8.837,0,16-7.163,16-16H1215z M1201,219.045
		c-7.732,0-14-6.268-14-14h-2c0,8.837,7.163,16,16,16V219.045z M1187,205.045c0-7.732,6.268-14,14-14v-2c-8.837,0-16,7.163-16,16
		H1187z M1201,191.045c7.732,0,14,6.268,14,14h2c0-8.837-7.163-16-16-16V191.045z"/>
	<path id="path17_stroke" d="M1210.146,216.399l2,2l0.707-0.707l-2-2L1210.146,216.399z"/>
	<path id="path17_stroke_1_" d="M1211.646,214.399l2,2l0.707-0.707l-2-2L1211.646,214.399z"/>
	<path id="path18_fill" fill="#FFE492" d="M1215,215.545l-3.5,3.5l9.5,9.5c0,0,1.813,1.688,3.5,0s0.5-3,0-3.5L1215,215.545z"/>
	<path id="path19_stroke" d="M1211.5,219.045l-0.354-0.354c-0.195,0.195-0.195,0.512,0,0.707L1211.5,219.045z M1215,215.545
		l0.354-0.354c-0.195-0.195-0.512-0.195-0.707,0L1215,215.545z M1221,228.545l-0.354,0.354c0.004,0.004,0.008,0.008,0.013,0.012
		L1221,228.545z M1211.854,219.399l3.5-3.5l-0.707-0.707l-3.5,3.5L1211.854,219.399z M1214.646,215.899l9.5,9.5l0.707-0.707
		l-9.5-9.5L1214.646,215.899z M1224.146,225.399c0.244,0.244,0.586,0.587,0.689,1.071c0.1,0.404,0.053,0.98-0.689,1.722l0.707,0.707
		c0.946-0.946,1.149-1.869,0.952-2.669c-0.194-0.72-0.696-1.282-0.952-1.538L1224.146,225.399z M1224.146,228.191
		c-0.687,0.687-1.355,0.676-1.878,0.51c-0.284-0.087-0.5-0.212-0.68-0.334c-0.085-0.057-0.145-0.103-0.192-0.141
		c-0.022-0.018-0.035-0.029-0.046-0.039c-0.005-0.004-0.007-0.006-0.009-0.008c-0.001-0.001-0.001-0.001-0.001-0.001c0,0,0,0,0,0
		c0,0,0,0,0,0c0,0,0,0,0,0c0,0,0,0-0.34,0.366s-0.34,0.366-0.34,0.366c0,0,0,0,0,0c0,0,0.001,0.001,0.001,0.001
		c0,0.001,0.001,0.001,0.002,0.002c0.001,0.001,0.004,0.004,0.007,0.006c0.005,0.004,0.013,0.011,0.022,0.019
		c0.016,0.014,0.043,0.037,0.074,0.062c0.058,0.047,0.153,0.12,0.264,0.195c0.212,0.142,0.554,0.333,0.935,0.457
		c0.806,0.256,1.887,0.245,2.888-0.756L1224.146,228.191z M1221.354,228.191l-9.5-9.5l-0.707,0.707l9.5,9.5L1221.354,228.191z"/>
	<path id="path12_fill" fill="#FFB54A" d="M1216,205.045c0,8.284-6.716,15-15,15s-15-6.716-15-15c0-8.284,6.716-15,15-15
		S1216,196.761,1216,205.045z"/>
	<path id="path15_stroke_2x" d="M1211,205.045c0,5.523-4.477,10-10,10v2c6.627,0,12-5.373,12-12H1211z M1201,215.045
		c-5.523,0-10-4.477-10-10h-2c0,6.627,5.373,12,12,12V215.045z M1191,205.045c0-5.523,4.477-10,10-10v-2c-6.627,0-12,5.373-12,12
		H1191z M1201,195.045c5.523,0,10,4.477,10,10h2c0-6.627-5.373-12-12-12V195.045z"/>
	<path id="path14_fill" fill="#FFFFFF" d="M1212,205.045c0,6.075-4.925,11-11,11s-11-4.925-11-11c0-6.075,4.925-11,11-11
		S1212,198.97,1212,205.045z"/>
	<path id="path16_stroke" d="M1194.318,199.409c-0.178,0.211-0.151,0.527,0.06,0.705c0.211,0.178,0.527,0.151,0.705-0.06
		L1194.318,199.409z M1200.306,196.825l0.042,0.498l0,0L1200.306,196.825z M1201.011,197.295c0.276,0,0.5-0.224,0.5-0.5
		s-0.224-0.5-0.5-0.5V197.295z M1204.587,197.057c-0.252-0.113-0.548,0-0.661,0.252c-0.113,0.252,0,0.548,0.252,0.661
		L1204.587,197.057z M1207.013,200.141c0.175,0.214,0.49,0.245,0.704,0.07c0.214-0.175,0.245-0.49,0.07-0.704L1207.013,200.141z
		 M1195.083,200.053c1.289-1.529,3.157-2.552,5.266-2.73l-0.084-0.996c-2.382,0.202-4.492,1.358-5.946,3.082L1195.083,200.053z
		 M1200.348,197.323c0.222-0.019,0.436-0.028,0.663-0.028v-1c-0.248,0-0.505,0.011-0.748,0.032L1200.348,197.323z M1204.178,197.969
		c1.126,0.501,2.066,1.227,2.835,2.172l0.774-0.633c-0.846-1.029-1.969-1.896-3.2-2.451L1204.178,197.969z"/>
	<path id="path16_stroke_1_" d="M1207.783,210.961c0.178-0.211,0.151-0.527-0.06-0.705c-0.211-0.178-0.527-0.151-0.705,0.06
		L1207.783,210.961z M1201.795,213.545l-0.042-0.498l0,0L1201.795,213.545z M1201.089,213.075c-0.276,0-0.5,0.224-0.5,0.5
		s0.224,0.5,0.5,0.5V213.075z M1197.513,213.313c0.252,0.113,0.548,0,0.661-0.252s0-0.548-0.252-0.661L1197.513,213.313z
		 M1195.088,210.229c-0.175-0.214-0.49-0.245-0.704-0.07c-0.214,0.175-0.245,0.49-0.07,0.704L1195.088,210.229z M1207.018,210.317
		c-1.289,1.529-3.157,2.552-5.266,2.73l0.084,0.996c2.382-0.202,4.492-1.358,5.946-3.082L1207.018,210.317z M1201.753,213.047
		c-0.222,0.019-0.436,0.028-0.663,0.028v1c0.248,0,0.505-0.011,0.748-0.032L1201.753,213.047z M1197.922,212.401
		c-1.126-0.501-2.066-1.227-2.835-2.172l-0.774,0.633c0.846,1.029,1.969,1.896,3.2,2.451L1197.922,212.401z"/>
</g>
</svg>
