<?xml version="1.0" encoding="utf-8"?>
<!-- Generator: Adobe Illustrator 17.0.0, SVG Export Plug-In . SVG Version: 6.00 Build 0)  -->
<!DOCTYPE svg PUBLIC "-//W3C//DTD SVG 1.1//EN" "http://www.w3.org/Graphics/SVG/1.1/DTD/svg11.dtd">
<svg version="1.1" xmlns="http://www.w3.org/2000/svg" xmlns:xlink="http://www.w3.org/1999/xlink" x="0px" y="0px"
	 width="72.607px" height="62.252px" viewBox="427.371 178.609 72.607 62.252"
	 enable-background="new 427.371 178.609 72.607 62.252" xml:space="preserve">
<g id="konfeti_x5F_table">
	<path id="path74_fill" fill="#F99F1C" d="M474.051,232.761l-1.189-1.364l0.308-0.737l1.189,1.364L474.051,232.761z"/>
	<path id="path74_fill_1_" fill="#F99F1C" d="M474.376,191.311l-1.189-1.364l0.308-0.737l1.189,1.364L474.376,191.311z"/>
	<path id="path75_fill" fill="#F37176" d="M476.959,187.476l-0.881-2.101l1.365-1.162l1.189,1.364L476.959,187.476z"/>
	<path id="path76_fill" fill="#F99F1C" d="M455.539,240.86l-1.63-2.414l1.057-0.424l1.189,1.364L455.539,240.86z"/>
	<path id="path76_fill_1_" fill="#F99F1C" d="M487.814,201.909l-1.63-2.414l1.057-0.424l1.189,1.364L487.814,201.909z"/>
	<path id="path77_fill" fill="#ED1C24" d="M484.797,191.06l0.881,2.101l2.423-1.586l-0.132-1.788L484.797,191.06z"/>
	<path id="path78_fill" fill="#F99F1C" d="M441.464,198.781l-2.555-0.202l0.176-2.525l1.498,0.626L441.464,198.781z"/>
	<path id="path79_fill" fill="#F99F1C" d="M495.3,192.343l-1.63,0.309l0.631-2.706l0.852,0.356L495.3,192.343z"/>
	<path id="path78_fill_1_" fill="#F99F1C" d="M451.525,192.762l-2.555-0.202l0.176-2.525l1.498,0.626L451.525,192.762z"/>
	<path id="path80_fill" fill="#ED1C24" d="M449.268,229.597c-0.826-0.546-1.152-0.935-1.376-1.844
		c-2.967,1.659-4.559,2.594-7.186,4.281c-0.143,0.113,0.694,0.744,0.321,1.766C444.054,231.692,445.863,230.783,449.268,229.597z"/>
	<path id="path81_fill" fill="#F99F1C" d="M482.698,229.209l0.132,1.788l1.806-0.111l-0.44-1.05L482.698,229.209z"/>
	<path id="path82_fill" fill="#F99F1C" d="M455.977,183.178c1.571,1.964,1.738,3.188,2.144,5.352l1.806-0.111
		c-0.221-3.483-1.028-5.682-3.039-9.81C456.857,180.475,456.676,181.48,455.977,183.178z"/>
	<path id="path83_fill" fill="#ED1C24" d="M437.986,220.643l-1.63-2.414l2.114-0.849l0.881,2.101L437.986,220.643z"/>
	<path id="path75_fill_1_" fill="#F37176" d="M432.84,209.198l1.915-1.234l1.382,1.142l-1.135,1.409L432.84,209.198z"/>
	<path id="path77_fill_1_" fill="#ED1C24" d="M467.63,180.076l-1.915,1.234l1.985,2.108l1.737-0.442L467.63,180.076z"/>
	<path id="path84_fill" fill="#ED1C24" d="M434.32,185.886l1.915-1.234l1.807,2.9l-1.737,0.442L434.32,185.886z"/>
	<path id="path78_fill_2_" fill="#F99F1C" d="M427.618,215.342l-0.247-2.551l2.517-0.267l-0.355,1.584L427.618,215.342z"/>
	<path id="path85_fill" fill="#F99F1C" d="M491.043,221.092c-2.937-0.014-3.975-0.596-5.919-1.546l-1.681,1.337
		c2.707,1.834,5.068,2.522,9.982,3.462C492.12,223.258,491.577,222.556,491.043,221.092z"/>
	<path id="path78_fill_3_" fill="#F99F1C" d="M497.708,207.437l-0.247-2.551l2.517-0.267l-0.355,1.584L497.708,207.437z"/>
	<path id="path83_fill_1_" fill="#ED1C24" d="M487.354,210.238l2.092-2.026l1.205,1.934l-1.915,1.234L487.354,210.238z"/>
</g>
<g id="Table">
	<path id="path87_stroke_2x" d="M481,210.046c0,9.917-8.258,18-18.5,18v2c11.297,0,20.5-8.93,20.5-20H481z M462.5,228.046
		c-10.242,0-18.5-8.083-18.5-18h-2c0,11.07,9.203,20,20.5,20V228.046z M444,210.046c0-9.917,8.258-18,18.5-18v-2
		c-11.297,0-20.5,8.93-20.5,20H444z M462.5,192.046c10.242,0,18.5,8.083,18.5,18h2c0-11.07-9.203-20-20.5-20V192.046z"/>
	<path id="path86_fill" fill="#FFB54A" d="M482,210.046c0,10.493-8.73,19-19.5,19c-10.77,0-19.5-8.507-19.5-19
		c0-10.493,8.73-19,19.5-19C473.27,191.046,482,199.553,482,210.046z"/>
	<path id="path89_stroke_2x" d="M480.71,210.004c-0.001-0.36-0.014-0.734-0.036-1.088l-1.996,0.129
		c0.021,0.324,0.032,0.635,0.032,0.964L480.71,210.004z M480.397,206.756c-0.137-0.708-0.326-1.432-0.547-2.107l-1.9,0.624
		c0.203,0.616,0.359,1.217,0.483,1.863L480.397,206.756z M479.043,202.627c-0.308-0.648-0.67-1.301-1.052-1.904l-1.687,1.074
		c0.351,0.55,0.652,1.095,0.932,1.686L479.043,202.627z M476.714,198.966c-0.454-0.551-0.962-1.096-1.48-1.589l-1.379,1.448
		c0.475,0.451,0.901,0.909,1.316,1.413L476.714,198.966z M473.575,195.976c-0.57-0.425-1.192-0.835-1.812-1.193l-0.999,1.733
		c0.57,0.328,1.092,0.672,1.615,1.063L473.575,195.976z M469.823,193.813c-0.652-0.279-1.351-0.531-2.041-0.735l-0.566,1.918
		c0.633,0.186,1.222,0.399,1.819,0.656L469.823,193.813z M465.671,192.586c-0.695-0.119-1.433-0.203-2.153-0.243l-0.109,1.997
		c0.662,0.036,1.285,0.107,1.924,0.217L465.671,192.586z M462.434,192.315c-0.359,0.001-0.729,0.012-1.083,0.033l0.118,1.997
		c0.325-0.019,0.639-0.029,0.969-0.03L462.434,192.315z M459.199,192.601c-0.709,0.126-1.432,0.298-2.109,0.501l0.575,1.916
		c0.622-0.187,1.231-0.332,1.882-0.447L459.199,192.601z M455.052,193.846c-0.658,0.286-1.322,0.622-1.936,0.979l1.007,1.728
		c0.563-0.328,1.121-0.611,1.725-0.873L455.052,193.846z M451.31,196.026c-0.571,0.431-1.138,0.914-1.652,1.408l1.386,1.442
		c0.47-0.453,0.946-0.858,1.471-1.253L451.31,196.026z M448.185,199.03c-0.452,0.554-0.888,1.159-1.269,1.764l1.692,1.066
		c0.348-0.553,0.713-1.06,1.127-1.566L448.185,199.03z M445.872,202.702c-0.302,0.645-0.577,1.341-0.798,2.025l1.903,0.615
		c0.201-0.624,0.43-1.203,0.706-1.791L445.872,202.702z M444.536,206.837c-0.131,0.696-0.223,1.438-0.267,2.161l1.996,0.12
		c0.039-0.659,0.116-1.276,0.236-1.911L444.536,206.837z M444.238,210.087c0.001,0.36,0.013,0.734,0.036,1.088l1.996-0.129
		c-0.021-0.324-0.031-0.635-0.032-0.964L444.238,210.087z M444.551,213.335c0.137,0.708,0.326,1.432,0.547,2.107l1.9-0.624
		c-0.203-0.616-0.359-1.217-0.483-1.863L444.551,213.335z M445.905,217.464c0.308,0.648,0.67,1.301,1.052,1.904l1.687-1.074
		c-0.351-0.55-0.652-1.095-0.932-1.686L445.905,217.464z M448.234,221.126c0.454,0.551,0.962,1.096,1.48,1.589l1.379-1.448
		c-0.475-0.451-0.901-0.909-1.316-1.413L448.234,221.126z M451.373,224.115c0.57,0.425,1.192,0.835,1.812,1.193l0.999-1.733
		c-0.57-0.328-1.092-0.672-1.614-1.063L451.373,224.115z M455.125,226.278c0.652,0.279,1.351,0.531,2.041,0.735l0.566-1.918
		c-0.633-0.186-1.222-0.399-1.819-0.656L455.125,226.278z M459.277,227.505c0.695,0.119,1.433,0.203,2.153,0.243l0.109-1.997
		c-0.662-0.036-1.285-0.107-1.924-0.217L459.277,227.505z M462.514,227.776c0.359-0.001,0.73-0.012,1.083-0.033l-0.118-1.997
		c-0.325,0.019-0.639,0.029-0.969,0.03L462.514,227.776z M465.749,227.49c0.709-0.126,1.432-0.298,2.109-0.501l-0.575-1.916
		c-0.622,0.187-1.231,0.332-1.882,0.447L465.749,227.49z M469.896,226.245c0.658-0.286,1.322-0.622,1.936-0.979l-1.007-1.728
		c-0.563,0.328-1.121,0.611-1.725,0.872L469.896,226.245z M473.638,224.065c0.571-0.431,1.138-0.914,1.652-1.408l-1.386-1.442
		c-0.47,0.453-0.946,0.858-1.47,1.253L473.638,224.065z M476.763,221.061c0.452-0.554,0.888-1.159,1.269-1.764l-1.692-1.066
		c-0.348,0.553-0.713,1.06-1.127,1.566L476.763,221.061z M479.077,217.389c0.302-0.645,0.577-1.341,0.798-2.025l-1.903-0.615
		c-0.201,0.624-0.43,1.203-0.706,1.791L479.077,217.389z M480.412,213.254c0.131-0.696,0.223-1.438,0.267-2.161l-1.996-0.12
		c-0.039,0.659-0.116,1.276-0.236,1.911L480.412,213.254z M481.71,210.002c-0.001-0.376-0.015-0.78-0.038-1.151l-3.992,0.258
		c0.02,0.309,0.03,0.589,0.03,0.902L481.71,210.002z M481.379,206.567c-0.144-0.74-0.348-1.525-0.578-2.23L477,205.584
		c0.193,0.586,0.334,1.126,0.451,1.74L481.379,206.567z M479.947,202.199c-0.322-0.676-0.713-1.384-1.112-2.012l-3.374,2.148
		c0.335,0.524,0.606,1.014,0.872,1.578L479.947,202.199z M477.485,198.33c-0.474-0.574-1.023-1.163-1.562-1.678l-2.758,2.897
		c0.453,0.43,0.838,0.843,1.233,1.325L477.485,198.33z M474.174,195.175c-0.594-0.443-1.265-0.885-1.911-1.258l-1.998,3.466
		c0.544,0.313,1.017,0.624,1.515,0.997L474.174,195.175z M470.217,192.894c-0.679-0.29-1.433-0.562-2.151-0.775l-1.133,3.836
		c0.604,0.177,1.138,0.37,1.709,0.616L470.217,192.894z M465.84,191.601c-0.723-0.123-1.519-0.214-2.268-0.256l-0.219,3.994
		c0.633,0.034,1.198,0.098,1.809,0.204L465.84,191.601z M462.432,191.315c-0.373,0.001-0.772,0.013-1.14,0.035l0.237,3.993
		c0.311-0.019,0.597-0.027,0.912-0.028L462.432,191.315z M459.025,191.616c-0.738,0.131-1.518,0.317-2.223,0.528l1.15,3.831
		c0.594-0.179,1.146-0.311,1.768-0.42L459.025,191.616z M454.654,192.929c-0.685,0.298-1.402,0.661-2.041,1.032l2.013,3.457
		c0.537-0.314,1.043-0.57,1.62-0.819L454.654,192.929z M450.708,195.228c-0.595,0.45-1.207,0.971-1.743,1.485l2.771,2.884
		c0.449-0.432,0.879-0.799,1.38-1.175L450.708,195.228z M447.41,198.398c-0.47,0.577-0.942,1.233-1.341,1.863l3.384,2.133
		c0.331-0.527,0.66-0.984,1.055-1.466L447.41,198.398z M444.966,202.278c-0.315,0.674-0.613,1.428-0.844,2.142l3.806,1.23
		c0.191-0.594,0.396-1.114,0.66-1.674L444.966,202.278z M443.553,206.653c-0.136,0.727-0.236,1.531-0.282,2.286l3.993,0.24
		c0.037-0.627,0.106-1.181,0.221-1.786L443.553,206.653z M443.238,210.089c0.001,0.376,0.015,0.78,0.038,1.151l3.992-0.258
		c-0.02-0.309-0.03-0.589-0.03-0.902L443.238,210.089z M443.569,213.524c0.144,0.74,0.348,1.525,0.578,2.23l3.801-1.247
		c-0.193-0.586-0.334-1.126-0.451-1.74L443.569,213.524z M445.001,217.892c0.322,0.676,0.713,1.384,1.112,2.012l3.374-2.148
		c-0.335-0.524-0.606-1.014-0.872-1.578L445.001,217.892z M447.463,221.762c0.474,0.574,1.023,1.163,1.562,1.678l2.758-2.897
		c-0.453-0.43-0.838-0.843-1.233-1.325L447.463,221.762z M450.775,224.916c0.594,0.443,1.265,0.885,1.911,1.258l1.998-3.466
		c-0.544-0.312-1.017-0.624-1.515-0.997L450.775,224.916z M454.731,227.198c0.679,0.29,1.434,0.562,2.151,0.775l1.133-3.836
		c-0.604-0.177-1.138-0.37-1.709-0.616L454.731,227.198z M459.108,228.491c0.723,0.123,1.518,0.214,2.268,0.256l0.219-3.994
		c-0.633-0.034-1.198-0.098-1.809-0.204L459.108,228.491z M462.516,228.776c0.373-0.001,0.772-0.013,1.14-0.035l-0.237-3.993
		c-0.311,0.019-0.597,0.028-0.912,0.028L462.516,228.776z M465.923,228.475c0.738-0.131,1.518-0.317,2.223-0.528l-1.15-3.831
		c-0.594,0.179-1.146,0.311-1.768,0.42L465.923,228.475z M470.294,227.162c0.685-0.298,1.402-0.661,2.041-1.032l-2.013-3.457
		c-0.537,0.314-1.043,0.57-1.62,0.819L470.294,227.162z M474.24,224.863c0.595-0.45,1.207-0.971,1.743-1.485l-2.771-2.884
		c-0.449,0.432-0.879,0.799-1.38,1.175L474.24,224.863z M477.538,221.694c0.47-0.577,0.942-1.233,1.341-1.863l-3.384-2.133
		c-0.331,0.527-0.66,0.984-1.055,1.466L477.538,221.694z M479.982,217.813c0.315-0.674,0.612-1.428,0.844-2.142l-3.806-1.23
		c-0.191,0.594-0.396,1.114-0.66,1.674L479.982,217.813z M481.395,213.439c0.136-0.727,0.236-1.531,0.282-2.286l-3.993-0.24
		c-0.037,0.627-0.106,1.181-0.22,1.786L481.395,213.439z"/>
	<path id="path88_fill" fill="#FFB54A" d="M479.71,210.007c0.021,9.24-7.679,16.748-17.199,16.77
		c-9.519,0.022-17.253-7.452-17.274-16.692c-0.021-9.24,7.679-16.748,17.199-16.769C471.956,193.294,479.69,200.767,479.71,210.007z
		"/>
	<path id="path90_fill" d="M462.5,207.274l-7.8-5.611l5.594,7.824l-5.594,7.824l7.8-5.611l7.8,5.611l-5.594-7.824l5.594-7.824
		L462.5,207.274z"/>
	<path id="path91_fill" d="M470.746,201.189c0.653,0.655,0.653,1.716,0,2.371c-0.653,0.655-1.711,0.655-2.364,0
		c-0.653-0.655-0.653-1.716,0-2.371C469.035,200.534,470.093,200.534,470.746,201.189z"/>
	<path id="path91_fill_1_" d="M456.546,201.189c0.653,0.655,0.653,1.716,0,2.371c-0.653,0.655-1.711,0.655-2.364,0
		c-0.653-0.655-0.653-1.716,0-2.371C454.835,200.534,455.893,200.534,456.546,201.189z"/>
	<path id="path91_fill_2_" d="M471.046,215.702c0.653,0.655,0.653,1.716,0,2.371c-0.653,0.655-1.711,0.655-2.364,0
		c-0.653-0.655-0.653-1.716,0-2.371C469.335,215.047,470.393,215.047,471.046,215.702z"/>
	<path id="path91_fill_3_" d="M456.546,215.415c0.653,0.655,0.653,1.716,0,2.371c-0.653,0.655-1.711,0.655-2.364,0
		c-0.653-0.655-0.653-1.716,0-2.371C454.835,214.76,455.893,214.76,456.546,215.415z"/>
	<path id="path92_fill" fill="#F0F0F0" d="M463.057,208.929c-0.308-0.309-0.807-0.309-1.114,0s-0.308,0.809,0,1.118
		s0.807,0.309,1.114,0C463.365,209.738,463.365,209.237,463.057,208.929z"/>
</g>
</svg>
