<?xml version="1.0" encoding="utf-8"?>
<!-- Generator: Adobe Illustrator 17.0.0, SVG Export Plug-In . SVG Version: 6.00 Build 0)  -->
<!DOCTYPE svg PUBLIC "-//W3C//DTD SVG 1.1//EN" "http://www.w3.org/Graphics/SVG/1.1/DTD/svg11.dtd">
<svg version="1.1" id="_x33__x5F_achives" xmlns="http://www.w3.org/2000/svg" xmlns:xlink="http://www.w3.org/1999/xlink" x="0px"
	 y="0px" width="30px" height="29.528px" viewBox="6 149 30 29.528" enable-background="new 6 149 30 29.528" xml:space="preserve">
<path id="path0_fill" fill="#C8A429" d="M6,154c0-2.761,2.239-5,5-5h20c2.761,0,5,2.239,5,5v19.528c0,2.761-2.239,5-5,5H11
	c-2.761,0-5-2.239-5-5V154z"/>
<path id="path1_fill" fill="#FAC12C" d="M6,154c0-2.761,2.239-5,5-5h20c2.761,0,5,2.239,5,5v18.346c0,2.761-2.239,5-5,5H11
	c-2.761,0-5-2.239-5-5V154z"/>
<path id="path2_fill" fill="#071621" d="M6,154c0-2.761,2.239-5,5-5h20c2.761,0,5,2.239,5,5v14.488H6V154z"/>
<path id="path3_fill" fill="#FFFFFF" fill-opacity="0.12" d="M11.672,150.419c0.402-0.457,1.092-0.494,1.54-0.082l0,0
	c0.448,0.412,0.486,1.117,0.083,1.574l-4.92,5.59c-0.402,0.457-1.092,0.494-1.54,0.082l0,0c-0.448-0.412-0.486-1.117-0.083-1.574
	L11.672,150.419z"/>
<path id="path4_fill" fill="#FFFFFF" fill-opacity="0.12" d="M21.271,150.419c0.402-0.457,1.092-0.494,1.54-0.082l0,0
	c0.448,0.412,0.486,1.117,0.083,1.574l-12.769,14.506c-0.402,0.457-1.092,0.494-1.54,0.082l0,0
	c-0.448-0.412-0.486-1.117-0.083-1.574L21.271,150.419z"/>
<path id="path5_fill" fill="#FFFFFF" fill-opacity="0.12" d="M29.271,152.781c0.402-0.457,1.092-0.494,1.54-0.082l0,0
	c0.448,0.412,0.486,1.117,0.083,1.574l-9.377,10.652c-0.402,0.457-1.092,0.494-1.54,0.082l0,0c-0.448-0.412-0.486-1.117-0.083-1.574
	L29.271,152.781z"/>
<path id="path6_fill" fill="#FFFFFF" fill-opacity="0.12" d="M32.672,160.458c0.402-0.457,1.092-0.494,1.54-0.082l0,0
	c0.448,0.412,0.486,1.117,0.083,1.574l-4.343,4.933c-0.402,0.457-1.092,0.494-1.54,0.082l0,0c-0.448-0.412-0.486-1.117-0.083-1.574
	L32.672,160.458z"/>
<path id="path7_fill" fill="#FEF27A" d="M19.338,173.221l0.666-1.183h1.132l-1.128,1.941L21.184,176h-1.135l-0.707-1.245L18.639,176
	H17.5l1.176-2.021l-1.124-1.941h1.135L19.338,173.221z"/>
<path id="path8_fill" fill="#FEF27A" d="M25.256,176h-3.655v-0.725l1.725-1.838c0.237-0.259,0.411-0.485,0.524-0.677
	c0.115-0.193,0.172-0.376,0.172-0.549c0-0.237-0.06-0.422-0.179-0.557c-0.12-0.137-0.291-0.205-0.513-0.205
	c-0.239,0-0.428,0.083-0.568,0.249c-0.137,0.164-0.205,0.38-0.205,0.648h-1.062c0-0.325,0.077-0.621,0.231-0.89
	c0.156-0.269,0.376-0.479,0.659-0.63c0.283-0.154,0.604-0.231,0.963-0.231c0.549,0,0.975,0.132,1.278,0.396
	c0.305,0.264,0.458,0.636,0.458,1.117c0,0.264-0.068,0.532-0.205,0.806c-0.137,0.273-0.371,0.592-0.703,0.956l-1.212,1.278h2.292
	V176z"/>
<path id="path9_fill" fill="#C8A429" d="M27.6,159.343c0,3.746-2.955,6.783-6.6,6.783c-3.645,0-6.6-3.037-6.6-6.783
	c0-3.746,2.955-6.783,6.6-6.783C24.645,152.56,27.6,155.597,27.6,159.343z"/>
<path id="path10_fill" fill="#FCD349" d="M27.568,158.684c0,3.718-2.926,6.731-6.534,6.731c-3.609,0-6.534-3.014-6.534-6.731
	c0-3.718,2.925-6.731,6.534-6.731C24.643,151.953,27.568,154.967,27.568,158.684z"/>
<path id="path11_fill" fill="#FEF074" d="M26.871,158.642c0,3.32-2.613,6.012-5.835,6.012s-5.836-2.691-5.836-6.012
	s2.613-6.012,5.836-6.012S26.871,155.322,26.871,158.642z"/>
<path id="path12_fill" fill="#D1A715" d="M26.596,158.684c0,3.156-2.484,5.715-5.548,5.715s-5.548-2.559-5.548-5.715
	c0-3.156,2.484-5.715,5.548-5.715S26.596,155.528,26.596,158.684z"/>
<path id="path13_fill" fill="#FAC12C" d="M26.385,158.727c0,3.04-2.392,5.504-5.342,5.504c-2.951,0-5.342-2.464-5.342-5.504
	s2.392-5.504,5.342-5.504C23.993,153.223,26.385,155.687,26.385,158.727z"/>
<path id="path14_fill" fill="#FEF27A" d="M24.786,158.424c0.182,0.018,0.377-0.161,0.413-0.456h0
	c0.036-0.296-1.266-1.865-1.663-1.812c-0.398,0.054-1.027,1.422-1.262,1.368c-0.235-0.054-0.947-1.494-1.262-1.368
	s-0.95,1.382-1.262,1.368s-1.043-1.117-1.262-1.368s-1.562,1.466-1.663,1.812c-0.101,0.345,0.117,0.6,0.413,0.456
	c0.296-0.144,0.955-1.593,1.25-1.381c0.916,0.655,1.125,1.308,1.274,1.381c0.149,0.073,1.087-1.248,1.25-1.381
	c0.163-0.133,1.047,1.3,1.262,1.368s0.934-1.178,1.262-1.368C23.864,156.852,24.604,158.406,24.786,158.424z"/>
<path id="path15_fill" fill="#FEF27A" d="M18.694,154.99c-0.058-0.049-0.127-0.078-0.2-0.084c-0.103-0.004-0.203,0.037-0.278,0.114
	c-0.075,0.077-0.12,0.184-0.124,0.298c0,0.08,0.021,0.159,0.061,0.226c0.04,0.067,0.097,0.12,0.163,0.152
	c0.067,0.032,0.14,0.042,0.212,0.029c0.072-0.013,0.138-0.05,0.192-0.105s0.091-0.125,0.109-0.204
	c0.017-0.078,0.014-0.16-0.01-0.236C18.795,155.106,18.752,155.039,18.694,154.99z"/>
<path id="path16_fill" fill="#FEF27A" d="M21.218,154.99c-0.058-0.049-0.127-0.078-0.2-0.084c-0.103-0.004-0.203,0.037-0.278,0.114
	c-0.075,0.077-0.12,0.184-0.124,0.298c0,0.08,0.021,0.159,0.061,0.226c0.04,0.067,0.097,0.12,0.163,0.152
	c0.067,0.032,0.14,0.042,0.212,0.029c0.072-0.013,0.138-0.05,0.192-0.105c0.053-0.055,0.091-0.125,0.109-0.204
	c0.017-0.078,0.014-0.16-0.01-0.236C21.319,155.106,21.276,155.039,21.218,154.99z"/>
<path id="path17_fill" fill="#FEF27A" d="M23.742,154.99c-0.058-0.049-0.127-0.078-0.2-0.084c-0.103-0.004-0.203,0.037-0.278,0.114
	c-0.075,0.077-0.12,0.184-0.124,0.298c0,0.08,0.021,0.159,0.061,0.226c0.04,0.067,0.097,0.12,0.163,0.152
	c0.067,0.032,0.14,0.042,0.212,0.029c0.072-0.013,0.138-0.05,0.192-0.105s0.091-0.125,0.109-0.204
	c0.017-0.078,0.014-0.16-0.01-0.236C23.843,155.106,23.8,155.039,23.742,154.99z"/>
<path id="path18_fill" fill="#FEF27A" d="M23.655,160.133c0.413-0.106,0.683-0.435,0.401-0.443
	c-0.283-0.008-2.034-0.682-3.043-0.696c-1.009-0.013-2.895,0.413-3.043,0.696c-0.149,0.283,0.113,0.487,0.401,0.443
	c0.288-0.044,1.599-0.504,2.643-0.504C22.055,159.629,23.242,160.239,23.655,160.133z"/>
<path id="path19_fill" fill="#FEF27A" d="M21.018,163.147c-0.016-0.305,2.267-2.144,2.007-2.283c-0.26-0.139-3.739-0.152-4.015,0
	C18.735,161.016,21.035,163.452,21.018,163.147z"/>
<path id="path20_fill" fill="#FAC12C" d="M20.989,162.259c0.191-0.153,0.493-0.5,0.688-0.761c0.195-0.26-1.407-0.312-1.377,0
	C20.33,161.811,20.798,162.412,20.989,162.259z"/>
<path id="path21_fill" fill="#FFFFFF" fill-opacity="0.2" d="M21.196,153.32c0.168-0.194,0.456-0.209,0.643-0.034l0,0
	c0.187,0.175,0.203,0.474,0.035,0.667l-2.058,2.374c-0.168,0.194-0.456,0.209-0.643,0.034l0,0c-0.187-0.175-0.203-0.474-0.035-0.667
	L21.196,153.32z"/>
<path id="path22_fill" fill="#FFFFFF" fill-opacity="0.2" d="M23.296,153.532c0.168-0.194,0.456-0.209,0.643-0.034l0,0
	c0.187,0.175,0.203,0.474,0.035,0.667l-5.339,6.158c-0.168,0.194-0.456,0.209-0.643,0.034l0,0c-0.187-0.175-0.203-0.474-0.035-0.667
	L23.296,153.532z"/>
<path id="path23_fill" fill="#FFFFFF" fill-opacity="0.2" d="M22.496,158.993c0.168-0.194,0.456-0.209,0.643-0.034l0,0
	c0.187,0.175,0.203,0.474,0.035,0.667l-3.921,4.522c-0.168,0.194-0.456,0.209-0.643,0.034l0,0c-0.187-0.175-0.203-0.474-0.035-0.667
	L22.496,158.993z"/>
<path id="path24_fill" fill="#FFFFFF" fill-opacity="0.2" d="M25.196,158.993c0.168-0.194,0.456-0.209,0.643-0.034l0,0
	c0.187,0.175,0.203,0.474,0.035,0.667l-1.816,2.095c-0.168,0.194-0.456,0.209-0.643,0.034l0,0c-0.187-0.175-0.203-0.474-0.035-0.667
	L25.196,158.993z"/>
</svg>
