<?xml version="1.0" encoding="utf-8"?>
<!-- Generator: Adobe Illustrator 17.0.0, SVG Export Plug-In . SVG Version: 6.00 Build 0)  -->
<!DOCTYPE svg PUBLIC "-//W3C//DTD SVG 1.1//EN" "http://www.w3.org/Graphics/SVG/1.1/DTD/svg11.dtd">
<svg version="1.1" id="Layer_3" xmlns="http://www.w3.org/2000/svg" xmlns:xlink="http://www.w3.org/1999/xlink" x="0px" y="0px"
	 width="17px" height="14px" viewBox="156 91 17 14" enable-background="new 156 91 17 14" xml:space="preserve">
<path id="path1_fill" fill="#FFFFFF" d="M159,92c0-0.552,0.448-1,1-1h12c0.552,0,1,0.448,1,1l0,0c0,0.552-0.448,1-1,1h-12
	C159.448,93,159,92.552,159,92L159,92z"/>
<path id="path1_fill_1_" fill="#FFFFFF" d="M156,98c0-0.552,0.448-1,1-1h12c0.552,0,1,0.448,1,1l0,0c0,0.552-0.448,1-1,1h-12
	C156.448,99,156,98.552,156,98L156,98z"/>
<path id="path1_fill_2_" fill="#FFFFFF" d="M159,104c0-0.552,0.448-1,1-1h12c0.552,0,1,0.448,1,1l0,0c0,0.552-0.448,1-1,1h-12
	C159.448,105,159,104.552,159,104L159,104z"/>
<path id="path2_fill" fill="#FFFFFF" d="M156,104c0-0.552,0.448-1,1-1l0,0c0.552,0,1,0.448,1,1l0,0c0,0.552-0.448,1-1,1l0,0
	C156.448,105,156,104.552,156,104L156,104z"/>
<path id="path2_fill_1_" fill="#FFFFFF" d="M171,98c0-0.552,0.448-1,1-1l0,0c0.552,0,1,0.448,1,1l0,0c0,0.552-0.448,1-1,1l0,0
	C171.448,99,171,98.552,171,98L171,98z"/>
<path id="path2_fill_2_" fill="#FFFFFF" d="M156,92c0-0.552,0.448-1,1-1l0,0c0.552,0,1,0.448,1,1l0,0c0,0.552-0.448,1-1,1l0,0
	C156.448,93,156,92.552,156,92L156,92z"/>
</svg>
