<?xml version="1.0" encoding="utf-8"?>
<!-- Generator: Adobe Illustrator 17.0.0, SVG Export Plug-In . SVG Version: 6.00 Build 0)  -->
<!DOCTYPE svg PUBLIC "-//W3C//DTD SVG 1.1//EN" "http://www.w3.org/Graphics/SVG/1.1/DTD/svg11.dtd">
<svg version="1.1" id="close" xmlns="http://www.w3.org/2000/svg" xmlns:xlink="http://www.w3.org/1999/xlink" x="0px" y="0px"
	 width="10.199px" height="10.195px" viewBox="111.403 97.403 10.199 10.195" enable-background="new 111.403 97.403 10.199 10.195"
	 xml:space="preserve">
<path id="path3_fill" fill="#FFFFFF" d="M111.687,107.312c-0.38-0.38-0.38-0.995,0-1.375l8.25-8.25c0.38-0.38,0.995-0.38,1.375,0
	l0,0c0.38,0.38,0.38,0.995,0,1.375l-8.25,8.25C112.683,107.692,112.067,107.692,111.687,107.312L111.687,107.312z"/>
<path id="path3_fill_1_" fill="#FFFFFF" d="M111.692,97.687c0.38-0.38,0.995-0.38,1.375,0l8.25,8.25c0.38,0.38,0.38,0.995,0,1.375
	l0,0c-0.38,0.38-0.995,0.38-1.375,0l-8.25-8.25C111.313,98.683,111.313,98.067,111.692,97.687L111.692,97.687z"/>
</svg>
