<?xml version="1.0" encoding="utf-8"?>
<!-- Generator: Adobe Illustrator 17.0.0, SVG Export Plug-In . SVG Version: 6.00 Build 0)  -->
<!DOCTYPE svg PUBLIC "-//W3C//DTD SVG 1.1//EN" "http://www.w3.org/Graphics/SVG/1.1/DTD/svg11.dtd">
<svg version="1.1" id="log_x5F_in" xmlns="http://www.w3.org/2000/svg" xmlns:xlink="http://www.w3.org/1999/xlink" x="0px" y="0px"
	 width="15px" height="12px" viewBox="65 91 15 12" enable-background="new 65 91 15 12" xml:space="preserve">
<path id="path9_fill" fill="#37729E" d="M74.783,99.384v2.968c0,0.357-0.261,0.649-0.62,0.649h-8.511
	c-0.359,0-0.652-0.292-0.652-0.649V91.649C65,91.292,65.293,91,65.652,91h8.511c0.359,0,0.62,0.292,0.62,0.649v2.968
	c0,0.357-0.293,0.649-0.652,0.649c-0.359,0-0.652-0.292-0.652-0.649v-2.319h-7.174v9.405h7.174v-2.319
	c0-0.357,0.293-0.649,0.652-0.649C74.489,98.735,74.783,99.027,74.783,99.384z M79.804,96.514l-2.543-2.562
	c-0.261-0.259-0.669-0.259-0.929,0c-0.261,0.259-0.261,0.665,0,0.924l1.451,1.459l-7.908,0.016c-0.359,0-0.652,0.292-0.652,0.649
	s0.293,0.649,0.652,0.649l7.908-0.016l-1.451,1.459c-0.261,0.259-0.244,0.665,0,0.924c0.131,0.13,0.294,0.195,0.457,0.195
	c0.163,0,0.342-0.065,0.457-0.195l2.56-2.562C80.065,97.178,80.065,96.773,79.804,96.514z"/>
</svg>
