<?xml version="1.0" encoding="utf-8"?>
<!-- Generator: Adobe Illustrator 17.0.0, SVG Export Plug-In . SVG Version: 6.00 Build 0)  -->
<!DOCTYPE svg PUBLIC "-//W3C//DTD SVG 1.1//EN" "http://www.w3.org/Graphics/SVG/1.1/DTD/svg11.dtd">
<svg version="1.1" id="Layer_2" xmlns="http://www.w3.org/2000/svg" xmlns:xlink="http://www.w3.org/1999/xlink" x="0px" y="0px"
	 width="118px" height="72.26px" viewBox="2.752 -6.969 118 72.26" enable-background="new 2.752 -6.969 118 72.26"
	 xml:space="preserve">
<path id="path0_fill" fill="#FFFFFF" d="M3.462,44.978c-0.99,0.9-0.903,18.077,0,19.02c1.76,1.838,8.154,1.132,9.615,0.614
	c1.461-0.518,1.14-2.27,1.14-2.27s-6.236,0.583-7.15,0c-0.913-0.583-2.1-6.354,0-6.994c2.1-0.641,3.128,0.209,4.561,0
	c1.433-0.209,1.233-2.27,1.233-2.27s-4.278,0.387-5.794,0c-1.515-0.387-0.881-5.374,0-6.442c0.881-1.068,6.718,0,6.718,0
	s0.755-1.839-0.925-2.27C11.181,43.933,5.757,42.892,3.462,44.978z M22.137,49.978c0.276-0.019,0.552,0.021,0.81,0.12
	c0.258,0.098,0.492,0.251,0.684,0.448c0.362,0.445,0.543,1.009,0.508,1.58c-0.007,0.47-0.09,0.937-0.247,1.38
	c0.361,0.247,0.795,0.366,1.233,0.337c0.638,0.033,1.267-0.163,1.772-0.552c0.225-0.198,0.402-0.445,0.517-0.721
	c0.115-0.277,0.165-0.575,0.146-0.874c0-1.186-0.467-2.04-1.402-2.562c-0.935-0.521-2.132-0.782-3.59-0.782
	c-1.429-0.043-2.837,0.347-4.037,1.12c-0.531,0.34-0.963,0.811-1.255,1.368c-0.292,0.557-0.433,1.18-0.409,1.807
	c-0.024,0.772,0.18,1.535,0.585,2.193c0.368,0.58,0.844,1.085,1.402,1.488c0.7,0.487,1.426,0.937,2.173,1.35
	c0.9,0.458,1.743,1.019,2.512,1.672c0.269,0.247,0.481,0.549,0.622,0.885c0.141,0.336,0.207,0.699,0.195,1.063
	c0.023,0.319-0.018,0.64-0.121,0.943c-0.103,0.303-0.266,0.582-0.48,0.821c-0.483,0.382-1.08,0.593-1.697,0.598
	c-0.617,0.006-1.218-0.194-1.708-0.567c-0.208-0.199-0.371-0.441-0.477-0.708c-0.106-0.267-0.154-0.554-0.139-0.841
	c0.007-0.47,0.09-0.937,0.247-1.381c-0.361-0.246-0.795-0.365-1.233-0.337c-0.633-0.035-1.258,0.162-1.757,0.552
	c-0.221,0.201-0.394,0.448-0.506,0.724s-0.16,0.574-0.141,0.871c-0.031,0.528,0.097,1.052,0.369,1.507
	c0.272,0.454,0.675,0.816,1.156,1.04c1.181,0.546,2.474,0.809,3.775,0.767c1.726,0,3.148-0.419,4.268-1.258
	c1.12-0.839,1.68-2.035,1.68-3.589c0.024-0.772-0.18-1.535-0.586-2.193c-0.369-0.58-0.844-1.085-1.402-1.488
	c-0.698-0.482-1.423-0.922-2.173-1.319c-0.9-0.458-1.743-1.019-2.512-1.672c-0.269-0.247-0.481-0.549-0.622-0.885
	c-0.141-0.336-0.207-0.699-0.194-1.063c-0.016-0.254,0.026-0.509,0.122-0.745c0.096-0.236,0.244-0.448,0.433-0.62
	C21.076,50.121,21.602,49.952,22.137,49.978z M31.136,50.347v11.903c0,1.882,0.832,2.822,2.496,2.822
	c0.542,0.009,1.074-0.146,1.525-0.445c0.206-0.128,0.384-0.296,0.524-0.494c0.14-0.198,0.24-0.421,0.293-0.657
	c-0.21-0.021-0.413-0.083-0.598-0.184c-0.185-0.1-0.348-0.236-0.48-0.399c-0.255-0.414-0.373-0.896-0.339-1.381V50.347h2.897v-1.381
	h-2.835v-3.037h-0.955c-0.608,0.767-1.318,1.449-2.111,2.025c-0.811,0.602-1.696,1.097-2.635,1.472l0.031,0.92H31.136z
	 M46.359,45.898c1.644,0,2.465,0.931,2.465,2.792c0.008,0.522-0.075,1.041-0.246,1.534c0.349,0.327,0.883,0.491,1.602,0.491
	c0.325,0.016,0.65-0.037,0.953-0.156c0.303-0.119,0.577-0.301,0.803-0.534c0.443-0.491,0.675-1.135,0.647-1.795
	c0-1.554-0.539-2.689-1.618-3.405c-1.079-0.716-2.522-1.074-4.33-1.074c-2.815,0-4.854,0.987-6.117,2.96
	c-1.264,1.973-1.895,4.596-1.895,7.869c0,3.293,0.591,5.9,1.772,7.823c1.181,1.923,3.169,2.884,5.963,2.884
	c0.973,0.006,1.939-0.166,2.851-0.506c0.844-0.303,1.597-0.815,2.188-1.488c0.566-0.656,0.868-1.498,0.847-2.362
	c0.017-0.402-0.079-0.8-0.277-1.15c-0.22-0.322-0.548-0.556-0.925-0.66c-0.277,0.966-0.848,1.823-1.633,2.454
	c-0.784,0.601-1.753,0.916-2.743,0.89c-1.705,0-2.825-0.731-3.359-2.193c-0.534-1.462-0.801-3.41-0.801-5.844
	c0-2.434,0.252-4.464,0.755-6.089C43.765,46.711,44.798,45.898,46.359,45.898z M63.74,63.2c0.058,0.527,0.31,1.014,0.709,1.365
	c0.413,0.346,0.94,0.526,1.479,0.506c0.379,0.007,0.755-0.077,1.094-0.245c0.309-0.155,0.562-0.401,0.724-0.705
	c-0.637-0.348-0.955-1.023-0.955-2.025V54.12c0.042-1.131-0.13-2.261-0.508-3.328c-0.312-0.799-0.911-1.455-1.679-1.841
	c-0.781-0.399-1.849-0.598-3.205-0.598c-1.849,0-3.328,0.312-4.438,0.936c-1.109,0.624-1.664,1.426-1.664,2.408
	c-0.019,0.297,0.029,0.595,0.141,0.871c0.112,0.276,0.285,0.524,0.506,0.724c0.499,0.39,1.123,0.587,1.757,0.552
	c0.437,0.028,0.871-0.091,1.233-0.337c-0.156-0.444-0.24-0.91-0.247-1.38c-0.015-0.3,0.042-0.6,0.165-0.874
	c0.123-0.274,0.31-0.516,0.544-0.706c0.511-0.391,1.143-0.592,1.787-0.567c0.863,0,1.448,0.25,1.757,0.752
	c0.308,0.501,0.462,1.263,0.462,2.285v2.669c-5.937,0-8.906,1.657-8.906,4.97c-0.021,0.628,0.096,1.253,0.344,1.83
	c0.248,0.578,0.619,1.094,1.089,1.514c0.977,0.867,2.251,1.328,3.559,1.288c0.874,0.014,1.741-0.158,2.542-0.506
	C62.762,64.459,63.364,63.903,63.74,63.2z M60.689,63.231c-0.341,0.018-0.682-0.038-0.999-0.165
	c-0.317-0.127-0.602-0.322-0.835-0.571c-0.462-0.548-0.699-1.249-0.663-1.963c0-2.209,1.736-3.313,5.208-3.313v2.423
	c0.033,0.902-0.203,1.793-0.678,2.562c-0.218,0.335-0.521,0.606-0.878,0.787C61.488,63.17,61.089,63.254,60.689,63.231z
	 M75.79,49.978c0.276-0.019,0.552,0.021,0.81,0.12c0.258,0.098,0.492,0.251,0.684,0.448c0.362,0.445,0.543,1.009,0.508,1.58
	c-0.007,0.47-0.09,0.936-0.246,1.38c0.361,0.247,0.795,0.366,1.233,0.337c0.638,0.033,1.267-0.163,1.772-0.552
	c0.225-0.198,0.402-0.445,0.517-0.721c0.115-0.277,0.165-0.575,0.146-0.874c0-1.186-0.467-2.04-1.402-2.562
	c-0.935-0.521-2.132-0.782-3.59-0.782c-1.429-0.043-2.837,0.347-4.037,1.12c-0.531,0.34-0.964,0.811-1.255,1.368
	c-0.292,0.557-0.433,1.18-0.409,1.807c-0.024,0.772,0.18,1.535,0.586,2.193c0.368,0.58,0.844,1.086,1.402,1.488
	c0.7,0.487,1.426,0.937,2.173,1.35c0.9,0.458,1.743,1.019,2.512,1.672c0.269,0.247,0.481,0.549,0.622,0.885s0.207,0.699,0.195,1.063
	c0.023,0.319-0.018,0.64-0.121,0.943c-0.103,0.303-0.266,0.582-0.48,0.821c-0.483,0.382-1.08,0.593-1.697,0.598
	c-0.617,0.006-1.218-0.194-1.708-0.567c-0.208-0.199-0.371-0.44-0.478-0.708c-0.106-0.267-0.154-0.554-0.139-0.841
	c0.007-0.47,0.09-0.937,0.246-1.381c-0.361-0.246-0.795-0.365-1.233-0.337c-0.633-0.035-1.258,0.162-1.757,0.552
	c-0.221,0.201-0.394,0.448-0.506,0.724s-0.16,0.574-0.141,0.871c-0.031,0.528,0.097,1.052,0.369,1.507
	c0.272,0.454,0.675,0.816,1.156,1.04c1.181,0.546,2.474,0.809,3.775,0.767c1.726,0,3.148-0.419,4.268-1.258
	c1.12-0.839,1.68-2.035,1.68-3.589c0.023-0.772-0.18-1.535-0.586-2.193c-0.369-0.58-0.845-1.084-1.402-1.488
	c-0.698-0.482-1.423-0.922-2.173-1.319c-0.9-0.457-1.743-1.019-2.512-1.672c-0.269-0.247-0.481-0.549-0.622-0.885
	c-0.141-0.336-0.207-0.699-0.194-1.063c-0.016-0.254,0.026-0.509,0.122-0.745c0.096-0.236,0.244-0.448,0.433-0.62
	C74.728,50.121,75.255,49.952,75.79,49.978z M86.206,42.524c-0.601-0.024-1.193,0.154-1.68,0.506
	c-0.22,0.172-0.396,0.394-0.511,0.648c-0.115,0.254-0.167,0.531-0.152,0.81c-0.016,0.267,0.032,0.534,0.139,0.779
	c0.107,0.245,0.271,0.462,0.478,0.632c0.471,0.347,1.048,0.52,1.633,0.491c0.611,0.027,1.213-0.152,1.71-0.506
	c0.22-0.172,0.396-0.394,0.511-0.648c0.115-0.254,0.167-0.532,0.151-0.81c0.015-0.268-0.034-0.536-0.144-0.782
	c-0.11-0.245-0.277-0.461-0.488-0.629C87.377,42.67,86.795,42.497,86.206,42.524z M87.5,50.5c-0.516-0.909-3.082-1.534-3.082-1.534
	v13.222c-0.044,0.684,0.165,1.36,0.585,1.902c0.39,0.45,0.976,0.982,1.757,0.982c0.414,0.004,0.823-0.08,1.202-0.245
	c0.34-0.137,0.623-0.386,0.801-0.705c-0.637-0.348-0.955-1.023-0.955-2.025C87.808,62.096,88.015,51.409,87.5,50.5z M91.691,64.918
	c0,0,3.39-0.014,3.698-1.841c0.308-1.826,0-6.442,0-6.442c-0.046-1.447,0.168-2.891,0.632-4.264
	c0.421-1.104,1.258-1.657,2.512-1.657c0.986,0,1.623,0.317,1.911,0.951c0.288,0.634,0.432,1.595,0.432,2.884v7.945
	c-0.044,0.684,0.165,1.36,0.586,1.902c0.39,0.45,0.986,0.675,1.787,0.675c0.403,0.002,0.802-0.082,1.171-0.245
	c0.34-0.137,0.623-0.386,0.801-0.705c-0.637-0.348-0.955-1.023-0.955-2.025V54.12c0-1.943-0.339-3.39-1.017-4.341
	c-0.678-0.951-1.88-1.426-3.606-1.426c-1.005-0.023-1.994,0.243-2.851,0.767c-0.829,0.532-1.462,1.318-1.803,2.239l-0.154-2.761
	c0,0-2.105,0.071-2.835,1.902C91.269,52.331,91.691,64.918,91.691,64.918z M113.972,48.353c-2.28,0-3.975,0.787-5.085,2.362
	c-1.109,1.575-1.664,3.63-1.664,6.166c0,2.618,0.54,4.673,1.618,6.166c1.079,1.493,2.789,2.239,5.131,2.239
	c2.383,0,4.109-0.782,5.178-2.347c1.068-1.565,1.602-3.686,1.602-6.366c0-2.516-0.555-4.515-1.664-5.997
	C117.978,49.094,116.273,48.353,113.972,48.353z M113.972,63.446c-1.274,0-2.1-0.624-2.481-1.871
	c-0.422-1.58-0.614-3.213-0.57-4.847c0-4.356,1.017-6.534,3.051-6.534c1.212,0,2.029,0.634,2.45,1.902
	c0.455,1.501,0.668,3.065,0.632,4.632c0.045,1.636-0.153,3.269-0.586,4.847C116.078,62.822,115.246,63.446,113.972,63.446z"/>
<path fill="#FFFFFF" d="M47.339-3.096c0.356,0.158,0.751,0.207,1.135,0.14c0.385-0.066,0.74-0.244,1.025-0.512
	c0.285-0.269,0.487-0.614,0.581-0.996c0.093-0.382,0.074-0.784-0.054-1.156c-0.128-0.371-0.362-0.698-0.671-0.937
	c-0.309-0.239-0.68-0.383-1.068-0.412c-0.549-0.02-1.084,0.181-1.486,0.56c-0.402,0.379-0.64,0.903-0.662,1.458
	c0,0.394,0.113,0.779,0.327,1.108C46.679-3.512,46.983-3.253,47.339-3.096z"/>
<path fill="#FFFFFF" d="M60.84-3.096c0.356,0.158,0.751,0.207,1.135,0.14c0.383-0.066,0.74-0.244,1.026-0.512
	c0.285-0.269,0.487-0.614,0.581-0.996c0.093-0.382,0.074-0.784-0.054-1.156c-0.128-0.371-0.362-0.698-0.671-0.937
	c-0.309-0.239-0.68-0.383-1.069-0.412c-0.549-0.02-1.084,0.181-1.486,0.56c-0.402,0.378-0.64,0.903-0.662,1.458
	c0,0.394,0.113,0.779,0.327,1.108C60.179-3.512,60.483-3.253,60.84-3.096z"/>
<path fill="#FFFFFF" d="M84.15,8.027c0.194-1.449-6.769-9.137-8.895-8.874c-2.126,0.263-5.495,6.966-6.75,6.703
	c-1.257-0.263-5.063-7.318-6.75-6.703c-1.688,0.616-5.081,6.769-6.75,6.703c-1.669-0.066-5.581-5.474-6.75-6.703
	c-1.169-1.23-8.357,7.183-8.895,8.874c-0.539,1.69,0.624,2.939,2.209,2.236c1.586-0.703,5.106-7.803,6.687-6.768
	c4.902,3.209,6.017,6.409,6.814,6.768c0.795,0.358,5.816-6.116,6.687-6.768c0.871-0.652,5.603,6.369,6.75,6.703
	s4.996-5.77,6.75-6.703s5.712,6.68,6.687,6.768C82.916,10.35,83.956,9.475,84.15,8.027L84.15,8.027z"/>
<path fill="#FFFFFF" d="M74.34-3.096c0.356,0.158,0.752,0.207,1.135,0.14c0.383-0.066,0.74-0.244,1.025-0.512
	s0.487-0.614,0.581-0.996c0.093-0.382,0.074-0.784-0.054-1.156c-0.128-0.371-0.362-0.698-0.671-0.937
	c-0.309-0.239-0.68-0.383-1.068-0.412c-0.549-0.02-1.084,0.181-1.486,0.56c-0.402,0.378-0.64,0.903-0.661,1.458
	c0,0.394,0.113,0.779,0.327,1.108C73.679-3.512,73.983-3.253,74.34-3.096z"/>
<path fill="#FFFFFF" d="M72.527,22.219c-1.391-0.68-19.998-0.743-21.475,0C49.575,22.962,61.878,34.896,61.79,33.4
	C61.702,31.906,73.916,22.9,72.527,22.219z M64.875,24.856c0,0.926-2.676,3.704-3.704,3.704s-2.932-2.059-2.932-3.653
	C58.855,23.622,64.875,23.93,64.875,24.856z"/>
<path fill="#FFFFFF" d="M78.032,16.465c-1.513-0.036-10.88-3.343-16.278-3.407c-5.399-0.065-15.483,2.022-16.278,3.407
	c-0.795,1.385,0.602,2.384,2.142,2.168c1.54-0.216,8.555-2.471,14.136-2.471c5.581,0,11.927,2.99,14.136,2.471
	C78.098,18.114,79.545,16.503,78.032,16.465z"/>
</svg>
