<?xml version="1.0" encoding="utf-8"?>
<!-- Generator: Adobe Illustrator 17.0.0, SVG Export Plug-In . SVG Version: 6.00 Build 0)  -->
<!DOCTYPE svg PUBLIC "-//W3C//DTD SVG 1.1//EN" "http://www.w3.org/Graphics/SVG/1.1/DTD/svg11.dtd">
<svg version="1.1" id="Layer_2" xmlns="http://www.w3.org/2000/svg" xmlns:xlink="http://www.w3.org/1999/xlink" x="0px" y="0px"
	 width="130.996px" height="30px" viewBox="53 22 130.996 30" enable-background="new 53 22 130.996 30" xml:space="preserve">
<path id="path3_fill" fill="#FFFFFF" d="M97.494,29.673c-0.73,0.675-0.666,13.554,0,14.26c1.298,1.378,6.014,0.848,7.091,0.46
	s0.841-1.702,0.841-1.702s-4.599,0.437-5.273,0c-0.673-0.437-1.548-4.764,0-5.244c1.548-0.48,2.307,0.157,3.364,0
	c1.057-0.157,0.909-1.702,0.909-1.702s-3.155,0.29-4.273,0c-1.118-0.29-0.65-4.029,0-4.83s4.955,0,4.955,0s0.557-1.378-0.682-1.702
	C103.187,28.889,99.187,28.109,97.494,29.673z M111.267,33.422c0.203-0.014,0.407,0.016,0.598,0.09s0.363,0.188,0.505,0.336
	c0.267,0.334,0.4,0.756,0.375,1.185c-0.005,0.353-0.067,0.702-0.182,1.035c0.266,0.185,0.587,0.274,0.909,0.253
	c0.47,0.025,0.934-0.122,1.307-0.414c0.166-0.149,0.296-0.333,0.381-0.541s0.121-0.431,0.107-0.655c0-0.889-0.345-1.53-1.034-1.921
	c-0.689-0.391-1.572-0.587-2.648-0.587c-1.054-0.032-2.092,0.26-2.977,0.84c-0.392,0.255-0.711,0.608-0.926,1.025
	c-0.215,0.417-0.319,0.885-0.301,1.355c-0.018,0.579,0.133,1.151,0.432,1.645c0.271,0.435,0.622,0.814,1.034,1.116
	c0.517,0.365,1.051,0.703,1.602,1.012c0.664,0.343,1.285,0.764,1.852,1.254c0.198,0.185,0.355,0.412,0.459,0.664
	c0.104,0.252,0.153,0.524,0.144,0.797c0.017,0.239-0.013,0.48-0.089,0.707c-0.076,0.227-0.197,0.437-0.354,0.616
	c-0.356,0.286-0.797,0.444-1.252,0.448c-0.455,0.004-0.898-0.146-1.26-0.425c-0.154-0.149-0.274-0.33-0.352-0.531
	c-0.078-0.2-0.113-0.416-0.102-0.631c0.005-0.353,0.067-0.702,0.182-1.035c-0.267-0.185-0.587-0.274-0.909-0.253
	c-0.467-0.026-0.928,0.121-1.296,0.414c-0.163,0.15-0.291,0.336-0.373,0.543c-0.083,0.207-0.118,0.43-0.104,0.653
	c-0.023,0.396,0.072,0.789,0.272,1.13s0.498,0.612,0.853,0.779c0.871,0.409,1.824,0.606,2.784,0.575
	c1.273,0,2.322-0.314,3.148-0.943c0.826-0.629,1.239-1.526,1.239-2.691c0.017-0.579-0.133-1.151-0.432-1.644
	c-0.272-0.435-0.623-0.813-1.034-1.116c-0.514-0.361-1.049-0.692-1.602-0.989c-0.664-0.343-1.285-0.764-1.852-1.254
	c-0.198-0.185-0.355-0.412-0.459-0.664c-0.104-0.252-0.153-0.524-0.144-0.797c-0.012-0.191,0.019-0.382,0.09-0.559
	c0.071-0.177,0.18-0.336,0.319-0.465C110.484,33.529,110.873,33.402,111.267,33.422z M117.904,33.698v8.924
	c0,1.411,0.614,2.116,1.841,2.116c0.4,0.007,0.792-0.109,1.125-0.333c0.152-0.096,0.283-0.222,0.387-0.37
	c0.103-0.148,0.177-0.315,0.216-0.492c-0.155-0.016-0.304-0.063-0.441-0.138c-0.137-0.075-0.257-0.177-0.354-0.299
	c-0.188-0.31-0.275-0.672-0.25-1.035v-8.372h2.137v-1.035h-2.091v-2.277h-0.705c-0.448,0.575-0.972,1.086-1.557,1.518
	c-0.598,0.451-1.251,0.822-1.943,1.104l0.023,0.69H117.904z M129.131,30.363c1.212,0,1.818,0.698,1.818,2.093
	c0.006,0.391-0.055,0.78-0.182,1.15c0.258,0.245,0.652,0.368,1.182,0.368c0.24,0.012,0.479-0.028,0.703-0.117
	c0.223-0.089,0.425-0.226,0.592-0.4c0.327-0.368,0.498-0.851,0.477-1.346c0-1.165-0.398-2.016-1.193-2.553
	c-0.796-0.537-1.86-0.805-3.193-0.805c-2.076,0-3.58,0.74-4.512,2.22c-0.932,1.48-1.398,3.446-1.398,5.9
	c0,2.469,0.436,4.424,1.307,5.865c0.871,1.441,2.337,2.162,4.398,2.162c0.718,0.004,1.43-0.124,2.102-0.38
	c0.623-0.228,1.178-0.611,1.614-1.115c0.417-0.492,0.64-1.123,0.625-1.771c0.013-0.301-0.058-0.6-0.204-0.862
	c-0.162-0.241-0.404-0.417-0.682-0.494c-0.204,0.724-0.625,1.367-1.205,1.84c-0.578,0.451-1.293,0.687-2.023,0.667
	c-1.258,0-2.083-0.548-2.477-1.645c-0.394-1.096-0.591-2.557-0.591-4.382c0-1.825,0.186-3.347,0.557-4.566
	C127.218,30.973,127.98,30.363,129.131,30.363z M141.95,43.336c0.042,0.395,0.229,0.76,0.523,1.023
	c0.305,0.259,0.693,0.395,1.091,0.38c0.28,0.005,0.556-0.058,0.807-0.184c0.228-0.116,0.414-0.301,0.534-0.529
	c-0.47-0.261-0.705-0.767-0.705-1.518v-5.98c0.031-0.848-0.096-1.695-0.375-2.496c-0.23-0.599-0.672-1.091-1.239-1.38
	c-0.576-0.299-1.364-0.449-2.364-0.449c-1.364,0-2.455,0.234-3.273,0.702c-0.818,0.468-1.227,1.07-1.227,1.806
	c-0.014,0.223,0.021,0.446,0.104,0.653c0.083,0.207,0.21,0.393,0.373,0.543c0.368,0.293,0.828,0.44,1.295,0.414
	c0.323,0.021,0.643-0.068,0.909-0.253c-0.115-0.333-0.177-0.682-0.182-1.035c-0.011-0.225,0.031-0.45,0.121-0.655
	c0.091-0.206,0.228-0.387,0.401-0.529c0.377-0.293,0.843-0.444,1.318-0.426c0.636,0,1.068,0.188,1.296,0.564
	c0.227,0.376,0.341,0.947,0.341,1.714V37.7c-4.379,0-6.568,1.242-6.568,3.726c-0.016,0.471,0.071,0.939,0.253,1.372
	s0.457,0.821,0.803,1.135c0.721,0.65,1.66,0.996,2.625,0.966c0.645,0.011,1.284-0.119,1.875-0.38
	C141.228,44.28,141.672,43.862,141.95,43.336z M139.7,43.359c-0.252,0.014-0.503-0.029-0.737-0.124
	c-0.234-0.095-0.444-0.242-0.615-0.428c-0.341-0.411-0.516-0.937-0.489-1.472c0-1.656,1.28-2.484,3.841-2.484v1.817
	c0.024,0.676-0.15,1.344-0.5,1.921c-0.161,0.251-0.384,0.454-0.647,0.59C140.289,43.313,139.995,43.375,139.7,43.359z
	 M150.836,33.422c0.203-0.014,0.407,0.016,0.598,0.09s0.363,0.188,0.505,0.336c0.267,0.334,0.401,0.756,0.375,1.185
	c-0.005,0.353-0.067,0.702-0.182,1.035c0.266,0.185,0.587,0.274,0.909,0.253c0.471,0.025,0.934-0.122,1.307-0.414
	c0.166-0.149,0.296-0.333,0.381-0.541s0.121-0.431,0.107-0.655c0-0.889-0.345-1.53-1.034-1.921
	c-0.689-0.391-1.572-0.587-2.648-0.587c-1.054-0.032-2.092,0.26-2.977,0.84c-0.392,0.255-0.711,0.608-0.926,1.025
	c-0.215,0.417-0.319,0.885-0.301,1.355c-0.018,0.579,0.132,1.151,0.432,1.645c0.271,0.435,0.622,0.814,1.034,1.116
	c0.517,0.365,1.051,0.703,1.602,1.012c0.664,0.344,1.285,0.764,1.852,1.254c0.198,0.185,0.355,0.412,0.458,0.664
	c0.104,0.252,0.153,0.524,0.144,0.797c0.017,0.239-0.013,0.48-0.089,0.707c-0.076,0.227-0.197,0.437-0.354,0.616
	c-0.356,0.286-0.797,0.444-1.252,0.448c-0.455,0.004-0.898-0.146-1.26-0.425c-0.154-0.149-0.274-0.33-0.352-0.531
	c-0.079-0.2-0.113-0.416-0.102-0.631c0.005-0.353,0.066-0.702,0.182-1.035c-0.267-0.185-0.587-0.274-0.909-0.253
	c-0.467-0.026-0.928,0.121-1.296,0.414c-0.163,0.15-0.291,0.336-0.373,0.543c-0.083,0.207-0.118,0.43-0.104,0.653
	c-0.023,0.396,0.072,0.789,0.273,1.13c0.201,0.34,0.498,0.612,0.852,0.779c0.871,0.409,1.825,0.606,2.784,0.575
	c1.273,0,2.322-0.314,3.148-0.943c0.826-0.629,1.239-1.526,1.239-2.691c0.017-0.579-0.133-1.151-0.432-1.644
	c-0.272-0.435-0.623-0.813-1.034-1.116c-0.514-0.361-1.049-0.692-1.602-0.989c-0.664-0.343-1.286-0.764-1.852-1.254
	c-0.198-0.185-0.355-0.412-0.459-0.664c-0.104-0.252-0.153-0.524-0.143-0.797c-0.012-0.191,0.019-0.382,0.09-0.559
	c0.071-0.177,0.18-0.336,0.319-0.465C150.054,33.529,150.442,33.402,150.836,33.422z M158.518,27.833
	c-0.443-0.018-0.88,0.116-1.239,0.38c-0.163,0.129-0.292,0.295-0.377,0.486c-0.085,0.19-0.123,0.399-0.112,0.607
	c-0.012,0.2,0.023,0.4,0.102,0.584c0.079,0.184,0.2,0.346,0.352,0.474c0.348,0.26,0.773,0.39,1.205,0.368
	c0.451,0.02,0.895-0.114,1.261-0.38c0.163-0.129,0.292-0.295,0.377-0.486c0.085-0.19,0.123-0.399,0.112-0.607
	c0.011-0.201-0.025-0.402-0.106-0.586c-0.081-0.184-0.204-0.346-0.36-0.472C159.382,27.943,158.953,27.813,158.518,27.833z
	 M159.473,33.813c-0.38-0.682-2.273-1.15-2.273-1.15v9.913c-0.032,0.513,0.121,1.02,0.432,1.426
	c0.288,0.337,0.719,0.736,1.296,0.736c0.305,0.003,0.607-0.06,0.886-0.184c0.251-0.103,0.459-0.29,0.591-0.529
	c-0.47-0.261-0.705-0.767-0.705-1.518C159.7,42.508,159.853,34.495,159.473,33.813z M162.564,44.624c0,0,2.5-0.011,2.727-1.38
	c0.227-1.369,0-4.83,0-4.83c-0.034-1.085,0.124-2.168,0.466-3.197c0.31-0.828,0.928-1.242,1.852-1.242
	c0.727,0,1.197,0.238,1.409,0.713c0.212,0.475,0.318,1.196,0.318,2.162v5.957c-0.032,0.513,0.122,1.02,0.432,1.426
	c0.288,0.337,0.727,0.506,1.318,0.506c0.298,0.001,0.592-0.062,0.864-0.184c0.251-0.103,0.459-0.29,0.591-0.529
	c-0.47-0.261-0.705-0.767-0.705-1.518v-5.98c0-1.457-0.25-2.542-0.75-3.255c-0.5-0.713-1.386-1.07-2.659-1.07
	c-0.741-0.017-1.471,0.183-2.102,0.575c-0.611,0.399-1.078,0.988-1.33,1.679l-0.114-2.07c0,0-1.553,0.053-2.091,1.426
	C162.253,35.186,162.564,44.624,162.564,44.624z M178.996,32.203c-1.682,0-2.932,0.59-3.75,1.771
	c-0.818,1.181-1.227,2.722-1.227,4.623c0,1.963,0.398,3.504,1.193,4.623s2.057,1.679,3.784,1.679c1.758,0,3.03-0.587,3.818-1.759
	c0.788-1.173,1.182-2.764,1.182-4.773c0-1.886-0.409-3.385-1.227-4.497C181.951,32.759,180.693,32.203,178.996,32.203z
	 M178.996,43.52c-0.939,0-1.549-0.468-1.83-1.403c-0.311-1.185-0.453-2.409-0.421-3.634c0-3.266,0.75-4.899,2.25-4.899
	c0.894,0,1.496,0.475,1.807,1.426c0.335,1.126,0.492,2.298,0.466,3.473c0.033,1.226-0.113,2.451-0.432,3.634
	C180.549,43.052,179.936,43.52,178.996,43.52z"/>
<path fill="#FFFFFF" d="M59.011,24.87c0.264,0.117,0.556,0.153,0.841,0.104s0.548-0.181,0.759-0.379
	c0.211-0.199,0.361-0.455,0.43-0.738c0.069-0.283,0.055-0.581-0.04-0.856c-0.095-0.275-0.268-0.517-0.497-0.694
	c-0.229-0.177-0.504-0.284-0.791-0.305c-0.407-0.015-0.803,0.134-1.101,0.415s-0.474,0.669-0.49,1.08
	c0,0.292,0.084,0.577,0.242,0.821C58.522,24.562,58.747,24.754,59.011,24.87z"/>
<path fill="#FFFFFF" d="M69.011,24.87c0.264,0.117,0.556,0.153,0.841,0.104c0.284-0.049,0.548-0.181,0.76-0.379
	c0.211-0.199,0.361-0.455,0.43-0.738c0.069-0.283,0.055-0.581-0.04-0.856c-0.095-0.275-0.268-0.517-0.497-0.694
	c-0.229-0.177-0.504-0.284-0.792-0.305c-0.407-0.015-0.803,0.134-1.101,0.415c-0.298,0.28-0.474,0.669-0.49,1.08
	c0,0.292,0.084,0.577,0.242,0.821C68.522,24.562,68.747,24.754,69.011,24.87z"/>
<path fill="#FFFFFF" d="M86.278,33.109c0.144-1.073-5.014-6.768-6.589-6.573c-1.575,0.195-4.07,5.16-5,4.965
	c-0.931-0.195-3.75-5.421-5-4.965s-3.764,5.014-5,4.965c-1.236-0.049-4.134-4.055-5-4.965c-0.866-0.911-6.19,5.321-6.589,6.573
	c-0.399,1.252,0.462,2.177,1.636,1.656c1.175-0.521,3.782-5.78,4.953-5.013c3.631,2.377,4.457,4.747,5.047,5.013
	c0.589,0.265,4.308-4.53,4.953-5.013s4.15,4.718,5,4.965c0.85,0.247,3.701-4.274,5-4.965c1.299-0.691,4.231,4.948,4.953,5.013
	c0.722,0.065,1.492-0.583,1.636-1.656H86.278z"/>
<path fill="#FFFFFF" d="M79.011,24.87c0.264,0.117,0.557,0.153,0.841,0.104c0.284-0.049,0.548-0.181,0.759-0.379
	s0.361-0.455,0.43-0.738c0.069-0.283,0.055-0.581-0.04-0.856c-0.095-0.275-0.268-0.517-0.497-0.694
	c-0.229-0.177-0.504-0.284-0.791-0.305c-0.407-0.015-0.803,0.134-1.101,0.415c-0.298,0.28-0.474,0.669-0.49,1.08
	c0,0.292,0.084,0.577,0.242,0.821C78.522,24.562,78.747,24.754,79.011,24.87z"/>
<path fill="#FFFFFF" d="M77.668,43.622c-1.03-0.504-14.813-0.55-15.907,0c-1.094,0.55,8.019,9.39,7.954,8.282
	C69.65,50.797,78.697,44.126,77.668,43.622z M72,45.575c0,0.686-1.982,2.744-2.744,2.744s-2.172-1.525-2.172-2.706
	C67.541,44.661,72,44.889,72,45.575z"/>
<path fill="#FFFFFF" d="M81.746,39.36c-1.121-0.027-8.059-2.476-12.058-2.524c-3.999-0.048-11.469,1.498-12.058,2.524
	c-0.589,1.026,0.446,1.766,1.587,1.606c1.141-0.16,6.337-1.83,10.471-1.83c4.134,0,8.835,2.215,10.471,1.83
	C81.795,40.581,82.867,39.388,81.746,39.36z"/>
</svg>
