<?xml version="1.0" encoding="utf-8"?>
<!-- Generator: Adobe Illustrator 17.0.0, SVG Export Plug-In . SVG Version: 6.00 Build 0)  -->
<!DOCTYPE svg PUBLIC "-//W3C//DTD SVG 1.1//EN" "http://www.w3.org/Graphics/SVG/1.1/DTD/svg11.dtd">
<svg version="1.1" id="plus" xmlns="http://www.w3.org/2000/svg" xmlns:xlink="http://www.w3.org/1999/xlink" x="0px" y="0px"
	 width="12px" height="12px" viewBox="153 96 12 12" enable-background="new 153 96 12 12" xml:space="preserve">
<path id="path1_fill" d="M159,108c-0.368,0-0.667-0.298-0.667-0.667V96.667c0-0.368,0.298-0.667,0.667-0.667l0,0
	c0.368,0,0.667,0.299,0.667,0.667v10.667C159.667,107.702,159.368,108,159,108L159,108z"/>
<path id="path2_fill" d="M165,102L165,102c0,0.368-0.298,0.667-0.667,0.667l0,0h-10.667l0,0c-0.368,0-0.667-0.298-0.667-0.667l0,0
	c0-0.368,0.298-0.667,0.667-0.667l0,0h10.667l0,0C164.701,101.333,165,101.632,165,102z"/>
</svg>
