<svg width="349" height="410" viewBox="0 0 349 410" version="1.1" xmlns="http://www.w3.org/2000/svg"
     xmlns:xlink="http://www.w3.org/1999/xlink">
    <title>Group</title>
    <desc>Created using Figma</desc>
    <g id="Canvas" transform="translate(8614 501)">
        <g id="Group">
            <g id="Vector 99">
                <use xlink:href="#path0_stroke" transform="translate(-8488.17 -387.731)" fill="#7A7264"/>
            </g>
            <g id="Vector 100">
                <use xlink:href="#path1_fill" transform="translate(-8488.17 -386.288)" fill="#FFB54A"/>
            </g>
            <g id="Ellipse 18">
                <use xlink:href="#path2_fill" transform="translate(-8492.53 -394.372)" fill="#8C8374"/>
            </g>
            <g id="&#208;&#159;&#209;&#128;&#209;&#143;&#208;&#188;&#208;&#190;&#209;&#131;&#208;&#179;&#208;&#190;&#208;&#187;&#209;&#140;&#208;&#189;&#208;&#184;&#208;&#186; 5">
                <use xlink:href="#path3_fill" transform="matrix(0.928721 0.37078 -0.368313 0.929702 -8478.02 -382.888)"
                     fill="#FFE8C7"/>
                <use xlink:href="#path4_fill" transform="matrix(0.928721 0.37078 -0.368313 0.929702 -8478.02 -382.888)"
                     fill="#FFE8C7"/>
                <use xlink:href="#path5_fill" transform="matrix(0.928721 0.37078 -0.368313 0.929702 -8478.02 -382.888)"
                     fill="#FFE8C7"/>
                <use xlink:href="#path6_fill" transform="matrix(0.928721 0.37078 -0.368313 0.929702 -8478.02 -382.888)"
                     fill="#FFE8C7"/>
                <use xlink:href="#path7_fill" transform="matrix(0.928721 0.37078 -0.368313 0.929702 -8478.02 -382.888)"
                     fill="#FFE8C7"/>
                <use xlink:href="#path8_fill" transform="matrix(0.928721 0.37078 -0.368313 0.929702 -8478.02 -382.888)"
                     fill="#FFE8C7"/>
            </g>
            <g id="Group">
                <g id="Vector 83">
                    <use xlink:href="#path9_fill" transform="translate(-8536.7 -354.195)" fill="#ABA18E"/>
                </g>
                <g id="Vector 161">
                    <use xlink:href="#path10_fill" transform="translate(-8531.79 -347.884)" fill="#A29987"/>
                </g>
                <g id="Vector 80">
                    <use xlink:href="#path11_fill" transform="translate(-8541 -304.454)" fill="#B1A99B"/>
                </g>
                <g id="Vector 160">
                    <use xlink:href="#path12_fill" transform="translate(-8541 -269.667)" fill="#ADA599"/>
                </g>
                <g id="Vector 78">
                    <use xlink:href="#path13_fill" transform="translate(-8546.52 -259.189)" fill="#B7AFA2"/>
                </g>
                <g id="Vector 97">
                    <use xlink:href="#path14_fill"
                         transform="matrix(0.999443 -0.0333763 0.0335705 0.999436 -8503.58 -219.02)" fill="#FFB54A"/>
                </g>
                <g id="Vector 97">
                    <use xlink:href="#path14_fill"
                         transform="matrix(0.999443 -0.0333763 0.0335705 0.999436 -8494.99 -285.083)" fill="#FFB54A"/>
                </g>
                <g id="Vector 97">
                    <use xlink:href="#path14_fill"
                         transform="matrix(0.999443 -0.0333763 0.0335705 0.999436 -8444.68 -285.083)" fill="#FFB54A"/>
                </g>
                <g id="Vector 97">
                    <use xlink:href="#path15_fill"
                         transform="matrix(0.998731 0.05037 -0.0506625 0.998716 -8398.66 -284.368)" fill="#FFB54A"/>
                </g>
                <g id="Vector 97">
                    <use xlink:href="#path14_fill"
                         transform="matrix(0.999443 -0.0333763 0.0335705 0.999436 -8388.24 -219.02)" fill="#FFB54A"/>
                </g>
                <g id="Vector 133">
                    <use xlink:href="#path16_fill" transform="translate(-8408.49 -176.612)" fill="#615C54"/>
                </g>
                <g id="Vector 132">
                    <use xlink:href="#path17_fill" transform="translate(-8474.13 -176.612)" fill="#757068"/>
                </g>
                <g id="Vector 134">
                    <use xlink:href="#path18_fill" transform="translate(-8367.39 -243.897)" fill="#AFA594"/>
                </g>
                <g id="Vector 131">
                    <use xlink:href="#path19_fill" transform="translate(-8477.2 -176)" fill="#615C54"/>
                </g>
                <g id="Vector 135">
                    <use xlink:href="#path20_fill" transform="translate(-8503.58 -114.831)" fill="#757068"/>
                </g>
                <g id="Vector 136">
                    <use xlink:href="#path21_fill" transform="translate(-8491.92 -115.443)" fill="#757068"/>
                </g>
                <g id="Vector 137">
                    <use xlink:href="#path22_fill" transform="translate(-8497.61 -120.336)" fill="#757068"/>
                </g>
                <g id="Vector 138">
                    <use xlink:href="#path23_fill" transform="translate(-8531.79 -133.182)" fill="#757068"/>
                </g>
                <g id="Vector 139">
                    <use xlink:href="#path24_fill" transform="translate(-8529.34 -164.378)" fill="#757068"/>
                </g>
                <g id="Vector 140">
                    <use xlink:href="#path25_fill" transform="translate(-8534.25 -168.66)" fill="#757068"/>
                </g>
                <g id="Vector 141">
                    <use xlink:href="#path26_fill" transform="translate(-8499.9 -169.271)" fill="#757068"/>
                </g>
                <g id="Vector 139">
                    <use xlink:href="#path24_fill" transform="translate(-8499.9 -320.97)" fill="#757068"/>
                </g>
                <g id="Vector 140">
                    <use xlink:href="#path25_fill" transform="translate(-8504.8 -325.252)" fill="#757068"/>
                </g>
                <g id="Vector 141">
                    <use xlink:href="#path26_fill" transform="translate(-8470.45 -325.863)" fill="#757068"/>
                </g>
                <g id="Vector 142">
                    <use xlink:href="#path27_fill" transform="translate(-8487.63 -202.302)" fill="#757068"/>
                </g>
                <g id="Vector 142">
                    <use xlink:href="#path28_fill" transform="translate(-8466.77 -269.588)" fill="#757068"/>
                </g>
                <g id="Vector 143">
                    <use xlink:href="#path29_fill" transform="translate(-8477.2 -232.275)" fill="#757068"/>
                </g>
                <g id="Vector 144">
                    <use xlink:href="#path30_fill" transform="translate(-8472.29 -236.557)" fill="#757068"/>
                </g>
                <g id="Vector 143">
                    <use xlink:href="#path31_fill" transform="translate(-8508.48 -279.477)" fill="#757068"/>
                </g>
                <g id="Vector 144">
                    <use xlink:href="#path32_fill" transform="translate(-8504.28 -283.045)" fill="#757068"/>
                </g>
                <g id="Vector 143">
                    <use xlink:href="#path33_fill" transform="translate(-8412.78 -329.126)" fill="#757068"/>
                </g>
                <g id="Vector 144">
                    <use xlink:href="#path34_fill" transform="translate(-8421.78 -331.98)" fill="#757068"/>
                </g>
                <g id="Vector 143">
                    <use xlink:href="#path31_fill" transform="translate(-8355.12 -279.477)" fill="#757068"/>
                </g>
                <g id="Vector 144">
                    <use xlink:href="#path32_fill" transform="translate(-8350.91 -283.045)" fill="#757068"/>
                </g>
                <g id="Vector 145">
                    <use xlink:href="#path35_fill" transform="translate(-8400.51 -237.78)" fill="#757068"/>
                </g>
                <g id="Vector 146">
                    <use xlink:href="#path36_fill" transform="translate(-8406.65 -232.275)" fill="#757068"/>
                </g>
                <g id="Vector 147">
                    <use xlink:href="#path37_fill" transform="translate(-8396.22 -232.275)" fill="#757068"/>
                </g>
                <g id="Vector 145">
                    <use xlink:href="#path35_fill" transform="translate(-8525.66 -219.43)" fill="#757068"/>
                </g>
                <g id="Vector 146">
                    <use xlink:href="#path36_fill" transform="translate(-8531.79 -213.924)" fill="#757068"/>
                </g>
                <g id="Vector 147">
                    <use xlink:href="#path37_fill" transform="translate(-8521.37 -213.924)" fill="#757068"/>
                </g>
                <g id="Vector 148">
                    <use xlink:href="#path38_fill" transform="translate(-8376.59 -193.127)" fill="#757068"/>
                </g>
                <g id="Vector 149">
                    <use xlink:href="#path39_fill" transform="translate(-8388.86 -181.505)" fill="#757068"/>
                </g>
                <g id="Vector 149">
                    <use xlink:href="#path39_fill" transform="translate(-8382.11 -316.076)" fill="#757068"/>
                </g>
                <g id="Vector 149">
                    <use xlink:href="#path39_fill" transform="translate(-8487.63 -339.321)" fill="#757068"/>
                </g>
                <g id="Vector 150">
                    <use xlink:href="#path40_fill" transform="translate(-8349.6 -158.261)" fill="#757068"/>
                </g>
                <g id="Vector 151">
                    <use xlink:href="#path41_fill" transform="translate(-8395.61 -124.006)" fill="#757068"/>
                </g>
                <g id="Vector 152">
                    <use xlink:href="#path42_fill" transform="translate(-8390.7 -118.501)" fill="#757068"/>
                </g>
                <g id="Vector 153">
                    <use xlink:href="#path43_fill" transform="translate(-8349.6 -229.217)" fill="#757068"/>
                </g>
                <g id="Vector 154">
                    <use xlink:href="#path44_fill" transform="translate(-8345.3 -233.499)" fill="#757068"/>
                </g>
                <g id="Vector 155">
                    <use xlink:href="#path45_fill" transform="translate(-8339.78 -229.217)" fill="#757068"/>
                </g>
                <g id="Vector 153">
                    <use xlink:href="#path43_fill" transform="translate(-8421.37 -273.87)" fill="#757068"/>
                </g>
                <g id="Vector 154">
                    <use xlink:href="#path44_fill" transform="translate(-8417.08 -278.152)" fill="#757068"/>
                </g>
                <g id="Vector 153">
                    <use xlink:href="#path43_fill" transform="translate(-8448.36 -313.018)" fill="#757068"/>
                </g>
                <g id="Vector 154">
                    <use xlink:href="#path44_fill" transform="translate(-8444.07 -317.3)" fill="#757068"/>
                </g>
                <g id="Vector 155">
                    <use xlink:href="#path45_fill" transform="translate(-8411.56 -273.87)" fill="#757068"/>
                </g>
                <g id="Vector 153">
                    <use xlink:href="#path46_fill" transform="translate(-8378.43 -337.689)" fill="#757068"/>
                </g>
                <g id="Vector 154">
                    <use xlink:href="#path47_fill" transform="translate(-8375.57 -340.544)" fill="#757068"/>
                </g>
                <g id="Vector 155">
                    <use xlink:href="#path48_fill" transform="translate(-8371.88 -337.689)" fill="#757068"/>
                </g>
                <g id="Vector 156">
                    <use xlink:href="#path49_fill" transform="translate(-8472.29 -110.549)" fill="#59554E"/>
                </g>
                <g id="Vector 157">
                    <use xlink:href="#path50_fill" transform="translate(-8477.2 -176.612)" fill="#57524B"/>
                </g>
                <g id="Line 12">
                    <use xlink:href="#path51_stroke"
                         transform="matrix(0.0928903 0.995676 -0.995726 0.0923572 -8471.68 -175.388)" fill="#4C4842"/>
                </g>
                <g id="Line 12">
                    <use xlink:href="#path52_stroke"
                         transform="matrix(0.041458 0.99914 -0.99915 0.0412184 -8462.96 -175.479)" fill="#4C4842"/>
                </g>
                <g id="Line 12">
                    <use xlink:href="#path53_stroke"
                         transform="matrix(0.99913 -0.0417131 0.0419556 0.99912 -8466.77 -127.676)" fill="#4C4842"/>
                </g>
                <g id="Line 12">
                    <use xlink:href="#path54_stroke"
                         transform="matrix(0.999138 -0.0415083 0.0417495 0.999128 -8468 -137.464)" fill="#4C4842"/>
                </g>
                <g id="Line 12">
                    <use xlink:href="#path55_stroke"
                         transform="matrix(0.0355761 0.999367 -0.999374 0.0353704 -8454.5 -175.485)" fill="#4C4842"/>
                </g>
                <g id="Line 12">
                    <use xlink:href="#path56_stroke"
                         transform="matrix(0.0122047 0.999926 -0.999926 0.012134 -8446.02 -175.5)" fill="#4C4842"/>
                </g>
                <g id="Line 12">
                    <use xlink:href="#path57_stroke"
                         transform="matrix(-0.00821198 0.999966 -0.999967 -0.00816444 -8435.66 -175.501)"
                         fill="#4C4842"/>
                </g>
                <g id="Line 12">
                    <use xlink:href="#path57_stroke"
                         transform="matrix(-0.00821198 0.999966 -0.999967 -0.00816444 -8425.85 -175.501)"
                         fill="#4C4842"/>
                </g>
                <g id="Line 12">
                    <use xlink:href="#path58_stroke"
                         transform="matrix(-0.0243365 0.999704 -0.999707 -0.0241957 -8417.33 -175.494)" fill="#4C4842"/>
                </g>
                <g id="Line 12">
                    <use xlink:href="#path59_stroke"
                         transform="matrix(-0.0359183 0.999355 -0.999362 -0.0357107 -8408.43 -175.485)" fill="#4C4842"/>
                </g>
            </g>
            <g id="Group">
                <g id="Vector 99">
                    <use xlink:href="#path60_stroke" transform="translate(-8556.54 -492.961)" fill="#7A7264"/>
                </g>
                <g id="Vector 100">
                    <use xlink:href="#path61_fill" transform="translate(-8556.54 -491.213)" fill="#FFB54A"/>
                </g>
                <g id="Ellipse 18">
                    <use xlink:href="#path62_fill" transform="translate(-8561.86 -501)" fill="#8C8374"/>
                </g>
                <g id="&#208;&#159;&#209;&#128;&#209;&#143;&#208;&#188;&#208;&#190;&#209;&#131;&#208;&#179;&#208;&#190;&#208;&#187;&#209;&#140;&#208;&#189;&#208;&#184;&#208;&#186; 5">
                    <use xlink:href="#path63_fill"
                         transform="matrix(0.92958 0.368619 -0.370472 0.928844 -8544.17 -487.098)" fill="#FFE8C7"/>
                    <use xlink:href="#path64_fill"
                         transform="matrix(0.92958 0.368619 -0.370472 0.928844 -8544.17 -487.098)" fill="#FFE8C7"/>
                    <use xlink:href="#path65_fill"
                         transform="matrix(0.92958 0.368619 -0.370472 0.928844 -8544.17 -487.098)" fill="#FFE8C7"/>
                    <use xlink:href="#path66_fill"
                         transform="matrix(0.92958 0.368619 -0.370472 0.928844 -8544.17 -487.098)" fill="#FFE8C7"/>
                    <use xlink:href="#path67_fill"
                         transform="matrix(0.92958 0.368619 -0.370472 0.928844 -8544.17 -487.098)" fill="#FFE8C7"/>
                    <use xlink:href="#path68_fill"
                         transform="matrix(0.92958 0.368619 -0.370472 0.928844 -8544.17 -487.098)" fill="#FFE8C7"/>
                </g>
                <g id="Vector 95">
                    <use xlink:href="#path69_fill" transform="translate(-8587.01 -447.783)" fill="#C8BFB0"/>
                </g>
                <g id="Vector 87">
                    <use xlink:href="#path70_fill" transform="translate(-8587.01 -384.779)" fill="#ABA191"/>
                </g>
                <g id="Vector 85">
                    <use xlink:href="#path71_fill" transform="translate(-8582.1 -381.753)" fill="#C6BFB4"/>
                </g>
                <g id="Vector 162">
                    <use xlink:href="#path72_fill" transform="translate(-8580.26 -370.387)" fill="#BCB2A3"/>
                </g>
                <g id="Vector 129">
                    <use xlink:href="#path73_fill" transform="translate(-8571.06 -370.099)" fill="#9B9283"/>
                </g>
                <g id="Vector 130">
                    <use xlink:href="#path74_fill" transform="translate(-8575.97 -374.992)" fill="#9B9283"/>
                </g>
                <g id="Vector 130">
                    <use xlink:href="#path74_fill" transform="translate(-8563.08 -400.683)" fill="#9B9283"/>
                </g>
                <g id="Vector 130">
                    <use xlink:href="#path75_fill"
                         transform="matrix(0.981968 -0.189046 0.190107 0.981763 -8578.1 -389.06)" fill="#9B9283"/>
                </g>
                <g id="Vector 130">
                    <use xlink:href="#path76_fill"
                         transform="matrix(0.999934 -0.0114963 0.0115632 0.999933 -8561.86 -426.318)" fill="#9B9283"/>
                </g>
                <g id="Vector 128">
                    <use xlink:href="#path77_fill"
                         transform="matrix(0.988206 0.15313 -0.154001 0.988071 -8540.28 -343.184)" fill="#757068"/>
                </g>
                <g id="Vector 128">
                    <use xlink:href="#path77_fill"
                         transform="matrix(0.988206 0.15313 -0.154001 0.988071 -8540.28 -393.343)" fill="#9B9283"/>
                </g>
                <g id="Vector 128">
                    <use xlink:href="#path78_fill"
                         transform="matrix(0.995649 -0.093178 0.0937158 0.995599 -8552.04 -417.164)" fill="#9B9283"/>
                </g>
                <g id="Vector 158">
                    <use xlink:href="#path79_fill" transform="translate(-8537.76 -378.198)" fill="#B6B0A6"/>
                </g>
                <g id="Vector 97">
                    <use xlink:href="#path80_fill" transform="translate(-8559.95 -365.205)" fill="#FFB54A"/>
                </g>
                <g id="Vector 159">
                    <use xlink:href="#path81_fill" transform="translate(-8580.26 -363.37)" fill="#B6B0A5"/>
                </g>
            </g>
            <g id="Group">
                <g id="Vector 118">
                    <use xlink:href="#path82_fill" transform="translate(-8522.59 -333.863)" fill="#998F7E"/>
                </g>
                <g id="Vector 117">
                    <use xlink:href="#path83_fill" transform="translate(-8522.59 -347.32)" fill="#B5A892"/>
                </g>
                <g id="Vector 116">
                    <use xlink:href="#path84_fill" transform="translate(-8536.09 -336.922)" fill="#998F7E"/>
                </g>
                <g id="Vector 115">
                    <use xlink:href="#path85_fill" transform="translate(-8561.24 -339.98)" fill="#998F7E"/>
                </g>
                <g id="Vector 114">
                    <use xlink:href="#path86_fill" transform="translate(-8580.26 -338.145)" fill="#8A8172"/>
                </g>
                <g id="Vector 113">
                    <use xlink:href="#path87_fill" transform="translate(-8580.26 -339.98)" fill="#998F7E"/>
                </g>
                <g id="Vector 112">
                    <use xlink:href="#path88_fill" transform="translate(-8573.51 -352.826)" fill="#B5A892"/>
                </g>
                <g id="Vector 111">
                    <use xlink:href="#path89_fill" transform="translate(-8599.28 -332.028)" fill="#998F7E"/>
                </g>
                <g id="Vector 110">
                    <use xlink:href="#path90_fill" transform="translate(-8608.48 -329.581)" fill="#998F7E"/>
                </g>
                <g id="Vector 109">
                    <use xlink:href="#path91_fill" transform="translate(-8606.03 -339.368)" fill="#B5A892"/>
                </g>
                <g id="Vector 108">
                    <use xlink:href="#path92_fill" transform="translate(-8614 -354.001)" fill="#C8BFB0"/>
                </g>
                <g id="Vector 107">
                    <use xlink:href="#path93_fill" transform="translate(-8610.93 -330.887)" fill="#ABA191"/>
                </g>
                <g id="Vector 106">
                    <use xlink:href="#path94_fill" transform="translate(-8606.03 -328.358)" fill="#C8BFB0"/>
                </g>
                <g id="Vector 105">
                    <use xlink:href="#path95_fill" transform="translate(-8605.41 -321.514)" fill="#ABA191"/>
                </g>
                <g id="Vector 104">
                    <use xlink:href="#path96_fill" transform="translate(-8597.44 -318.571)" fill="#C8BFB0"/>
                </g>
                <g id="Vector 103">
                    <use xlink:href="#path97_fill" transform="translate(-8592.53 -289.15)" fill="#ABA191"/>
                </g>
                <g id="Vector 102">
                    <use xlink:href="#path98_fill" transform="translate(-8585.78 -287.375)" fill="#C6BFB4"/>
                </g>
                <g id="Vector 119">
                    <use xlink:href="#path99_fill" transform="translate(-8561.46 -285.023)" fill="#C3B9AB"/>
                </g>
                <g id="Vector 97">
                    <use xlink:href="#path14_fill"
                         transform="matrix(0.999443 -0.0333763 0.0335705 0.999436 -8560.01 -260.663)" fill="#FFB54A"/>
                </g>
                <g id="Vector 101">
                    <use xlink:href="#path100_fill" transform="translate(-8566.76 -114.267)" fill="#ABA191"/>
                </g>
                <g id="Vector 120">
                    <use xlink:href="#path101_fill" transform="translate(-8585.78 -283.093)" fill="#C3B9AB"/>
                </g>
                <g id="Vector 121">
                    <use xlink:href="#path102_fill" transform="translate(-8536.7 -315.513)" fill="#C3B9AB"/>
                </g>
                <g id="Vector 122">
                    <use xlink:href="#path103_fill" transform="translate(-8597.44 -310.007)" fill="#C3B9AB"/>
                </g>
                <g id="Vector 123">
                    <use xlink:href="#path104_fill" transform="translate(-8516.93 -321.053)" fill="#C3B9AB"/>
                </g>
                <g id="Vector 129">
                    <use xlink:href="#path73_fill" transform="translate(-8571.06 -230.488)" fill="#757068"/>
                </g>
                <g id="Vector 130">
                    <use xlink:href="#path74_fill" transform="translate(-8575.96 -235.381)" fill="#757068"/>
                </g>
                <g id="Vector 128">
                    <use xlink:href="#path105_fill" transform="translate(-8547.75 -205.179)" fill="#757068"/>
                </g>
                <g id="Vector 126">
                    <use xlink:href="#path106_fill" transform="translate(-8568.6 -155.25)" fill="#757068"/>
                </g>
                <g id="Vector 127">
                    <use xlink:href="#path107_fill" transform="translate(-8562.47 -150.357)" fill="#757068"/>
                </g>
                <g id="Vector 124">
                    <use xlink:href="#path108_fill" transform="translate(-8531.8 -117.326)" fill="#757068"/>
                </g>
                <g id="Vector 125">
                    <use xlink:href="#path109_fill" transform="translate(-8537.32 -123.929)" fill="#757068"/>
                </g>
            </g>
            <g id="Group">
                <g id="Vector 99">
                    <use xlink:href="#path110_stroke"
                         transform="matrix(0.999079 0.0429143 -0.0431637 0.999068 -8326.55 -491.661)" fill="#7A7264"/>
                </g>
                <g id="Vector 100">
                    <use xlink:href="#path111_fill"
                         transform="matrix(0.999079 0.0429143 -0.0431637 0.999068 -8326.62 -489.914)" fill="#FFB54A"/>
                </g>
                <g id="Ellipse 18">
                    <use xlink:href="#path112_fill"
                         transform="matrix(0.999079 0.0429143 -0.0431637 0.999068 -8331.51 -499.921)" fill="#8C8374"/>
                </g>
                <g id="&#208;&#159;&#209;&#128;&#209;&#143;&#208;&#188;&#208;&#190;&#209;&#131;&#208;&#179;&#208;&#190;&#208;&#187;&#209;&#140;&#208;&#189;&#208;&#184;&#208;&#186; 5">
                    <use xlink:href="#path113_fill"
                         transform="matrix(0.912812 0.408172 -0.41022 0.912081 -8314.45 -485.273)" fill="#FFE8C7"/>
                    <use xlink:href="#path114_fill"
                         transform="matrix(0.912812 0.408172 -0.41022 0.912081 -8314.45 -485.273)" fill="#FFE8C7"/>
                    <use xlink:href="#path115_fill"
                         transform="matrix(0.912812 0.408172 -0.41022 0.912081 -8314.45 -485.273)" fill="#FFE8C7"/>
                    <use xlink:href="#path116_fill"
                         transform="matrix(0.912812 0.408172 -0.41022 0.912081 -8314.45 -485.273)" fill="#FFE8C7"/>
                    <use xlink:href="#path117_fill"
                         transform="matrix(0.912812 0.408172 -0.41022 0.912081 -8314.45 -485.273)" fill="#FFE8C7"/>
                    <use xlink:href="#path118_fill"
                         transform="matrix(0.912812 0.408172 -0.41022 0.912081 -8314.45 -485.273)" fill="#FFE8C7"/>
                </g>
                <g id="Vector 95">
                    <use xlink:href="#path119_fill"
                         transform="matrix(0.999079 0.0429143 -0.0431637 0.999068 -8358.94 -447.832)" fill="#C8BFB0"/>
                </g>
                <g id="Vector 87">
                    <use xlink:href="#path120_fill"
                         transform="matrix(0.999079 0.0429143 -0.0431637 0.999068 -8361.66 -384.887)" fill="#ABA191"/>
                </g>
                <g id="Vector 85">
                    <use xlink:href="#path121_fill"
                         transform="matrix(0.999079 0.0429143 -0.0431637 0.999068 -8356.89 -381.653)" fill="#C6BFB4"/>
                </g>
                <g id="Vector 162">
                    <use xlink:href="#path122_fill"
                         transform="matrix(0.999079 0.0429143 -0.0431637 0.999068 -8355.54 -370.219)" fill="#BCB2A3"/>
                </g>
                <g id="Vector 129">
                    <use xlink:href="#path123_fill"
                         transform="matrix(0.999079 0.0429143 -0.0431637 0.999068 -8346.36 -369.536)" fill="#9B9283"/>
                </g>
                <g id="Vector 130">
                    <use xlink:href="#path124_fill"
                         transform="matrix(0.999079 0.0429143 -0.0431637 0.999068 -8351.05 -374.635)" fill="#9B9283"/>
                </g>
                <g id="Vector 130">
                    <use xlink:href="#path124_fill"
                         transform="matrix(0.999079 0.0429143 -0.0431637 0.999068 -8337.07 -399.749)" fill="#9B9283"/>
                </g>
                <g id="Vector 130">
                    <use xlink:href="#path125_fill"
                         transform="matrix(0.989223 -0.146731 0.147553 0.989007 -8352.57 -388.781)" fill="#9B9283"/>
                </g>
                <g id="Vector 130">
                    <use xlink:href="#path126_fill"
                         transform="matrix(0.999509 0.0314257 -0.0316084 0.999497 -8334.74 -425.308)" fill="#9B9283"/>
                </g>
                <g id="Vector 128">
                    <use xlink:href="#path127_fill"
                         transform="matrix(0.980686 0.195397 -0.196506 0.980541 -8316.77 -341.325)" fill="#757068"/>
                </g>
                <g id="Vector 128">
                    <use xlink:href="#path127_fill"
                         transform="matrix(0.980686 0.195397 -0.196506 0.980541 -8314.6 -391.437)" fill="#9B9283"/>
                </g>
                <g id="Vector 128">
                    <use xlink:href="#path128_fill"
                         transform="matrix(0.998754 -0.0503646 0.0506547 0.998693 -8325.33 -415.741)" fill="#9B9283"/>
                </g>
                <g id="Vector 158">
                    <use xlink:href="#path129_fill"
                         transform="matrix(0.999079 0.0429143 -0.0431637 0.999068 -8312.74 -376.199)" fill="#B6B0A6"/>
                </g>
                <g id="Vector 97">
                    <use xlink:href="#path130_fill"
                         transform="matrix(0.999079 0.0429143 -0.0431637 0.999068 -8335.47 -364.17)" fill="#FFB54A"/>
                </g>
                <g id="Vector 159">
                    <use xlink:href="#path131_fill"
                         transform="matrix(0.999079 0.0429143 -0.0431637 0.999068 -8355.84 -363.208)" fill="#B6B0A5"/>
                </g>
            </g>
            <g id="Group">
                <g id="Vector 118">
                    <use xlink:href="#path132_fill"
                         transform="matrix(-0.999973 -0.00728993 -0.00733238 0.999973 -8363.28 -327.754)"
                         fill="#998F7E"/>
                </g>
                <g id="Vector 117">
                    <use xlink:href="#path133_fill"
                         transform="matrix(-0.999973 -0.00728993 -0.00733238 0.999973 -8363.18 -341.21)"
                         fill="#B5A892"/>
                </g>
                <g id="Vector 116">
                    <use xlink:href="#path134_fill"
                         transform="matrix(-0.999973 -0.00728993 -0.00733238 0.999973 -8348.77 -330.706)"
                         fill="#998F7E"/>
                </g>
                <g id="Vector 115">
                    <use xlink:href="#path135_fill"
                         transform="matrix(-0.999973 -0.00728993 -0.00733238 0.999973 -8321.74 -333.568)"
                         fill="#998F7E"/>
                </g>
                <g id="Vector 114">
                    <use xlink:href="#path136_fill"
                         transform="matrix(-0.999973 -0.00728993 -0.00733238 0.999973 -8301.34 -331.584)"
                         fill="#8A8172"/>
                </g>
                <g id="Vector 113">
                    <use xlink:href="#path137_fill"
                         transform="matrix(-0.999973 -0.00728993 -0.00733238 0.999973 -8301.33 -333.419)"
                         fill="#998F7E"/>
                </g>
                <g id="Vector 112">
                    <use xlink:href="#path138_fill"
                         transform="matrix(-0.999973 -0.00728993 -0.00733238 0.999973 -8308.48 -346.317)"
                         fill="#B5A892"/>
                </g>
                <g id="Vector 111">
                    <use xlink:href="#path139_fill"
                         transform="matrix(-0.999973 -0.00728993 -0.00733238 0.999973 -8280.97 -325.318)"
                         fill="#998F7E"/>
                </g>
                <g id="Vector 110">
                    <use xlink:href="#path140_fill"
                         transform="matrix(-0.999973 -0.00728993 -0.00733238 0.999973 -8271.11 -322.8)" fill="#998F7E"/>
                </g>
                <g id="Vector 109">
                    <use xlink:href="#path141_fill"
                         transform="matrix(-0.999973 -0.00728993 -0.00733238 0.999973 -8273.67 -332.606)"
                         fill="#B5A892"/>
                </g>
                <g id="Vector 108">
                    <use xlink:href="#path142_fill"
                         transform="matrix(-0.999973 -0.00728993 -0.00733238 0.999973 -8265 -347.175)" fill="#C8BFB0"/>
                </g>
                <g id="Vector 107">
                    <use xlink:href="#path143_fill"
                         transform="matrix(-0.999973 -0.00728993 -0.00733238 0.999973 -8268.46 -324.086)"
                         fill="#ABA191"/>
                </g>
                <g id="Vector 106">
                    <use xlink:href="#path144_fill"
                         transform="matrix(-0.999973 -0.00728993 -0.00733238 0.999973 -8273.75 -321.596)"
                         fill="#C8BFB0"/>
                </g>
                <g id="Vector 105">
                    <use xlink:href="#path145_fill"
                         transform="matrix(-0.999973 -0.00728993 -0.00733238 0.999973 -8274.46 -314.757)"
                         fill="#ABA191"/>
                </g>
                <g id="Vector 104">
                    <use xlink:href="#path146_fill"
                         transform="matrix(-0.999973 -0.00728993 -0.00733238 0.999973 -8283.04 -311.876)"
                         fill="#C8BFB0"/>
                </g>
                <g id="Vector 103">
                    <use xlink:href="#path147_fill"
                         transform="matrix(-0.999973 -0.00728993 -0.00733238 0.999973 -8288.53 -282.494)"
                         fill="#ABA191"/>
                </g>
                <g id="Vector 102">
                    <use xlink:href="#path148_fill"
                         transform="matrix(-0.999973 -0.00728993 -0.00733238 0.999973 -8295.78 -280.772)"
                         fill="#C6BFB4"/>
                </g>
                <g id="Vector 119">
                    <use xlink:href="#path149_fill"
                         transform="matrix(-0.999973 -0.00728993 -0.00733238 0.999973 -8321.91 -278.611)"
                         fill="#C3B9AB"/>
                </g>
                <g id="Vector 97">
                    <use xlink:href="#path150_fill"
                         transform="matrix(-0.999262 -0.0383761 -0.0433647 0.999061 -8323.64 -254.262)" fill="#FFB54A"/>
                </g>
                <g id="Vector 101">
                    <use xlink:href="#path151_fill"
                         transform="matrix(-0.999973 -0.00728993 -0.00733238 0.999973 -8317.47 -107.818)"
                         fill="#ABA191"/>
                </g>
                <g id="Vector 120">
                    <use xlink:href="#path152_fill"
                         transform="matrix(-0.999973 -0.00728993 -0.00733238 0.999973 -8295.82 -276.49)"
                         fill="#C3B9AB"/>
                </g>
                <g id="Vector 121">
                    <use xlink:href="#path153_fill"
                         transform="matrix(-0.999973 -0.00728993 -0.00733238 0.999973 -8348.27 -309.293)"
                         fill="#C3B9AB"/>
                </g>
                <g id="Vector 122">
                    <use xlink:href="#path154_fill"
                         transform="matrix(-0.999973 -0.00728993 -0.00733238 0.999973 -8283.1 -303.313)"
                         fill="#C3B9AB"/>
                </g>
                <g id="Vector 123">
                    <use xlink:href="#path155_fill"
                         transform="matrix(-0.999973 -0.00728993 -0.00733238 0.999973 -8369.45 -314.988)"
                         fill="#C3B9AB"/>
                </g>
                <g id="Vector 129">
                    <use xlink:href="#path156_fill"
                         transform="matrix(-0.999973 -0.00728993 -0.00733238 0.999973 -8312.01 -224.002)"
                         fill="#757068"/>
                </g>
                <g id="Vector 130">
                    <use xlink:href="#path157_fill"
                         transform="matrix(-0.999973 -0.00728993 -0.00733238 0.999973 -8306.7 -228.857)"
                         fill="#757068"/>
                </g>
                <g id="Vector 128">
                    <use xlink:href="#path158_fill"
                         transform="matrix(-0.999973 -0.00728993 -0.00733238 0.999973 -8337.22 -198.876)"
                         fill="#757068"/>
                </g>
                <g id="Vector 126">
                    <use xlink:href="#path159_fill"
                         transform="matrix(-0.999973 -0.00728993 -0.00733238 0.999973 -8315.19 -148.785)"
                         fill="#757068"/>
                </g>
                <g id="Vector 127">
                    <use xlink:href="#path160_fill"
                         transform="matrix(-0.999973 -0.00728993 -0.00733238 0.999973 -8321.82 -143.94)"
                         fill="#757068"/>
                </g>
                <g id="Vector 124">
                    <use xlink:href="#path161_fill"
                         transform="matrix(-0.999973 -0.00728993 -0.00733238 0.999973 -8354.99 -111.15)"
                         fill="#757068"/>
                </g>
                <g id="Vector 125">
                    <use xlink:href="#path162_fill"
                         transform="matrix(-0.999973 -0.00728993 -0.00733238 0.999973 -8349.01 -117.71)"
                         fill="#757068"/>
                </g>
            </g>
        </g>
    </g>
    <defs>
        <path id="path0_stroke" d="M 0.5 39.8471L 0.5 0L -0.5 0L -0.5 39.8471L 0.5 39.8471Z"/>
        <path id="path1_fill"
              d="M 17.4497 1.9557C 13.0873 -1.58626 3.9989 0.479883 0 1.9557L 0 14.1312C 1.81768 13.3933 6.10741 12.3602 8.72487 14.1312C 11.9967 16.3449 10.9061 24.0929 17.4497 29.6273C 22.6847 34.0547 31.2641 29.2583 34.8995 26.3067C 30.5371 26.3067 27.2652 25.1998 23.9934 21.8792C 20.7216 18.5586 22.9028 6.38316 17.4497 1.9557Z"/>
        <path id="path2_fill"
              d="M 8.72487 4.42746C 8.72487 6.87268 6.77174 8.85492 4.36244 8.85492C 1.95313 8.85492 0 6.87268 0 4.42746C 0 1.98224 1.95313 0 4.36244 0C 6.77174 0 8.72487 1.98224 8.72487 4.42746Z"/>
        <path id="path3_fill"
              d="M 7.29534 2.80636C 7.46187 2.82062 7.63935 2.67827 7.67263 2.44228C 7.7059 2.20628 6.51625 0.954358 6.15312 0.997188C 5.78998 1.04002 5.21488 2.13165 5.0003 2.08882C 4.78572 2.04599 4.1357 0.897116 3.84749 0.997188C 3.55929 1.09726 2.97969 2.09954 2.69468 2.08882C 2.40967 2.0781 1.74151 1.19738 1.54187 0.997188C 1.34222 0.796995 0.114687 2.16699 0.0227766 2.44228C -0.069134 2.71756 0.129255 2.92099 0.400061 2.80636C 0.670867 2.69172 1.27206 1.53572 1.54208 1.70431C 2.37918 2.22692 2.56976 2.748 2.70568 2.80636C 2.84161 2.86471 3.69888 1.81045 3.8477 1.70431C 3.99652 1.59817 4.80448 2.74163 5.00051 2.79594C 5.19654 2.85025 5.85375 1.85631 6.15332 1.70431C 6.4529 1.55231 7.12881 2.7921 7.29534 2.80636Z"/>
        <path id="path4_fill"
              d="M 1.73011 0.0672873C 1.67734 0.0282706 1.61393 0.00496115 1.54763 0.000217385C 1.45386 -0.00300867 1.36259 0.0297798 1.29383 0.0913936C 1.22507 0.153007 1.18443 0.238418 1.18083 0.3289C 1.18083 0.393049 1.20022 0.455805 1.23664 0.509471C 1.27306 0.563137 1.32492 0.605381 1.38585 0.631023C 1.44678 0.656666 1.51415 0.664591 1.57968 0.653828C 1.64521 0.643065 1.70607 0.614082 1.75478 0.570431C 1.80349 0.526781 1.83795 0.470361 1.85392 0.408091C 1.86989 0.34582 1.86668 0.280406 1.84469 0.219869C 1.8227 0.159332 1.78288 0.106304 1.73011 0.0672873Z"/>
        <path id="path5_fill"
              d="M 4.03574 0.0672873C 3.98297 0.0282706 3.91955 0.00496115 3.85326 0.000217385C 3.75948 -0.00300867 3.66821 0.0297798 3.59945 0.0913936C 3.53069 0.153007 3.49005 0.238418 3.48645 0.3289C 3.48645 0.393049 3.50585 0.455805 3.54227 0.509471C 3.57868 0.563137 3.63054 0.605381 3.69147 0.631023C 3.75241 0.656666 3.81977 0.664591 3.8853 0.653828C 3.95084 0.643065 4.01169 0.614082 4.0604 0.570431C 4.10912 0.526781 4.14357 0.470361 4.15954 0.408091C 4.17551 0.34582 4.17231 0.280406 4.15031 0.219869C 4.12832 0.159332 4.0885 0.106304 4.03574 0.0672873Z"/>
        <path id="path6_fill"
              d="M 6.34136 0.0672873C 6.28859 0.0282706 6.22517 0.00496115 6.15888 0.000217385C 6.06511 -0.00300867 5.97383 0.0297798 5.90507 0.0913936C 5.83631 0.153007 5.79568 0.238418 5.79208 0.3289C 5.79207 0.393049 5.81147 0.455805 5.84789 0.509471C 5.88431 0.563137 5.93616 0.605381 5.9971 0.631023C 6.05803 0.656666 6.12539 0.664591 6.19093 0.653828C 6.25646 0.643065 6.31731 0.614082 6.36603 0.570431C 6.41474 0.526781 6.44919 0.470361 6.46517 0.408091C 6.48114 0.34582 6.47793 0.280406 6.45594 0.219869C 6.43394 0.159332 6.39412 0.106304 6.34136 0.0672873Z"/>
        <path id="path7_fill"
              d="M 6.26174 4.16973C 6.63887 4.08508 6.88604 3.82259 6.62765 3.81663C 6.36927 3.81061 4.76953 3.27228 3.84765 3.26176C 2.92577 3.25124 1.20347 3.59115 1.06764 3.81663C 0.931821 4.0421 1.17051 4.20488 1.43356 4.16973C 1.69661 4.13459 2.89448 3.76742 3.84765 3.76742C 4.80082 3.76742 5.88462 4.25438 6.26174 4.16973Z"/>
        <path id="path8_fill"
              d="M 3.85357 6.57432C 3.83864 6.33085 5.9246 4.86426 5.68727 4.75347C 5.44969 4.64268 2.27202 4.63252 2.01971 4.75347C 1.7674 4.87443 3.8685 6.8178 3.85357 6.57432Z"/>
        <path id="path9_fill"
              d="M 8.52507 5.56314L 1.31155 50.0683L 0 58.722L 188.207 58.722L 190.175 5.56314L 173.78 5.56314L 173.78 3.09063L 176.403 3.09063L 176.403 0L 165.255 0L 165.255 3.09063L 167.222 3.09063L 167.222 5.56314L 155.419 5.56314L 155.419 3.09063L 157.386 3.09063L 157.386 0L 146.893 0L 146.893 3.09063L 148.861 3.09063L 148.861 5.56314L 137.713 5.56314L 137.713 3.09063L 140.991 3.09063L 140.991 0L 128.532 0L 128.532 3.09063L 131.811 3.09063L 131.811 5.56314L 120.007 5.56314L 120.007 3.70876L 121.974 3.70876L 121.974 0.618127L 111.482 0.618127L 111.482 3.09063L 113.449 3.09063L 113.449 5.56314L 102.957 5.56314L 102.957 3.09063L 104.924 3.09063L 104.924 0L 93.1199 0L 93.1199 3.09063L 96.3988 3.09063L 96.3988 5.56314L 83.9391 5.56314L 83.9391 3.09063L 85.9064 3.09063L 85.9064 0L 75.414 0L 75.414 3.09063L 77.3814 3.09063L 77.3814 5.56314L 66.2332 5.56314L 66.2332 3.09063L 68.2005 3.09063L 68.2005 0L 57.0524 0L 57.0524 3.09063L 59.0197 3.09063L 59.0197 5.56314L 48.5273 5.56314L 48.5273 3.09063L 50.4946 3.09063L 50.4946 0L 39.3465 0L 39.3465 3.09063L 41.3138 3.09063L 41.3138 5.56314L 30.8214 5.56314L 30.8214 3.09063L 32.7887 3.09063L 32.7887 0L 20.9848 0L 20.9848 3.09063L 24.2636 3.09063L 24.2636 5.56314L 8.52507 5.56314Z"/>
        <path id="path10_fill"
              d="M 163.796 6.11688C 164.286 2.69143 173.816 1.01948 178.519 0.611688L 176.065 58.1104L 0 58.1104L 8.58863 0L 16.5636 0C 17.1771 2.85454 18.404 9.42 18.404 12.8454C 18.404 17.1273 9.81556 22.6325 8.58863 27.526C 7.3617 32.4195 8.93357 44.5678 11.0425 42.8182C 12.0181 42.0087 85.2718 36.0896 114.718 37.9247C 144.165 39.7597 165.636 44.0415 169.93 41.5948C 174.225 39.148 172.384 16.5156 172.384 14.0688C 172.384 11.6221 163.182 10.3987 163.796 6.11688Z"/>
        <path id="path11_fill"
              d="M 4.90773 8.56363L 0 59.9454L 207.965 59.9454L 209.192 8.56363L 199.99 8.56363L 199.99 6.11688L 203.057 6.11688L 203.057 0.611688L 189.561 0.611688L 189.561 5.50519L 191.401 5.50519L 191.401 8.56363L 177.905 8.56363L 177.905 6.11688L 180.359 6.11688L 180.359 0L 165.022 0L 165.022 6.11688L 168.703 6.11688L 168.703 8.56363L 154.594 8.56363L 154.594 6.11688L 157.047 6.11688L 157.047 0L 143.551 0L 143.551 6.11688L 146.618 6.11688L 146.618 8.56363L 131.895 8.56363L 131.895 6.11688L 134.349 6.11688L 134.349 0.611688L 120.853 0.611688L 120.853 6.11688L 123.92 6.11688L 123.92 8.56363L 108.584 8.56363L 108.584 6.11688L 112.264 6.11688L 112.264 0L 96.9277 0L 96.9277 6.11688L 100.608 6.11688L 100.608 8.56363L 84.6583 8.56363L 84.6583 6.11688L 87.7257 6.11688L 87.7257 0L 74.2294 0L 74.2294 6.11688L 77.2968 6.11688L 77.2968 8.56363L 62.5736 8.56363L 62.5736 6.11688L 65.6409 6.11688L 65.6409 0L 50.9177 0L 50.9177 6.11688L 53.985 6.11688L 53.985 8.56363L 40.4888 8.56363L 40.4888 6.11688L 42.9426 6.11688L 42.9426 0L 28.2194 0L 28.2194 6.11688L 31.2868 6.11688L 31.2868 8.56363L 17.1771 8.56363L 17.1771 6.11688L 19.6309 6.11688L 19.6309 0L 4.90773 0L 4.90773 6.11688L 8.58853 6.11688L 8.58853 8.56363L 4.90773 8.56363Z"/>
        <path id="path12_fill"
              d="M 207.965 2.5253L 207.965 24.5461L 0 24.5461L 1.8404 2.5253L 41.1022 2.5253C 53.985 2.5253 131.282 0.690233 141.711 0.0785453C 150.054 -0.410805 189.357 1.50582 207.965 2.5253Z"/>
        <path id="path13_fill"
              d="M 12.2693 14.6805L 3.6808 14.6805L 0 153.534L 220.234 149.864L 220.234 14.6805L 201.217 14.6805L 201.217 10.3987L 204.898 10.3987L 204.898 0L 189.561 0L 189.561 10.3987L 192.015 10.3987L 192.015 14.6805L 178.519 14.6805L 178.519 9.78701L 181.586 9.78701L 181.586 0L 166.863 0L 166.863 10.3987L 169.93 10.3987L 169.93 14.6805L 155.82 14.6805L 155.82 10.3987L 158.888 10.3987L 158.888 0L 144.778 0L 144.778 10.3987L 147.232 10.3987L 147.232 14.6805L 133.736 14.6805L 133.736 10.3987L 136.803 10.3987L 136.803 0L 122.08 0L 122.08 9.78701L 124.534 9.78701L 124.534 14.6805L 111.037 14.6805L 111.037 9.78701L 114.718 9.78701L 114.718 0L 100.608 0L 100.608 10.3987L 103.062 10.3987L 103.062 14.6805L 87.7257 14.6805L 87.7257 9.78701L 90.1795 9.78701L 90.1795 0L 76.0698 0L 76.0698 10.3987L 79.1371 10.3987L 79.1371 14.6805L 65.6409 14.6805L 65.6409 10.3987L 68.0948 10.3987L 68.0948 0L 53.985 0L 53.985 10.3987L 56.4389 10.3987L 56.4389 14.6805L 42.9426 14.6805L 42.9426 10.3987L 46.01 10.3987L 46.01 0L 30.6733 0L 30.6733 10.3987L 33.7406 10.3987L 33.7406 14.6805L 20.2444 14.6805L 20.2444 10.3987L 23.3117 10.3987L 23.3117 0L 8.58853 0L 8.58853 10.3987L 12.2693 10.3987L 12.2693 14.6805Z"/>
        <path id="path14_fill"
              d="M 10.7967 14.6806L 1.47262 14.6806C -0.340383 9.78704 -1.94619 0 6.13464 0C 14.2155 0 12.6097 9.78704 10.7967 14.6806Z"/>
        <path id="path15_fill"
              d="M 10.7966 14.6806L 1.47262 14.6806C -0.340382 9.78708 -1.94618 0 6.13462 0C 14.2154 0 12.6096 9.78708 10.7966 14.6806Z"/>
        <path id="path16_fill" d="M 4.29426 0L 1.22693 0L 0 66.0623L 3.06733 68.5091L 4.29426 0Z"/>
        <path id="path17_fill"
              d="M 67.4813 0L 0 0.611688L 4.99861 67.2857L 1.87448 69.7324L 66.2316 68.5091L 67.4813 0Z"/>
        <path id="path18_fill"
              d="M 7.3616 7.34026C 7.3616 3.42545 29.4464 0.815584 40.4888 0L 41.1022 134.571L 0 135.183C 0 133.348 0.122693 129.311 0.613466 127.843C 1.22693 126.008 26.3791 125.396 29.4464 123.561C 32.5137 121.726 31.2868 40.3714 31.2868 34.8662C 31.2868 29.361 19.6309 31.1961 19.6309 26.9143C 19.6309 22.6325 29.4464 17.739 29.4464 14.0688C 29.4464 10.3987 7.3616 12.2338 7.3616 7.34026Z"/>
        <path id="path19_fill" d="M 3.6808 0L 0 0L 4.90773 69.1207L 8.58853 66.674L 3.6808 0Z"/>
        <path id="path20_fill"
              d="M 0 3.67013L 1.22693 0C 1.22693 0.48935 6.13466 0.203896 8.58853 0L 9.20199 3.05844L 0 3.67013Z"/>
        <path id="path21_fill"
              d="M 0.0491207 4.20262C 0.163919 3.67335 0.452246 1.73696 0.613466 0.611688L 7.3616 0L 7.97506 3.67013C 5.46635 3.67013 0.590156 3.77908 0.0491207 4.20262C 0.0183108 4.34467 0 4.38536 0 4.28182C 0 4.25427 0.0168478 4.22789 0.0491207 4.20262Z"/>
        <path id="path22_fill"
              d="M 0.168799 3.67013C -0.321974 3.67013 0.373287 1.22338 0.782265 0L 8.75747 0L 8.75747 3.05844C 6.09907 3.26234 0.659572 3.67013 0.168799 3.67013Z"/>
        <path id="path23_fill" d="M 0 3.05844L 0.613466 0L 7.97506 0L 7.97506 3.05844L 0 3.05844Z"/>
        <path id="path24_fill" d="M 0 4.28182L 0 0.611688L 8.58853 0L 8.58853 4.28182L 0 4.28182Z"/>
        <path id="path25_fill" d="M 0.613466 3.67013L 0 0L 8.58853 0L 7.97506 3.05844L 0.613466 3.67013Z"/>
        <path id="path26_fill" d="M 0 4.28182L 0 0L 7.97506 0L 7.3616 3.67013L 0 4.28182Z"/>
        <path id="path27_fill" d="M 0 3.05844L 0 0.611688L 7.97506 0L 7.97506 3.67013L 0 3.05844Z"/>
        <path id="path28_fill" d="M 0 2.03896L 0 0.407792L 6.13466 0L 6.13466 2.44675L 0 2.03896Z"/>
        <path id="path29_fill" d="M 0 3.05844L 0 0L 8.58853 0L 8.58853 3.05844L 0 3.05844Z"/>
        <path id="path30_fill" d="M 0 3.05844L 0 0L 7.97506 0L 7.3616 3.05844L 0 3.05844Z"/>
        <path id="path31_fill" d="M 0 2.5487L 0 0L 7.3616 0L 7.3616 2.5487L 0 2.5487Z"/>
        <path id="path32_fill" d="M 0 2.5487L 0 0L 6.83577 0L 6.30994 2.5487L 0 2.5487Z"/>
        <path id="path33_fill" d="M 0 2.03898L 0 0L 5.72575 0L 5.72575 2.03898L 0 2.03898Z"/>
        <path id="path34_fill" d="M 0 2.03898L 0 0L 5.31677 0L 4.90779 2.03898L 0 2.03898Z"/>
        <path id="path35_fill" d="M 0 3.05844L 0 0.611688L 7.3616 0L 7.3616 3.05844L 0 3.05844Z"/>
        <path id="path36_fill" d="M 0.613466 4.28182L 0 0L 7.97506 0L 7.3616 3.67013L 0.613466 4.28182Z"/>
        <path id="path37_fill" d="M 0 3.67013L 0 0L 7.97506 0L 7.3616 3.67013L 0 3.67013Z"/>
        <path id="path38_fill" d="M 0 3.67013L 0 1.22338L 8.58853 0L 8.58853 3.67013L 0 3.67013Z"/>
        <path id="path39_fill" d="M 0 2.44675L 0 0.611688L 6.74813 0L 6.74813 2.44675L 0 2.44675Z"/>
        <path id="path40_fill" d="M 0 4.28182L 0 0.611688L 7.97506 0L 7.97506 4.28182L 0 4.28182Z"/>
        <path id="path41_fill" d="M 0 4.8935L 0 0L 7.3616 0.611688L 7.3616 3.67013L 0 4.8935Z"/>
        <path id="path42_fill" d="M 0 0.611688L 0 3.67013L 7.3616 3.67013L 7.3616 0L 0 0.611688Z"/>
        <path id="path43_fill" d="M 0 2.44675L 0 0L 6.13466 0L 6.13466 1.83506L 0 2.44675Z"/>
        <path id="path44_fill" d="M 0 2.44675L 0.613466 0L 6.13466 0L 6.13466 2.44675L 0 2.44675Z"/>
        <path id="path45_fill" d="M 0 0L 0 2.44675L 4.90773 3.05844L 4.90773 0L 0 0Z"/>
        <path id="path46_fill" d="M 0 1.63117L 0 0L 4.08978 0L 4.08978 1.22338L 0 1.63117Z"/>
        <path id="path47_fill" d="M 0 1.63117L 0.408978 0L 4.08978 0L 4.08978 1.63117L 0 1.63117Z"/>
        <path id="path48_fill" d="M 0 0L 0 1.63117L 3.27182 2.03896L 3.27182 0L 0 0Z"/>
        <path id="path49_fill" d="M 64.414 0L 3.6808 1.22338L 0 3.67013L 66.8678 2.44675L 64.414 0Z"/>
        <path id="path50_fill" d="M 3.6808 2.44675L 0 0.611688L 73.0025 0L 70.5486 1.22338L 3.6808 2.44675Z"/>
        <path id="path51_stroke"
              d="M 0.5 -1C 0.223858 -1 0 -0.776142 0 -0.5C 0 -0.223858 0.223858 0 0.5 0L 0.5 -1ZM 52.3336 0C 52.6097 0 52.8336 -0.223858 52.8336 -0.5C 52.8336 -0.776142 52.6097 -1 52.3336 -1L 52.3336 0ZM 0.5 0L 52.3336 0L 52.3336 -1L 0.5 -1L 0.5 0Z"/>
        <path id="path52_stroke"
              d="M 0.5 -1C 0.223858 -1 0 -0.776142 0 -0.5C 0 -0.223858 0.223858 0 0.5 0L 0.5 -1ZM 52.3325 0C 52.6087 0 52.8325 -0.223858 52.8325 -0.5C 52.8325 -0.776142 52.6087 -1 52.3325 -1L 52.3325 0ZM 0.5 -5.55112e-17L 52.3325 -5.55112e-17L 52.3325 -1L 0.5 -1L 0.5 -5.55112e-17Z"/>
        <path id="path53_stroke"
              d="M 0.5 -1C 0.223858 -1 0 -0.776142 0 -0.5C 0 -0.223858 0.223858 0 0.5 0L 0.5 -1ZM 57.2173 0C 57.4935 0 57.7173 -0.223858 57.7173 -0.5C 57.7173 -0.776142 57.4935 -1 57.2173 -1L 57.2173 0ZM 0.5 0L 57.2173 0L 57.2173 -1L 0.5 -1L 0.5 0Z"/>
        <path id="path54_stroke"
              d="M 0.5 -1C 0.223858 -1 0 -0.776142 0 -0.5C 0 -0.223858 0.223858 0 0.5 0L 0.5 -1ZM 58.4448 0C 58.721 0 58.9448 -0.223858 58.9448 -0.5C 58.9448 -0.776142 58.721 -1 58.4448 -1L 58.4448 0ZM 0.5 -5.55112e-17L 58.4448 -5.55112e-17L 58.4448 -1L 0.5 -1L 0.5 -5.55112e-17Z"/>
        <path id="path55_stroke"
              d="M 0.5 -1C 0.223858 -1 0 -0.776142 0 -0.5C 0 -0.223858 0.223858 0 0.5 0L 0.5 -1ZM 52.3325 0C 52.6086 0 52.8325 -0.223858 52.8325 -0.5C 52.8325 -0.776142 52.6086 -1 52.3325 -1L 52.3325 0ZM 0.5 0L 52.3325 0L 52.3325 -1L 0.5 -1L 0.5 0Z"/>
        <path id="path56_stroke"
              d="M 0.5 -1C 0.223858 -1 0 -0.776142 0 -0.5C 0 -0.223858 0.223858 0 0.5 0L 0.5 -1ZM 52.3323 0C 52.6084 0 52.8323 -0.223858 52.8323 -0.5C 52.8323 -0.776142 52.6084 -1 52.3323 -1L 52.3323 0ZM 0.5 -5.55112e-17L 52.3323 -5.55112e-17L 52.3323 -1L 0.5 -1L 0.5 -5.55112e-17Z"/>
        <path id="path57_stroke"
              d="M 0.5 -1C 0.223858 -1 0 -0.776142 0 -0.5C 0 -0.223858 0.223858 0 0.5 0L 0.5 -1ZM 52.3323 0C 52.6084 0 52.8323 -0.223858 52.8323 -0.5C 52.8323 -0.776142 52.6084 -1 52.3323 -1L 52.3323 0ZM 0.5 0L 52.3323 0L 52.3323 -1L 0.5 -1L 0.5 0Z"/>
        <path id="path58_stroke"
              d="M 0.5 -1C 0.223858 -1 0 -0.776142 0 -0.5C 0 -0.223858 0.223858 0 0.5 0L 0.5 -1ZM 52.3324 0C 52.6085 0 52.8324 -0.223858 52.8324 -0.5C 52.8324 -0.776142 52.6085 -1 52.3324 -1L 52.3324 0ZM 0.5 0L 52.3324 0L 52.3324 -1L 0.5 -1L 0.5 0Z"/>
        <path id="path59_stroke"
              d="M 0.5 -1C 0.223858 -1 0 -0.776142 0 -0.5C 0 -0.223858 0.223858 0 0.5 0L 0.5 -1ZM 52.3325 0C 52.6086 0 52.8325 -0.223858 52.8325 -0.5C 52.8325 -0.776142 52.6086 -1 52.3325 -1L 52.3325 0ZM 0.5 0L 52.3325 0L 52.3325 -1L 0.5 -1L 0.5 0Z"/>
        <path id="path60_stroke" d="M 0.5 48.236L 0.5 0L -0.5 0L -0.5 48.236L 0.5 48.236Z"/>
        <path id="path61_fill"
              d="M 21.2668 2.36743C 15.9501 -1.92021 4.87365 0.580911 0 2.36743L 0 17.1061C 2.21529 16.2129 7.44339 14.9623 10.6334 17.1061C 14.6209 19.7859 13.2918 29.1651 21.2668 35.8646C 27.6469 41.2241 38.1031 35.4179 42.5337 31.8449C 37.217 31.8449 33.2294 30.505 29.2419 26.4854C 25.2544 22.4657 27.9127 7.72698 21.2668 2.36743Z"/>
        <path id="path62_fill"
              d="M 10.6334 5.35955C 10.6334 8.31955 8.25304 10.7191 5.31671 10.7191C 2.38037 10.7191 0 8.31955 0 5.35955C 0 2.39955 2.38037 0 5.31671 0C 8.25304 0 10.6334 2.39955 10.6334 5.35955Z"/>
        <path id="path63_fill"
              d="M 8.88296 3.40031C 9.08573 3.41759 9.30183 3.24511 9.34235 2.95917C 9.38286 2.67323 7.93432 1.15634 7.49216 1.20824C 7.05 1.26013 6.34975 2.5828 6.08847 2.5309C 5.82719 2.47901 5.03571 1.08699 4.68479 1.20824C 4.33386 1.32949 3.62813 2.54389 3.2811 2.5309C 2.93407 2.51792 2.1205 1.4508 1.87741 1.20824C 1.63432 0.965674 0.139645 2.62563 0.0277332 2.95917C -0.0841789 3.29272 0.157384 3.5392 0.487123 3.40031C 0.816862 3.26141 1.54888 1.86075 1.87767 2.06502C 2.89693 2.69823 3.12899 3.3296 3.2945 3.40031C 3.46 3.47101 4.50384 2.19362 4.68504 2.06502C 4.86624 1.93641 5.85004 3.32188 6.08873 3.38769C 6.32742 3.45349 7.12765 2.24919 7.49241 2.06502C 7.85718 1.88084 8.68019 3.38303 8.88296 3.40031Z"/>
        <path id="path64_fill"
              d="M 2.10662 0.0815283C 2.04237 0.0342539 1.96515 0.00601115 1.88443 0.000263393C 1.77025 -0.00364544 1.65911 0.0360825 1.57539 0.110737C 1.49167 0.185391 1.44219 0.288878 1.4378 0.39851C 1.4378 0.476236 1.46142 0.552273 1.50576 0.617297C 1.5501 0.682322 1.61324 0.733507 1.68744 0.764576C 1.76163 0.795645 1.84366 0.805248 1.92345 0.792207C 2.00325 0.779166 2.07734 0.744049 2.13666 0.69116C 2.19597 0.638271 2.23792 0.56991 2.25737 0.494461C 2.27682 0.419011 2.27291 0.339753 2.24613 0.266403C 2.21935 0.193054 2.17087 0.128803 2.10662 0.0815283Z"/>
        <path id="path65_fill"
              d="M 4.91399 0.0815283C 4.84974 0.0342539 4.77252 0.00601115 4.6918 0.000263393C 4.57762 -0.00364544 4.46649 0.0360825 4.38276 0.110737C 4.29904 0.185391 4.24956 0.288878 4.24518 0.39851C 4.24517 0.476236 4.26879 0.552273 4.31313 0.617297C 4.35748 0.682322 4.42062 0.733507 4.49481 0.764576C 4.56901 0.795645 4.65103 0.805248 4.73083 0.792207C 4.81062 0.779166 4.88472 0.744049 4.94403 0.69116C 5.00335 0.638271 5.0453 0.56991 5.06474 0.494461C 5.08419 0.419011 5.08028 0.339753 5.05351 0.266403C 5.02673 0.193054 4.97824 0.128803 4.91399 0.0815283Z"/>
        <path id="path66_fill"
              d="M 7.72137 0.0815283C 7.65712 0.0342539 7.5799 0.00601115 7.49918 0.000263393C 7.385 -0.00364544 7.27386 0.0360825 7.19014 0.110737C 7.10641 0.185391 7.05694 0.288878 7.05255 0.39851C 7.05255 0.476236 7.07616 0.552273 7.12051 0.617297C 7.16485 0.682322 7.22799 0.733507 7.30219 0.764576C 7.37638 0.795645 7.45841 0.805248 7.5382 0.792207C 7.61799 0.779166 7.69209 0.744049 7.75141 0.69116C 7.81072 0.638271 7.85267 0.56991 7.87212 0.494461C 7.89156 0.419011 7.88766 0.339753 7.86088 0.266403C 7.8341 0.193054 7.78562 0.128803 7.72137 0.0815283Z"/>
        <path id="path67_fill"
              d="M 7.62443 5.05223C 8.08362 4.94967 8.38458 4.63162 8.06997 4.62439C 7.75535 4.6171 5.80748 3.96484 4.68498 3.95209C 3.56247 3.93935 1.46536 4.3512 1.29998 4.62439C 1.1346 4.89759 1.42523 5.09481 1.74553 5.05223C 2.06582 5.00965 3.52438 4.56478 4.68498 4.56478C 5.84557 4.56478 7.16523 5.1548 7.62443 5.05223Z"/>
        <path id="path68_fill"
              d="M 4.69219 7.96574C 4.674 7.67073 7.21391 5.89376 6.92494 5.75952C 6.63565 5.62528 2.76645 5.61296 2.45924 5.75952C 2.15202 5.90607 4.71037 8.26075 4.69219 7.96574Z"/>
        <path id="path69_fill" d="M 30.0598 0L 0 75.2376L 70.5486 72.1792L 30.0598 0Z"/>
        <path id="path70_fill"
              d="M 0 12.2338C 0 13.7018 3.6808 14.8844 5.5212 15.2922C 24.7431 14.4766 63.9232 12.8454 66.8678 12.8454C 69.8125 12.8454 70.9576 11.2143 71.1621 10.3987C 70.1396 6.93246 61.592 0 35.581 0C 3.06733 0 0 10.3987 0 12.2338Z"/>
        <path id="path71_fill"
              d="M 61.9601 7.37263L 61.3466 42.8505L 61.9601 72.8233L 7.97506 67.3181L 0 7.37263C 3.06733 5.12978 12.5147 0.521727 25.7656 0.0323767C 39.0165 -0.456974 55.4165 4.72198 61.9601 7.37263Z"/>
        <path id="path72_fill"
              d="M 30.6733 0.288488C 19.8763 -1.66891 5.72569 6.81316 0 11.2989L 3.6808 29.6495L 59.5062 33.9314L 59.5062 8.85215C 54.394 6.81318 41.4703 2.24589 30.6733 0.288488Z"/>
        <path id="path73_fill" d="M 0 1.22338L 0.613466 4.8935L 7.97506 3.67013L 7.3616 0L 0 1.22338Z"/>
        <path id="path74_fill" d="M 0 5.50519L 0 1.22338L 8.58853 0L 8.58853 3.67013L 0 5.50519Z"/>
        <path id="path75_fill" d="M 0 3.67051L 0 0.815669L 6.13402 0L 6.13402 2.44701L 0 3.67051Z"/>
        <path id="path76_fill" d="M 0 2.91175L 0 0.647056L 4.86702 0L 4.86702 1.94117L 0 2.91175Z"/>
        <path id="path77_fill"
              d="M 0 4.66408L 0 0.381972C 3.56321 -0.158533 5.41985 -0.0951291 8.58794 0.381972L 8.58794 4.05235C 5.2095 3.27248 3.3285 3.37929 0 4.66408Z"/>
        <path id="path78_fill"
              d="M 0 3.76939L 0 0.3087C 2.87994 -0.128122 4.38055 -0.0768808 6.94114 0.3087L 6.94114 3.275C 4.21054 2.64473 2.69024 2.73105 0 3.76939Z"/>
        <path id="path79_fill"
              d="M 5.3495 0.147684C 7.80337 0.637034 14.5515 2.79833 17.6188 3.81781C 17.4144 7.28405 17.1281 14.3389 17.6188 14.8282C 18.2322 15.4399 4.12257 9.323 1.05524 5.04119C -2.01209 0.759372 2.28217 -0.464004 5.3495 0.147684Z"/>
        <path id="path80_fill"
              d="M 8.52427 11.6221L 1.16268 11.6221C -0.268742 7.74805 -1.53657 0 4.84348 0C 11.2235 0 9.9557 7.74805 8.52427 11.6221Z"/>
        <path id="path81_fill"
              d="M 12.2693 32.4195C 10.797 21.6538 3.47631 6.32078 0 0L 6.13466 48.935L 14.7232 49.5467C 14.5187 48.3233 13.7416 43.1852 12.2693 32.4195Z"/>
        <path id="path82_fill" d="M 7.97506 6.11688L 0 2.44675L 3.06733 0L 8.58853 3.05844L 7.97506 6.11688Z"/>
        <path id="path83_fill" d="M 0.613466 1.83506L 4.29426 0L 3.6808 14.0688L 0 15.9039L 0.613466 1.83506Z"/>
        <path id="path84_fill" d="M 9.20199 1.83506L 1.22693 0L 0 4.28182L 3.06733 4.8935L 9.20199 1.83506Z"/>
        <path id="path85_fill" d="M 1.8404 4.28182L 0 0L 4.90773 1.22338L 4.90773 4.28182L 1.8404 4.28182Z"/>
        <path id="path86_fill" d="M 0 4.28182L 0 0L 3.6808 1.22338L 3.6808 3.67013L 0 4.28182Z"/>
        <path id="path87_fill" d="M 3.6808 3.05844L 11.6559 1.83506L 6.74813 0L 0 1.83506L 3.6808 3.05844Z"/>
        <path id="path88_fill" d="M 6.13466 2.44675L 0 0L 0 12.8454L 4.90773 14.6805L 6.13466 2.44675Z"/>
        <path id="path89_fill" d="M 3.6808 4.28182L 0 2.44675L 5.5212 0L 5.5212 3.05844L 3.6808 4.28182Z"/>
        <path id="path90_fill"
              d="M 6.74813 2.44675L 8.58853 0.611688L 2.45387 0L 0 3.67013L 0 7.34026L 6.74813 4.28182L 6.74813 2.44675Z"/>
        <path id="path91_fill" d="M 6.74813 0.611688L 0 0L 0 9.78701L 6.13466 10.3987L 6.74813 0.611688Z"/>
        <path id="path92_fill"
              d="M 1.8404 31.7597C 2.24938 34.0025 3.06733 38.6106 3.06733 39.0999L 111.037 34.8183L 111.651 26.2545L 115.332 26.2545L 115.332 12.7973C 107.997 9.29448 103.672 8.05183 95.7007 6.68047C 95.2918 11.1662 95.0873 20.7493 95.0873 20.7493C 95.0873 20.7493 98.5636 22.5844 99.995 23.196L 99.3815 26.2545C 91.1539 24.0007 86.4512 22.9412 77.9102 21.361L 79.1372 17.0792L 87.1122 18.9142L 89.5661 4.8454C 75.7128 -0.523548 67.6219 -1.25668 52.1446 1.78696L 52.7581 14.0207L 57.6658 15.2441L 57.6658 18.3025C 48.0537 17.7228 42.8139 18.1512 33.7406 20.1376L 33.7406 15.8558L 40.4888 14.0207L 40.4888 1.17527C 30.0386 3.97741 24.326 6.03417 14.7232 11.574L 14.7232 24.4194L 20.2444 21.9727L 20.2444 25.0311L 5.5212 31.7597L 5.5212 28.0895L 7.97506 24.4194L 7.97506 14.6324C 3.90386 17.0631 2.13873 18.9042 0 23.196L 0 32.3714L 1.8404 31.7597Z"/>
        <path id="path93_fill"
              d="M 0 15.9855C 0 17.4536 3.27182 17.4128 4.90773 17.2089L 102.449 14.7622C 104.289 14.3544 107.97 13.1718 107.97 11.7038C 107.97 9.8687 103.676 9.25701 100.608 8.03363C 97.5411 6.81026 93.8603 6.19853 74.8429 2.5284C 55.8254 -1.14172 43.5561 -0.530035 26.379 2.5284C 9.20199 5.58684 0 14.1505 0 15.9855Z"/>
        <path id="path94_fill"
              d="M 0 12.2338L 0.613466 22.6325L 97.5411 19.574L 96.9277 10.3987C 91.611 6.93246 74.4748 0 48.4638 0C 22.4529 0 5.31671 8.15584 0 12.2338Z"/>
        <path id="path95_fill"
              d="M 0 15.7885C 0 17.7459 6.13466 19.0509 9.20199 19.4586L 88.9526 15.7885C 91.4065 15.3807 96.4369 14.1981 96.9277 12.73C 97.5411 10.8949 84.6584 3.55476 73.0025 1.71969C 61.3466 -0.115372 51.5312 -0.727059 32.5137 1.108C 13.4963 2.94307 0 13.3418 0 15.7885Z"/>
        <path id="path96_fill"
              d="M 0 12.8454C 0 12.8454 3.09962 44.0415 4.90773 45.2649C 6.71584 46.4883 75.4564 42.2065 81.591 43.4298C 82.2045 42.8182 82.2045 7.95194 82.2045 7.95194C 76.2297 5.3013 58.8411 0 37.0847 0C 15.3284 0 3.29642 8.56363 0 12.8454Z"/>
        <path id="path97_fill"
              d="M 0 15.2318C 0 17.6786 5.31671 18.698 7.97506 18.9019C 27.606 18.4126 57.4613 15.4357 69.9352 14.0084C 78.3192 16.2513 77.2369 13.3968 74.8429 10.95C 72.4489 8.50319 43.0694 -2.57453 27.606 0.551302C 12.4673 3.61151 0 12.1734 0 15.2318Z"/>
        <path id="path98_fill"
              d="M 0 9.78701L 20.8579 173.108C 23.3117 184.118 34.9676 182.895 42.3292 183.506C 48.2184 183.996 58.6883 178.001 63.187 174.943L 63.8005 8.56363C 57.0524 5.70909 40.8569 0 30.0598 0C 19.2628 0 5.5212 6.52467 0 9.78701Z"/>
        <path id="path99_fill"
              d="M 2.67513 175.65C 0.221265 174.426 -0.392201 173.814 0.221265 172.591C 3.90196 167.086 23.5331 169.533 28.4408 167.698C 33.3485 165.863 25.9869 23.951 26.6004 17.2224C 27.2139 10.4938 12.4907 6.82364 12.4907 4.37688C 12.4907 1.93013 15.558 -0.516621 21.6927 0.095067C 26.6004 0.584417 35.5979 4.37688 39.4832 6.21195L 38.8697 173.203C 35.8024 174.63 27.582 177.852 19.2388 179.32C 8.80989 181.155 5.12899 176.873 2.67513 175.65Z"/>
        <path id="path100_fill"
              d="M 45.3965 11.3895L 44.7992 1.89826C 40.0206 3.79651 28.9104 7.71957 22.6983 8.22577C 16.4861 8.73198 7.36698 5.06201 3.58393 3.16376C 3.58393 2.10917 3.34501 0 2.38929 0C 1.43357 0 0.398215 2.10917 0 3.16376L 0.597322 11.3895C 6.37144 13.0769 19.8311 16.5781 27.4768 17.0843C 35.1226 17.5905 42.609 13.4987 45.3965 11.3895Z"/>
        <path id="path101_fill"
              d="M 0 5.50519C 0 5.01584 7.77057 1.63117 11.6559 0C 14.7232 2.44675 8.58853 9.17532 8.58853 11.6221C 8.58853 14.0688 14.1097 16.5156 12.8828 20.1857C 11.9012 23.1218 5.93017 27.526 3.06733 29.361C 2.04489 21.613 0 5.99454 0 5.50519Z"/>
        <path id="path102_fill"
              d="M 5.5212 0C 8.95661 0 17.1771 3.26234 20.8579 4.8935L 20.8579 40.3714C 20.3671 38.414 17.3815 36.2935 15.9501 35.4779C 14.9277 29.361 12.8828 16.3932 12.8828 13.4571C 12.8828 9.78701 0 6.11688 0 4.28182C 0 2.44675 1.22693 0 5.5212 0Z"/>
        <path id="path103_fill"
              d="M 0 4.28182C 1.47232 2.81377 3.88529 0.815584 4.90773 0C 6.38005 4.8935 3.06733 12.2338 1.22693 15.2922L 0 4.28182Z"/>
        <path id="path104_fill"
              d="M 7.83205 3.09338L 8.44552 11.657C 5.5067 8.95844 3.90498 8.02545 1.08392 6.76351C 0.26597 4.31676 -0.879167 -0.454405 1.08392 0.0349451C 3.04702 0.524296 6.40063 2.2778 7.83205 3.09338Z"/>
        <path id="path105_fill"
              d="M 0 4.66376L 0 0.381946C 3.56345 -0.158522 5.42022 -0.0951226 8.58853 0.381946L 8.58853 4.05207C 5.20985 3.27225 3.32873 3.37906 0 4.66376Z"/>
        <path id="path106_fill" d="M 7.3616 0L 0 1.83506L 1.22693 5.50519L 8.58853 3.67013L 7.3616 0Z"/>
        <path id="path107_fill" d="M 7.97506 3.67013L 1.22693 4.8935L 0 0.611688L 7.97506 0L 7.97506 3.67013Z"/>
        <path id="path108_fill" d="M 0 4.28182L 0 0L 7.3616 0L 7.3616 3.05844L 0 4.28182Z"/>
        <path id="path109_fill"
              d="M 8.58853 0.486734C 7.84893 -0.748968 1.91634 0.553352 0 2.3218L 0.613466 6.60363C 3.61456 4.92427 5.34692 4.32279 8.58853 4.15688C 8.58853 3.13739 8.84003 0.906943 8.58853 0.486734Z"/>
        <path id="path110_stroke" d="M 0.5 48.2362L 0.5 0L -0.5 0L -0.5 48.2362L 0.5 48.2362Z"/>
        <path id="path111_fill"
              d="M 21.2667 2.36744C 15.95 -1.92022 4.87362 0.580914 0 2.36744L 0 17.1062C 2.21528 16.213 7.44335 14.9624 10.6334 17.1062C 14.6209 19.786 13.2917 29.1653 21.2667 35.8648C 27.6467 41.2243 38.1029 35.4181 42.5334 31.8451C 37.2168 31.8451 33.2292 30.5052 29.2417 26.4855C 25.2542 22.4658 27.9126 7.72702 21.2667 2.36744Z"/>
        <path id="path112_fill"
              d="M 10.6334 5.35958C 10.6334 8.3196 8.253 10.7192 5.31668 10.7192C 2.38036 10.7192 0 8.3196 0 5.35958C 0 2.39957 2.38036 0 5.31668 0C 8.253 0 10.6334 2.39957 10.6334 5.35958Z"/>
        <path id="path113_fill"
              d="M 8.88292 3.40032C 9.08569 3.4176 9.30179 3.24513 9.34231 2.95918C 9.38282 2.67324 7.93429 1.15635 7.49213 1.20824C 7.04997 1.26014 6.34972 2.58281 6.08845 2.53091C 5.82717 2.47902 5.03569 1.08699 4.68477 1.20824C 4.33385 1.32949 3.62811 2.5439 3.28109 2.53091C 2.93406 2.51793 2.1205 1.45081 1.8774 1.20824C 1.63431 0.965678 0.139645 2.62564 0.0277331 2.95918C -0.0841786 3.29273 0.157383 3.53922 0.487121 3.40032C 0.816859 3.26142 1.54888 1.86076 1.87766 2.06503C 2.89692 2.69824 3.12898 3.32962 3.29448 3.40032C 3.45999 3.47103 4.50382 2.19363 4.68502 2.06503C 4.86623 1.93642 5.85001 3.3219 6.0887 3.3877C 6.32739 3.4535 7.12762 2.2492 7.49238 2.06503C 7.85715 1.88085 8.68015 3.38304 8.88292 3.40032Z"/>
        <path id="path114_fill"
              d="M 2.10661 0.0815287C 2.04236 0.034254 1.96514 0.00601118 1.88442 0.000263394C 1.77024 -0.00364546 1.65911 0.0360826 1.57538 0.110737C 1.49166 0.185391 1.44218 0.288879 1.4378 0.398511C 1.43779 0.476238 1.46141 0.552275 1.50576 0.6173C 1.5501 0.682324 1.61324 0.73351 1.68743 0.764579C 1.76163 0.795648 1.84365 0.805252 1.92344 0.792211C 2.00324 0.779169 2.07734 0.744052 2.13665 0.691163C 2.19596 0.638274 2.23791 0.569913 2.25736 0.494463C 2.27681 0.419013 2.2729 0.339754 2.24612 0.266404C 2.21935 0.193055 2.17086 0.128803 2.10661 0.0815287Z"/>
        <path id="path115_fill"
              d="M 4.91397 0.0815287C 4.84973 0.034254 4.77251 0.00601118 4.69178 0.000263394C 4.57761 -0.00364546 4.46647 0.0360826 4.38275 0.110737C 4.29902 0.185391 4.24955 0.288879 4.24516 0.398511C 4.24516 0.476238 4.26877 0.552275 4.31312 0.6173C 4.35746 0.682324 4.4206 0.73351 4.4948 0.764579C 4.56899 0.795648 4.65101 0.805252 4.73081 0.792211C 4.8106 0.779169 4.8847 0.744052 4.94401 0.691163C 5.00333 0.638274 5.04528 0.569913 5.06472 0.494463C 5.08417 0.419013 5.08027 0.339754 5.05349 0.266404C 5.02671 0.193055 4.97822 0.128803 4.91397 0.0815287Z"/>
        <path id="path116_fill"
              d="M 7.72134 0.0815287C 7.65709 0.034254 7.57987 0.00601118 7.49915 0.000263394C 7.38497 -0.00364546 7.27383 0.0360826 7.19011 0.110737C 7.10639 0.185391 7.05691 0.288879 7.05252 0.398511C 7.05252 0.476238 7.07614 0.552275 7.12048 0.6173C 7.16482 0.682324 7.22796 0.73351 7.30216 0.764579C 7.37635 0.795648 7.45838 0.805252 7.53817 0.792211C 7.61797 0.779169 7.69206 0.744052 7.75138 0.691163C 7.81069 0.638274 7.85264 0.569913 7.87209 0.494463C 7.89153 0.419013 7.88763 0.339754 7.86085 0.266404C 7.83407 0.193055 7.78559 0.128803 7.72134 0.0815287Z"/>
        <path id="path117_fill"
              d="M 7.6244 5.05225C 8.08359 4.94969 8.38455 4.63164 8.06994 4.62441C 7.75532 4.61712 5.80746 3.96485 4.68496 3.95211C 3.56246 3.93936 1.46536 4.35121 1.29998 4.62441C 1.1346 4.89761 1.42523 5.09483 1.74552 5.05225C 2.06582 5.00967 3.52437 4.5648 4.68496 4.5648C 5.84555 4.5648 7.1652 5.15482 7.6244 5.05225Z"/>
        <path id="path118_fill"
              d="M 4.69217 7.96577C 4.67398 7.67076 7.21388 5.89378 6.92491 5.75954C 6.63563 5.6253 2.76644 5.61299 2.45923 5.75954C 2.15201 5.9061 4.71035 8.26078 4.69217 7.96577Z"/>
        <path id="path119_fill" d="M 30.0597 0L 0 75.238L 70.5482 72.1796L 30.0597 0Z"/>
        <path id="path120_fill"
              d="M 0 12.2338C 0 13.7019 3.68078 14.8845 5.52117 15.2923C 24.743 14.4767 63.9228 12.8455 66.8675 12.8455C 69.8121 12.8455 70.9572 11.2143 71.1617 10.3988C 70.1393 6.9325 61.5917 0 35.5809 0C 3.06731 0 0 10.3988 0 12.2338Z"/>
        <path id="path121_fill"
              d="M 61.9598 7.37267L 61.3463 42.8508L 61.9598 72.8237L 7.97502 67.3185L 0 7.37267C 3.06731 5.1298 12.5146 0.52173 25.7654 0.0323769C 39.0162 -0.456976 55.4162 4.72201 61.9598 7.37267Z"/>
        <path id="path122_fill"
              d="M 30.6731 0.28849C 19.8762 -1.66892 5.72565 6.8132 0 11.2989L 3.68078 29.6497L 59.5059 33.9315L 59.5059 8.8522C 54.3937 6.81322 41.4701 2.2459 30.6731 0.28849Z"/>
        <path id="path123_fill" d="M 0 1.22338L 0.613463 4.89353L 7.97502 3.67015L 7.36156 0L 0 1.22338Z"/>
        <path id="path124_fill" d="M 0 5.50522L 0 1.22338L 8.58848 0L 8.58848 3.67015L 0 5.50522Z"/>
        <path id="path125_fill" d="M 0 3.67053L 0 0.815673L 6.13399 0L 6.13399 2.44702L 0 3.67053Z"/>
        <path id="path126_fill" d="M 0 2.91177L 0 0.647059L 4.867 0L 4.867 1.94118L 0 2.91177Z"/>
        <path id="path127_fill"
              d="M 0 4.66411L 0 0.381974C 3.56319 -0.158534 5.41982 -0.0951296 8.5879 0.381974L 8.5879 4.05237C 5.20947 3.2725 3.32848 3.37931 0 4.66411Z"/>
        <path id="path128_fill"
              d="M 0 3.76941L 0 0.308701C 2.87992 -0.128123 4.38053 -0.0768812 6.94111 0.308701L 6.94111 3.27502C 4.21052 2.64474 2.69022 2.73107 0 3.76941Z"/>
        <path id="path129_fill"
              d="M 5.34947 0.147685C 7.80332 0.637038 14.5514 2.79835 17.6187 3.81783C 17.4143 7.28409 17.128 14.3389 17.6187 14.8283C 18.2321 15.44 4.12255 9.32305 1.05523 5.04121C -2.01208 0.759376 2.28216 -0.464007 5.34947 0.147685Z"/>
        <path id="path130_fill"
              d="M 8.52423 11.6221L 1.16267 11.6221C -0.268741 7.74809 -1.53656 0 4.84345 0C 11.2235 0 9.95564 7.74809 8.52423 11.6221Z"/>
        <path id="path131_fill"
              d="M 12.2693 32.4196C 10.7969 21.6539 3.47629 6.32081 0 0L 6.13463 48.9353L 14.7231 49.547C 14.5186 48.3236 13.7416 43.1854 12.2693 32.4196Z"/>
        <path id="path132_fill" d="M 8.56201 6.11688L 0 2.44675L 3.29308 0L 9.22063 3.05844L 8.56201 6.11688Z"/>
        <path id="path133_fill" d="M 0.658616 1.83506L 4.61032 0L 3.9517 14.0688L 0 15.9039L 0.658616 1.83506Z"/>
        <path id="path134_fill" d="M 9.87925 1.83506L 1.31723 0L 0 4.28182L 3.29308 4.89351L 9.87925 1.83506Z"/>
        <path id="path135_fill" d="M 1.97585 4.28182L 0 0L 5.26893 1.22338L 5.26893 4.28182L 1.97585 4.28182Z"/>
        <path id="path136_fill" d="M 0 4.28182L 0 0L 3.9517 1.22338L 3.9517 3.67013L 0 4.28182Z"/>
        <path id="path137_fill" d="M 3.9517 3.05844L 12.5137 1.83506L 7.24478 0L 0 1.83506L 3.9517 3.05844Z"/>
        <path id="path138_fill" d="M 6.58616 2.44675L 0 0L 0 12.8455L 5.26893 14.6805L 6.58616 2.44675Z"/>
        <path id="path139_fill" d="M 3.9517 4.28182L 0 2.44675L 5.92755 0L 5.92755 3.05844L 3.9517 4.28182Z"/>
        <path id="path140_fill"
              d="M 7.24478 2.44675L 9.22063 0.611688L 2.63447 0L 0 3.67013L 0 7.34026L 7.24478 4.28182L 7.24478 2.44675Z"/>
        <path id="path141_fill" d="M 7.24478 0.611688L 0 0L 0 9.78701L 6.58616 10.3987L 7.24478 0.611688Z"/>
        <path id="path142_fill"
              d="M 1.97585 31.7597C 2.41493 34.0025 3.29308 38.6106 3.29308 39.0999L 119.21 34.8183L 119.868 26.2545L 123.82 26.2545L 123.82 12.7973C 115.946 9.29448 111.302 8.05183 102.744 6.68047C 102.305 11.1662 102.086 20.7493 102.086 20.7493C 102.086 20.7493 105.818 22.5844 107.354 23.196L 106.696 26.2545C 97.8627 24.0007 92.8139 22.9412 83.6443 21.361L 84.9615 17.0792L 93.5235 18.9142L 96.158 4.8454C 81.2851 -0.523548 72.5988 -1.25668 55.9824 1.78696L 56.641 14.0207L 61.91 15.2441L 61.91 18.3025C 51.5904 17.7228 45.9649 18.1512 36.2239 20.1376L 36.2239 15.8558L 43.4687 14.0207L 43.4687 1.17527C 32.2494 3.97741 26.1163 6.03417 15.8068 11.574L 15.8068 24.4194L 21.7343 21.9727L 21.7343 25.0311L 5.92755 31.7597L 5.92755 28.0895L 8.56201 24.4194L 8.56201 14.6324C 4.19118 17.0631 2.29614 18.9042 0 23.196L 0 32.3714L 1.97585 31.7597Z"/>
        <path id="path143_fill"
              d="M 0 15.9855C 0 17.4536 3.51262 17.4128 5.26893 17.2089L 109.989 14.7622C 111.965 14.3544 115.916 13.1718 115.916 11.7038C 115.916 9.8687 111.306 9.25701 108.013 8.03363C 104.72 6.81026 100.768 6.19853 80.3512 2.52841C 59.9341 -1.14172 46.7618 -0.530035 28.3205 2.52841C 9.87925 5.58685 0 14.1505 0 15.9855Z"/>
        <path id="path144_fill"
              d="M 0 12.2338L 0.658616 22.6325L 104.72 19.574L 104.061 10.3987C 98.3534 6.93247 79.956 0 52.0307 0C 24.1054 0 5.70801 8.15584 0 12.2338Z"/>
        <path id="path145_fill"
              d="M 0 15.7885C 0 17.7459 6.58616 19.0509 9.87925 19.4586L 95.4994 15.7885C 98.1339 15.3807 103.535 14.1981 104.061 12.73C 104.72 10.8949 90.8891 3.55476 78.3754 1.71969C 65.8616 -0.115372 55.3238 -0.72706 34.9067 1.108C 14.4896 2.94307 0 13.3418 0 15.7885Z"/>
        <path id="path146_fill"
              d="M 0 12.8454C 0 12.8454 3.32775 44.0415 5.26893 45.2649C 7.21012 46.4883 81.0098 42.2065 87.596 43.4299C 88.2546 42.8182 88.2546 7.95194 88.2546 7.95194C 81.8401 5.3013 63.1717 0 39.8141 0C 16.4565 0 3.53903 8.56363 0 12.8454Z"/>
        <path id="path147_fill"
              d="M 0 15.2318C 0 17.6786 5.70801 18.698 8.56201 18.9019C 29.6377 18.4126 61.6904 15.4357 75.0823 14.0084C 84.0834 16.2513 82.9214 13.3968 80.3512 10.95C 77.781 8.50319 46.2392 -2.57454 29.6377 0.551302C 13.3848 3.61151 0 12.1734 0 15.2318Z"/>
        <path id="path148_fill"
              d="M 0 9.78701L 22.393 173.108C 25.0274 184.118 37.5411 182.895 45.4445 183.506C 51.7673 183.996 63.0076 178.001 67.8375 174.943L 68.4961 8.56363C 61.2513 5.70909 43.8639 0 32.2722 0C 20.6806 0 5.92755 6.52467 0 9.78701Z"/>
        <path id="path149_fill"
              d="M 2.87202 175.65C 0.23755 174.426 -0.421067 173.814 0.23755 172.591C 4.18914 167.086 25.2651 169.533 30.534 167.698C 35.8029 165.863 27.8995 23.951 28.5582 17.2224C 29.2168 10.4938 13.41 6.82364 13.41 4.37688C 13.41 1.93013 16.7031 -0.516621 23.2892 0.0950671C 28.5582 0.584418 38.2179 4.37688 42.3891 6.21195L 41.7305 173.203C 38.4374 174.63 29.6119 177.852 20.6548 179.32C 9.45829 181.155 5.50648 176.873 2.87202 175.65Z"/>
        <path id="path150_fill"
              d="M 11.5904 14.6818L 1.58089 14.6818C -0.365408 9.78788 -2.08927 0 6.58566 0C 15.2606 0 13.5367 9.78788 11.5904 14.6818Z"/>
        <path id="path151_fill"
              d="M 48.7376 11.3895L 48.0963 1.89826C 42.9661 3.79651 31.0382 7.71957 24.3688 8.22577C 17.6995 8.73198 7.90918 5.06202 3.84771 3.16376C 3.84771 2.10917 3.59119 0 2.56514 0C 1.53908 0 0.427523 2.10917 0 3.16376L 0.641285 11.3895C 6.84037 13.0769 12.9925 16.1288 24.3057 16.8264C 32.5142 17.3326 45.745 13.4987 48.7376 11.3895Z"/>
        <path id="path152_fill"
              d="M 0 5.50519C 0 5.01584 8.34247 1.63117 12.5137 0C 15.8068 2.44675 9.22063 9.17532 9.22063 11.6221C 9.22063 14.0688 15.1482 16.5156 13.8309 20.1857C 12.7772 23.1218 6.36663 27.526 3.29308 29.361C 2.19539 21.613 0 5.99454 0 5.50519Z"/>
        <path id="path153_fill"
              d="M 5.92755 0C 9.6158 0 18.4413 3.26234 22.393 4.8935L 22.393 40.3714C 21.8661 38.414 18.6608 36.2935 17.124 35.4779C 16.0263 29.361 13.8309 16.3932 13.8309 13.4571C 13.8309 9.78701 0 6.11688 0 4.28182C 0 2.44675 1.31723 0 5.92755 0Z"/>
        <path id="path154_fill"
              d="M 0 4.28182C 1.58068 2.81377 4.17124 0.815584 5.26893 0C 6.84961 4.8935 3.29308 12.2338 1.31723 15.2922L 0 4.28182Z"/>
        <path id="path155_fill"
              d="M 8.40848 3.09339L 9.0671 11.657C 5.91199 8.95844 4.19238 8.02545 1.1637 6.76351C 0.285545 4.31676 -0.943873 -0.454405 1.1637 0.0349451C 3.27127 0.524296 6.87171 2.2778 8.40848 3.09339Z"/>
        <path id="path156_fill" d="M 0 1.22338L 0.658616 4.89351L 8.56201 3.67013L 7.9034 0L 0 1.22338Z"/>
        <path id="path157_fill" d="M 0 5.50519L 0 1.22338L 9.22063 0L 9.22063 3.67013L 0 5.50519Z"/>
        <path id="path158_fill"
              d="M 0 4.66376L 0 0.381946C 3.82572 -0.158522 5.81914 -0.0951226 9.22063 0.381946L 9.22063 4.05207C 5.59329 3.27225 3.57372 3.37906 0 4.66376Z"/>
        <path id="path159_fill" d="M 7.9034 0L 0 1.83506L 1.31723 5.50519L 9.22063 3.67013L 7.9034 0Z"/>
        <path id="path160_fill" d="M 8.56201 3.67013L 1.31723 4.89351L 0 0.611688L 8.56201 0L 8.56201 3.67013Z"/>
        <path id="path161_fill" d="M 0 4.28182L 0 0L 7.9034 0L 7.9034 3.05844L 0 4.28182Z"/>
        <path id="path162_fill"
              d="M 9.22063 0.486734C 8.4266 -0.748968 2.05738 0.553352 0 2.3218L 0.658616 6.60363C 3.88058 4.92427 5.74045 4.32279 9.22063 4.15688C 9.22063 3.13739 9.49065 0.906943 9.22063 0.486734Z"/>
    </defs>
</svg>
