<?xml version="1.0" encoding="utf-8"?>
<!-- Generator: Adobe Illustrator 17.0.0, SVG Export Plug-In . SVG Version: 6.00 Build 0)  -->
<!DOCTYPE svg PUBLIC "-//W3C//DTD SVG 1.1//EN" "http://www.w3.org/Graphics/SVG/1.1/DTD/svg11.dtd">
<svg version="1.1" id="google_x2B_" xmlns="http://www.w3.org/2000/svg" xmlns:xlink="http://www.w3.org/1999/xlink" x="0px"
	 y="0px" width="20px" height="13px" viewBox="137 23 20 13" enable-background="new 137 23 20 13" xml:space="preserve">
<path id="path2_fill" fill="#FFFFFF" d="M143.348,28.215v2.575c0,0,2.438-0.005,3.434-0.005c-0.54,1.666-1.374,2.575-3.434,2.575
	c-2.085,0-3.709-1.727-3.709-3.86s1.629-3.86,3.709-3.86c1.104,0,1.815,0.397,2.467,0.949c0.525-0.537,0.481-0.612,1.81-1.897
	c-1.128-1.049-2.629-1.692-4.273-1.692c-3.507,0-6.353,2.911-6.353,6.5s2.845,6.5,6.353,6.5c5.244,0,6.524-4.673,6.098-7.785
	C148.209,28.215,143.348,28.215,143.348,28.215z M154.797,28.341v-2.254h-1.57v2.254h-2.261v1.606h2.261v2.314h1.57v-2.314H157
	v-1.606H154.797z"/>
</svg>
