<?xml version="1.0" encoding="utf-8"?>
<!-- Generator: Adobe Illustrator 17.0.0, SVG Export Plug-In . SVG Version: 6.00 Build 0)  -->
<!DOCTYPE svg PUBLIC "-//W3C//DTD SVG 1.1//EN" "http://www.w3.org/Graphics/SVG/1.1/DTD/svg11.dtd">
<svg version="1.1" id="twitter" xmlns="http://www.w3.org/2000/svg" xmlns:xlink="http://www.w3.org/1999/xlink" x="0px" y="0px"
	 width="17px" height="14px" viewBox="94 23 17 14" enable-background="new 94 23 17 14" xml:space="preserve">
<path id="path1_fill" fill="#FFFFFF" d="M111,24.658c-0.626,0.28-1.299,0.471-2.004,0.555c0.72-0.437,1.273-1.131,1.532-1.957
	c-0.675,0.406-1.42,0.699-2.214,0.859c-0.637-0.687-1.542-1.116-2.546-1.116c-1.925,0-3.487,1.584-3.487,3.535
	c0,0.278,0.03,0.548,0.091,0.805c-2.899-0.147-5.468-1.556-7.188-3.695c-0.299,0.522-0.472,1.129-0.472,1.777
	c0,1.226,0.616,2.309,1.552,2.941c-0.571-0.018-1.108-0.177-1.58-0.442c0,0.015,0,0.028,0,0.044c0,1.712,1.202,3.142,2.797,3.466
	c-0.292,0.08-0.601,0.123-0.918,0.123c-0.226,0-0.444-0.023-0.657-0.064c0.444,1.404,1.732,2.427,3.256,2.456
	c-1.195,0.949-2.696,1.514-4.332,1.514c-0.282,0-0.558-0.018-0.832-0.049C95.542,36.414,97.376,37,99.346,37
	c6.414,0,9.922-5.387,9.922-10.058c0-0.154-0.003-0.306-0.01-0.458c0.682-0.499,1.273-1.121,1.74-1.831L111,24.658z"/>
</svg>
