<?xml version="1.0" encoding="utf-8"?>
<!-- Generator: Adobe Illustrator 17.0.0, SVG Export Plug-In . SVG Version: 6.00 Build 0)  -->
<!DOCTYPE svg PUBLIC "-//W3C//DTD SVG 1.1//EN" "http://www.w3.org/Graphics/SVG/1.1/DTD/svg11.dtd">
<svg version="1.1" id="microgaming" xmlns="http://www.w3.org/2000/svg" xmlns:xlink="http://www.w3.org/1999/xlink" x="0px"
	 y="0px" width="119.001px" height="29px" viewBox="324 222 119.001 29" enable-background="new 324 222 119.001 29"
	 xml:space="preserve">
<path id="path98_fill" fill="#34B9DE" d="M375.42,240.972h-1.233v-8.301l-2.807,8.301h-1.17l-2.807-8.301v8.301h-1.233v-9.758h1.956
	l2.658,8.132l2.679-8.132h1.956V240.972z"/>
<path id="path99_fill" fill="#33BDCB" d="M378.725,232.566h-1.255v-1.352h1.255V232.566z M378.725,240.972h-1.255v-7.076h1.255
	V240.972z"/>
<path id="path100_fill" fill="#36C0C4" d="M383.478,241.162c-0.489,0-0.957-0.084-1.361-0.253c-0.404-0.169-0.766-0.401-1.063-0.718
	c-0.298-0.317-0.51-0.697-0.68-1.162c-0.17-0.465-0.234-0.993-0.234-1.584s0.085-1.098,0.234-1.563
	c0.149-0.465,0.383-0.845,0.68-1.162c0.298-0.317,0.638-0.57,1.063-0.718c0.425-0.148,0.872-0.253,1.361-0.253
	c0.383,0,0.744,0.042,1.063,0.148c0.319,0.106,0.617,0.253,0.872,0.444s0.468,0.422,0.617,0.718
	c0.149,0.296,0.276,0.613,0.319,0.993h-1.297c-0.021-0.422-0.17-0.76-0.489-0.972c-0.319-0.211-0.659-0.338-1.084-0.338
	c-0.298,0-0.574,0.063-0.829,0.169c-0.255,0.106-0.468,0.296-0.638,0.507c-0.17,0.211-0.319,0.507-0.425,0.845
	c-0.106,0.338-0.149,0.739-0.149,1.183c0,0.444,0.043,0.845,0.149,1.183s0.234,0.613,0.425,0.845
	c0.191,0.232,0.383,0.401,0.638,0.507c0.255,0.106,0.532,0.169,0.829,0.169c0.213,0,0.404-0.021,0.574-0.084
	c0.17-0.063,0.34-0.127,0.489-0.232c0.149-0.106,0.255-0.232,0.34-0.401c0.085-0.169,0.149-0.359,0.149-0.57h1.297
	c-0.064,0.38-0.17,0.697-0.319,0.993s-0.361,0.528-0.617,0.718c-0.255,0.19-0.532,0.338-0.872,0.444
	C384.18,241.119,383.861,241.162,383.478,241.162z"/>
<path id="path101_fill" fill="#2CC2AD" d="M391.159,235.058c-0.191-0.063-0.447-0.084-0.765-0.084c-0.638,0-1.191,0.338-1.659,1.014
	v5.006h-1.255v-7.076h1.255v0.972c0.532-0.76,1.148-1.141,1.871-1.141c0.17,0,0.361,0.021,0.574,0.063v1.246H391.159z"/>
<path id="path102_fill" fill="#2EC79A" d="M394.918,233.748c0.51,0,0.978,0.084,1.382,0.253c0.404,0.169,0.766,0.422,1.063,0.739
	c0.298,0.317,0.51,0.718,0.68,1.162c0.17,0.444,0.234,0.972,0.234,1.563s-0.085,1.098-0.234,1.563
	c-0.149,0.465-0.383,0.845-0.68,1.162c-0.298,0.317-0.638,0.57-1.063,0.718c-0.425,0.148-0.872,0.253-1.382,0.253
	c-0.489,0-0.957-0.084-1.361-0.253s-0.766-0.401-1.063-0.718c-0.298-0.317-0.51-0.697-0.68-1.162
	c-0.17-0.465-0.234-0.993-0.234-1.584s0.085-1.098,0.234-1.563c0.149-0.465,0.383-0.845,0.68-1.162
	c0.298-0.317,0.638-0.57,1.063-0.718C393.983,233.854,394.429,233.748,394.918,233.748z M394.918,240.169
	c0.298,0,0.574-0.063,0.808-0.169c0.234-0.106,0.468-0.275,0.638-0.507c0.17-0.232,0.319-0.507,0.425-0.845
	c0.106-0.338,0.149-0.739,0.149-1.183c0-0.444-0.043-0.845-0.149-1.183c-0.106-0.338-0.234-0.613-0.425-0.845
	c-0.191-0.232-0.404-0.401-0.638-0.507c-0.234-0.106-0.51-0.169-0.808-0.169s-0.574,0.063-0.829,0.169
	c-0.255,0.106-0.468,0.296-0.638,0.507s-0.319,0.507-0.425,0.845c-0.106,0.338-0.149,0.739-0.149,1.183
	c0,0.444,0.043,0.845,0.149,1.183c0.106,0.338,0.234,0.613,0.425,0.845c0.191,0.232,0.383,0.401,0.638,0.507
	C394.344,240.106,394.621,240.169,394.918,240.169z"/>
<path id="path103_fill" fill="#34CC90" d="M405.471,240.443c0,2.281-1.042,3.401-3.104,3.401c-0.447,0-0.851-0.042-1.212-0.148
	c-0.361-0.106-0.659-0.232-0.914-0.422c-0.255-0.19-0.447-0.401-0.574-0.676c-0.128-0.275-0.213-0.57-0.213-0.908h1.318
	c0,0.781,0.51,1.162,1.552,1.162c0.298,0,0.574-0.042,0.787-0.106s0.425-0.211,0.595-0.38c0.17-0.169,0.276-0.422,0.361-0.739
	c0.085-0.317,0.128-0.697,0.128-1.162v-0.317c-0.574,0.676-1.255,1.014-2.041,1.014c-0.468,0-0.893-0.084-1.255-0.253
	s-0.68-0.422-0.914-0.739c-0.234-0.317-0.425-0.697-0.574-1.141c-0.149-0.444-0.191-0.95-0.191-1.5c0-0.591,0.085-1.119,0.234-1.584
	c0.149-0.465,0.361-0.866,0.638-1.183c0.276-0.317,0.595-0.57,0.957-0.739c0.361-0.169,0.765-0.253,1.191-0.253
	c0.765,0,1.425,0.232,1.956,0.718v-0.549h1.255v6.505H405.471z M404.217,238.944v-3.358c-0.553-0.57-1.191-0.866-1.892-0.866
	c-0.532,0-0.978,0.232-1.297,0.697c-0.319,0.465-0.489,1.162-0.489,2.091c0,0.866,0.149,1.542,0.468,1.985
	c0.319,0.444,0.723,0.676,1.276,0.676C402.984,240.169,403.622,239.746,404.217,238.944z"/>
<path id="path104_fill" fill="#27D360" d="M424.602,240.972h-1.276v-4.562c0-0.591-0.085-1.014-0.255-1.246
	c-0.17-0.232-0.447-0.38-0.851-0.38c-0.617,0-1.233,0.38-1.829,1.119v5.069h-1.255v-4.562c0-0.591-0.085-1.014-0.255-1.246
	s-0.447-0.38-0.851-0.38c-0.617,0-1.212,0.38-1.807,1.119v5.069h-1.255v-7.076h1.255v0.908c0.617-0.718,1.276-1.077,1.999-1.077
	c1.021,0,1.68,0.422,1.999,1.288c0.234-0.296,0.468-0.507,0.659-0.676c0.191-0.169,0.383-0.296,0.553-0.38
	c0.17-0.084,0.34-0.148,0.489-0.169c0.149-0.021,0.319-0.042,0.468-0.042c1.467,0,2.19,0.866,2.19,2.619v4.605H424.602z"/>
<path id="path105_fill" fill="#2ADA48" d="M427.716,232.566h-1.276v-1.352h1.255v1.352H427.716z M427.716,240.972h-1.276v-7.076
	h1.255v7.076H427.716z"/>
<path id="path106_fill" fill="#23DC37" d="M430.835,234.804c0.638-0.718,1.34-1.077,2.126-1.077c1.595,0,2.403,0.866,2.403,2.619
	v4.626h-1.276v-4.562c0-0.591-0.106-0.993-0.319-1.246c-0.213-0.253-0.532-0.38-0.999-0.38c-0.638,0-1.297,0.38-1.935,1.119v5.069
	h-1.255v-7.076h1.255V234.804z"/>
<path id="path107_fill" fill="#26E226" d="M443.001,240.443c0,2.281-1.042,3.401-3.104,3.401c-0.447,0-0.851-0.042-1.212-0.148
	c-0.361-0.106-0.659-0.232-0.914-0.422c-0.255-0.19-0.447-0.401-0.574-0.676c-0.128-0.275-0.213-0.57-0.213-0.908h1.318
	c0,0.781,0.51,1.162,1.552,1.162c0.298,0,0.574-0.042,0.787-0.106s0.425-0.211,0.595-0.38c0.17-0.169,0.276-0.422,0.361-0.739
	c0.085-0.317,0.128-0.697,0.128-1.162v-0.317c-0.574,0.676-1.255,1.014-2.041,1.014c-0.468,0-0.893-0.084-1.255-0.253
	s-0.68-0.422-0.914-0.739c-0.234-0.317-0.425-0.697-0.574-1.141c-0.149-0.444-0.191-0.95-0.191-1.5c0-0.591,0.085-1.119,0.234-1.584
	c0.149-0.465,0.361-0.866,0.638-1.183c0.276-0.317,0.595-0.57,0.957-0.739c0.361-0.169,0.765-0.253,1.191-0.253
	c0.765,0,1.425,0.232,1.956,0.718v-0.549h1.255v6.505H443.001z M441.747,238.944v-3.358c-0.553-0.57-1.191-0.866-1.892-0.866
	c-0.532,0-0.978,0.232-1.297,0.697c-0.319,0.465-0.489,1.162-0.489,2.091c0,0.866,0.149,1.542,0.468,1.985
	c0.319,0.444,0.723,0.676,1.276,0.676C440.514,240.169,441.173,239.746,441.747,238.944z"/>
<path id="path108_fill" fill="#2DCF7C" d="M412.191,234.023v0.676c-0.213-0.296-0.447-0.528-0.829-0.697
	c-0.404-0.169-0.765-0.253-1.255-0.253c-0.468,0-0.872,0.084-1.276,0.253c-0.404,0.169-0.723,0.401-0.999,0.718
	s-0.489,0.718-0.638,1.162c-0.149,0.465-0.234,0.972-0.234,1.563s0.085,1.119,0.234,1.584c0.149,0.465,0.361,0.845,0.659,1.162
	c0.298,0.317,0.617,0.549,0.999,0.718s0.829,0.253,1.297,0.253c0.489,0,0.787-0.084,1.169-0.253s0.638-0.401,0.851-0.697v1.204
	h1.063v-7.393H412.191L412.191,234.023z M411.978,238.627c-0.085,0.338-0.234,0.613-0.404,0.845
	c-0.17,0.232-0.383,0.401-0.617,0.507c-0.234,0.106-0.489,0.169-0.787,0.169c-0.298,0-0.553-0.063-0.787-0.169
	c-0.234-0.106-0.447-0.275-0.617-0.507c-0.17-0.232-0.298-0.507-0.404-0.845c-0.106-0.338-0.149-0.739-0.149-1.183
	c0-0.444,0.043-0.845,0.149-1.183c0.106-0.338,0.234-0.613,0.404-0.845c0.17-0.232,0.383-0.401,0.617-0.507
	c0.234-0.106,0.489-0.169,0.787-0.169c0.276,0,0.553,0.063,0.787,0.169c0.234,0.106,0.447,0.296,0.617,0.507
	c0.17,0.211,0.298,0.507,0.404,0.845c0.085,0.338,0.149,0.739,0.149,1.183C412.127,237.888,412.063,238.289,411.978,238.627z"/>
<linearGradient id="path109_fill_1_" gradientUnits="userSpaceOnUse" x1="431.1741" y1="415.5728" x2="432.1741" y2="415.5728" gradientTransform="matrix(29.2752 0 0 -29.0796 -12298.709 12321.1924)">
	<stop  offset="0" style="stop-color:#29E229"/>
	<stop  offset="0.3628" style="stop-color:#30CB8F"/>
	<stop  offset="1" style="stop-color:#3CBCDF"/>
</linearGradient>
<path id="path109_fill" fill="url(#path109_fill_1_)" d="M350.739,228.241c-4.551-6.59-13.673-8.216-20.349-3.654
	c-5.273,3.612-7.464,10.012-5.89,15.799c0.043-0.042,0.085-0.085,0.085-0.127c0-0.021,0.021-0.021,0.021-0.042
	c0.085-0.063,0.128-0.127,0.17-0.232c0.043-0.042,0.064-0.106,0.106-0.148c0.043-0.063,0.106-0.148,0.17-0.232
	c0.17-0.169,0.276-0.359,0.383-0.549c0.489-0.718,1.148-1.69,1.892-2.767c2.126-3.168,4.827-7.414,5.911-9.927
	c0.021-0.063,0.043-0.127,0.085-0.19c0,0,0.447-0.887,1.361-0.95c0.191,0,1.169,0.063,1.021,1.457
	c-0.128,1.225-0.255,4.436-0.298,6.611c-0.042,0.444-0.064,0.908-0.042,1.373v0.021c-0.021,1.119,0.106,3.401,0.361,5.259
	c0,0.106,0,0.19,0.021,0.296c0.021,0.169,0.085,0.38,0.128,0.634c0.085,0.507,0.191,0.929,0.319,1.267
	c0.085,0.275,0.149,0.528,0.234,0.676c0.234,0.57,0.383,1.289,1.488,0c1.084-1.267,3.062-4.879,3.317-5.344
	c0.021-0.042,0.043-0.063,0.043-0.106c0.213-0.444,1.744-3.675,1.978-4.182c0.255-0.549,1.042-2.197,1.722-2.028
	c0.681,0.169,0.914-0.084,1.531,2.978c0.043,0.232,0.106,0.422,0.149,0.591c0,0.042,0.021,0.106,0.021,0.148
	c0,0.127,0.021,0.232,0.064,0.338c0.043,0.232,0.085,0.486,0.149,0.739v0.021c0,0.021,0,0.021,0,0.042
	c0.659,3.379,1.85,4.583,2.212,5.132c0.042,0.127,0.042,0.211,0.021,0.275c-0.149,0.085-0.638-0.106-1.084-0.422
	c-0.064-0.106-0.149-0.169-0.276-0.211c-0.021-0.085-0.085-0.148-0.17-0.169l-0.021-0.021c-0.17-0.317-0.383-0.613-0.617-0.887
	c-0.574-0.908-1.233-2.154-1.68-2.978c-0.085-0.232-0.191-0.465-0.383-0.676c-0.043-0.063-0.064-0.106-0.085-0.127
	c-0.255-0.359-0.787,1.141-0.787,1.141c-1.233,2.281-3.423,6.252-4.487,7.519c-0.085,0.106-0.17,0.19-0.255,0.296
	c-0.149,0.127-0.298,0.253-0.447,0.38c-1.297,0.993-2.658,0.549-3.7-0.211c-0.893-0.634-1.531-2.302-1.871-4.034
	c-0.085-0.655-0.149-1.331-0.276-1.985c-0.021-0.211-0.021-0.444-0.043-0.655c-0.085-2.746,0.34-5.745-0.17-5.259
	c-0.043,0.021-0.064,0.063-0.106,0.127c-0.021,0.021-0.064,0.063-0.085,0.106c-0.064,0.084-0.128,0.169-0.191,0.275
	c-0.043,0.042-0.064,0.085-0.085,0.127c-0.489,0.76-1.148,1.985-1.467,2.598l-4.231,7.139c-0.021,0.021-0.043,0.063-0.043,0.085
	l-0.361,0.613c0.128,0.19,0.255,0.38,0.383,0.57c4.55,6.59,13.672,8.216,20.349,3.654
	C353.61,243.85,355.311,234.831,350.739,228.241z"/>
</svg>
