<?xml version="1.0" encoding="utf-8"?>
<!-- Generator: Adobe Illustrator 17.0.0, SVG Export Plug-In . SVG Version: 6.00 Build 0)  -->
<!DOCTYPE svg PUBLIC "-//W3C//DTD SVG 1.1//EN" "http://www.w3.org/Graphics/SVG/1.1/DTD/svg11.dtd">
<svg version="1.1" id="paysafecard_1_" xmlns="http://www.w3.org/2000/svg" xmlns:xlink="http://www.w3.org/1999/xlink" x="0px"
	 y="0px" width="105.568px" height="17.88px" viewBox="325 162 105.568 17.88" enable-background="new 325 162 105.568 17.88"
	 xml:space="preserve">
<path id="path11_fill" fill="#028BC8" d="M344.078,169.92c0-0.36-0.24-0.6-0.48-0.6h-1.799c-0.48,0-0.6,0.24-0.6,0.72v3.24
	c0,0.48,0.24,0.72,0.72,0.72h1.68c0.12,0,0.36-0.12,0.48-0.24s0.12-0.24,0.12-0.36v-3.48H344.078z M338.8,169.56
	c0-0.84,0.24-1.44,0.48-1.8c0.24-0.12,0.36-0.36,0.72-0.48c0.24-0.12,0.6-0.24,0.84-0.24h3.239c1.44,0,2.159,0.84,2.159,2.4v4.8
	c0,0.6-0.24,1.08-0.6,1.44c-0.36,0.48-0.96,0.6-1.56,0.6h-3.119v3.48h-2.279v-10.2"/>
<path id="path12_fill" fill="#028BC8" d="M350.429,173.52c0,0.12,0.12,0.24,0.24,0.36c0.12,0.12,0.24,0.12,0.36,0.12h1.799
	c0.36,0,0.6-0.12,0.6-0.48v-0.6c0-0.36-0.24-0.6-0.6-0.6h-1.799c-0.24,0-0.36,0-0.48,0.12c-0.12,0.12-0.12,0.24-0.12,0.48V173.52z
	 M353.428,169.92c0-0.36-0.24-0.48-0.6-0.48h-4.679v-2.4h5.159c1.56,0,2.279,0.72,2.279,2.16v4.92c0,0.6-0.24,1.2-0.6,1.56
	c-0.36,0.48-0.84,0.6-1.56,0.6h-3.119c-1.56,0-2.279-0.72-2.279-2.16v-1.92c0-1.44,0.72-2.16,2.279-2.16h2.999v-0.12"/>
<path id="path13_fill" fill="#028BC8" d="M362.189,177.48c0.24,0,0.36-0.12,0.48-0.24c0.12-0.12,0.24-0.24,0.24-0.36v-0.6h-2.999
	c-0.36,0-0.72,0-0.96-0.12c-0.24-0.12-0.48-0.24-0.72-0.48c-0.24-0.24-0.36-0.48-0.48-0.84c-0.12-0.24-0.12-0.6-0.12-0.96v-6.96
	h2.279v6.24c0,0.48,0.24,0.72,0.6,0.72h1.68c0.24,0,0.36-0.12,0.48-0.24s0.24-0.24,0.24-0.36v-6.36h2.279v10.44
	c0,0.72-0.24,1.32-0.6,1.8c-0.36,0.48-0.96,0.72-1.56,0.72h-5.398v-2.4H362.189z"/>
<path id="path14_fill" fill="#028BC8" d="M366.87,174h4.079c0.36,0,0.6-0.12,0.6-0.48v-0.24c0-0.12,0-0.12,0-0.24
	c-0.12-0.12-0.24-0.24-0.36-0.24h-2.039c-0.6,0-1.08-0.24-1.56-0.6s-0.72-0.84-0.72-1.32v-1.8c0-1.32,0.72-2.04,2.279-2.04h4.799
	v2.4h-4.079c-0.48,0-0.72,0.12-0.72,0.48v0.24c0,0.24,0.24,0.48,0.72,0.48h2.039c0.48,0,0.96,0.24,1.44,0.6
	c0.36,0.36,0.6,0.84,0.6,1.44v1.68c0,0.48-0.24,0.96-0.72,1.44c-0.24,0.24-0.48,0.36-0.6,0.48c-0.24,0.12-0.48,0.12-0.96,0.12
	h-4.799V174"/>
<path id="path15_fill" fill="#028BC8" d="M377.909,173.52c0,0.12,0.12,0.24,0.24,0.36c0.12,0.12,0.24,0.12,0.36,0.12h1.799
	c0.36,0,0.6-0.12,0.6-0.48v-0.6c0-0.36-0.24-0.6-0.6-0.6h-1.799c-0.24,0-0.36,0-0.48,0.12c-0.12,0.12-0.12,0.24-0.12,0.48V173.52z
	 M380.908,169.92c0-0.36-0.24-0.48-0.6-0.48h-4.679v-2.4h5.159c1.56,0,2.279,0.72,2.279,2.16v4.92c0,0.6-0.24,1.2-0.6,1.56
	c-0.36,0.48-0.84,0.6-1.56,0.6h-3.119c-1.56,0-2.279-0.72-2.279-2.16v-1.92c0-1.44,0.72-2.16,2.279-2.16h2.999v-0.12"/>
<path id="path16_fill" fill="#028BC8" d="M384.98,165.72c0-0.6,0.24-1.2,0.72-1.56s1.08-0.6,1.799-0.6h1.44v2.28h-0.84
	c-0.48,0-0.72,0.24-0.72,0.72v0.48h1.68v2.4h-1.68v6.96h-2.399V165.72z"/>
<path id="path17_fill" fill="#028BC8" d="M395.419,169.8c0-0.12,0-0.24-0.12-0.36s-0.24-0.12-0.36-0.12h-1.56
	c-0.24,0-0.36,0-0.48,0.12s-0.24,0.24-0.24,0.48v0.96L395.419,169.8z M392.659,173.16v0.12c0,0.24,0,0.36,0.12,0.48
	c0.12,0.12,0.12,0.24,0.24,0.24h4.679v2.4h-5.039c-0.48,0-0.84,0-1.08-0.12c-0.24-0.12-0.48-0.24-0.72-0.48s-0.48-0.48-0.48-0.72
	c-0.12-0.24-0.12-0.6-0.12-1.08v-4.68c0-1.44,0.72-2.16,2.279-2.16h3.119c1.44,0,2.159,0.72,2.159,2.28v1.92L392.659,173.16z"/>
<path id="path18_fill" fill="#028BC8" d="M402.739,176.4c-0.36,0-0.72,0-0.96-0.12c-0.36,0-0.6-0.24-0.96-0.48
	c-0.36-0.24-0.48-0.6-0.6-0.96s-0.24-0.72-0.24-1.2v-4.44c0-0.36,0-0.72,0.12-0.96c0.12-0.24,0.24-0.6,0.48-0.84s0.6-0.48,0.84-0.6
	c0.24-0.12,0.6-0.12,0.96-0.12h3.479v0.6h-3.479c-0.6,0-1.08,0.12-1.44,0.36c-0.36,0.24-0.48,0.72-0.48,1.44v4.68
	c0,0.36,0,0.6,0.12,0.96c0.12,0.24,0.24,0.48,0.48,0.72c0.24,0.24,0.48,0.36,0.72,0.36s0.48,0.12,0.84,0.12h3.239v0.6h-3.119"/>
<path id="path19_fill" fill="#028BC8" d="M414.978,170.64h-4.679c-0.6,0-0.96,0.24-1.32,0.48c-0.36,0.36-0.48,0.84-0.48,1.32v1.44
	c0,0.24,0,0.48,0.12,0.72c0,0.24,0.24,0.48,0.48,0.6c0.36,0.36,0.84,0.48,1.32,0.48h2.759c1.2,0,1.799-0.6,1.799-1.8V170.64
	L414.978,170.64z M415.578,173.88c0,0.36,0,0.72-0.12,0.96c-0.12,0.24-0.24,0.6-0.48,0.84c-0.48,0.48-1.08,0.72-1.799,0.72h-2.759
	c-0.72,0-1.32-0.24-1.799-0.6s-0.72-0.96-0.72-1.8v-1.44c0-1.56,0.84-2.4,2.399-2.52h4.679v-0.6c0-0.48-0.12-0.96-0.48-1.32
	c-0.24-0.24-0.36-0.36-0.72-0.48c-0.24-0.12-0.6-0.12-0.84-0.12H407.9v-0.6h4.679c0.48,0,0.84,0,1.2,0.12
	c0.24,0,0.36,0.12,0.48,0.24s0.36,0.24,0.48,0.48c0.48,0.6,0.6,1.2,0.6,1.92v4.2"/>
<path id="path20_fill" fill="#028BC8" d="M420.729,167.52c-1.32,0-1.919,0.72-1.919,2.04v6.72h-0.6v-6.72
	c0-1.8,0.84-2.64,2.519-2.64h0.6v0.6H420.729z"/>
<path id="path21_fill" fill="#028BC8" d="M429.968,167.52h-4.319c-0.36,0-0.6,0-0.84,0.12c-0.24,0-0.48,0.24-0.72,0.48
	s-0.36,0.48-0.48,0.72c-0.12,0.24-0.12,0.48-0.12,0.84V174c0,0.72,0.24,1.2,0.6,1.44c0.24,0.12,0.48,0.24,0.72,0.24
	c0.24,0.12,0.48,0.12,0.84,0.12h1.919c0.72,0,1.32-0.12,1.799-0.48s0.72-0.84,0.72-1.56v-6.24H429.968z M430.568,173.76
	c0,1.8-0.96,2.64-2.879,2.64h-2.039c-0.48,0-0.84,0-1.2-0.12c-0.36-0.12-0.72-0.36-0.96-0.6s-0.36-0.6-0.48-0.96
	c-0.12-0.36-0.12-0.6-0.12-1.08v-3.96c0-1.8,0.96-2.76,2.759-2.64h4.319v-3h0.6V173.76z"/>
<path id="path22_fill" fill="#E21B20" d="M325.96,166.68c0.24-0.12,0.36-0.12,0.6-0.24c0.36-1.56,1.68-2.76,3.359-2.76
	c1.68,0,3.119,1.2,3.359,2.76c0.6,0.12,1.08,0.36,1.32,0.72c0-0.36,0-0.6,0-0.84c-0.24-2.4-2.279-4.32-4.679-4.32
	c-2.519,0-4.559,2.04-4.679,4.44c0,0.24,0,0.48,0,0.72C325.48,166.92,325.72,166.8,325.96,166.68z"/>
<path id="path23_fill" fill="#E21B20" d="M332.678,167.04h-5.638c-0.24,0-0.6,0.12-0.84,0.24c-0.24,0.12-0.48,0.24-0.72,0.48
	c-0.24,0.36-0.48,0.96-0.48,1.8V174c0,0.84,0.24,1.44,0.48,1.8c0.24,0.12,0.48,0.24,0.72,0.36c0.24,0.12,0.6,0.24,0.84,0.24h5.638
	c1.44,0,2.159-0.84,2.159-2.4v-4.56C334.837,167.88,334.117,167.04,332.678,167.04z"/>
</svg>
