<?xml version="1.0" encoding="utf-8"?>
<!-- Generator: Adobe Illustrator 17.0.0, SVG Export Plug-In . SVG Version: 6.00 Build 0)  -->
<!DOCTYPE svg PUBLIC "-//W3C//DTD SVG 1.1//EN" "http://www.w3.org/Graphics/SVG/1.1/DTD/svg11.dtd">
<svg version="1.1" id="Skrill" xmlns="http://www.w3.org/2000/svg" xmlns:xlink="http://www.w3.org/1999/xlink" x="0px" y="0px"
	 width="28.792px" height="30px" viewBox="864.84 156 28.792 30" enable-background="new 864.84 156 28.792 30"
	 xml:space="preserve">
<path id="path26_fill" fill="#862165" d="M879.236,186c7.951,0,14.396-6.716,14.396-15c0-8.284-6.445-15-14.396-15
	s-14.396,6.716-14.396,15C864.84,179.284,871.285,186,879.236,186z"/>
<path id="path27_fill" fill="#FFFFFF" d="M885.484,167.462l1.843-0.343v7.377h-1.843V167.462z M888.177,167.462v7.033h1.846v-7.377
	L888.177,167.462z M882.858,174.495h1.845V169.1h-1.845V174.495z M870.665,169.862c-0.233-0.015-0.772-0.052-0.772-0.558
	c0-0.611,0.777-0.611,1.068-0.611c0.512,0,1.177,0.158,1.651,0.306c0,0,0.265,0.097,0.49,0.196l0.021,0.006v-0.022v-1.652
	l-0.029-0.009c-0.559-0.203-1.21-0.4-2.416-0.4c-2.08,0-2.817,1.262-2.817,2.343c0,0.624,0.257,2.091,2.638,2.26
	c0.202,0.013,0.737,0.045,0.737,0.568c0,0.432-0.439,0.686-1.176,0.686c-0.809,0-1.594-0.214-2.069-0.419v1.724
	c0.713,0.194,1.517,0.292,2.46,0.292c2.033,0,2.944-1.194,2.944-2.378C873.394,170.854,872.375,169.982,870.665,169.862z
	 M881.818,169.021c-1.705,0.057-2.571,0.854-2.571,2.439v3.036h1.86v-2.476c0-0.948,0.119-1.355,1.2-1.394v-1.577
	C882.125,169.008,881.818,169.021,881.818,169.021z M876.813,169.094c-0.041,0.107-0.336,0.977-1.051,1.878v-3.853l-1.904,0.392
	v6.985h1.904v-2.159c0.551,0.862,0.823,2.159,0.823,2.159h2.281c-0.226-0.977-1.213-2.779-1.213-2.779
	c0.885-1.17,1.274-2.416,1.336-2.623L876.813,169.094L876.813,169.094z M883.779,168.582c0.503,0,0.91-0.424,0.91-0.947
	c0-0.523-0.407-0.948-0.91-0.948c-0.501,0-0.908,0.424-0.908,0.948C882.871,168.158,883.278,168.582,883.779,168.582z"/>
</svg>
