<?xml version="1.0" encoding="utf-8"?>
<!-- Generator: Adobe Illustrator 17.0.0, SVG Export Plug-In . SVG Version: 6.00 Build 0)  -->
<!DOCTYPE svg PUBLIC "-//W3C//DTD SVG 1.1//EN" "http://www.w3.org/Graphics/SVG/1.1/DTD/svg11.dtd">
<svg version="1.1" id="Layer_2" xmlns="http://www.w3.org/2000/svg" xmlns:xlink="http://www.w3.org/1999/xlink" x="0px" y="0px"
	 width="67.571px" height="74.585px" viewBox="714 161 67.571 74.585" enable-background="new 714 161 67.571 74.585"
	 xml:space="preserve">
<path id="path1_fill" fill="#FFFFFF" d="M723.645,221.641c0,0.611-0.128,1.137-0.385,1.58c-0.256,0.442-0.62,0.821-1.068,1.116
	c-0.449,0.316-0.961,0.548-1.538,0.674c-0.62,0.169-1.218,0.232-1.901,0.232c-0.449,0-0.876-0.042-1.282-0.063
	c-0.427-0.042-0.833-0.126-1.218-0.253s-0.769-0.295-1.154-0.506c-0.363-0.189-0.705-0.442-1.068-0.758
	c-0.043-0.042-0.043-0.105,0-0.126l1.453-1.896c0.043-0.042,0.107-0.063,0.128-0.042c0.491,0.379,1.004,0.674,1.474,0.822
	c0.513,0.19,1.068,0.295,1.581,0.295c0.385,0,0.705-0.042,0.961-0.105c0.256-0.063,0.491-0.169,0.641-0.295
	c0.171-0.105,0.256-0.232,0.32-0.358c0.064-0.126,0.107-0.253,0.107-0.379c0-0.169-0.043-0.316-0.128-0.484
	c-0.107-0.126-0.235-0.253-0.449-0.379s-0.491-0.232-0.833-0.358c-0.363-0.126-0.769-0.253-1.282-0.379
	c-0.577-0.169-1.068-0.316-1.517-0.506c-0.449-0.19-0.812-0.421-1.089-0.695s-0.513-0.611-0.684-0.99s-0.235-0.822-0.235-1.327
	c0-0.548,0.107-1.053,0.32-1.453c0.235-0.421,0.513-0.8,0.94-1.116c0.385-0.316,0.876-0.548,1.41-0.695
	c0.555-0.169,1.154-0.253,1.794-0.253c0.705,0,1.41,0.063,2.094,0.19c0.684,0.126,1.346,0.421,2.051,0.885
	c0.043,0.042,0.064,0.105,0.043,0.126l-1.154,2.064c-0.043,0.042-0.107,0.063-0.128,0.042c-0.555-0.316-1.025-0.548-1.517-0.632
	c-0.491-0.084-0.961-0.126-1.453-0.126c-0.449,0-0.812,0.063-1.089,0.232c-0.299,0.169-0.427,0.379-0.427,0.737
	c0,0.169,0.043,0.295,0.128,0.421c0.107,0.126,0.235,0.253,0.449,0.358c0.235,0.126,0.491,0.232,0.833,0.358
	c0.363,0.105,0.769,0.232,1.26,0.379c0.769,0.232,1.41,0.442,1.859,0.695c0.449,0.253,0.833,0.548,1.089,0.864
	c0.256,0.316,0.427,0.632,0.513,0.99C723.581,220.903,723.645,221.261,723.645,221.641z"/>
<path id="path2_fill" fill="#FFFFFF" d="M738.258,221.388c0,0.674-0.128,1.243-0.385,1.706c-0.256,0.484-0.62,0.885-1.025,1.243
	c-0.449,0.316-0.94,0.569-1.517,0.737s-1.196,0.253-1.837,0.253s-1.26-0.105-1.794-0.253c-0.577-0.169-1.068-0.421-1.517-0.737
	c-0.449-0.316-0.812-0.737-1.068-1.243c-0.256-0.485-0.385-1.074-0.385-1.706v-4.529c0-0.674,0.128-1.243,0.427-1.706
	c0.299-0.484,0.641-0.885,1.089-1.18c0.449-0.295,0.961-0.548,1.517-0.695c0.577-0.169,1.132-0.232,1.709-0.232
	s1.154,0.105,1.73,0.253c0.577,0.169,1.09,0.421,1.538,0.737s0.812,0.737,1.089,1.201c0.299,0.484,0.427,1.074,0.427,1.706V221.388z
	 M735.459,217.449c0-0.358-0.064-0.632-0.171-0.885c-0.128-0.253-0.256-0.442-0.449-0.569c-0.192-0.169-0.385-0.253-0.641-0.316
	c-0.235-0.063-0.449-0.105-0.684-0.105s-0.491,0.042-0.705,0.105c-0.214,0.063-0.449,0.19-0.641,0.316
	c-0.192,0.169-0.363,0.358-0.449,0.569c-0.128,0.253-0.171,0.548-0.171,0.885v3.391c0,0.358,0.064,0.632,0.171,0.885
	c0.128,0.253,0.256,0.442,0.449,0.569c0.192,0.169,0.385,0.253,0.641,0.316c0.235,0.063,0.449,0.105,0.705,0.105
	c0.235,0,0.449-0.042,0.684-0.105s0.449-0.19,0.641-0.316c0.192-0.169,0.32-0.358,0.449-0.569c0.128-0.253,0.171-0.548,0.171-0.885
	V217.449z"/>
<path id="path3_fill" fill="#FFFFFF" d="M743.85,225.095v-11.817c0-0.063,0.043-0.105,0.107-0.105h2.563
	c0.064,0,0.107,0.042,0.107,0.105v9.353c0,0.063,0.043,0.105,0.107,0.105h5.597c0.064,0,0.107,0.042,0.107,0.105v2.275
	c0,0.063-0.043,0.105-0.107,0.105h-8.353C743.914,225.18,743.85,225.117,743.85,225.095z"/>
<path id="path4_fill" fill="#FFFFFF" d="M763.699,222.82h-3.781c-0.043,0-0.064,0.042-0.107,0.063l-0.684,2.254
	c0,0.042-0.064,0.063-0.107,0.063h-2.82c-0.064,0-0.128-0.063-0.107-0.126l4.251-11.817c0-0.042,0.064-0.063,0.107-0.063h2.756
	c0.043,0,0.064,0.042,0.107,0.063l4.144,11.817c0.043,0.063-0.043,0.126-0.107,0.126h-2.777c-0.043,0-0.064-0.042-0.107-0.063
	l-0.705-2.254C763.763,222.841,763.742,222.82,763.699,222.82z M760.687,220.524h2.243c0.064,0,0.107-0.063,0.107-0.126
	l-0.235-0.695l-0.961-3.328h-0.064l-0.961,3.328l-0.235,0.695C760.58,220.461,760.623,220.524,760.687,220.524z"/>
<path id="path5_fill" fill="#FFFFFF" d="M777.735,213.173c0.684,0,1.26,0.105,1.709,0.316c0.491,0.232,0.876,0.506,1.154,0.885
	c0.299,0.358,0.513,0.758,0.641,1.243c0.128,0.442,0.192,0.927,0.192,1.39c0,0.316-0.043,0.632-0.128,0.948
	c-0.085,0.316-0.235,0.632-0.385,0.927c-0.171,0.295-0.385,0.548-0.641,0.8c-0.235,0.232-0.491,0.442-0.769,0.611
	c-0.043,0.042-0.064,0.063-0.043,0.126l2.094,4.697c0.043,0.063-0.043,0.126-0.107,0.126h-2.777c-0.043,0-0.064-0.042-0.107-0.063
	l-1.794-4.318c0-0.042-0.064-0.063-0.107-0.063h-1.581c-0.064,0-0.107,0.042-0.107,0.105v4.213c0,0.063-0.043,0.105-0.107,0.105
	h-2.606c-0.064,0-0.107-0.042-0.107-0.105v-11.817c0-0.063,0.043-0.105,0.107-0.105h5.469V213.173z M775.065,218.228
	c0,0.063,0.043,0.105,0.107,0.105h1.987c0.513,0,0.897-0.126,1.132-0.379c0.235-0.253,0.363-0.569,0.363-0.948
	c0-0.379-0.128-0.695-0.363-0.948c-0.235-0.253-0.62-0.379-1.132-0.379h-1.987c-0.064,0-0.107,0.042-0.107,0.105V218.228z"/>
<path id="path6_fill" fill="#FFFFFF" d="M737.059,232.088c0,0.253-0.064,0.506-0.171,0.737c-0.107,0.232-0.235,0.421-0.427,0.569
	c-0.171,0.169-0.385,0.295-0.62,0.358c-0.235,0.105-0.491,0.126-0.748,0.126h-1.987c-0.064,0-0.107-0.042-0.107-0.105v-5.266
	c0-0.063,0.043-0.105,0.107-0.105h1.987c0.256,0,0.513,0.042,0.748,0.126c0.235,0.084,0.427,0.19,0.62,0.358
	c0.171,0.169,0.299,0.358,0.427,0.569c0.107,0.232,0.128,0.484,0.128,0.737v1.896H737.059z M736.29,230.319
	c0-0.232-0.043-0.421-0.107-0.569c-0.064-0.169-0.171-0.295-0.299-0.379s-0.256-0.169-0.427-0.232
	c-0.171-0.042-0.32-0.063-0.491-0.063h-1.068c-0.064,0-0.107,0.042-0.107,0.105v3.96c0,0.063,0.043,0.105,0.107,0.105h1.068
	c0.171,0,0.299-0.042,0.449-0.063c0.171-0.042,0.299-0.126,0.427-0.232c0.128-0.105,0.235-0.232,0.32-0.379
	c0.107-0.169,0.128-0.358,0.128-0.569V230.319L736.29,230.319L736.29,230.319z"/>
<path id="path7_fill" fill="#FFFFFF" d="M740.436,228.76c0,0.126-0.043,0.232-0.128,0.316c-0.107,0.105-0.192,0.126-0.32,0.126
	c-0.107,0-0.235-0.042-0.299-0.126c-0.107-0.105-0.128-0.19-0.128-0.316s0.043-0.232,0.128-0.295
	c0.107-0.105,0.192-0.126,0.299-0.126c0.128,0,0.235,0.042,0.32,0.126C740.372,228.55,740.436,228.634,740.436,228.76z
	 M739.667,233.774v-3.728c0-0.063,0.043-0.105,0.107-0.105h0.491c0.064,0,0.107,0.042,0.107,0.105v3.728
	c0,0.063-0.043,0.105-0.107,0.105h-0.491C739.71,233.879,739.667,233.837,739.667,233.774z"/>
<path id="path8_fill" fill="#FFFFFF" d="M744.19,229.919c0.128,0,0.32,0.042,0.513,0.105c0.192,0.063,0.449,0.19,0.748,0.379
	l0.064-0.358c0-0.042,0.064-0.063,0.107-0.063h0.449c0.064,0,0.107,0.042,0.107,0.105v4.086c0,0.232-0.043,0.421-0.128,0.611
	c-0.107,0.169-0.235,0.316-0.385,0.442c-0.171,0.126-0.363,0.232-0.555,0.253c-0.192,0.063-0.427,0.105-0.641,0.105
	s-0.491-0.042-0.748-0.126c-0.235-0.063-0.449-0.19-0.641-0.358c-0.043-0.042-0.043-0.105,0-0.126l0.363-0.421
	c0.064,0.063,0.128,0.126,0.235,0.169c0.107,0.063,0.171,0.105,0.256,0.126c0.085,0.021,0.192,0.063,0.299,0.063
	c0.107,0.042,0.171,0.042,0.256,0.042c0.128,0,0.256,0,0.385-0.042s0.235-0.105,0.32-0.169c0.107-0.063,0.171-0.169,0.235-0.295
	s0.107-0.253,0.107-0.421v-0.442c-0.256,0.169-0.513,0.295-0.705,0.316c-0.235,0.063-0.385,0.105-0.555,0.105
	c-0.385,0-0.705-0.126-0.961-0.358c-0.256-0.253-0.385-0.569-0.385-1.053v-1.201c0-0.442,0.128-0.8,0.385-1.053
	C743.485,230.045,743.806,229.919,744.19,229.919z M745.451,231.12c0-0.042,0-0.063-0.043-0.105
	c-0.192-0.126-0.385-0.232-0.577-0.316c-0.235-0.105-0.427-0.126-0.577-0.126c-0.235,0-0.385,0.063-0.513,0.19
	c-0.128,0.126-0.192,0.358-0.192,0.674v1.053c0,0.316,0.064,0.506,0.192,0.632c0.128,0.126,0.299,0.19,0.513,0.19
	c0.171,0,0.363-0.042,0.577-0.126c0.192-0.063,0.385-0.169,0.577-0.253c0.043-0.042,0.043-0.063,0.043-0.105V231.12z"/>
<path id="path9_fill" fill="#FFFFFF" d="M749.466,228.76c0,0.126-0.043,0.232-0.128,0.316c-0.107,0.105-0.192,0.126-0.32,0.126
	c-0.107,0-0.235-0.042-0.299-0.126c-0.107-0.105-0.128-0.19-0.128-0.316s0.043-0.232,0.128-0.295
	c0.107-0.105,0.192-0.126,0.299-0.126c0.128,0,0.235,0.042,0.32,0.126S749.466,228.634,749.466,228.76z M748.697,233.774v-3.728
	c0-0.063,0.043-0.105,0.107-0.105h0.491c0.064,0,0.107,0.042,0.107,0.105v3.728c0,0.063-0.043,0.105-0.107,0.105h-0.491
	C748.761,233.879,748.697,233.837,748.697,233.774z"/>
<path id="path10_fill" fill="#FFFFFF" d="M754.422,233.711c0,0.063-0.043,0.105-0.064,0.105c-0.128,0.042-0.256,0.063-0.427,0.105
	s-0.299,0.042-0.385,0.042c-0.427,0-0.748-0.105-0.94-0.295s-0.299-0.506-0.299-0.948v-2.022c0-0.063-0.043-0.105-0.107-0.105
	h-0.363c-0.064,0-0.107-0.042-0.107-0.105v-0.421c0-0.063,0.043-0.105,0.107-0.105h0.385c0.043,0,0.107-0.042,0.107-0.063
	l0.128-0.758c0-0.042,0.043-0.063,0.107-0.063h0.32c0.064,0,0.107,0.042,0.107,0.105v0.674c0,0.063,0.043,0.105,0.107,0.105h0.897
	c0.064,0,0.107,0.042,0.107,0.105v0.421c0,0.063-0.043,0.105-0.107,0.105h-0.897c-0.064,0-0.107,0.042-0.107,0.105v1.833
	c0,0.169,0,0.295,0.043,0.379c0.043,0.105,0.064,0.19,0.128,0.253c0.064,0.063,0.128,0.105,0.192,0.126
	c0.064,0.042,0.171,0.042,0.256,0.042s0.192,0,0.299-0.042c0.107,0,0.235-0.042,0.363-0.042L754.422,233.711z"/>
<path id="path11_fill" fill="#FFFFFF" d="M758.978,233.479c-0.32,0.169-0.577,0.295-0.769,0.358
	c-0.192,0.063-0.385,0.063-0.555,0.063c-0.385,0-0.705-0.105-0.94-0.316c-0.235-0.232-0.363-0.506-0.363-0.864
	c0-0.232,0.064-0.421,0.171-0.548c0.107-0.169,0.235-0.253,0.385-0.358c0.171-0.105,0.32-0.169,0.491-0.19
	c0.171-0.042,0.32-0.063,0.449-0.063h1.154v-0.295c0-0.295-0.064-0.484-0.235-0.569s-0.385-0.169-0.684-0.169
	c-0.128,0-0.32,0.042-0.513,0.063c-0.171,0.042-0.363,0.126-0.513,0.253c-0.043,0.042-0.107,0.042-0.128-0.042l-0.235-0.358
	c-0.043-0.042-0.043-0.105,0.043-0.126c0.235-0.169,0.491-0.295,0.705-0.316c0.256-0.063,0.513-0.105,0.748-0.105
	c0.513,0,0.897,0.126,1.154,0.358s0.385,0.569,0.385,1.053v2.507c0,0.063-0.043,0.105-0.107,0.105h-0.513L758.978,233.479z
	 M759.02,232.215c0-0.063-0.043-0.105-0.107-0.105h-0.961c-0.107,0-0.192,0-0.299,0.042c-0.107,0-0.192,0.042-0.299,0.105
	c-0.107,0.063-0.171,0.105-0.235,0.19c-0.064,0.105-0.107,0.19-0.107,0.316c0,0.19,0.064,0.358,0.192,0.421
	c0.128,0.105,0.299,0.169,0.513,0.169c0.107,0,0.192,0,0.32-0.042c0.107-0.042,0.235-0.063,0.32-0.105
	c0.107-0.042,0.192-0.105,0.299-0.126c0.107-0.063,0.192-0.105,0.256-0.126v-0.737H759.02L759.02,232.215z"/>
<path id="path12_fill" fill="#FFFFFF" d="M763.038,232.826c0,0.232,0.043,0.358,0.128,0.379c0.064,0.042,0.192,0.063,0.363,0.063
	c0.064,0,0.107,0.042,0.107,0.105v0.548c-0.064,0-0.171,0.042-0.235,0.042s-0.128,0-0.192,0c-0.192,0-0.363-0.042-0.449-0.063
	c-0.107-0.042-0.192-0.105-0.299-0.19c-0.107-0.105-0.128-0.19-0.128-0.316c-0.043-0.126-0.043-0.253-0.043-0.421v-4.655
	c0-0.063,0.043-0.105,0.107-0.105h0.491c0.064,0,0.107,0.042,0.107,0.105v4.529h0.043V232.826z"/>
<path id="path13_fill" fill="#C33333" d="M748.269,161C737.63,161,729,169.531,729,180c0,10.469,8.652,19,19.269,19
	c10.617,0,19.269-8.531,19.269-19C767.538,169.531,758.929,161,748.269,161z M742.736,174.86l9.1-8.973
	c0.513-0.506,1.324-0.506,1.837,0c0.513,0.506,0.513,1.306,0,1.812l-9.122,8.973c-0.256,0.253-0.577,0.379-0.897,0.379
	s-0.641-0.126-0.897-0.379C742.223,176.145,742.223,175.366,742.736,174.86z M751.345,178.905l-4.529,4.466
	c-0.256,0.253-0.577,0.379-0.897,0.379c-0.32,0-0.641-0.126-0.897-0.379c-0.513-0.506-0.513-1.306,0-1.812l4.529-4.466
	c0.513-0.505,1.325-0.505,1.837,0C751.858,177.599,751.858,178.399,751.345,178.905z M753.823,185.435l-9.1,8.973
	c-0.256,0.253-0.577,0.379-0.897,0.379s-0.641-0.126-0.897-0.379c-0.513-0.506-0.513-1.306,0-1.812l9.058-8.973
	c0.513-0.506,1.325-0.506,1.837,0C754.336,184.129,754.336,184.929,753.823,185.435z"/>
</svg>
