<?xml version="1.0" encoding="utf-8"?>
<!-- Generator: Adobe Illustrator 17.0.0, SVG Export Plug-In . SVG Version: 6.00 Build 0)  -->
<!DOCTYPE svg PUBLIC "-//W3C//DTD SVG 1.1//EN" "http://www.w3.org/Graphics/SVG/1.1/DTD/svg11.dtd">
<svg version="1.1" id="Swedbank" xmlns="http://www.w3.org/2000/svg" xmlns:xlink="http://www.w3.org/1999/xlink" x="0px" y="0px"
	 width="98.367px" height="21.6px" viewBox="917.63 160.8 98.367 21.6" enable-background="new 917.63 160.8 98.367 21.6"
	 xml:space="preserve">
<path id="path28_fill" fill="#5D7282" d="M918.039,169.063c0,2.023,1.363,2.811,3.373,3.326c1.908,0.446,2.317,1.063,2.317,1.817
	c0,0.823-0.75,1.44-1.806,1.44c-1.159,0-2.147-0.411-3.203-1.371c-0.068,0-1.056,1.269-1.09,1.269
	c1.193,1.097,2.658,1.714,4.225,1.714c2.181,0,3.612-1.303,3.612-3.223c0-1.68-1.022-2.709-3.271-3.257
	c-2.044-0.514-2.419-1.063-2.419-1.851c0-0.686,0.579-1.371,1.67-1.371c0.92,0,1.806,0.343,2.76,1.097
	c0.034-0.034,0.92-1.371,0.954-1.371c-1.056-0.891-2.283-1.337-3.68-1.337C919.504,165.908,918.039,167.245,918.039,169.063z"/>
<path id="path29_fill" fill="#5D7282" d="M931.223,169.063c0,0.034-1.704,5.554-1.704,5.554s-1.533-5.52-1.567-5.554h-1.772
	c0,0.034,2.487,8.023,2.487,8.057h1.533c0-0.034,1.738-5.52,1.738-5.52s1.738,5.486,1.738,5.52h1.533
	c0-0.034,2.487-7.989,2.521-8.057h-1.738c0,0.034-1.567,5.554-1.567,5.554l-1.738-5.554H931.223L931.223,169.063z"/>
<path id="path30_fill" fill="#5D7282" d="M940.258,172.526c0.17-1.303,0.954-2.126,2.01-2.126c1.09,0,1.84,0.823,1.976,2.126v0.034
	L940.258,172.526z M938.52,173.109c0,2.434,1.67,4.149,3.953,4.149c1.465,0,2.249-0.446,2.896-0.823
	c0-0.034-0.477-1.371-0.477-1.406c-0.716,0.514-1.431,0.72-2.385,0.72c-1.227,0-2.044-0.754-2.215-1.989v-0.034h5.622v-0.034
	c0-0.171,0.034-0.309,0.034-0.48c0-1.166-0.341-2.263-0.92-3.017c-0.647-0.857-1.601-1.269-2.76-1.269
	C940.156,168.926,938.52,170.709,938.52,173.109z"/>
<path id="path31_fill" fill="#5D7282" d="M949.248,173.108c0-1.543,0.954-2.606,2.215-2.606c1.193,0,1.976,0.789,1.976,1.131v3.909
	c0,0-0.682,0.137-1.976,0.137C950.202,175.68,949.248,174.583,949.248,173.108z M953.439,165.908v3.874l-0.034-0.034
	c-0.716-0.583-1.397-0.823-2.351-0.823c-1.772,0-3.544,1.406-3.544,4.149v0.034c0,1.234,0.375,2.297,1.124,3.051
	c0.681,0.686,1.601,1.063,2.59,1.063c1.704,0,3.782-0.343,3.919-0.377v-10.971h-1.704V165.908z"/>
<path id="path32_fill" fill="#5D7282" d="M959.134,175.578v-3.943c0-0.309,0.784-1.131,1.976-1.131c0.613,0,1.159,0.24,1.567,0.686
	c0.443,0.48,0.647,1.131,0.647,1.886v0.034c0,1.474-0.954,2.571-2.215,2.571C959.815,175.68,959.134,175.578,959.134,175.578z
	 M957.43,165.909v10.971c0.136,0.034,2.215,0.377,3.919,0.377c0.988,0,1.942-0.377,2.59-1.063c0.75-0.754,1.124-1.817,1.124-3.051
	v-0.034c0-2.709-1.772-4.149-3.544-4.149c-0.954,0-1.636,0.24-2.351,0.823l-0.034,0.034v-3.909H957.43z"/>
<path id="path33_fill" fill="#5D7282" d="M968.198,174.72c0-0.823,0.681-1.303,1.772-1.303c0.613,0,1.261,0.103,1.772,0.309v2.023
	c0,0-0.784,0.137-2.044,0.137C968.777,175.92,968.198,175.44,968.198,174.72z M967.141,169.645c0,0.034,0.443,1.406,0.477,1.44
	c0.681-0.309,1.329-0.48,2.181-0.48c1.227,0,1.908,0.617,1.908,1.749v0.171h-0.034c-0.613-0.206-1.193-0.343-2.113-0.343
	c-1.942,0-3.101,0.96-3.101,2.606v0.034c0,0.754,0.273,1.371,0.818,1.817c0.477,0.411,1.159,0.617,1.908,0.617
	c1.942,0,4.089-0.343,4.225-0.377v-4.526c0-2.194-1.159-3.36-3.373-3.36C968.811,168.994,967.993,169.234,967.141,169.645z"/>
<path id="path34_fill" fill="#5D7282" d="M975.52,169.303v7.783h1.738v-6.446c0,0,0.716-0.137,1.738-0.137s1.67,0.754,1.67,2.057
	v4.526h1.738v-5.074c0-1.886-1.056-3.051-2.726-3.051C977.735,168.926,975.656,169.269,975.52,169.303z"/>
<path id="path35_fill" fill="#5D7282" d="M984.55,165.909v11.177h1.738v-2.297l1.09-1.2l2.317,3.463h2.01
	c-0.034-0.034-3.135-4.731-3.135-4.731s2.998-3.189,3.033-3.257h-2.078l-3.203,3.566v-6.72H984.55z"/>
<path id="path36_fill" fill="#5D7282" d="M1005.948,164.263c0.068,0.103,0.375,0.171,0.477,0.137c0,0,0,0,0.034,0
	c0.034-0.034,0.068-0.103,0.068-0.137c0.034-0.069,0.034-0.137,0.034-0.171c-0.034-0.137-0.273-0.24-0.477-0.206
	c-0.034,0-0.136,0-0.17,0.069c0,0.034,0,0.034,0,0.069C1005.88,164.126,1005.914,164.194,1005.948,164.263z"/>
<path id="path37_fill" fill="#5D7282" d="M1005.745,169.097c0,0,0.068,0.034,0.136,0.034h0.034c0.068-0.034,0.102-0.069,0.204-0.206
	c0.034-0.034,0.068-0.137,0.102-0.171c0-0.034,0.034-0.103,0.102-0.171c0.102-0.137,0.17-0.24,0.17-0.411
	c-0.034-0.377-0.375,0.069-0.477,0.069c-0.204,0-0.204-0.411-0.341-0.48c-0.068-0.034-0.102-0.034-0.136,0c0,0-0.034,0.034,0,0.069
	c0,0.069-0.034,0.069-0.102,0.103c-0.034,0.034-0.068,0.069-0.034,0.103c0,0.137,0.273,0.377,0.307,0.48
	C1005.677,168.685,1005.608,168.994,1005.745,169.097z"/>
<path id="path38_fill" fill="#5D7282" d="M1002.166,168.137c0,0-0.068,0.034-0.102,0.103c-0.034,0.034-0.034,0.069-0.034,0.103
	c0,0.034,0,0.069,0,0.103v0.034c0.102,0.103,0.307,0.206,0.545,0.24c0,0,0.136,0.034,0.273,0.034c0.102,0,0.136,0.034,0.136-0.103
	C1002.984,168.274,1002.507,167.965,1002.166,168.137z"/>
<path id="path39_fill" fill="#5D7282" d="M1006.356,166.388c-0.068-0.034-0.17-0.137-0.273-0.206s-0.204-0.171-0.307-0.171
	c-0.034,0-0.068,0-0.136,0.034c0,0-0.136,0.069-0.17,0.137c0,0.034,0,0.069,0,0.069c0,0.034,0,0.069,0.034,0.069
	c0.034,0.069,0.273,0.034,0.409,0.137c0.102,0.069,0.136,0.206,0.17,0.274c0.068,0.069,0.204,0.034,0.273,0.103
	c0.034,0.069,0,0.137,0.034,0.206c0.034,0.034,0.102,0.103,0.102,0.137c0.034,0.137,0,0.206,0.102,0.274c0,0,0,0,0.034,0h0.034
	c0.034,0,0.068-0.034,0.102-0.069c0.034-0.069,0.034-0.103,0.034-0.103c0.068-0.343-0.068-0.823-0.307-0.926
	C1006.458,166.354,1006.39,166.388,1006.356,166.388z"/>
<path id="path40_fill" fill="#5D7282" d="M1007.139,165.326c0.102,0.034,0.307,0.137,0.443,0.103c0,0,0,0,0.034,0
	c0,0,0.034,0,0.034-0.034c0.034-0.034,0.068-0.069,0.068-0.103c0,0,0.034-0.103,0.102-0.103c0.136,0,0.341-0.069,0.341,0.171
	c0,0.103-0.17,0.343,0.034,0.411c0.068,0.034,0.273-0.103,0.375-0.069c0.136,0.034,0.068,0.48,0.204,0.549
	c0.034,0.034,0.204,0.034,0.204-0.034c0.068-0.069,0.068-0.171,0.068-0.206c0.034-0.514-0.307-0.651-0.443-0.823
	c-0.068-0.103-0.068-0.206-0.136-0.309c-0.102-0.137-0.273-0.24-0.477-0.24c-0.204,0-0.409,0.309-0.545,0.309
	c-0.102,0-0.17-0.206-0.273-0.24c-0.068-0.034-0.136-0.034-0.239,0c-0.068,0.034-0.136,0.069-0.136,0.103
	c-0.034,0.069-0.034,0.206-0.034,0.24C1006.73,165.36,1006.901,165.257,1007.139,165.326z"/>
<path id="path41_fill" fill="#5D7282" d="M1008.059,166.491c0.102,0.137,0.17,0.446,0.341,0.446c0.034,0,0.17,0,0.136-0.137
	c0-0.069-0.068-0.137-0.068-0.206c-0.034-0.171,0.068-0.343-0.068-0.48c-0.068-0.069-0.239-0.103-0.375-0.103
	c0,0-0.17,0-0.204,0.069c0,0,0,0.034,0,0.069C1007.82,166.354,1007.99,166.388,1008.059,166.491z"/>
<path id="path42_fill" fill="#5D7282" d="M1009.012,167.52c0.034,0.034,0.034,0.034,0.068,0.034h0.034h0.034h0.034h0.034h0.034
	c0,0,0.034,0,0.034-0.034l0.034-0.034c0.068-0.137,0.068-0.137,0.17-0.206c0.136-0.137-0.136-0.411-0.307-0.274
	c0,0-0.068,0.069-0.136,0.137C1008.978,167.211,1008.91,167.451,1009.012,167.52z"/>
<path id="path43_fill" fill="#5D7282" d="M1007.377,168.24c0.068-0.034,0.102-0.069,0.136-0.103c0,0,0-0.034,0.034-0.034
	c0-0.069,0-0.137,0.034-0.206c0-0.034,0-0.034,0.034-0.069s0.068-0.103,0.102-0.103c0.034,0,0.102-0.103,0.204-0.171
	c0,0,0,0,0.034,0c0,0,0.034-0.034,0.068-0.034c0,0,0.068-0.034,0.034-0.069c0-0.069-0.102-0.171-0.102-0.24s0.034-0.103,0.034-0.171
	c-0.034-0.103-0.136-0.137-0.273-0.103c-0.034,0-0.102,0.034-0.136,0.034c-0.034,0.034-0.034,0.069-0.034,0.103
	c0,0.069,0,0.137,0,0.206s0,0.103-0.034,0.137c0,0.034,0,0.069,0,0.069s0,0-0.034,0.034s-0.068,0.034-0.068,0.069
	c-0.034,0.034-0.068,0.034-0.102,0.069c-0.034,0.034-0.068,0.069-0.102,0.137c-0.068,0.137-0.034,0.48,0.034,0.514
	C1007.275,168.308,1007.343,168.274,1007.377,168.24z"/>
<path id="path44_fill" fill="#5D7282" d="M1003.968,165.189c0.034,0.069,0.034,0.069,0.034,0.103
	c0.068,0.103,0.17,0.206,0.239,0.206c0.034-0.034,0.102-0.103,0.102-0.137c0.034-0.034,0.034-0.069,0.068-0.103
	c0-0.034,0.034-0.069,0.068-0.069c0.068,0,0.17,0.034,0.238,0.034c0.068,0,0.102-0.069,0.136-0.069
	c0.034-0.034,0.068-0.103,0.102-0.171c0,0,0.034-0.034,0.034,0c0.068,0.034,0.034,0.103,0.136,0.137
	c0.136,0.034,0.511-0.034,0.647-0.103c0.034,0,0.034-0.034,0.034-0.034c0.034,0,0.034-0.034,0.068-0.069
	c0.034-0.034,0.068-0.206,0.034-0.274c-0.102-0.24-0.307,0.034-0.477,0.034c-0.102,0-0.204-0.171-0.341-0.206
	c-0.17-0.034-0.273,0.24-0.375,0.206c-0.136-0.034-0.068-0.206-0.136-0.309c-0.034-0.069-0.136-0.069-0.239-0.034
	c0,0-0.068,0.034-0.136,0.069c-0.068,0.034-0.136,0.137-0.136,0.171c-0.034,0.103,0,0.206,0.068,0.274c0,0,0.068,0.069,0,0.069
	c-0.034,0-0.068,0.034-0.102,0.034c0,0,0,0-0.034,0c0,0-0.034,0-0.034,0.034l-0.034,0.034c0,0,0,0-0.034,0.034c0,0,0,0,0,0.034
	c0,0,0,0,0,0.034C1003.968,165.154,1003.968,165.154,1003.968,165.189z"/>
<path id="path45_fill" fill="#5D7282" d="M1003.056,167.725C1003.09,167.725,1003.09,167.725,1003.056,167.725
	c0.034,0,0.068,0,0.102,0c0.068,0,0.102,0,0.17-0.034c0,0,0,0,0.034,0c0,0,0-0.034,0.034-0.034v-0.034
	c0.034-0.274-0.307-0.514-0.545-0.446c0,0-0.068,0.034-0.136,0.069c-0.034,0.034,0,0.137,0,0.137s0.034,0.034,0.034,0.069
	c0.068,0.069,0.17,0.206,0.273,0.24C1003.022,167.725,1003.022,167.725,1003.056,167.725z"/>
<path id="path46_fill" fill="#5D7282" d="M1003.428,165.772C1003.428,165.772,1003.428,165.806,1003.428,165.772
	c0,0.034,0,0.034,0,0.034v0.034c0.034,0.034,0.034,0.034,0.034,0.034c0.068,0.034,0.17,0.069,0.239,0.069c0,0,0,0,0.034,0
	c0,0,0,0,0-0.034c0.034-0.069,0.034-0.069,0.068-0.137c0.034-0.034,0.068-0.137,0.034-0.206c-0.068-0.103-0.307-0.034-0.409,0.069
	c-0.034,0-0.068,0.034-0.068,0.103C1003.428,165.737,1003.428,165.772,1003.428,165.772z"/>
<path id="path47_fill" fill="#5D7282" d="M1003.701,166.389c0-0.171-0.273-0.24-0.375-0.171c0,0,0,0-0.034,0
	c-0.068,0.034-0.102,0.103-0.136,0.171c-0.068,0.206,0.102,0.583,0.204,0.651c0.034,0.034,0.102,0.034,0.17,0.034
	c0.034,0,0.068-0.034,0.102-0.069c0,0,0,0,0-0.034c0.068-0.171-0.102-0.24-0.068-0.377
	C1003.599,166.492,1003.701,166.492,1003.701,166.389z"/>
<path id="path48_fill" fill="#5D7282" d="M1004.347,168.206C1004.381,168.206,1004.381,168.206,1004.347,168.206
	c0.068-0.103,0.068-0.103,0.102-0.137c0.136-0.206-0.273-0.514-0.375-0.549c-0.034,0-0.068,0-0.068,0s-0.068,0-0.102,0.034
	c-0.034,0-0.034,0.034-0.034,0.034c0,0.034,0.034,0.171,0.034,0.171c0.034,0.171,0.068,0.343,0.204,0.411
	c0,0,0.102,0.034,0.17,0.034C1004.245,168.24,1004.313,168.24,1004.347,168.206z"/>
<path id="path49_fill" fill="#5D7282" d="M1004.549,165.806c0,0-0.068,0.034-0.136,0.137c0,0,0,0,0,0.034
	c-0.068,0.103-0.102,0.343-0.102,0.446c0,0.137,0.034,0.206,0.136,0.309c0,0,0.034,0,0.068,0.034c0,0,0,0,0.034,0h0.034
	c0.034,0,0.068,0,0.068-0.034c0,0,0,0,0.034-0.034c0.034-0.069,0.034-0.137,0.034-0.137c0.034-0.137,0.034-0.274,0.068-0.377
	c0,0,0-0.034,0.034-0.034c0.034-0.034,0.068-0.069,0.102-0.069s0.034-0.034,0.034-0.034
	C1005.196,165.84,1004.787,165.703,1004.549,165.806z"/>
<path id="path50_fill" fill="#5D7282" d="M1006.259,165.565c0.034,0,0.068,0,0.068,0s0.034,0,0.068,0s0.068-0.034,0.068-0.103
	c0-0.034,0-0.034,0-0.034c-0.034-0.137-0.273-0.206-0.443-0.171c-0.034,0-0.102,0-0.136,0.069
	C1005.782,165.497,1006.021,165.565,1006.259,165.565z"/>
<path id="path51_fill" fill="#5D7282" d="M997.502,171.977C997.502,172.011,997.502,172.011,997.502,171.977
	c-0.034,0.034-0.068,0.034-0.068,0.034c-0.034,0.034-0.034,0.069-0.034,0.137c0,0.171,0.17,0.377,0.375,0.309
	c0,0,0.034,0,0.273-0.171c0,0,0.034-0.034,0.068-0.069c0,0,0.034-0.034,0.034-0.069c0,0,0,0,0-0.034v-0.034
	c0-0.103-0.034-0.206-0.102-0.24C998.013,171.84,997.672,171.909,997.502,171.977z"/>
<path id="path52_fill" fill="#5D7282" d="M1011.397,169.646c-0.034-0.206-0.17-0.446-0.341-0.377h-0.034
	c0,0-0.068,0.034-0.102,0.069c-0.034,0.034-0.034,0.069-0.034,0.103c-0.034,0.034-0.102,0.069-0.136,0.137c0,0.034,0,0.034,0,0.069
	c0.068,0.069,0.239,0.171,0.375,0.171c0.034,0,0.102,0,0.136,0h0.034c0,0,0,0,0.034,0
	C1011.397,169.749,1011.397,169.68,1011.397,169.646z"/>
<path id="path53_fill" fill="#5D7282" d="M1009.904,167.795c0.102,0.24,0.579,0.103,0.716,0.274
	c0.102,0.137,0.102,0.274,0.136,0.411c0.068,0.171,0.136,0.411,0.239,0.48c0.034,0.034,0.17,0.103,0.273,0.103c0,0,0,0,0.034,0
	c0,0,0,0,0.034,0c0.034,0,0.068-0.069,0.068-0.137c0,0,0,0,0-0.034c0-0.103-0.136-0.206-0.136-0.343c0-0.103,0.068-0.171,0.068-0.24
	c0-0.034-0.102-0.103-0.17-0.171c-0.102-0.103-0.136-0.171-0.17-0.24c-0.204-0.206-0.477-0.274-0.75-0.24c0,0-0.136,0-0.239,0
	C1009.87,167.657,1009.904,167.76,1009.904,167.795z"/>
<path id="path54_fill" fill="#5D7282" d="M1012.631,171.051h0.034h0.034c0,0,0.034,0,0.102,0c0.034,0,0.034,0,0.068-0.034h0.034
	c0,0,0.034-0.034,0.034-0.069c0,0,0,0,0-0.034c-0.034-0.171-0.341-0.411-0.409-0.309
	C1012.427,170.811,1012.495,170.983,1012.631,171.051z"/>
<path id="path55_fill" fill="#5D7282" d="M1010.825,176.262c-0.102,0.137-0.034,0.343,0.239,0.583s0.477,0.274,0.613,0.137
	s0-0.343-0.239-0.583C1011.166,176.194,1010.961,176.125,1010.825,176.262z"/>
<path id="path56_fill" fill="#5D7282" d="M1007.277,166.457c0.034,0,0.034-0.034,0.034-0.034c0.068-0.069,0.068-0.069,0.068-0.103
	c0.068-0.103,0.068-0.171,0.068-0.171v-0.034c-0.034-0.171-0.17-0.343-0.239-0.377c-0.068-0.034-0.204,0-0.273,0
	c-0.034,0-0.068,0.034-0.136,0.103c0,0,0,0-0.034,0.034c-0.034,0.034-0.034,0.137,0,0.206c0,0.034,0.136,0.103,0.204,0.171
	c0.102,0.137,0.068,0.171,0.136,0.206C1007.174,166.492,1007.208,166.492,1007.277,166.457z"/>
<path id="path57_fill" fill="#5D7282" d="M1008.741,178.663c-0.136,0.103-0.136,0.24-0.102,0.343
	c0.068,0.137,0.204,0.206,0.341,0.103c0.136-0.069,0.204-0.206,0.136-0.343C1009.082,178.629,1008.946,178.629,1008.741,178.663z"/>
<path id="path58_fill" fill="#5D7282" d="M1008.813,178.182c-0.034-0.103-0.17-0.171-0.307-0.103s-0.17,0.206-0.102,0.309
	c0.068,0.137,0.17,0.137,0.341,0.103C1008.813,178.422,1008.881,178.32,1008.813,178.182z"/>
<path id="path59_fill" fill="#5D7282" d="M1008.713,167.932c-0.034,0-0.068,0.034-0.068,0v-0.034
	c0.034-0.137-0.068-0.309-0.17-0.309c0,0-0.068,0-0.17,0.137c-0.034,0.034-0.034,0.069-0.068,0.103c0,0.034-0.034,0.137-0.102,0.171
	c-0.034,0.034-0.068,0.069-0.136,0.103c0,0,0,0-0.034,0.034c-0.102,0.069-0.068,0.206-0.068,0.274s-0.034,0.171,0,0.24
	c0,0,0,0,0,0.034c0,0,0,0,0.034,0.034h0.034c0.034,0,0.034,0,0.068,0s0.034,0,0.034-0.034c0.034-0.034,0.068-0.103,0.102-0.171
	c0.068-0.069,0.102-0.103,0.204-0.069c0.034,0,0.102,0,0.102,0c0.239,0.034,0.239-0.069,0.375-0.171
	c0.17-0.103,0.341-0.137,0.511-0.171c0,0,0,0,0.034,0c0,0,0.136-0.034,0.204-0.103v-0.034c0,0,0-0.034,0-0.103
	C1009.633,167.692,1008.985,167.829,1008.713,167.932z"/>
<path id="path60_fill" fill="#5D7282" d="M1008.065,169.577c0.034,0,0.068,0,0.068-0.034h0.034c0.068-0.034,0.102-0.069,0.136-0.171
	c0.034-0.034,0.034-0.034,0.034-0.069c0.034-0.069,0.034-0.103,0.034-0.103c0.068-0.274-0.17-0.343-0.341-0.24c0,0,0,0-0.034,0.034
	s-0.102,0.137-0.136,0.206v0.034c0,0,0,0,0,0.034v0.034v0.034v0.034v0.034c0,0.069,0,0.103,0.034,0.137
	C1007.894,169.577,1007.962,169.577,1008.065,169.577C1008.03,169.611,1008.03,169.611,1008.065,169.577z"/>
<path id="path61_fill" fill="#5D7282" d="M1009.184,169.235c0.034,0.034,0.102,0.034,0.136,0.034
	c0.136-0.034,0.204-0.206,0.204-0.206c0.068-0.137,0.17-0.274,0.068-0.446c-0.034-0.069-0.102-0.069-0.204-0.069c0,0,0,0-0.034,0
	c-0.034,0-0.068,0.034-0.136,0.103c0,0-0.034,0.034-0.034,0.069c0,0-0.034,0.034-0.034,0.069c0,0,0,0,0,0.034v0.034c0,0,0,0,0,0.034
	c-0.034,0.137-0.068,0.274,0,0.343C1009.149,169.2,1009.149,169.235,1009.184,169.235
	C1009.149,169.235,1009.184,169.235,1009.184,169.235z"/>
<path id="path62_fill" fill="#5D7282" d="M1009.592,170.4c0,0.034,0.034,0.034,0.034,0.034s0,0,0.034,0s0.034,0,0.068,0
	c0.17,0,0.17-0.137,0.239-0.171c0.17-0.137,0.273-0.069,0.341-0.171c0.068-0.069,0.204-0.274,0.17-0.377
	c-0.034-0.069-0.136-0.069-0.238-0.069c-0.068,0-0.239,0.034-0.341,0.137C1009.762,169.955,1009.524,170.263,1009.592,170.4z"/>
<path id="path63_fill" fill="#5D7282" d="M1011.398,171.463c-0.034,0-0.068,0-0.068,0.034s0,0.069,0,0.069
	c0.034,0.171,0.136,0.309,0.204,0.343c0.034,0,0.034,0,0.068,0c0,0,0.034,0,0.102-0.034c0,0,0,0,0.034,0l0.034-0.034
	C1011.841,171.669,1011.603,171.463,1011.398,171.463C1011.432,171.463,1011.432,171.463,1011.398,171.463z"/>
<path id="path64_fill" fill="#5D7282" d="M1010.514,168.514c-0.034-0.069-0.17-0.274-0.273-0.24c0,0,0,0-0.034,0
	c-0.034,0.034-0.034,0.069-0.034,0.103c0,0.137,0.068,0.343-0.034,0.48c-0.068,0.069-0.102,0.034-0.136,0.103
	c-0.034,0.171,0.204,0.137,0.375,0.137h0.034c0.034,0,0.136,0,0.136-0.206v-0.034c0,0,0,0,0-0.034
	C1010.583,168.754,1010.548,168.617,1010.514,168.514z"/>
<path id="path65_fill" fill="#5D7282" d="M998.964,171.463C998.998,171.463,998.998,171.497,998.964,171.463
	c0.034,0.034,0.034,0.034,0.034,0.034h0.034c0.034,0,0.034,0,0.034,0h0.034c0.034,0,0.034,0,0.068-0.034
	c0-0.377,0.375-0.549,0.443-0.789c0.034-0.171-0.034-0.617-0.273-0.514c-0.034,0.034-0.034,0.034-0.034,0.034s0.034,0.069,0,0.171
	c-0.034,0.137-0.034,0.206-0.102,0.343c-0.034,0.069-0.068,0.137-0.239,0.24c-0.068,0.069-0.068,0.103-0.068,0.137
	C998.895,171.189,998.861,171.326,998.964,171.463z"/>
<path id="path66_fill" fill="#5D7282" d="M1009.763,172.354c-0.068,0.034-0.17,0.034-0.238,0.034c0,0-0.136,0-0.204,0.103
	c0,0,0,0,0,0.034c0,0.034,0,0.069,0.034,0.103c0.034,0.103,0.307,0,0.511,0.103c0.136,0.069,0.102,0.137,0.204,0.171
	c0,0,0.034,0,0.068,0c0,0,0,0,0.034,0c0.034,0,0.068-0.034,0.102-0.137c0.068-0.103,0.102-0.24,0.068-0.377
	C1010.308,172.183,1010.002,172.286,1009.763,172.354z"/>
<path id="path67_fill" fill="#5D7282" d="M1009.357,172.046c0.034,0,0.068-0.034,0.102-0.034c0.068-0.034,0.136-0.137,0.17-0.206
	c0.034-0.069,0.068-0.171,0-0.24c-0.034-0.069-0.102-0.034-0.17-0.034c-0.034,0-0.17,0.069-0.273,0.137
	c-0.034,0.034-0.136,0.137-0.136,0.206c0,0,0,0,0,0.034c0,0,0,0,0,0.034c0,0,0,0,0,0.034s0,0.069,0,0.069
	c0.034,0.069,0.136,0.069,0.239,0.034c0,0,0,0,0.034,0C1009.323,172.08,1009.357,172.08,1009.357,172.046z"/>
<path id="path68_fill" fill="#5D7282" d="M1008.643,170.297c-0.136-0.069-0.204-0.206-0.443-0.24c-0.17-0.034-0.477,0-0.647,0.103
	c-0.068,0.034-0.102,0.171-0.17,0.24c-0.034,0.034-0.17,0.069-0.17,0.103s0.034,0.137,0.034,0.137s-0.102,0.034-0.17,0.069
	c-0.136,0.103-0.238,0.24-0.341,0.343c-0.034,0.069-0.204,0.137-0.17,0.171c0.034,0.24,0.239,0.103,0.477,0.069
	c0.136-0.034,0.341,0,0.409-0.069c0.068-0.034,0.034-0.206,0.068-0.343c0-0.034,0.034-0.103,0.068-0.137
	c0.068-0.069,0.204-0.034,0.409-0.069c0-0.069,0.068-0.171,0.136-0.274c0,0,0-0.034,0.034-0.034
	c0.102,0.171,0.136,0.343,0.443,0.309c0,0,0.034,0,0.102-0.034c0,0,0,0,0.034,0c0.034,0,0.034,0,0.068-0.034
	c0.034,0,0.034-0.034,0.068-0.034c0.068-0.069,0.102-0.206,0.068-0.309C1008.847,170.297,1008.711,170.331,1008.643,170.297z"/>
<path id="path69_fill" fill="#5D7282" d="M1009.283,169.989c0.034-0.034,0.102-0.137,0.102-0.137
	c0.204-0.377-0.204-0.274-0.477-0.137c0,0-0.239,0.069-0.239,0.171c0,0.034,0,0.034,0,0.069s0.034,0.069,0.068,0.069
	c0.068,0.034,0.17,0.069,0.238,0.069h0.034C1009.045,170.092,1009.181,170.126,1009.283,169.989z"/>
<path id="path70_fill" fill="#5D7282" d="M1007.076,169.097c0-0.103,0-0.206-0.034-0.24c-0.034-0.034-0.17,0-0.307,0.069h-0.034
	c-0.034,0-0.068,0.034-0.068,0.034s0,0-0.034,0c0,0,0,0-0.034,0c-0.034,0.034-0.068,0.069-0.068,0.103
	c0.034,0.069,0.034,0.24,0.034,0.343c0,0.069-0.136,0.103-0.136,0.103c-0.136,0.069-0.341,0.137-0.341,0.206
	c-0.068,0.137,0,0.171-0.068,0.309c-0.034,0.034-0.136,0.103-0.239,0.171c-0.034,0.034-0.102,0.103-0.102,0.137
	c0,0.24-0.136,0.549,0.068,0.617h0.034h0.034c0.034,0,0.034-0.034,0.068-0.034c0.102-0.103,0.307-0.274,0.409-0.411
	c0.034-0.034,0-0.069,0.034-0.103c0.034-0.034,0.102-0.069,0.136-0.137c0.068-0.103,0-0.24,0.068-0.343
	c0.034-0.034,0.136-0.069,0.17-0.103C1006.871,169.715,1007.042,169.337,1007.076,169.097z"/>
<path id="path71_fill" fill="#5D7282" d="M1008.329,171.977c0.034-0.069,0.034-0.137,0.034-0.137c0-0.24-0.273-0.514-0.443-0.411
	c0,0-0.068,0.034-0.17,0.171c0,0.034,0,0.103,0,0.103c0.068,0.137,0.273,0.343,0.341,0.343h0.034
	C1008.125,172.045,1008.227,172.08,1008.329,171.977z"/>
<path id="path72_fill" fill="#5D7282" d="M1008.571,172.354c-0.034,0-0.136,0.034-0.204,0.069c0,0,0,0-0.034,0.034
	s-0.102,0.103-0.102,0.171c0,0,0,0,0,0.034c0,0,0,0,0,0.034c0.068,0.069,0.17,0.103,0.273,0.103c0,0,0,0,0.034,0
	c0.034,0,0.102-0.034,0.17-0.137c0.034-0.034,0.068-0.069,0.068-0.069c0.034-0.069,0.034-0.137,0-0.206
	C1008.741,172.354,1008.673,172.354,1008.571,172.354z"/>
<path id="path73_fill" fill="#5D7282" d="M1004.622,170.812c0,0,0.034,0,0.034,0.034c0.034,0.034,0.102,0.034,0.136,0.069
	c0.068,0,0.102,0.034,0.136-0.137v-0.034c0,0,0,0,0-0.034s0-0.069,0-0.103c0.034-0.274,0.102-0.583,0.17-0.72
	c0,0,0-0.034,0.034-0.034l0.034-0.034c0-0.034,0.034-0.034,0.034-0.069c0,0,0,0,0.034-0.034v-0.034c0-0.034,0-0.034,0-0.069
	c0,0,0,0,0-0.034c0-0.171-0.17-0.274-0.239-0.48c-0.068-0.206,0.034-0.514-0.068-0.617c-0.136-0.103-0.239,0.034-0.273,0.137
	c0,0,0,0,0,0.034s-0.034,0.069-0.034,0.069s0,0.034-0.034,0.034c0,0,0,0,0,0.034l-0.034,0.034h-0.034c0,0-0.034,0-0.034,0.034
	c-0.102,0.034-0.239,0.034-0.273,0.103c0,0.034,0,0.034,0,0.034c-0.068,0.274,0.204,0.206,0.307,0.343
	c0.034,0.034,0.034,0.137,0.034,0.206c0,0.034-0.034,0.069-0.034,0.069c-0.034,0.034-0.068,0.103-0.068,0.103
	c-0.034,0.103,0,0.171,0.034,0.24s0,0.103-0.068,0.137c-0.136,0.069-0.409-0.206-0.511-0.274c-0.204-0.137-0.443-0.446-0.716-0.446
	c-0.068,0-0.102,0.069-0.17,0.103h-0.034c0,0-0.068,0.034-0.102,0.034h-0.034c-0.034,0-0.034,0-0.068,0
	c-0.068,0-0.102,0.069-0.102,0.103c0,0.034,0,0.034,0.034,0.069c0,0,0,0.034,0.034,0.069c0,0,0,0,0.034,0c0,0,0.034,0,0.034,0.034
	c0.034,0,0.034,0,0.068,0.034c0.034,0,0.068,0,0.102,0.034h0.034h0.034c0,0,0,0,0.034,0c0.034,0,0.034,0,0.068,0.034h0.034
	c0.136,0.069,0.204,0.24,0.341,0.309c0.102,0.034,0.204,0.034,0.307,0.103c0.068,0.034,0.17,0.137,0.273,0.206
	C1004.384,170.64,1004.486,170.743,1004.622,170.812z"/>
<path id="path74_fill" fill="#5D7282" d="M1005.268,161.52c-5.52,0-10.018,4.526-10.018,10.08s4.498,10.08,10.018,10.08
	c5.52,0,10.018-4.526,10.018-10.08C1015.286,166.011,1010.822,161.52,1005.268,161.52z M999.441,176.606
	c0.068,0.24,0.068,0.411-0.102,0.549c-0.17,0.137-0.409,0.137-0.613-0.103c-0.102-0.103-0.136-0.24-0.17-0.343l0.136-0.069
	c0,0.103,0.068,0.206,0.136,0.309c0.102,0.137,0.273,0.171,0.375,0.068c0.102-0.068,0.102-0.206,0.034-0.377
	c-0.102-0.24-0.102-0.411,0.068-0.549c0.17-0.137,0.409-0.103,0.579,0.103c0.102,0.103,0.136,0.206,0.136,0.274l-0.136,0.069
	c0-0.069-0.034-0.137-0.136-0.24c-0.136-0.137-0.273-0.137-0.341-0.068C999.373,176.297,999.373,176.4,999.441,176.606z
	 M999.714,178.011l0.92-1.063l0.136,0.103l-0.92,1.063L999.714,178.011z M1001.554,179.28l-0.17-0.103l-0.034-0.857
	c0-0.171,0-0.377,0-0.549c-0.068,0.171-0.17,0.309-0.273,0.514l-0.307,0.514l-0.136-0.069l0.682-1.234l0.17,0.103l0.034,0.857
	c0,0.206,0,0.377,0,0.514c0.068-0.171,0.17-0.309,0.273-0.514l0.307-0.514l0.136,0.068L1001.554,179.28z M1003.734,178.731
	c-0.068-0.034-0.136-0.103-0.273-0.137c-0.307-0.103-0.579,0.034-0.681,0.411c-0.102,0.343,0.034,0.617,0.341,0.686
	c0.102,0.034,0.204,0.034,0.307,0.034v0.137c-0.068,0-0.204,0-0.375-0.034c-0.375-0.103-0.579-0.446-0.477-0.891
	c0.136-0.411,0.477-0.617,0.92-0.514c0.17,0.034,0.273,0.103,0.307,0.171L1003.734,178.731z M1005.131,178.869l-0.579-0.034
	l-0.034,0.446l0.545,0.034v0.137l-0.545-0.034l-0.034,0.514l0.613,0.034v0.137l-0.784-0.069l0.102-1.406l0.75,0.068
	L1005.131,178.869z M1007.414,179.829l-0.307-1.132l-0.204,0.172l-0.068-0.137l0.239-0.24l0.136-0.034l0.341,1.303L1007.414,179.829
	z M1009.084,179.246c-0.238,0.137-0.477,0.069-0.579-0.137c-0.068-0.137-0.034-0.309,0.068-0.446c-0.17,0-0.273-0.069-0.341-0.171
	c-0.102-0.206,0-0.411,0.204-0.514c0.239-0.103,0.409-0.034,0.511,0.137c0.034,0.103,0.068,0.24-0.068,0.377
	c0.17,0,0.341,0.034,0.409,0.206C1009.425,178.903,1009.289,179.143,1009.084,179.246z M1010.174,178.56l-0.068-0.103l0.034-0.206
	c0.068-0.48,0.068-0.72-0.034-0.857c-0.102-0.103-0.204-0.171-0.375-0.034c-0.102,0.069-0.136,0.206-0.17,0.274l-0.136-0.069
	c0.034-0.137,0.102-0.24,0.204-0.343c0.238-0.171,0.443-0.103,0.579,0.069c0.17,0.206,0.136,0.48,0.068,0.857l-0.034,0.137
	l0.477-0.377l0.102,0.103L1010.174,178.56z M1011.776,177.086c-0.17,0.206-0.477,0.171-0.818-0.103
	c-0.341-0.309-0.409-0.617-0.239-0.823s0.477-0.171,0.818,0.103C1011.878,176.571,1011.98,176.88,1011.776,177.086z
	 M1013.65,173.006c-0.102,0.034-0.068,0.137-0.204,0.206c-0.068,0.069-0.579,0.137-0.716,0.137
	c-0.068-0.034-0.102-0.137-0.204-0.171c-0.034,0-0.068,0.069-0.102,0.069c0.068,0.034,0.068,0.137,0.068,0.171
	c-0.102,0.172-0.307,0.137-0.511,0.172c-0.17,0.034-0.443,0.137-0.613,0.068c-0.205-0.068-0.273-0.343-0.477-0.377
	c-0.409-0.069-0.409,0.549-0.954,0.446c-0.136-0.034-0.239-0.171-0.375-0.206c-0.17-0.034-0.273,0.137-0.409,0.137
	c-0.205,0-0.273-0.206-0.409-0.274c-0.375-0.103-0.716,0.206-1.056,0c-0.239-0.137-0.307-0.446-0.409-0.72
	c-0.034-0.069-0.068-0.103-0.136-0.171c-0.273-0.137-0.273,0.309-0.273,0.377c0,0.24,0.034,0.514,0.068,0.788
	c0.068,0.377,0.204,0.686,0.409,0.857c0.204,0.137,0.477,0.206,0.681,0.309c0.102,0.068,0.238,0.103,0.341,0.171
	c0.102,0.069,0.204,0.206,0.238,0.343c-0.136,0.069-0.443,0.069-0.716,0.034c-0.341,0-0.681,0.034-0.92,0c0,0,0,0-0.034,0h-0.034
	h-0.034c-0.034,0-0.034,0-0.034,0.034c0,0,0,0,0.034,0.034c0.102,0.137,0.136,0.411,0.068,0.549c0,0.034,0,0.068-0.034,0.103
	c-0.102,0.069-0.647-0.274-0.75-0.309c-0.784-0.274-1.567-0.171-2.215,0.171c-0.136,0.069-0.409,0.274-0.443-0.034
	c-0.034-0.171,0.136-0.48,0.102-0.514c-0.068-0.034-0.239-0.034-0.375-0.034c-0.204,0-0.613,0-0.886,0
	c-0.204,0-0.443,0.034-0.511-0.034c0-0.034,0-0.068,0.034-0.103V175.2c0.034-0.103,0.239-0.24,0.375-0.343
	c0,0,0.034-0.034,0.068-0.034c0.034-0.034,0.068-0.034,0.068-0.034l0.102,0.068l0.034-0.034c0.102-0.034,0.204-0.103,0.239-0.103
	c0.136-0.069,0.409-0.171,0.545-0.24c0.034-0.034,0.068-0.069,0.068-0.069c0.034-0.034,0.068-0.103,0.068-0.137
	c0.102-0.309,0.17-0.823,0.17-1.2c0-0.137,0.034-0.514-0.034-0.549c-0.136-0.069-0.307,0.103-0.477,0.103
	c0.034,0.034,0.068,0.103,0.136,0.206c0.034,0.069,0,0.137,0,0.171s-0.034,0.069-0.068,0.103c-0.204,0.343-0.647,0.446-1.124,0.411
	c-0.034,0-0.102,0-0.136,0c-0.034,0-0.068,0-0.102,0c0,0,0,0-0.034,0s-0.034,0-0.068,0.034c0,0-0.034,0-0.034,0.034
	c-0.034,0.068-0.068,0.137-0.102,0.171c0,0,0,0,0,0.034l-0.034,0.034l-0.034,0.034c-0.034,0.034-0.102,0.068-0.136,0.068
	s-0.068,0-0.068,0c-0.17,0-0.375-0.103-0.545-0.068c-0.204,0.034-0.307,0.137-0.511,0.068c-0.136-0.034-0.239-0.274-0.375-0.274
	c-0.102,0-0.136,0.103-0.239,0.137c-0.17,0.069-0.545,0.069-0.75,0c-0.068-0.034-0.136-0.171-0.239-0.206
	c-0.068,0-0.136,0.034-0.204,0c-0.102-0.034-0.102-0.206-0.102-0.343c0-0.103,0.068-0.206,0.034-0.24
	c-0.068-0.171-0.307,0-0.375,0.034c-0.102,0.069-0.238,0.206-0.341,0.206c-0.204,0.034-0.409-0.103-0.511-0.103
	c-0.068,0-0.136,0.137-0.239,0.171c-0.273,0.034-0.613-0.103-0.579-0.274c0-0.103,0.17-0.171,0.17-0.24
	c0-0.103-0.102-0.206-0.102-0.309c0-0.137,0.204-0.171,0.273-0.343c0.034-0.069,0.034-0.103,0.034-0.137
	c0-0.034,0-0.103,0.034-0.137c0.136-0.103,0.375,0,0.443-0.069v-0.034c0-0.034-0.034-0.034-0.034-0.034
	c-0.102-0.068-0.273-0.034-0.307-0.171c-0.034-0.103,0.102-0.171,0.136-0.309c0.068-0.137,0.034-0.206,0.17-0.309l0.034-0.034
	c0.068-0.069,0.136-0.103,0.17-0.137h0.034h0.034c0.034,0,0.034,0,0.034,0s0,0,0.034,0c0.034,0,0.034,0.034,0.068,0.034
	c0.068,0.034,0.136,0.103,0.17,0.206c0,0,0.034,0.034,0.034,0.069c0.068,0.069,0.034-0.137,0.034-0.137v-0.069l0.852-0.034
	c0-0.034,0-0.069,0.034-0.103c0.068-0.069,0.204,0,0.17-0.171c-0.034-0.171-0.579-0.171-0.647-0.343
	c-0.034-0.137,0.034-0.549,0.136-0.651c0.102-0.137,0.341,0.034,0.307-0.103c-0.068-0.103-0.17-0.206-0.17-0.24
	c-0.034-0.069,0-0.171,0-0.24c-0.034-0.103-0.136-0.137-0.136-0.24c0-0.137,0.068-0.206,0.136-0.309
	c0.034-0.103,0.204-0.171,0.307-0.137c0.068-0.069,0-0.446,0.102-0.583c0.068-0.069,0.136-0.103,0.239-0.137
	c0.068-0.034,0.136-0.034,0.204-0.069c0.102-0.034,0.17-0.103,0.273-0.137c0.068-0.034,0.204-0.034,0.239-0.034
	c0.068-0.034,0.102-0.034,0.17-0.034c0.17,0,0.102,0.103,0.204,0.309c0,0.034,0.034,0.034,0.068,0.103c0.034,0,0.034-0.034,0-0.069
	v-0.034v-0.034c-0.034-0.103-0.034-0.24-0.034-0.309c0.034-0.103,0.136-0.206,0.204-0.24l0.034-0.034
	c0.068-0.034,0.136-0.069,0.204-0.103c0.068-0.069,0.068-0.137,0.238-0.24c0.068-0.034,0.136-0.034,0.17-0.069
	c0.239-0.069,0.204,0.069,0.341,0.206c0,0,0.034,0,0.068,0.034h0.034c0.034,0,0.068-0.034,0.068-0.034
	c0.068-0.103,0.034-0.309,0-0.48c-0.034-0.171-0.17-0.343-0.17-0.48c0.034-0.171,0.273-0.24,0.341-0.377
	c0.034-0.103,0.068-0.171,0.068-0.24c0,0,0-0.034,0.034-0.069c0,0,0,0,0.034-0.034c0.034-0.034,0.068-0.034,0.102-0.034
	c0.102-0.034,0.239-0.034,0.341-0.034h0.034c0.034,0,0.034-0.034,0.068-0.069c0.034-0.103,0.068-0.24,0.17-0.274
	c0.068-0.069,0.307-0.137,0.375-0.137c0.068-0.034,0.068-0.137,0.17-0.206c0.136-0.103,0.409,0,0.511-0.069
	c0.102-0.103,0.273-0.206,0.375-0.206s0.341,0,0.443,0.069c0.034-0.103,0.204-0.24,0.443-0.206c0.102,0.034,0.17,0.103,0.204,0.137
	c0.102,0.034,0.102-0.24,0.341-0.309c0.034,0,0.17-0.069,0.443,0.034c0.204,0.069,0.204-0.069,0.341-0.069c0,0,0,0,0.034,0
	c0.034,0,0.034,0,0.068,0.034c0.136,0.069,0.273,0.24,0.375,0.446c0.034,0.103,0.273,0.377,0.375,0.411
	c0.102,0.034,0.204,0.034,0.273,0.034c0.102,0,0.17,0.069,0.273,0.103c0.034,0,0.068,0,0.102,0c0.102-0.103,0.102-0.171,0.17-0.274
	c0.068-0.034,0.102-0.069,0.136-0.034c0.034,0,0.102,0.034,0.136,0.034c0.17,0.069,0.375,0.171,0.511,0.274
	c0.136,0.103,0.238,0.171,0.273,0.274c0,0.069,0,0.206,0,0.274c0,0.137,0.068,0.206,0.136,0.377
	c0.034,0.103,0.068,0.206,0.102,0.309c0.102,0.206,0.239,0.24,0.307,0.377c0.034,0.137,0,0.309,0.102,0.377
	c0.102,0.069,0.238,0.034,0.375,0.103c0.068,0,0.204,0.069,0.17,0.274c-0.068,0.24-0.136,0.343-0.136,0.377s0.034,0.034,0.068,0.034
	c0.102,0,0.239-0.069,0.273-0.069c0.273-0.034,0.443,0.343,0.716,0.446c0.307,0.171,0.613,0.171,0.75,0.377
	c0.034,0.034,0.068,0.103,0.068,0.171v0.034c0.034,0.171,0.034,0.343,0,0.411c-0.068,0.137-0.205,0.206-0.239,0.24
	c-0.068,0.103,0.545,0.309,0.545,0.549c0,0.137-0.102,0.171-0.17,0.309c-0.034,0.103,0.034,0.103,0.034,0.103
	c0.034,0,0.034,0,0.102,0c0.17-0.034,0.307-0.343,0.409-0.034c0.034,0.103-0.034,0.274,0,0.309c0.102,0.274,0.75,0.206,0.647,0.96
	c-0.102,0.411-0.988,0.446-0.988,0.549c0.102,0,0.136,0,0.17,0.034c0.136,0.103,0.068,0.274,0.341,0.206
	c0.102-0.034,0.102-0.137,0.205-0.171c0.102-0.034,0.409,0.069,0.443,0.103c0.034,0.034,0.034,0.069,0.102,0.137
	c0.102,0.137,0.307,0.206,0.375,0.377c0.034,0.069,0.17,0.343,0.136,0.48C1014.127,173.006,1013.82,172.937,1013.65,173.006z"/>
<path id="path75_fill" fill="#5D7282" d="M1012.898,172.491c0,0-0.068,0.034-0.068,0.069v0.034c0,0.069,0,0.069,0,0.069
	c0,0.103,0,0.171,0.102,0.206c0.034,0.034,0.204,0,0.307-0.034c0,0,0,0,0.034-0.034c0.034-0.034,0.034-0.069,0.034-0.069
	s0-0.034,0.034-0.069C1013.341,172.491,1013.069,172.423,1012.898,172.491z"/>
<path id="path76_fill" fill="#5D7282" d="M1010.817,171.977c0.034-0.034,0.068-0.137,0.068-0.171c0-0.274-0.307-0.651-0.613-0.617
	c0,0-0.102,0-0.136,0.034s0,0.069,0,0.069s0,0.034,0.034,0.069c0.034,0.103,0.17,0.103,0.273,0.24
	c0.102,0.171,0.102,0.343,0.204,0.411c0,0,0,0,0.034,0c0.034,0,0.034,0,0.068,0S1010.783,172.011,1010.817,171.977z"/>
<path id="path77_fill" fill="#5D7282" d="M1005.263,160.8c-5.929,0-10.733,4.834-10.733,10.8c0,5.966,4.804,10.8,10.733,10.8
	c5.929,0,10.733-4.834,10.733-10.8C1015.997,165.634,1011.192,160.8,1005.263,160.8z M1005.263,181.989
	c-5.724,0-10.324-4.663-10.324-10.389c0-5.76,4.634-10.389,10.324-10.389c5.724,0,10.324,4.663,10.324,10.389
	C1015.622,177.326,1010.988,181.989,1005.263,181.989z"/>
<path id="path78_fill" fill="#5D7282" d="M1012.018,172.251c-0.204,0-0.341,0.206-0.511,0.206c-0.238,0.034-0.647-0.24-0.681,0.069
	c-0.034,0.274,0.102,0.171,0.273,0.206c0.239,0.034,0.579,0.309,0.75,0.171c0.102-0.034,0.409-0.274,0.443-0.343
	C1012.393,172.388,1012.154,172.251,1012.018,172.251z"/>
<path id="path79_fill" fill="#5D7282" d="M1002.775,166.491c0.068-0.034,0.068-0.103,0.034-0.171
	c-0.034-0.103-0.136-0.206-0.136-0.309l0.102-0.034c0.034-0.069,0.034-0.24-0.034-0.309c-0.034-0.034,0.068-0.069,0.102-0.069
	c0.204-0.069,0.477-0.24,0.511-0.309c0.068-0.103,0.034-0.309-0.034-0.343c-0.102-0.069-0.204,0.034-0.239,0.103
	c0,0.034,0,0.034-0.034,0.069c-0.136,0.206-0.545,0.171-0.647,0.24c-0.034,0.034-0.068,0.103-0.068,0.103
	c-0.034,0.069-0.068,0.171-0.102,0.24c0,0.206,0.204,0.754,0.307,0.823C1002.605,166.526,1002.707,166.526,1002.775,166.491z"/>
<path id="path80_fill" fill="#5D7282" d="M1011.773,170.159c-0.034-0.069,0-0.206-0.068-0.206c-0.034-0.034-0.102-0.034-0.136,0
	c0,0,0,0-0.034,0c0,0-0.034,0-0.034,0.034c-0.034,0.034-0.102,0.069-0.136,0.171c-0.034,0.069-0.034,0.171-0.034,0.24
	c0.068,0.171,0.511,0.24,0.579,0.48c0.034,0.137-0.068,0.206-0.034,0.343c0.034,0.103,0.102,0.103,0.17,0.069
	c0.034,0,0.034-0.034,0.068-0.034c0.034-0.034,0.102-0.069,0.136-0.137c0.034-0.034,0.034-0.069,0.068-0.103
	C1012.42,170.502,1011.875,170.399,1011.773,170.159z"/>
<path id="path81_fill" fill="#5D7282" d="M1003.833,171.155c-0.068-0.034-0.273-0.24-0.443-0.343
	c-0.17-0.069-0.545-0.137-0.613-0.103c-0.068,0.034-0.068,0.069-0.034,0.137c0.034,0.069-0.034,0.103-0.034,0.103
	c-0.034,0.034-0.068,0.069-0.136,0.069c-0.068,0-0.136-0.069-0.204-0.034c-0.102,0.034-0.136,0.206-0.273,0.206
	c-0.136,0-0.17-0.171-0.307-0.206c-0.102-0.034-0.409,0.034-0.443,0.137c-0.034,0.069-0.034,0.103,0,0.137
	c0.034,0.034,0.136,0.103,0.204,0.103c0.136,0.034,0.273,0.103,0.307,0.103c0.068,0.069,0.136,0.103,0.204,0.137
	c0.102,0.034,0.409,0.034,0.443,0c0.034,0,0.034,0,0.068-0.034h0.034c0.068-0.069,0.136-0.206,0.307-0.309
	c0.136-0.034,0.239,0,0.273,0c0.204,0,0.647,0.171,0.818,0.137l0.034-0.034C1004.072,171.223,1003.969,171.223,1003.833,171.155z"/>
<path id="path82_fill" fill="#5D7282" d="M999.368,169.508C999.402,169.508,999.402,169.542,999.368,169.508
	c0.034,0.034,0.034,0.034,0.034,0.069l0.034,0.034h0.034c0.102,0.034,0.136-0.069,0.17-0.103c0.034-0.034,0.068-0.103,0.102-0.137
	c0.034-0.034,0.068-0.103,0.136-0.103c0.034,0,0.068,0,0.068,0c0.034,0,0.068,0,0.102,0h0.034c0.068,0,0.17,0.034,0.273,0.034
	c0.034,0,0.068,0,0.17,0h0.034h0.034c0.068-0.034,0.136-0.069,0.17-0.137l0.034-0.034c0,0,0,0,0-0.034
	c0.034-0.034,0.068-0.069,0.102-0.069c0.068,0,0.204,0,0.375-0.069c0,0,0.136-0.034,0.17-0.069c0,0,0,0,0-0.034
	c0.102-0.24-0.409-0.343-0.681-0.24c-0.17,0.069-0.239,0.309-0.511,0.343c-0.102,0-0.17,0-0.273,0c-0.17,0-0.341,0.069-0.443,0.171
	c0,0-0.17,0.171-0.239,0.274c0,0,0,0,0,0.034s0,0.034,0,0.069C999.334,169.405,999.368,169.474,999.368,169.508z"/>
<path id="path83_fill" fill="#5D7282" d="M999.37,172.56c-0.102-0.137-0.239-0.754-0.613-0.583
	c-0.034,0.034-0.068,0.034-0.068,0.069c-0.034,0.034-0.068,0.069-0.068,0.137v0.034c0.068,0.103,0.307,0.171,0.341,0.24
	c0.068,0.103,0,0.274,0.034,0.377c0.034,0.137,0.273,0.171,0.443,0.171c0.102,0,0.17,0,0.204-0.034c0,0,0.034,0,0.034-0.034v-0.034
	c0.034-0.069,0.034-0.137,0-0.206C999.676,172.663,999.438,172.628,999.37,172.56z"/>
<path id="path84_fill" fill="#5D7282" d="M999.88,169.749C999.88,169.783,999.88,169.783,999.88,169.749c0,0.034,0,0.069,0,0.103
	c0.034,0.137,0.239,0.343,0.443,0.206l0.034-0.034c0.068-0.206-0.204-0.446-0.409-0.377c0,0,0,0-0.034,0c0,0,0,0-0.034,0
	C999.88,169.715,999.88,169.715,999.88,169.749z"/>
<path id="path85_fill" fill="#5D7282" d="M999.749,168.411c0,0,0.17,0.034,0.204,0v-0.034c0.034-0.206-0.204-0.446-0.341-0.446
	c-0.068,0-0.102,0-0.17,0.034c0,0,0,0-0.034,0.034c0,0-0.034,0.034-0.034,0.069c0,0,0,0,0,0.034
	C999.34,168.205,999.511,168.377,999.749,168.411z"/>
<path id="path86_fill" fill="#5D7282" d="M1000.53,168.411c0.136,0.034,0.307-0.034,0.375-0.103
	c0.034-0.034,0.034-0.034,0.068-0.034c0.068-0.034,0.136-0.103,0.204-0.137c0.136-0.034,0.239-0.034,0.341-0.034
	c0,0,0.068,0,0.102,0c0.034,0,0.17-0.103,0.068-0.274c-0.102-0.137-0.239-0.24-0.068-0.309c0.102-0.034,0.204-0.034,0.375-0.034
	c0.102,0,0.17-0.034,0.204-0.069c0.034-0.069,0.034-0.137,0.102-0.206c0,0,0.102-0.034,0.204-0.034c0.068,0,0.102-0.103,0.102-0.103
	c0.068-0.206-0.136-0.309-0.204-0.309c-0.273-0.069-0.307,0.343-0.511,0.343c-0.136,0-0.239-0.103-0.375-0.103
	c-0.068,0-0.204,0.034-0.273,0.103c0,0,0,0-0.034,0.034s-0.034,0.034-0.034,0.069c-0.034,0.034-0.068,0.103-0.068,0.171v0.034v0.034
	c0,0.103,0.034,0.171,0.068,0.206c0,0,0,0,0,0.034s0,0.069-0.068,0.103c-0.068,0.034-0.17,0.103-0.239,0.137
	c-0.068,0-0.17,0-0.204,0s-0.102,0.034-0.136,0.137c0,0.034-0.034,0.069-0.034,0.103
	C1000.36,168.24,1000.428,168.411,1000.53,168.411z"/>
<path id="path87_fill" fill="#5D7282" d="M1000.668,172.354C1000.668,172.354,1000.668,172.388,1000.668,172.354
	c0.034,0.034,0.034,0.034,0.034,0.034h0.034h0.034h0.034c0.034,0,0.034,0,0.034-0.034c0,0,0,0,0.034-0.034
	c0-0.034,0.034-0.034,0.034-0.069c0.068-0.206,0.102-0.72-0.204-0.549c0,0-0.034,0.034-0.034,0.069s-0.034,0.034-0.034,0.034
	s0,0.069,0,0.103s-0.034,0.069-0.034,0.103C1000.6,172.114,1000.6,172.217,1000.668,172.354
	C1000.634,172.354,1000.634,172.32,1000.668,172.354z"/>
<path id="path88_fill" fill="#5D7282" d="M1001.756,172.114c-0.102,0.103-0.068,0.274-0.068,0.343
	c-0.034,0.069-0.102,0.069-0.068,0.171c0.034,0.171,0.307,0.206,0.443,0.103c0.102-0.137,0-0.343,0.068-0.583
	C1002.096,172.011,1001.79,172.045,1001.756,172.114z"/>
<path id="path89_fill" fill="#5D7282" d="M1001.898,170.16c0.034-0.034,0.068-0.137,0.068-0.206c0-0.137-0.17-0.274-0.409-0.24
	c-0.034,0-0.068,0-0.102,0.034c-0.068,0.069-0.068,0.171-0.102,0.24l-0.034,0.034c-0.102,0.069-0.545,0-0.613,0.137
	c-0.034,0.103,0,0.171,0,0.206C1000.841,170.606,1001.557,170.571,1001.898,170.16
	C1001.898,170.194,1001.898,170.194,1001.898,170.16z"/>
<path id="path90_fill" fill="#5D7282" d="M999.442,171.874c-0.102,0.24,0.17,0.48,0.409,0.514h0.034
	c0.068,0,0.068-0.137,0.068-0.137C1000.123,171.908,999.681,171.497,999.442,171.874z"/>
<path id="path91_fill" fill="#5D7282" d="M1000.53,172.663c-0.102,0-0.307,0.069-0.307,0.069c0,0.034,0,0.034,0,0.069
	c-0.034,0.171,0.17,0.309,0.443,0.343h0.034c0.068,0,0.17,0,0.238,0c0.102,0,0.17-0.034,0.273-0.103
	c0.034-0.034,0.034-0.103,0-0.171C1001.178,172.766,1000.769,172.663,1000.53,172.663z"/>
<path id="path92_fill" fill="#5D7282" d="M1000.431,171.463c0.034-0.034,0.068-0.103,0.034-0.206c-0.034-0.24-0.307-0.48-0.341-0.48
	c-0.068,0-0.136,0.034-0.204,0.034c0,0,0,0-0.034,0.034l-0.034,0.034c-0.068,0.103-0.102,0.274-0.068,0.343
	c0,0.206,0.239,0.343,0.375,0.343C1000.192,171.566,1000.363,171.6,1000.431,171.463z"/>
</svg>
