<?xml version="1.0" encoding="utf-8"?>
<!-- Generator: Adobe Illustrator 17.0.0, SVG Export Plug-In . SVG Version: 6.00 Build 0)  -->
<!DOCTYPE svg PUBLIC "-//W3C//DTD SVG 1.1//EN" "http://www.w3.org/Graphics/SVG/1.1/DTD/svg11.dtd">
<svg version="1.1" id="viza" xmlns="http://www.w3.org/2000/svg" xmlns:xlink="http://www.w3.org/1999/xlink" x="0px" y="0px"
	 width="62.381px" height="19.2px" viewBox="604.52 160.8 62.381 19.2" enable-background="new 604.52 160.8 62.381 19.2"
	 xml:space="preserve">
<path id="path1_fill" fill="#0161AB" d="M664.88,178.612c0-0.555,0.453-1.005,1.01-1.005c0.559,0,1.01,0.45,1.01,1.005
	c0,0.555-0.452,1.005-1.01,1.005C665.332,179.617,664.88,179.167,664.88,178.612z M665.89,179.376c0.425,0,0.768-0.342,0.768-0.763
	c0-0.423-0.343-0.764-0.768-0.764c-0.423,0-0.767,0.341-0.767,0.764C665.123,179.034,665.467,179.376,665.89,179.376z
	 M665.754,179.053h-0.207v-0.883h0.375c0.078,0,0.157,0.001,0.227,0.044c0.072,0.05,0.112,0.133,0.112,0.221
	c0,0.101-0.058,0.194-0.153,0.229l0.162,0.389h-0.23l-0.135-0.35h-0.152V179.053z M665.754,178.552h0.114
	c0.043,0,0.089,0.004,0.127-0.016c0.034-0.022,0.052-0.063,0.052-0.103c0-0.032-0.021-0.072-0.05-0.089
	c-0.037-0.021-0.094-0.017-0.133-0.017h-0.11V178.552z"/>
<path id="path2_fill" fill="#0066B2" d="M659.891,179.68h4.485l-3.91-18.548h-3.926c-1.813,0-2.256,1.382-2.256,1.382L647,179.68
	h5.091l1.018-2.755h6.21L659.891,179.68z M654.516,173.12l2.566-6.943l1.444,6.943H654.516z"/>
<path id="path3_fill" fill="#0066B2" d="M647.385,165.592l0.698-3.983c0,0-2.152-0.809-4.393-0.809c-2.424,0-8.18,1.047-8.18,6.14
	c0,4.793,6.757,4.853,6.757,7.368c0,2.517-6.06,2.067-8.061,0.48l-0.725,4.164c0,0,2.18,1.048,5.514,1.048
	c3.332,0,8.362-1.707,8.362-6.35c0-4.823-6.817-5.273-6.817-7.369C640.539,164.184,645.296,164.453,647.385,165.592z"/>
<path id="path4_fill" fill="#0066B2" d="M630.464,179.68h-4.884l3.052-18.548h4.886L630.464,179.68z"/>
<path id="path5_fill" fill="#0066B2" d="M608.459,161.132h3.849c2.119,0,2.316,1.67,2.316,1.67l1.644,8.341v-0.001l0.552,2.748
	l4.656-12.758h5.257l-7.771,18.548h-5.089l-4.242-16.114c-2.756-1.636-5.11-2.12-5.11-2.12l0.09-0.314H608.459h3.849
	c2.119,0,2.316,1.67,2.316,1.67l1.644,8.341c0,0-1.105-3.383-4.498-6.099c-3.549-2.84-7.249-3.598-7.25-3.598l0.09-0.314H608.459z"
	/>
<path id="path6_fill" fill="#F9A533" d="M616.268,171.143l-1.644-8.341c0,0-0.198-1.67-2.316-1.67h-7.698l-0.09,0.314
	c0.001,0,3.701,0.758,7.25,3.598C615.163,167.76,616.268,171.143,616.268,171.143z"/>
</svg>
