<?xml version="1.0" encoding="utf-8"?>
<!-- Generator: Adobe Illustrator 17.0.0, SVG Export Plug-In . SVG Version: 6.00 Build 0)  -->
<!DOCTYPE svg PUBLIC "-//W3C//DTD SVG 1.1//EN" "http://www.w3.org/Graphics/SVG/1.1/DTD/svg11.dtd">
<svg version="1.1" id="what-is-ssl_1_" xmlns="http://www.w3.org/2000/svg" xmlns:xlink="http://www.w3.org/1999/xlink" x="0px"
	 y="0px" width="34px" height="34px" viewBox="1237 152 34 34" enable-background="new 1237 152 34 34" xml:space="preserve">
<path id="path93_fill" fill="#68B745" d="M1254,186c9.389,0,17-7.611,17-17c0-9.389-7.611-17-17-17s-17,7.611-17,17
	C1237,178.389,1244.611,186,1254,186z"/>
<path id="path94_fill" fill="#60AA40" d="M1254,180.907l3.741,4.659c0,0,10.738-1.971,13.026-13.794l-8.183-10.554L1254,180.907z"/>
<path id="path95_fill" fill="#68B745" d="M1259.677,160.266h-5.578h-5.594c0,0-0.852,1.503-2.021,1.637
	c-4.141,14.345,7.598,17.885,7.598,17.902c0,0,11.756-3.54,7.598-17.902C1260.529,161.769,1259.677,160.266,1259.677,160.266z"/>
<path id="path96_fill" fill="#FFFFFF" d="M1262.702,161.552l-0.1-0.351l-0.401-0.05c-0.752-0.083-1.503-1.085-1.703-1.419
	l-0.167-0.284h-12.658l-0.167,0.284c-0.2,0.334-0.935,1.336-1.703,1.419l-0.401,0.05l-0.1,0.351
	c-4.559,15.43,8.4,19.271,8.533,19.304l0.167,0.05l0.167-0.05C1254.319,180.823,1267.228,176.865,1262.702,161.552z
	 M1254.002,179.788c-1.57-0.534-11.372-4.442-7.632-17.668c0.985-0.301,1.687-1.152,2.021-1.62h11.222
	c0.317,0.468,1.035,1.319,2.021,1.62C1265.391,175.346,1255.572,179.253,1254.002,179.788z"/>
<path id="path97_fill" fill="#FFFFFF" d="M1256.859,167.196h-0.384c0-1.67-1.035-2.722-2.472-2.722s-2.472,1.052-2.472,2.722h-0.384
	c-0.568,0-0.768,0.25-0.768,0.835v3.64c0,0.568,0.2,1.219,0.768,1.219h5.711c0.568,0,0.852-0.635,0.852-1.219v-3.64
	C1257.711,167.446,1257.427,167.196,1256.859,167.196z M1254.638,171.705h-1.302l0.25-1.837c-0.25-0.15-0.434-0.468-0.434-0.768
	c0-0.468,0.367-0.852,0.835-0.852c0.468,0,0.835,0.367,0.835,0.818c0,0.317-0.184,0.685-0.451,0.818L1254.638,171.705z
	 M1252.3,167.196c0-1.503,0.852-1.954,1.687-1.954s1.687,0.451,1.687,1.954H1252.3z"/>
</svg>
